{
    "status": "ok",
    "audio_source": "midi",
    "tempo_bpm": 75.0,
    "total_time": 155.07,
    "key_signature": "Unknown",
    "note_count": 1051,
    "note_density": 6.78,
    "notes": [
        {
            "name": "E5",
            "midi": 76,
            "time": 0.0333,
            "duration": 0.1917,
            "velocity": 0.9449,
            "articulation": "normal",
            "pedal": false,
            "chord_id": null
        },
        {
            "name": "D#5",
            "midi": 75,
            "time": 0.2375,
            "duration": 0.1958,
            "velocity": 0.9449,
            "articulation": "normal",
            "pedal": false,
            "chord_id": null
        },
        {
            "name": "E5",
            "midi": 76,
            "time": 0.4333,
            "duration": 0.1917,
            "velocity": 0.9449,
            "articulation": "normal",
            "pedal": false,
            "chord_id": null
        },
        {
            "name": "D#5",
            "midi": 75,
            "time": 0.6333,
            "duration": 0.1917,
            "velocity": 0.9449,
            "articulation": "normal",
            "pedal": false,
            "chord_id": null
        },
        {
            "name": "E5",
            "midi": 76,
            "time": 0.8333,
            "duration": 0.1917,
            "velocity": 0.9449,
            "articulation": "normal",
            "pedal": false,
            "chord_id": null
        },
        {
            "name": "B4",
            "midi": 71,
            "time": 1.0333,
            "duration": 0.1917,
            "velocity": 0.9449,
            "articulation": "normal",
            "pedal": false,
            "chord_id": null
        },
        {
            "name": "D5",
            "midi": 74,
            "time": 1.2375,
            "duration": 0.1958,
            "velocity": 0.9449,
            "articulation": "normal",
            "pedal": false,
            "chord_id": null
        },
        {
            "name": "C5",
            "midi": 72,
            "time": 1.4375,
            "duration": 0.1958,
            "velocity": 0.9449,
            "articulation": "normal",
            "pedal": false,
            "chord_id": null
        },
        {
            "name": "A2",
            "midi": 45,
            "time": 1.6333,
            "duration": 0.1917,
            "velocity": 0.9449,
            "articulation": "normal",
            "pedal": false,
            "chord_id": null
        },
        {
            "name": "A4",
            "midi": 69,
            "time": 1.6333,
            "duration": 0.3917,
            "velocity": 0.9449,
            "articulation": "legato",
            "pedal": false,
            "chord_id": null
        },
        {
            "name": "E3",
            "midi": 52,
            "time": 1.8333,
            "duration": 0.1917,
            "velocity": 0.9449,
            "articulation": "normal",
            "pedal": false,
            "chord_id": null
        },
        {
            "name": "A3",
            "midi": 57,
            "time": 2.0333,
            "duration": 0.1917,
            "velocity": 0.9449,
            "articulation": "normal",
            "pedal": false,
            "chord_id": null
        },
        {
            "name": "C4",
            "midi": 60,
            "time": 2.2333,
            "duration": 0.1917,
            "velocity": 0.9449,
            "articulation": "normal",
            "pedal": false,
            "chord_id": null
        },
        {
            "name": "E4",
            "midi": 64,
            "time": 2.4375,
            "duration": 0.1958,
            "velocity": 0.9449,
            "articulation": "normal",
            "pedal": false,
            "chord_id": null
        },
        {
            "name": "A4",
            "midi": 69,
            "time": 2.6333,
            "duration": 0.1917,
            "velocity": 0.9449,
            "articulation": "normal",
            "pedal": false,
            "chord_id": null
        },
        {
            "name": "E2",
            "midi": 40,
            "time": 2.8333,
            "duration": 0.1917,
            "velocity": 0.9449,
            "articulation": "normal",
            "pedal": false,
            "chord_id": null
        },
        {
            "name": "B4",
            "midi": 71,
            "time": 2.8333,
            "duration": 0.3917,
            "velocity": 0.9449,
            "articulation": "legato",
            "pedal": false,
            "chord_id": null
        },
        {
            "name": "E3",
            "midi": 52,
            "time": 3.0333,
            "duration": 0.1917,
            "velocity": 0.9449,
            "articulation": "normal",
            "pedal": false,
            "chord_id": null
        },
        {
            "name": "G#3",
            "midi": 56,
            "time": 3.2333,
            "duration": 0.1917,
            "velocity": 0.9449,
            "articulation": "normal",
            "pedal": false,
            "chord_id": null
        },
        {
            "name": "E4",
            "midi": 64,
            "time": 3.4333,
            "duration": 0.1917,
            "velocity": 0.9449,
            "articulation": "normal",
            "pedal": false,
            "chord_id": null
        },
        {
            "name": "G#4",
            "midi": 68,
            "time": 3.6333,
            "duration": 0.1917,
            "velocity": 0.9449,
            "articulation": "normal",
            "pedal": false,
            "chord_id": null
        },
        {
            "name": "B4",
            "midi": 71,
            "time": 3.8333,
            "duration": 0.1917,
            "velocity": 0.9449,
            "articulation": "normal",
            "pedal": false,
            "chord_id": null
        },
        {
            "name": "C5",
            "midi": 72,
            "time": 4.0333,
            "duration": 0.3917,
            "velocity": 0.9449,
            "articulation": "legato",
            "pedal": false,
            "chord_id": null
        },
        {
            "name": "A2",
            "midi": 45,
            "time": 4.0375,
            "duration": 0.1958,
            "velocity": 0.9449,
            "articulation": "normal",
            "pedal": false,
            "chord_id": null
        },
        {
            "name": "E3",
            "midi": 52,
            "time": 4.2375,
            "duration": 0.1958,
            "velocity": 0.9449,
            "articulation": "normal",
            "pedal": false,
            "chord_id": null
        },
        {
            "name": "A3",
            "midi": 57,
            "time": 4.4375,
            "duration": 0.1958,
            "velocity": 0.9449,
            "articulation": "normal",
            "pedal": false,
            "chord_id": null
        },
        {
            "name": "E4",
            "midi": 64,
            "time": 4.6333,
            "duration": 0.1917,
            "velocity": 0.9449,
            "articulation": "normal",
            "pedal": false,
            "chord_id": null
        },
        {
            "name": "E5",
            "midi": 76,
            "time": 4.8333,
            "duration": 0.1917,
            "velocity": 0.9449,
            "articulation": "normal",
            "pedal": false,
            "chord_id": null
        },
        {
            "name": "D#5",
            "midi": 75,
            "time": 5.0333,
            "duration": 0.1917,
            "velocity": 0.9449,
            "articulation": "normal",
            "pedal": false,
            "chord_id": null
        },
        {
            "name": "E5",
            "midi": 76,
            "time": 5.2333,
            "duration": 0.1917,
            "velocity": 0.9449,
            "articulation": "normal",
            "pedal": false,
            "chord_id": null
        },
        {
            "name": "D#5",
            "midi": 75,
            "time": 5.4375,
            "duration": 0.1958,
            "velocity": 0.9449,
            "articulation": "normal",
            "pedal": false,
            "chord_id": null
        },
        {
            "name": "E5",
            "midi": 76,
            "time": 5.6333,
            "duration": 0.1917,
            "velocity": 0.9449,
            "articulation": "normal",
            "pedal": false,
            "chord_id": null
        },
        {
            "name": "B4",
            "midi": 71,
            "time": 5.8333,
            "duration": 0.1917,
            "velocity": 0.9449,
            "articulation": "normal",
            "pedal": false,
            "chord_id": null
        },
        {
            "name": "D5",
            "midi": 74,
            "time": 6.0375,
            "duration": 0.1958,
            "velocity": 0.9449,
            "articulation": "normal",
            "pedal": false,
            "chord_id": null
        },
        {
            "name": "C5",
            "midi": 72,
            "time": 6.2333,
            "duration": 0.1917,
            "velocity": 0.9449,
            "articulation": "normal",
            "pedal": false,
            "chord_id": null
        },
        {
            "name": "A2",
            "midi": 45,
            "time": 6.4333,
            "duration": 0.1917,
            "velocity": 0.9449,
            "articulation": "normal",
            "pedal": false,
            "chord_id": null
        },
        {
            "name": "A4",
            "midi": 69,
            "time": 6.4333,
            "duration": 0.3917,
            "velocity": 0.9449,
            "articulation": "legato",
            "pedal": false,
            "chord_id": null
        },
        {
            "name": "E3",
            "midi": 52,
            "time": 6.6333,
            "duration": 0.1917,
            "velocity": 0.9449,
            "articulation": "normal",
            "pedal": false,
            "chord_id": null
        },
        {
            "name": "A3",
            "midi": 57,
            "time": 6.8333,
            "duration": 0.1917,
            "velocity": 0.9449,
            "articulation": "normal",
            "pedal": false,
            "chord_id": null
        },
        {
            "name": "C4",
            "midi": 60,
            "time": 7.0375,
            "duration": 0.1958,
            "velocity": 0.9449,
            "articulation": "normal",
            "pedal": false,
            "chord_id": null
        },
        {
            "name": "E4",
            "midi": 64,
            "time": 7.2333,
            "duration": 0.1917,
            "velocity": 0.9449,
            "articulation": "normal",
            "pedal": false,
            "chord_id": null
        },
        {
            "name": "A4",
            "midi": 69,
            "time": 7.4375,
            "duration": 0.1958,
            "velocity": 0.9449,
            "articulation": "normal",
            "pedal": false,
            "chord_id": null
        },
        {
            "name": "E2",
            "midi": 40,
            "time": 7.6333,
            "duration": 0.1917,
            "velocity": 0.9449,
            "articulation": "normal",
            "pedal": false,
            "chord_id": null
        },
        {
            "name": "B4",
            "midi": 71,
            "time": 7.6333,
            "duration": 0.5917,
            "velocity": 0.9449,
            "articulation": "legato",
            "pedal": false,
            "chord_id": null
        },
        {
            "name": "E3",
            "midi": 52,
            "time": 7.8375,
            "duration": 0.1958,
            "velocity": 0.9449,
            "articulation": "normal",
            "pedal": false,
            "chord_id": null
        },
        {
            "name": "G#3",
            "midi": 56,
            "time": 8.0333,
            "duration": 0.1917,
            "velocity": 0.9449,
            "articulation": "normal",
            "pedal": false,
            "chord_id": null
        },
        {
            "name": "D4",
            "midi": 62,
            "time": 8.2333,
            "duration": 0.5917,
            "velocity": 0.9449,
            "articulation": "legato",
            "pedal": false,
            "chord_id": null
        },
        {
            "name": "C5",
            "midi": 72,
            "time": 8.4375,
            "duration": 0.1958,
            "velocity": 0.9449,
            "articulation": "normal",
            "pedal": false,
            "chord_id": null
        },
        {
            "name": "B4",
            "midi": 71,
            "time": 8.6333,
            "duration": 0.1917,
            "velocity": 0.9449,
            "articulation": "normal",
            "pedal": false,
            "chord_id": null
        },
        {
            "name": "A2",
            "midi": 45,
            "time": 8.8333,
            "duration": 0.1917,
            "velocity": 0.9449,
            "articulation": "normal",
            "pedal": false,
            "chord_id": null
        },
        {
            "name": "C4",
            "midi": 60,
            "time": 8.8333,
            "duration": 0.3917,
            "velocity": 0.9449,
            "articulation": "legato",
            "pedal": false,
            "chord_id": null
        },
        {
            "name": "A4",
            "midi": 69,
            "time": 8.8333,
            "duration": 0.3917,
            "velocity": 0.9449,
            "articulation": "legato",
            "pedal": false,
            "chord_id": null
        },
        {
            "name": "E3",
            "midi": 52,
            "time": 9.0333,
            "duration": 0.1917,
            "velocity": 0.9449,
            "articulation": "normal",
            "pedal": false,
            "chord_id": null
        },
        {
            "name": "A3",
            "midi": 57,
            "time": 9.2333,
            "duration": 0.1917,
            "velocity": 0.9449,
            "articulation": "normal",
            "pedal": false,
            "chord_id": null
        },
        {
            "name": "E5",
            "midi": 76,
            "time": 9.6375,
            "duration": 0.199,
            "velocity": 0.9449,
            "articulation": "normal",
            "pedal": false,
            "chord_id": null
        },
        {
            "name": "D#5",
            "midi": 75,
            "time": 9.8365,
            "duration": 0.2048,
            "velocity": 0.9449,
            "articulation": "normal",
            "pedal": false,
            "chord_id": null
        },
        {
            "name": "E5",
            "midi": 76,
            "time": 10.0549,
            "duration": 0.2129,
            "velocity": 0.9449,
            "articulation": "normal",
            "pedal": false,
            "chord_id": null
        },
        {
            "name": "D#5",
            "midi": 75,
            "time": 10.2678,
            "duration": 0.2083,
            "velocity": 0.9449,
            "articulation": "normal",
            "pedal": false,
            "chord_id": null
        },
        {
            "name": "E5",
            "midi": 76,
            "time": 10.4852,
            "duration": 0.2083,
            "velocity": 0.9449,
            "articulation": "normal",
            "pedal": false,
            "chord_id": null
        },
        {
            "name": "B4",
            "midi": 71,
            "time": 10.7026,
            "duration": 0.1958,
            "velocity": 0.9449,
            "articulation": "normal",
            "pedal": false,
            "chord_id": null
        },
        {
            "name": "D5",
            "midi": 74,
            "time": 10.9067,
            "duration": 0.1917,
            "velocity": 0.9449,
            "articulation": "normal",
            "pedal": false,
            "chord_id": null
        },
        {
            "name": "C5",
            "midi": 72,
            "time": 11.1067,
            "duration": 0.1917,
            "velocity": 0.9449,
            "articulation": "normal",
            "pedal": false,
            "chord_id": null
        },
        {
            "name": "A2",
            "midi": 45,
            "time": 11.3067,
            "duration": 0.1917,
            "velocity": 0.9449,
            "articulation": "normal",
            "pedal": false,
            "chord_id": null
        },
        {
            "name": "A4",
            "midi": 69,
            "time": 11.3067,
            "duration": 0.3917,
            "velocity": 0.9449,
            "articulation": "legato",
            "pedal": false,
            "chord_id": null
        },
        {
            "name": "E3",
            "midi": 52,
            "time": 11.5109,
            "duration": 0.1958,
            "velocity": 0.9449,
            "articulation": "normal",
            "pedal": false,
            "chord_id": null
        },
        {
            "name": "A3",
            "midi": 57,
            "time": 11.7067,
            "duration": 0.1917,
            "velocity": 0.9449,
            "articulation": "normal",
            "pedal": false,
            "chord_id": null
        },
        {
            "name": "C4",
            "midi": 60,
            "time": 11.9067,
            "duration": 0.1917,
            "velocity": 0.9449,
            "articulation": "normal",
            "pedal": false,
            "chord_id": null
        },
        {
            "name": "E4",
            "midi": 64,
            "time": 12.1067,
            "duration": 0.1917,
            "velocity": 0.9449,
            "articulation": "normal",
            "pedal": false,
            "chord_id": null
        },
        {
            "name": "A4",
            "midi": 69,
            "time": 12.3067,
            "duration": 0.1917,
            "velocity": 0.9449,
            "articulation": "normal",
            "pedal": false,
            "chord_id": null
        },
        {
            "name": "E2",
            "midi": 40,
            "time": 12.5067,
            "duration": 0.1917,
            "velocity": 0.9449,
            "articulation": "normal",
            "pedal": false,
            "chord_id": null
        },
        {
            "name": "B4",
            "midi": 71,
            "time": 12.5109,
            "duration": 0.3958,
            "velocity": 0.9449,
            "articulation": "legato",
            "pedal": false,
            "chord_id": null
        },
        {
            "name": "E3",
            "midi": 52,
            "time": 12.7067,
            "duration": 0.1917,
            "velocity": 0.9449,
            "articulation": "normal",
            "pedal": false,
            "chord_id": null
        },
        {
            "name": "G#3",
            "midi": 56,
            "time": 12.9067,
            "duration": 0.1917,
            "velocity": 0.9449,
            "articulation": "normal",
            "pedal": false,
            "chord_id": null
        },
        {
            "name": "E4",
            "midi": 64,
            "time": 13.1067,
            "duration": 0.1917,
            "velocity": 0.9449,
            "articulation": "normal",
            "pedal": false,
            "chord_id": null
        },
        {
            "name": "G#4",
            "midi": 68,
            "time": 13.3067,
            "duration": 0.1917,
            "velocity": 0.9449,
            "articulation": "normal",
            "pedal": false,
            "chord_id": null
        },
        {
            "name": "B4",
            "midi": 71,
            "time": 13.5109,
            "duration": 0.1958,
            "velocity": 0.9449,
            "articulation": "normal",
            "pedal": false,
            "chord_id": null
        },
        {
            "name": "A2",
            "midi": 45,
            "time": 13.7067,
            "duration": 0.1917,
            "velocity": 0.9449,
            "articulation": "normal",
            "pedal": false,
            "chord_id": null
        },
        {
            "name": "C5",
            "midi": 72,
            "time": 13.7109,
            "duration": 0.3958,
            "velocity": 0.9449,
            "articulation": "legato",
            "pedal": false,
            "chord_id": null
        },
        {
            "name": "E3",
            "midi": 52,
            "time": 13.9109,
            "duration": 0.1958,
            "velocity": 0.9449,
            "articulation": "normal",
            "pedal": false,
            "chord_id": null
        },
        {
            "name": "A3",
            "midi": 57,
            "time": 14.1067,
            "duration": 0.1917,
            "velocity": 0.9449,
            "articulation": "normal",
            "pedal": false,
            "chord_id": null
        },
        {
            "name": "E4",
            "midi": 64,
            "time": 14.3067,
            "duration": 0.1917,
            "velocity": 0.9449,
            "articulation": "normal",
            "pedal": false,
            "chord_id": null
        },
        {
            "name": "E5",
            "midi": 76,
            "time": 14.5067,
            "duration": 0.1917,
            "velocity": 0.9449,
            "articulation": "normal",
            "pedal": false,
            "chord_id": null
        },
        {
            "name": "D#5",
            "midi": 75,
            "time": 14.7067,
            "duration": 0.1917,
            "velocity": 0.9449,
            "articulation": "normal",
            "pedal": false,
            "chord_id": null
        },
        {
            "name": "E5",
            "midi": 76,
            "time": 14.9109,
            "duration": 0.1958,
            "velocity": 0.9449,
            "articulation": "normal",
            "pedal": false,
            "chord_id": null
        },
        {
            "name": "D#5",
            "midi": 75,
            "time": 15.1109,
            "duration": 0.1958,
            "velocity": 0.9449,
            "articulation": "normal",
            "pedal": false,
            "chord_id": null
        },
        {
            "name": "E5",
            "midi": 76,
            "time": 15.3067,
            "duration": 0.1917,
            "velocity": 0.9449,
            "articulation": "normal",
            "pedal": false,
            "chord_id": null
        },
        {
            "name": "B4",
            "midi": 71,
            "time": 15.5067,
            "duration": 0.1917,
            "velocity": 0.9449,
            "articulation": "normal",
            "pedal": false,
            "chord_id": null
        },
        {
            "name": "D5",
            "midi": 74,
            "time": 15.7067,
            "duration": 0.1917,
            "velocity": 0.9449,
            "articulation": "normal",
            "pedal": false,
            "chord_id": null
        },
        {
            "name": "C5",
            "midi": 72,
            "time": 15.9067,
            "duration": 0.1917,
            "velocity": 0.9449,
            "articulation": "normal",
            "pedal": false,
            "chord_id": null
        },
        {
            "name": "A2",
            "midi": 45,
            "time": 16.1067,
            "duration": 0.1917,
            "velocity": 0.9449,
            "articulation": "normal",
            "pedal": false,
            "chord_id": null
        },
        {
            "name": "A4",
            "midi": 69,
            "time": 16.1067,
            "duration": 0.3917,
            "velocity": 0.9449,
            "articulation": "legato",
            "pedal": false,
            "chord_id": null
        },
        {
            "name": "E3",
            "midi": 52,
            "time": 16.3067,
            "duration": 0.1917,
            "velocity": 0.9449,
            "articulation": "normal",
            "pedal": false,
            "chord_id": null
        },
        {
            "name": "A3",
            "midi": 57,
            "time": 16.5067,
            "duration": 0.1917,
            "velocity": 0.9449,
            "articulation": "normal",
            "pedal": false,
            "chord_id": null
        },
        {
            "name": "C4",
            "midi": 60,
            "time": 16.7067,
            "duration": 0.1917,
            "velocity": 0.9449,
            "articulation": "normal",
            "pedal": false,
            "chord_id": null
        },
        {
            "name": "E4",
            "midi": 64,
            "time": 16.9067,
            "duration": 0.1917,
            "velocity": 0.9449,
            "articulation": "normal",
            "pedal": false,
            "chord_id": null
        },
        {
            "name": "A4",
            "midi": 69,
            "time": 17.1067,
            "duration": 0.1917,
            "velocity": 0.9449,
            "articulation": "normal",
            "pedal": false,
            "chord_id": null
        },
        {
            "name": "E2",
            "midi": 40,
            "time": 17.3067,
            "duration": 0.1917,
            "velocity": 0.9449,
            "articulation": "normal",
            "pedal": false,
            "chord_id": null
        },
        {
            "name": "B4",
            "midi": 71,
            "time": 17.3067,
            "duration": 0.3917,
            "velocity": 0.9449,
            "articulation": "legato",
            "pedal": false,
            "chord_id": null
        },
        {
            "name": "E3",
            "midi": 52,
            "time": 17.5109,
            "duration": 0.1958,
            "velocity": 0.9449,
            "articulation": "normal",
            "pedal": false,
            "chord_id": null
        },
        {
            "name": "G#3",
            "midi": 56,
            "time": 17.7067,
            "duration": 0.1917,
            "velocity": 0.9449,
            "articulation": "normal",
            "pedal": false,
            "chord_id": null
        },
        {
            "name": "D4",
            "midi": 62,
            "time": 17.9067,
            "duration": 0.5917,
            "velocity": 0.9449,
            "articulation": "legato",
            "pedal": false,
            "chord_id": null
        },
        {
            "name": "C5",
            "midi": 72,
            "time": 18.1067,
            "duration": 0.1917,
            "velocity": 0.9449,
            "articulation": "normal",
            "pedal": false,
            "chord_id": null
        },
        {
            "name": "B4",
            "midi": 71,
            "time": 18.3067,
            "duration": 0.1917,
            "velocity": 0.9449,
            "articulation": "normal",
            "pedal": false,
            "chord_id": null
        },
        {
            "name": "C4",
            "midi": 60,
            "time": 18.5067,
            "duration": 0.3917,
            "velocity": 0.9449,
            "articulation": "legato",
            "pedal": false,
            "chord_id": null
        },
        {
            "name": "A4",
            "midi": 69,
            "time": 18.5067,
            "duration": 0.3917,
            "velocity": 0.9449,
            "articulation": "legato",
            "pedal": false,
            "chord_id": null
        },
        {
            "name": "A2",
            "midi": 45,
            "time": 18.5109,
            "duration": 0.1958,
            "velocity": 0.9449,
            "articulation": "normal",
            "pedal": false,
            "chord_id": null
        },
        {
            "name": "E3",
            "midi": 52,
            "time": 18.7109,
            "duration": 0.1958,
            "velocity": 0.9449,
            "articulation": "normal",
            "pedal": false,
            "chord_id": null
        },
        {
            "name": "A3",
            "midi": 57,
            "time": 18.9067,
            "duration": 0.1917,
            "velocity": 0.9449,
            "articulation": "normal",
            "pedal": false,
            "chord_id": null
        },
        {
            "name": "B4",
            "midi": 71,
            "time": 19.1067,
            "duration": 0.1917,
            "velocity": 0.9449,
            "articulation": "normal",
            "pedal": false,
            "chord_id": null
        },
        {
            "name": "C5",
            "midi": 72,
            "time": 19.3067,
            "duration": 0.1917,
            "velocity": 0.9449,
            "articulation": "normal",
            "pedal": false,
            "chord_id": null
        },
        {
            "name": "D5",
            "midi": 74,
            "time": 19.5067,
            "duration": 0.1917,
            "velocity": 0.9449,
            "articulation": "normal",
            "pedal": false,
            "chord_id": null
        },
        {
            "name": "C3",
            "midi": 48,
            "time": 19.7067,
            "duration": 0.1917,
            "velocity": 0.9449,
            "articulation": "normal",
            "pedal": false,
            "chord_id": null
        },
        {
            "name": "E5",
            "midi": 76,
            "time": 19.7067,
            "duration": 0.5917,
            "velocity": 0.9449,
            "articulation": "legato",
            "pedal": false,
            "chord_id": null
        },
        {
            "name": "G3",
            "midi": 55,
            "time": 19.9067,
            "duration": 0.1917,
            "velocity": 0.9449,
            "articulation": "normal",
            "pedal": false,
            "chord_id": null
        },
        {
            "name": "C4",
            "midi": 60,
            "time": 20.1109,
            "duration": 0.1958,
            "velocity": 0.9449,
            "articulation": "normal",
            "pedal": false,
            "chord_id": null
        },
        {
            "name": "G4",
            "midi": 67,
            "time": 20.3067,
            "duration": 0.1917,
            "velocity": 0.9449,
            "articulation": "normal",
            "pedal": false,
            "chord_id": null
        },
        {
            "name": "F5",
            "midi": 77,
            "time": 20.5067,
            "duration": 0.1917,
            "velocity": 0.9449,
            "articulation": "normal",
            "pedal": false,
            "chord_id": null
        },
        {
            "name": "E5",
            "midi": 76,
            "time": 20.7067,
            "duration": 0.1917,
            "velocity": 0.9449,
            "articulation": "normal",
            "pedal": false,
            "chord_id": null
        },
        {
            "name": "G2",
            "midi": 43,
            "time": 20.9109,
            "duration": 0.1958,
            "velocity": 0.9449,
            "articulation": "normal",
            "pedal": false,
            "chord_id": null
        },
        {
            "name": "D5",
            "midi": 74,
            "time": 20.9109,
            "duration": 0.5958,
            "velocity": 0.9449,
            "articulation": "legato",
            "pedal": false,
            "chord_id": null
        },
        {
            "name": "G3",
            "midi": 55,
            "time": 21.1067,
            "duration": 0.1917,
            "velocity": 0.9449,
            "articulation": "normal",
            "pedal": false,
            "chord_id": null
        },
        {
            "name": "B3",
            "midi": 59,
            "time": 21.3109,
            "duration": 0.1958,
            "velocity": 0.9449,
            "articulation": "normal",
            "pedal": false,
            "chord_id": null
        },
        {
            "name": "F4",
            "midi": 65,
            "time": 21.5067,
            "duration": 0.1917,
            "velocity": 0.9449,
            "articulation": "normal",
            "pedal": false,
            "chord_id": null
        },
        {
            "name": "E5",
            "midi": 76,
            "time": 21.7067,
            "duration": 0.1917,
            "velocity": 0.9449,
            "articulation": "normal",
            "pedal": false,
            "chord_id": null
        },
        {
            "name": "D5",
            "midi": 74,
            "time": 21.9067,
            "duration": 0.1917,
            "velocity": 0.9449,
            "articulation": "normal",
            "pedal": false,
            "chord_id": null
        },
        {
            "name": "A2",
            "midi": 45,
            "time": 22.1067,
            "duration": 0.1917,
            "velocity": 0.9449,
            "articulation": "normal",
            "pedal": false,
            "chord_id": null
        },
        {
            "name": "C5",
            "midi": 72,
            "time": 22.1067,
            "duration": 0.5917,
            "velocity": 0.9449,
            "articulation": "legato",
            "pedal": false,
            "chord_id": null
        },
        {
            "name": "E3",
            "midi": 52,
            "time": 22.3109,
            "duration": 0.1958,
            "velocity": 0.9449,
            "articulation": "normal",
            "pedal": false,
            "chord_id": null
        },
        {
            "name": "A3",
            "midi": 57,
            "time": 22.5067,
            "duration": 0.1917,
            "velocity": 0.9449,
            "articulation": "normal",
            "pedal": false,
            "chord_id": null
        },
        {
            "name": "E4",
            "midi": 64,
            "time": 22.7067,
            "duration": 0.1917,
            "velocity": 0.9449,
            "articulation": "normal",
            "pedal": false,
            "chord_id": null
        },
        {
            "name": "D5",
            "midi": 74,
            "time": 22.9067,
            "duration": 0.1917,
            "velocity": 0.9449,
            "articulation": "normal",
            "pedal": false,
            "chord_id": null
        },
        {
            "name": "C5",
            "midi": 72,
            "time": 23.1067,
            "duration": 0.1917,
            "velocity": 0.9449,
            "articulation": "normal",
            "pedal": false,
            "chord_id": null
        },
        {
            "name": "E2",
            "midi": 40,
            "time": 23.3067,
            "duration": 0.1917,
            "velocity": 0.9449,
            "articulation": "normal",
            "pedal": false,
            "chord_id": null
        },
        {
            "name": "B4",
            "midi": 71,
            "time": 23.3067,
            "duration": 0.1917,
            "velocity": 0.9449,
            "articulation": "normal",
            "pedal": false,
            "chord_id": null
        },
        {
            "name": "E3",
            "midi": 52,
            "time": 23.5067,
            "duration": 0.1917,
            "velocity": 0.9449,
            "articulation": "normal",
            "pedal": false,
            "chord_id": null
        },
        {
            "name": "E4",
            "midi": 64,
            "time": 23.7109,
            "duration": 0.1958,
            "velocity": 0.9449,
            "articulation": "normal",
            "pedal": false,
            "chord_id": null
        },
        {
            "name": "E4",
            "midi": 64,
            "time": 23.9109,
            "duration": 0.1958,
            "velocity": 0.9449,
            "articulation": "normal",
            "pedal": false,
            "chord_id": null
        },
        {
            "name": "E5",
            "midi": 76,
            "time": 24.1109,
            "duration": 0.1958,
            "velocity": 0.9449,
            "articulation": "normal",
            "pedal": false,
            "chord_id": null
        },
        {
            "name": "E4",
            "midi": 64,
            "time": 24.3109,
            "duration": 0.1958,
            "velocity": 0.9449,
            "articulation": "normal",
            "pedal": false,
            "chord_id": null
        },
        {
            "name": "E5",
            "midi": 76,
            "time": 24.5067,
            "duration": 0.1917,
            "velocity": 0.9449,
            "articulation": "normal",
            "pedal": false,
            "chord_id": null
        },
        {
            "name": "E5",
            "midi": 76,
            "time": 24.7109,
            "duration": 0.1958,
            "velocity": 0.9449,
            "articulation": "normal",
            "pedal": false,
            "chord_id": null
        },
        {
            "name": "E6",
            "midi": 88,
            "time": 24.9109,
            "duration": 0.1958,
            "velocity": 0.9449,
            "articulation": "normal",
            "pedal": false,
            "chord_id": null
        },
        {
            "name": "D#5",
            "midi": 75,
            "time": 25.1067,
            "duration": 0.1917,
            "velocity": 0.9449,
            "articulation": "normal",
            "pedal": false,
            "chord_id": null
        },
        {
            "name": "E5",
            "midi": 76,
            "time": 25.3067,
            "duration": 0.1917,
            "velocity": 0.9449,
            "articulation": "normal",
            "pedal": false,
            "chord_id": null
        },
        {
            "name": "D#5",
            "midi": 75,
            "time": 25.5067,
            "duration": 0.1917,
            "velocity": 0.9449,
            "articulation": "normal",
            "pedal": false,
            "chord_id": null
        },
        {
            "name": "E5",
            "midi": 76,
            "time": 25.7067,
            "duration": 0.1917,
            "velocity": 0.9449,
            "articulation": "normal",
            "pedal": false,
            "chord_id": null
        },
        {
            "name": "D#5",
            "midi": 75,
            "time": 25.9067,
            "duration": 0.1917,
            "velocity": 0.9449,
            "articulation": "normal",
            "pedal": false,
            "chord_id": null
        },
        {
            "name": "E5",
            "midi": 76,
            "time": 26.1067,
            "duration": 0.1917,
            "velocity": 0.9449,
            "articulation": "normal",
            "pedal": false,
            "chord_id": null
        },
        {
            "name": "D#5",
            "midi": 75,
            "time": 26.3067,
            "duration": 0.1917,
            "velocity": 0.9449,
            "articulation": "normal",
            "pedal": false,
            "chord_id": null
        },
        {
            "name": "E5",
            "midi": 76,
            "time": 26.5109,
            "duration": 0.1967,
            "velocity": 0.9449,
            "articulation": "normal",
            "pedal": false,
            "chord_id": null
        },
        {
            "name": "D#5",
            "midi": 75,
            "time": 26.7119,
            "duration": 0.2017,
            "velocity": 0.9449,
            "articulation": "normal",
            "pedal": false,
            "chord_id": null
        },
        {
            "name": "E5",
            "midi": 76,
            "time": 26.9136,
            "duration": 0.1997,
            "velocity": 0.9449,
            "articulation": "normal",
            "pedal": false,
            "chord_id": null
        },
        {
            "name": "D#5",
            "midi": 75,
            "time": 27.1219,
            "duration": 0.2046,
            "velocity": 0.9449,
            "articulation": "normal",
            "pedal": false,
            "chord_id": null
        },
        {
            "name": "E5",
            "midi": 76,
            "time": 27.3358,
            "duration": 0.2211,
            "velocity": 0.9449,
            "articulation": "normal",
            "pedal": false,
            "chord_id": null
        },
        {
            "name": "B4",
            "midi": 71,
            "time": 27.5716,
            "duration": 0.2295,
            "velocity": 0.9449,
            "articulation": "legato",
            "pedal": false,
            "chord_id": null
        },
        {
            "name": "D5",
            "midi": 74,
            "time": 27.801,
            "duration": 0.2246,
            "velocity": 0.9449,
            "articulation": "normal",
            "pedal": false,
            "chord_id": null
        },
        {
            "name": "C5",
            "midi": 72,
            "time": 28.0354,
            "duration": 0.2246,
            "velocity": 0.9449,
            "articulation": "normal",
            "pedal": false,
            "chord_id": null
        },
        {
            "name": "A2",
            "midi": 45,
            "time": 28.2698,
            "duration": 0.2138,
            "velocity": 0.9449,
            "articulation": "normal",
            "pedal": false,
            "chord_id": null
        },
        {
            "name": "A4",
            "midi": 69,
            "time": 28.2698,
            "duration": 0.4265,
            "velocity": 0.9449,
            "articulation": "legato",
            "pedal": false,
            "chord_id": null
        },
        {
            "name": "E3",
            "midi": 52,
            "time": 28.4927,
            "duration": 0.2037,
            "velocity": 0.9449,
            "articulation": "normal",
            "pedal": false,
            "chord_id": null
        },
        {
            "name": "A3",
            "midi": 57,
            "time": 28.705,
            "duration": 0.1997,
            "velocity": 0.9449,
            "articulation": "normal",
            "pedal": false,
            "chord_id": null
        },
        {
            "name": "C4",
            "midi": 60,
            "time": 28.9133,
            "duration": 0.1944,
            "velocity": 0.9449,
            "articulation": "normal",
            "pedal": false,
            "chord_id": null
        },
        {
            "name": "E4",
            "midi": 64,
            "time": 29.1161,
            "duration": 0.1917,
            "velocity": 0.9449,
            "articulation": "normal",
            "pedal": false,
            "chord_id": null
        },
        {
            "name": "A4",
            "midi": 69,
            "time": 29.3161,
            "duration": 0.1917,
            "velocity": 0.9449,
            "articulation": "normal",
            "pedal": false,
            "chord_id": null
        },
        {
            "name": "E2",
            "midi": 40,
            "time": 29.5161,
            "duration": 0.1917,
            "velocity": 0.9449,
            "articulation": "normal",
            "pedal": false,
            "chord_id": null
        },
        {
            "name": "B4",
            "midi": 71,
            "time": 29.5202,
            "duration": 0.3958,
            "velocity": 0.9449,
            "articulation": "legato",
            "pedal": false,
            "chord_id": null
        },
        {
            "name": "E3",
            "midi": 52,
            "time": 29.7161,
            "duration": 0.1917,
            "velocity": 0.9449,
            "articulation": "normal",
            "pedal": false,
            "chord_id": null
        },
        {
            "name": "G#3",
            "midi": 56,
            "time": 29.9161,
            "duration": 0.1917,
            "velocity": 0.9449,
            "articulation": "normal",
            "pedal": false,
            "chord_id": null
        },
        {
            "name": "E4",
            "midi": 64,
            "time": 30.1202,
            "duration": 0.1958,
            "velocity": 0.9449,
            "articulation": "normal",
            "pedal": false,
            "chord_id": null
        },
        {
            "name": "G#4",
            "midi": 68,
            "time": 30.3161,
            "duration": 0.1917,
            "velocity": 0.9449,
            "articulation": "normal",
            "pedal": false,
            "chord_id": null
        },
        {
            "name": "B4",
            "midi": 71,
            "time": 30.5161,
            "duration": 0.1917,
            "velocity": 0.9449,
            "articulation": "normal",
            "pedal": false,
            "chord_id": null
        },
        {
            "name": "A2",
            "midi": 45,
            "time": 30.7161,
            "duration": 0.1917,
            "velocity": 0.9449,
            "articulation": "normal",
            "pedal": false,
            "chord_id": null
        },
        {
            "name": "C5",
            "midi": 72,
            "time": 30.7202,
            "duration": 0.3958,
            "velocity": 0.9449,
            "articulation": "legato",
            "pedal": false,
            "chord_id": null
        },
        {
            "name": "E3",
            "midi": 52,
            "time": 30.9161,
            "duration": 0.1917,
            "velocity": 0.9449,
            "articulation": "normal",
            "pedal": false,
            "chord_id": null
        },
        {
            "name": "A3",
            "midi": 57,
            "time": 31.1161,
            "duration": 0.1917,
            "velocity": 0.9449,
            "articulation": "normal",
            "pedal": false,
            "chord_id": null
        },
        {
            "name": "E4",
            "midi": 64,
            "time": 31.3161,
            "duration": 0.1917,
            "velocity": 0.9449,
            "articulation": "normal",
            "pedal": false,
            "chord_id": null
        },
        {
            "name": "E5",
            "midi": 76,
            "time": 31.5161,
            "duration": 0.1917,
            "velocity": 0.9449,
            "articulation": "normal",
            "pedal": false,
            "chord_id": null
        },
        {
            "name": "D#5",
            "midi": 75,
            "time": 31.7202,
            "duration": 0.1958,
            "velocity": 0.9449,
            "articulation": "normal",
            "pedal": false,
            "chord_id": null
        },
        {
            "name": "E5",
            "midi": 76,
            "time": 31.9161,
            "duration": 0.1917,
            "velocity": 0.9449,
            "articulation": "normal",
            "pedal": false,
            "chord_id": null
        },
        {
            "name": "D#5",
            "midi": 75,
            "time": 32.1161,
            "duration": 0.1917,
            "velocity": 0.9449,
            "articulation": "normal",
            "pedal": false,
            "chord_id": null
        },
        {
            "name": "E5",
            "midi": 76,
            "time": 32.3161,
            "duration": 0.1917,
            "velocity": 0.9449,
            "articulation": "normal",
            "pedal": false,
            "chord_id": null
        },
        {
            "name": "B4",
            "midi": 71,
            "time": 32.5161,
            "duration": 0.1917,
            "velocity": 0.9449,
            "articulation": "normal",
            "pedal": false,
            "chord_id": null
        },
        {
            "name": "D5",
            "midi": 74,
            "time": 32.7161,
            "duration": 0.1917,
            "velocity": 0.9449,
            "articulation": "normal",
            "pedal": false,
            "chord_id": null
        },
        {
            "name": "C5",
            "midi": 72,
            "time": 32.9202,
            "duration": 0.1958,
            "velocity": 0.9449,
            "articulation": "normal",
            "pedal": false,
            "chord_id": null
        },
        {
            "name": "A2",
            "midi": 45,
            "time": 33.1161,
            "duration": 0.1917,
            "velocity": 0.9449,
            "articulation": "normal",
            "pedal": false,
            "chord_id": null
        },
        {
            "name": "A4",
            "midi": 69,
            "time": 33.1202,
            "duration": 0.3958,
            "velocity": 0.9449,
            "articulation": "legato",
            "pedal": false,
            "chord_id": null
        },
        {
            "name": "E3",
            "midi": 52,
            "time": 33.3202,
            "duration": 0.1958,
            "velocity": 0.9449,
            "articulation": "normal",
            "pedal": false,
            "chord_id": null
        },
        {
            "name": "A3",
            "midi": 57,
            "time": 33.5161,
            "duration": 0.1917,
            "velocity": 0.9449,
            "articulation": "normal",
            "pedal": false,
            "chord_id": null
        },
        {
            "name": "C4",
            "midi": 60,
            "time": 33.7161,
            "duration": 0.1917,
            "velocity": 0.9449,
            "articulation": "normal",
            "pedal": false,
            "chord_id": null
        },
        {
            "name": "E4",
            "midi": 64,
            "time": 33.9161,
            "duration": 0.1917,
            "velocity": 0.9449,
            "articulation": "normal",
            "pedal": false,
            "chord_id": null
        },
        {
            "name": "A4",
            "midi": 69,
            "time": 34.1161,
            "duration": 0.1917,
            "velocity": 0.9449,
            "articulation": "normal",
            "pedal": false,
            "chord_id": null
        },
        {
            "name": "E2",
            "midi": 40,
            "time": 34.3161,
            "duration": 0.1917,
            "velocity": 0.9449,
            "articulation": "normal",
            "pedal": false,
            "chord_id": null
        },
        {
            "name": "B4",
            "midi": 71,
            "time": 34.3161,
            "duration": 0.3917,
            "velocity": 0.9449,
            "articulation": "legato",
            "pedal": false,
            "chord_id": null
        },
        {
            "name": "E3",
            "midi": 52,
            "time": 34.5161,
            "duration": 0.1917,
            "velocity": 0.9449,
            "articulation": "normal",
            "pedal": false,
            "chord_id": null
        },
        {
            "name": "G#3",
            "midi": 56,
            "time": 34.7202,
            "duration": 0.1958,
            "velocity": 0.9449,
            "articulation": "normal",
            "pedal": false,
            "chord_id": null
        },
        {
            "name": "D4",
            "midi": 62,
            "time": 34.9161,
            "duration": 0.5917,
            "velocity": 0.9449,
            "articulation": "legato",
            "pedal": false,
            "chord_id": null
        },
        {
            "name": "C5",
            "midi": 72,
            "time": 35.1161,
            "duration": 0.1917,
            "velocity": 0.9449,
            "articulation": "normal",
            "pedal": false,
            "chord_id": null
        },
        {
            "name": "B4",
            "midi": 71,
            "time": 35.3202,
            "duration": 0.1958,
            "velocity": 0.9449,
            "articulation": "normal",
            "pedal": false,
            "chord_id": null
        },
        {
            "name": "A2",
            "midi": 45,
            "time": 35.5161,
            "duration": 0.1917,
            "velocity": 0.9449,
            "articulation": "normal",
            "pedal": false,
            "chord_id": null
        },
        {
            "name": "C4",
            "midi": 60,
            "time": 35.5161,
            "duration": 0.3917,
            "velocity": 0.9449,
            "articulation": "legato",
            "pedal": false,
            "chord_id": null
        },
        {
            "name": "A4",
            "midi": 69,
            "time": 35.5202,
            "duration": 0.3958,
            "velocity": 0.9449,
            "articulation": "legato",
            "pedal": false,
            "chord_id": null
        },
        {
            "name": "E3",
            "midi": 52,
            "time": 35.7161,
            "duration": 0.1917,
            "velocity": 0.9449,
            "articulation": "normal",
            "pedal": false,
            "chord_id": null
        },
        {
            "name": "A3",
            "midi": 57,
            "time": 35.9161,
            "duration": 0.1917,
            "velocity": 0.9449,
            "articulation": "normal",
            "pedal": false,
            "chord_id": null
        },
        {
            "name": "B4",
            "midi": 71,
            "time": 36.1161,
            "duration": 0.1917,
            "velocity": 0.9449,
            "articulation": "normal",
            "pedal": false,
            "chord_id": null
        },
        {
            "name": "C5",
            "midi": 72,
            "time": 36.3161,
            "duration": 0.1917,
            "velocity": 0.9449,
            "articulation": "normal",
            "pedal": false,
            "chord_id": null
        },
        {
            "name": "D5",
            "midi": 74,
            "time": 36.5161,
            "duration": 0.1917,
            "velocity": 0.9449,
            "articulation": "normal",
            "pedal": false,
            "chord_id": null
        },
        {
            "name": "E5",
            "midi": 76,
            "time": 36.7161,
            "duration": 0.5917,
            "velocity": 0.9449,
            "articulation": "legato",
            "pedal": false,
            "chord_id": null
        },
        {
            "name": "C3",
            "midi": 48,
            "time": 36.7202,
            "duration": 0.1958,
            "velocity": 0.9449,
            "articulation": "normal",
            "pedal": false,
            "chord_id": null
        },
        {
            "name": "G3",
            "midi": 55,
            "time": 36.9161,
            "duration": 0.1917,
            "velocity": 0.9449,
            "articulation": "normal",
            "pedal": false,
            "chord_id": null
        },
        {
            "name": "C4",
            "midi": 60,
            "time": 37.1161,
            "duration": 0.1917,
            "velocity": 0.9449,
            "articulation": "normal",
            "pedal": false,
            "chord_id": null
        },
        {
            "name": "G4",
            "midi": 67,
            "time": 37.3161,
            "duration": 0.1917,
            "velocity": 0.9449,
            "articulation": "normal",
            "pedal": false,
            "chord_id": null
        },
        {
            "name": "F5",
            "midi": 77,
            "time": 37.5161,
            "duration": 0.1917,
            "velocity": 0.9449,
            "articulation": "normal",
            "pedal": false,
            "chord_id": null
        },
        {
            "name": "E5",
            "midi": 76,
            "time": 37.7202,
            "duration": 0.1958,
            "velocity": 0.9449,
            "articulation": "normal",
            "pedal": false,
            "chord_id": null
        },
        {
            "name": "G2",
            "midi": 43,
            "time": 37.9161,
            "duration": 0.1917,
            "velocity": 0.9449,
            "articulation": "normal",
            "pedal": false,
            "chord_id": null
        },
        {
            "name": "D5",
            "midi": 74,
            "time": 37.9161,
            "duration": 0.5917,
            "velocity": 0.9449,
            "articulation": "legato",
            "pedal": false,
            "chord_id": null
        },
        {
            "name": "G3",
            "midi": 55,
            "time": 38.1202,
            "duration": 0.1958,
            "velocity": 0.9449,
            "articulation": "normal",
            "pedal": false,
            "chord_id": null
        },
        {
            "name": "B3",
            "midi": 59,
            "time": 38.3161,
            "duration": 0.1917,
            "velocity": 0.9449,
            "articulation": "normal",
            "pedal": false,
            "chord_id": null
        },
        {
            "name": "F4",
            "midi": 65,
            "time": 38.5161,
            "duration": 0.1917,
            "velocity": 0.9449,
            "articulation": "normal",
            "pedal": false,
            "chord_id": null
        },
        {
            "name": "E5",
            "midi": 76,
            "time": 38.7202,
            "duration": 0.1958,
            "velocity": 0.9449,
            "articulation": "normal",
            "pedal": false,
            "chord_id": null
        },
        {
            "name": "D5",
            "midi": 74,
            "time": 38.9202,
            "duration": 0.1958,
            "velocity": 0.9449,
            "articulation": "normal",
            "pedal": false,
            "chord_id": null
        },
        {
            "name": "A2",
            "midi": 45,
            "time": 39.1161,
            "duration": 0.1917,
            "velocity": 0.9449,
            "articulation": "normal",
            "pedal": false,
            "chord_id": null
        },
        {
            "name": "C5",
            "midi": 72,
            "time": 39.1161,
            "duration": 0.5917,
            "velocity": 0.9449,
            "articulation": "legato",
            "pedal": false,
            "chord_id": null
        },
        {
            "name": "E3",
            "midi": 52,
            "time": 39.3161,
            "duration": 0.1917,
            "velocity": 0.9449,
            "articulation": "normal",
            "pedal": false,
            "chord_id": null
        },
        {
            "name": "A3",
            "midi": 57,
            "time": 39.5161,
            "duration": 0.1917,
            "velocity": 0.9449,
            "articulation": "normal",
            "pedal": false,
            "chord_id": null
        },
        {
            "name": "E4",
            "midi": 64,
            "time": 39.7202,
            "duration": 0.1958,
            "velocity": 0.9449,
            "articulation": "normal",
            "pedal": false,
            "chord_id": null
        },
        {
            "name": "D5",
            "midi": 74,
            "time": 39.9161,
            "duration": 0.1917,
            "velocity": 0.9449,
            "articulation": "normal",
            "pedal": false,
            "chord_id": null
        },
        {
            "name": "C5",
            "midi": 72,
            "time": 40.1161,
            "duration": 0.1917,
            "velocity": 0.9449,
            "articulation": "normal",
            "pedal": false,
            "chord_id": null
        },
        {
            "name": "B4",
            "midi": 71,
            "time": 40.3161,
            "duration": 0.2917,
            "velocity": 0.9449,
            "articulation": "legato",
            "pedal": false,
            "chord_id": null
        },
        {
            "name": "E2",
            "midi": 40,
            "time": 40.3202,
            "duration": 0.1958,
            "velocity": 0.9449,
            "articulation": "normal",
            "pedal": false,
            "chord_id": null
        },
        {
            "name": "E3",
            "midi": 52,
            "time": 40.5161,
            "duration": 0.1917,
            "velocity": 0.9449,
            "articulation": "normal",
            "pedal": false,
            "chord_id": null
        },
        {
            "name": "E4",
            "midi": 64,
            "time": 40.7202,
            "duration": 0.1958,
            "velocity": 0.9449,
            "articulation": "normal",
            "pedal": false,
            "chord_id": null
        },
        {
            "name": "E4",
            "midi": 64,
            "time": 40.9161,
            "duration": 0.0917,
            "velocity": 0.9449,
            "articulation": "normal",
            "pedal": false,
            "chord_id": null
        },
        {
            "name": "E5",
            "midi": 76,
            "time": 41.1161,
            "duration": 0.1917,
            "velocity": 0.9449,
            "articulation": "normal",
            "pedal": false,
            "chord_id": null
        },
        {
            "name": "E4",
            "midi": 64,
            "time": 41.3202,
            "duration": 0.1958,
            "velocity": 0.9449,
            "articulation": "normal",
            "pedal": false,
            "chord_id": null
        },
        {
            "name": "E5",
            "midi": 76,
            "time": 41.5161,
            "duration": 0.1917,
            "velocity": 0.9449,
            "articulation": "normal",
            "pedal": false,
            "chord_id": null
        },
        {
            "name": "E5",
            "midi": 76,
            "time": 41.7161,
            "duration": 0.0917,
            "velocity": 0.9449,
            "articulation": "normal",
            "pedal": false,
            "chord_id": null
        },
        {
            "name": "E6",
            "midi": 88,
            "time": 41.9202,
            "duration": 0.0958,
            "velocity": 0.9449,
            "articulation": "normal",
            "pedal": false,
            "chord_id": null
        },
        {
            "name": "D#5",
            "midi": 75,
            "time": 42.1161,
            "duration": 0.1917,
            "velocity": 0.9449,
            "articulation": "normal",
            "pedal": false,
            "chord_id": null
        },
        {
            "name": "E5",
            "midi": 76,
            "time": 42.3161,
            "duration": 0.1917,
            "velocity": 0.9449,
            "articulation": "normal",
            "pedal": false,
            "chord_id": null
        },
        {
            "name": "D#5",
            "midi": 75,
            "time": 42.5161,
            "duration": 0.0917,
            "velocity": 0.9449,
            "articulation": "normal",
            "pedal": false,
            "chord_id": null
        },
        {
            "name": "E5",
            "midi": 76,
            "time": 42.7161,
            "duration": 0.1917,
            "velocity": 0.9449,
            "articulation": "normal",
            "pedal": false,
            "chord_id": null
        },
        {
            "name": "D#5",
            "midi": 75,
            "time": 42.9161,
            "duration": 0.1917,
            "velocity": 0.9449,
            "articulation": "normal",
            "pedal": false,
            "chord_id": null
        },
        {
            "name": "E5",
            "midi": 76,
            "time": 43.1161,
            "duration": 0.1917,
            "velocity": 0.9449,
            "articulation": "normal",
            "pedal": false,
            "chord_id": null
        },
        {
            "name": "D#5",
            "midi": 75,
            "time": 43.3161,
            "duration": 0.0933,
            "velocity": 0.9449,
            "articulation": "normal",
            "pedal": false,
            "chord_id": null
        },
        {
            "name": "E5",
            "midi": 76,
            "time": 43.5221,
            "duration": 0.2,
            "velocity": 0.9449,
            "articulation": "normal",
            "pedal": false,
            "chord_id": null
        },
        {
            "name": "D#5",
            "midi": 75,
            "time": 43.7309,
            "duration": 0.0968,
            "velocity": 0.9449,
            "articulation": "normal",
            "pedal": false,
            "chord_id": null
        },
        {
            "name": "E5",
            "midi": 76,
            "time": 43.9497,
            "duration": 0.2139,
            "velocity": 0.9449,
            "articulation": "normal",
            "pedal": false,
            "chord_id": null
        },
        {
            "name": "D#5",
            "midi": 75,
            "time": 44.1637,
            "duration": 0.2166,
            "velocity": 0.9449,
            "articulation": "normal",
            "pedal": false,
            "chord_id": null
        },
        {
            "name": "E5",
            "midi": 76,
            "time": 44.3899,
            "duration": 0.224,
            "velocity": 0.9449,
            "articulation": "normal",
            "pedal": false,
            "chord_id": null
        },
        {
            "name": "B4",
            "midi": 71,
            "time": 44.6236,
            "duration": 0.2337,
            "velocity": 0.9449,
            "articulation": "legato",
            "pedal": false,
            "chord_id": null
        },
        {
            "name": "D5",
            "midi": 74,
            "time": 44.8675,
            "duration": 0.2357,
            "velocity": 0.9449,
            "articulation": "legato",
            "pedal": false,
            "chord_id": null
        },
        {
            "name": "C5",
            "midi": 72,
            "time": 45.1135,
            "duration": 0.1127,
            "velocity": 0.9449,
            "articulation": "normal",
            "pedal": false,
            "chord_id": null
        },
        {
            "name": "A4",
            "midi": 69,
            "time": 45.3574,
            "duration": 0.3399,
            "velocity": 0.9449,
            "articulation": "legato",
            "pedal": false,
            "chord_id": null
        },
        {
            "name": "A2",
            "midi": 45,
            "time": 45.3624,
            "duration": 0.23,
            "velocity": 0.9449,
            "articulation": "legato",
            "pedal": false,
            "chord_id": null
        },
        {
            "name": "E3",
            "midi": 52,
            "time": 45.5924,
            "duration": 0.2168,
            "velocity": 0.9449,
            "articulation": "normal",
            "pedal": false,
            "chord_id": null
        },
        {
            "name": "A3",
            "midi": 57,
            "time": 45.8186,
            "duration": 0.2097,
            "velocity": 0.9449,
            "articulation": "normal",
            "pedal": false,
            "chord_id": null
        },
        {
            "name": "C4",
            "midi": 60,
            "time": 46.0371,
            "duration": 0.2006,
            "velocity": 0.9449,
            "articulation": "normal",
            "pedal": false,
            "chord_id": null
        },
        {
            "name": "E4",
            "midi": 64,
            "time": 46.2507,
            "duration": 0.1975,
            "velocity": 0.9449,
            "articulation": "normal",
            "pedal": false,
            "chord_id": null
        },
        {
            "name": "A4",
            "midi": 69,
            "time": 46.4483,
            "duration": 0.1917,
            "velocity": 0.9449,
            "articulation": "normal",
            "pedal": false,
            "chord_id": null
        },
        {
            "name": "E2",
            "midi": 40,
            "time": 46.6483,
            "duration": 0.1917,
            "velocity": 0.9449,
            "articulation": "normal",
            "pedal": false,
            "chord_id": null
        },
        {
            "name": "B4",
            "midi": 71,
            "time": 46.6483,
            "duration": 0.3917,
            "velocity": 0.9449,
            "articulation": "legato",
            "pedal": false,
            "chord_id": null
        },
        {
            "name": "E3",
            "midi": 52,
            "time": 46.8524,
            "duration": 0.1958,
            "velocity": 0.9449,
            "articulation": "normal",
            "pedal": false,
            "chord_id": null
        },
        {
            "name": "G#3",
            "midi": 56,
            "time": 47.0483,
            "duration": 0.1917,
            "velocity": 0.9449,
            "articulation": "normal",
            "pedal": false,
            "chord_id": null
        },
        {
            "name": "E4",
            "midi": 64,
            "time": 47.2483,
            "duration": 0.1917,
            "velocity": 0.9449,
            "articulation": "normal",
            "pedal": false,
            "chord_id": null
        },
        {
            "name": "G#4",
            "midi": 68,
            "time": 47.4483,
            "duration": 0.1917,
            "velocity": 0.9449,
            "articulation": "normal",
            "pedal": false,
            "chord_id": null
        },
        {
            "name": "B4",
            "midi": 71,
            "time": 47.6483,
            "duration": 0.1917,
            "velocity": 0.9449,
            "articulation": "normal",
            "pedal": false,
            "chord_id": null
        },
        {
            "name": "C5",
            "midi": 72,
            "time": 47.8483,
            "duration": 0.3917,
            "velocity": 0.9449,
            "articulation": "legato",
            "pedal": false,
            "chord_id": null
        },
        {
            "name": "A2",
            "midi": 45,
            "time": 47.8524,
            "duration": 0.1958,
            "velocity": 0.9449,
            "articulation": "normal",
            "pedal": false,
            "chord_id": null
        },
        {
            "name": "E3",
            "midi": 52,
            "time": 48.0483,
            "duration": 0.1917,
            "velocity": 0.9449,
            "articulation": "normal",
            "pedal": false,
            "chord_id": null
        },
        {
            "name": "A3",
            "midi": 57,
            "time": 48.2483,
            "duration": 0.1917,
            "velocity": 0.9449,
            "articulation": "normal",
            "pedal": false,
            "chord_id": null
        },
        {
            "name": "E4",
            "midi": 64,
            "time": 48.4483,
            "duration": 0.0917,
            "velocity": 0.9449,
            "articulation": "normal",
            "pedal": false,
            "chord_id": null
        },
        {
            "name": "E5",
            "midi": 76,
            "time": 48.6524,
            "duration": 0.1958,
            "velocity": 0.9449,
            "articulation": "normal",
            "pedal": false,
            "chord_id": null
        },
        {
            "name": "D#5",
            "midi": 75,
            "time": 48.8524,
            "duration": 0.1958,
            "velocity": 0.9449,
            "articulation": "normal",
            "pedal": false,
            "chord_id": null
        },
        {
            "name": "E5",
            "midi": 76,
            "time": 49.0483,
            "duration": 0.1917,
            "velocity": 0.9449,
            "articulation": "normal",
            "pedal": false,
            "chord_id": null
        },
        {
            "name": "D#5",
            "midi": 75,
            "time": 49.2483,
            "duration": 0.1917,
            "velocity": 0.9449,
            "articulation": "normal",
            "pedal": false,
            "chord_id": null
        },
        {
            "name": "E5",
            "midi": 76,
            "time": 49.4483,
            "duration": 0.1917,
            "velocity": 0.9449,
            "articulation": "normal",
            "pedal": false,
            "chord_id": null
        },
        {
            "name": "B4",
            "midi": 71,
            "time": 49.6483,
            "duration": 0.1917,
            "velocity": 0.9449,
            "articulation": "normal",
            "pedal": false,
            "chord_id": null
        },
        {
            "name": "D5",
            "midi": 74,
            "time": 49.8483,
            "duration": 0.1917,
            "velocity": 0.9449,
            "articulation": "normal",
            "pedal": false,
            "chord_id": null
        },
        {
            "name": "C5",
            "midi": 72,
            "time": 50.0483,
            "duration": 0.1917,
            "velocity": 0.9449,
            "articulation": "normal",
            "pedal": false,
            "chord_id": null
        },
        {
            "name": "A2",
            "midi": 45,
            "time": 50.2483,
            "duration": 0.1917,
            "velocity": 0.9449,
            "articulation": "normal",
            "pedal": false,
            "chord_id": null
        },
        {
            "name": "A4",
            "midi": 69,
            "time": 50.2483,
            "duration": 0.2917,
            "velocity": 0.9449,
            "articulation": "legato",
            "pedal": false,
            "chord_id": null
        },
        {
            "name": "E3",
            "midi": 52,
            "time": 50.4483,
            "duration": 0.1917,
            "velocity": 0.9449,
            "articulation": "normal",
            "pedal": false,
            "chord_id": null
        },
        {
            "name": "A3",
            "midi": 57,
            "time": 50.6524,
            "duration": 0.1958,
            "velocity": 0.9449,
            "articulation": "normal",
            "pedal": false,
            "chord_id": null
        },
        {
            "name": "C4",
            "midi": 60,
            "time": 50.8483,
            "duration": 0.1917,
            "velocity": 0.9449,
            "articulation": "normal",
            "pedal": false,
            "chord_id": null
        },
        {
            "name": "E4",
            "midi": 64,
            "time": 51.0483,
            "duration": 0.1917,
            "velocity": 0.9449,
            "articulation": "normal",
            "pedal": false,
            "chord_id": null
        },
        {
            "name": "A4",
            "midi": 69,
            "time": 51.2483,
            "duration": 0.1917,
            "velocity": 0.9449,
            "articulation": "normal",
            "pedal": false,
            "chord_id": null
        },
        {
            "name": "E2",
            "midi": 40,
            "time": 51.4483,
            "duration": 0.1917,
            "velocity": 0.9449,
            "articulation": "normal",
            "pedal": false,
            "chord_id": null
        },
        {
            "name": "B4",
            "midi": 71,
            "time": 51.4483,
            "duration": 0.3917,
            "velocity": 0.9449,
            "articulation": "legato",
            "pedal": false,
            "chord_id": null
        },
        {
            "name": "E3",
            "midi": 52,
            "time": 51.6483,
            "duration": 0.1917,
            "velocity": 0.9449,
            "articulation": "normal",
            "pedal": false,
            "chord_id": null
        },
        {
            "name": "G#3",
            "midi": 56,
            "time": 51.8483,
            "duration": 0.1917,
            "velocity": 0.9449,
            "articulation": "normal",
            "pedal": false,
            "chord_id": null
        },
        {
            "name": "D4",
            "midi": 62,
            "time": 52.0524,
            "duration": 0.1958,
            "velocity": 0.9449,
            "articulation": "normal",
            "pedal": false,
            "chord_id": null
        },
        {
            "name": "C5",
            "midi": 72,
            "time": 52.2483,
            "duration": 0.1917,
            "velocity": 0.9449,
            "articulation": "normal",
            "pedal": false,
            "chord_id": null
        },
        {
            "name": "B4",
            "midi": 71,
            "time": 52.4483,
            "duration": 0.0917,
            "velocity": 0.9449,
            "articulation": "normal",
            "pedal": false,
            "chord_id": null
        },
        {
            "name": "A2",
            "midi": 45,
            "time": 52.6483,
            "duration": 0.1917,
            "velocity": 0.9449,
            "articulation": "normal",
            "pedal": false,
            "chord_id": null
        },
        {
            "name": "C4",
            "midi": 60,
            "time": 52.6483,
            "duration": 0.2917,
            "velocity": 0.9449,
            "articulation": "legato",
            "pedal": false,
            "chord_id": null
        },
        {
            "name": "A4",
            "midi": 69,
            "time": 52.6483,
            "duration": 0.2917,
            "velocity": 0.9449,
            "articulation": "legato",
            "pedal": false,
            "chord_id": null
        },
        {
            "name": "E3",
            "midi": 52,
            "time": 52.8483,
            "duration": 0.1917,
            "velocity": 0.9449,
            "articulation": "normal",
            "pedal": false,
            "chord_id": null
        },
        {
            "name": "A3",
            "midi": 57,
            "time": 53.0483,
            "duration": 0.1917,
            "velocity": 0.9449,
            "articulation": "normal",
            "pedal": false,
            "chord_id": null
        },
        {
            "name": "C4",
            "midi": 60,
            "time": 53.2483,
            "duration": 0.1924,
            "velocity": 0.9449,
            "articulation": "normal",
            "pedal": false,
            "chord_id": null
        },
        {
            "name": "A#3",
            "midi": 58,
            "time": 53.2524,
            "duration": 0.1967,
            "velocity": 0.9449,
            "articulation": "normal",
            "pedal": false,
            "chord_id": null
        },
        {
            "name": "E4",
            "midi": 64,
            "time": 53.2524,
            "duration": 0.0958,
            "velocity": 0.9449,
            "articulation": "normal",
            "pedal": false,
            "chord_id": null
        },
        {
            "name": "C5",
            "midi": 72,
            "time": 53.2524,
            "duration": 0.0958,
            "velocity": 0.9449,
            "articulation": "normal",
            "pedal": false,
            "chord_id": null
        },
        {
            "name": "F4",
            "midi": 65,
            "time": 53.4492,
            "duration": 0.0942,
            "velocity": 0.9449,
            "articulation": "normal",
            "pedal": false,
            "chord_id": null
        },
        {
            "name": "C5",
            "midi": 72,
            "time": 53.4492,
            "duration": 0.0942,
            "velocity": 0.9449,
            "articulation": "normal",
            "pedal": false,
            "chord_id": null
        },
        {
            "name": "A3",
            "midi": 57,
            "time": 53.4534,
            "duration": 0.2026,
            "velocity": 0.9449,
            "articulation": "normal",
            "pedal": false,
            "chord_id": null
        },
        {
            "name": "C4",
            "midi": 60,
            "time": 53.4534,
            "duration": 0.2026,
            "velocity": 0.9449,
            "articulation": "normal",
            "pedal": false,
            "chord_id": null
        },
        {
            "name": "C4",
            "midi": 60,
            "time": 53.6561,
            "duration": 0.2008,
            "velocity": 0.9449,
            "articulation": "normal",
            "pedal": false,
            "chord_id": null
        },
        {
            "name": "G4",
            "midi": 67,
            "time": 53.6561,
            "duration": 0.0955,
            "velocity": 0.9449,
            "articulation": "normal",
            "pedal": false,
            "chord_id": null
        },
        {
            "name": "C5",
            "midi": 72,
            "time": 53.6561,
            "duration": 0.0955,
            "velocity": 0.9449,
            "articulation": "normal",
            "pedal": false,
            "chord_id": null
        },
        {
            "name": "G3",
            "midi": 55,
            "time": 53.6604,
            "duration": 0.2055,
            "velocity": 0.9449,
            "articulation": "normal",
            "pedal": false,
            "chord_id": null
        },
        {
            "name": "A#3",
            "midi": 58,
            "time": 53.6604,
            "duration": 0.2055,
            "velocity": 0.9449,
            "articulation": "normal",
            "pedal": false,
            "chord_id": null
        },
        {
            "name": "E4",
            "midi": 64,
            "time": 53.6604,
            "duration": 0.0998,
            "velocity": 0.9449,
            "articulation": "normal",
            "pedal": false,
            "chord_id": null
        },
        {
            "name": "F3",
            "midi": 53,
            "time": 53.8659,
            "duration": 0.2113,
            "velocity": 0.9449,
            "articulation": "normal",
            "pedal": false,
            "chord_id": null
        },
        {
            "name": "C5",
            "midi": 72,
            "time": 53.8659,
            "duration": 0.7973,
            "velocity": 0.9449,
            "articulation": "legato",
            "pedal": false,
            "chord_id": null
        },
        {
            "name": "A3",
            "midi": 57,
            "time": 54.0865,
            "duration": 0.2229,
            "velocity": 0.9449,
            "articulation": "normal",
            "pedal": false,
            "chord_id": null
        },
        {
            "name": "C4",
            "midi": 60,
            "time": 54.3192,
            "duration": 0.2246,
            "velocity": 0.9449,
            "articulation": "normal",
            "pedal": false,
            "chord_id": null
        },
        {
            "name": "A3",
            "midi": 57,
            "time": 54.5584,
            "duration": 0.2358,
            "velocity": 0.9449,
            "articulation": "legato",
            "pedal": false,
            "chord_id": null
        },
        {
            "name": "F5",
            "midi": 77,
            "time": 54.7942,
            "duration": 0.3528,
            "velocity": 0.9449,
            "articulation": "legato",
            "pedal": false,
            "chord_id": null
        },
        {
            "name": "C4",
            "midi": 60,
            "time": 54.7993,
            "duration": 0.2369,
            "velocity": 0.9449,
            "articulation": "legato",
            "pedal": false,
            "chord_id": null
        },
        {
            "name": "A3",
            "midi": 57,
            "time": 55.0412,
            "duration": 0.2369,
            "velocity": 0.9449,
            "articulation": "legato",
            "pedal": false,
            "chord_id": null
        },
        {
            "name": "E5",
            "midi": 76,
            "time": 55.1622,
            "duration": 0.1159,
            "velocity": 0.9449,
            "articulation": "normal",
            "pedal": false,
            "chord_id": null
        },
        {
            "name": "F3",
            "midi": 53,
            "time": 55.2781,
            "duration": 0.2284,
            "velocity": 0.9449,
            "articulation": "legato",
            "pedal": false,
            "chord_id": null
        },
        {
            "name": "E5",
            "midi": 76,
            "time": 55.2781,
            "duration": 0.4628,
            "velocity": 0.9449,
            "articulation": "legato",
            "pedal": false,
            "chord_id": null
        },
        {
            "name": "A#3",
            "midi": 58,
            "time": 55.5163,
            "duration": 0.2246,
            "velocity": 0.9449,
            "articulation": "normal",
            "pedal": false,
            "chord_id": null
        },
        {
            "name": "D4",
            "midi": 62,
            "time": 55.7506,
            "duration": 0.2186,
            "velocity": 0.9449,
            "articulation": "normal",
            "pedal": false,
            "chord_id": null
        },
        {
            "name": "D5",
            "midi": 74,
            "time": 55.7506,
            "duration": 0.3286,
            "velocity": 0.9449,
            "articulation": "legato",
            "pedal": false,
            "chord_id": null
        },
        {
            "name": "A#3",
            "midi": 58,
            "time": 55.9832,
            "duration": 0.2138,
            "velocity": 0.9449,
            "articulation": "normal",
            "pedal": false,
            "chord_id": null
        },
        {
            "name": "D4",
            "midi": 62,
            "time": 56.197,
            "duration": 0.2083,
            "velocity": 0.9449,
            "articulation": "normal",
            "pedal": false,
            "chord_id": null
        },
        {
            "name": "A#5",
            "midi": 82,
            "time": 56.197,
            "duration": 0.317,
            "velocity": 0.9449,
            "articulation": "legato",
            "pedal": false,
            "chord_id": null
        },
        {
            "name": "A#3",
            "midi": 58,
            "time": 56.4144,
            "duration": 0.2083,
            "velocity": 0.9449,
            "articulation": "normal",
            "pedal": false,
            "chord_id": null
        },
        {
            "name": "A5",
            "midi": 81,
            "time": 56.5276,
            "duration": 0.1042,
            "velocity": 0.9449,
            "articulation": "normal",
            "pedal": false,
            "chord_id": null
        },
        {
            "name": "F3",
            "midi": 53,
            "time": 56.6318,
            "duration": 0.2083,
            "velocity": 0.9449,
            "articulation": "normal",
            "pedal": false,
            "chord_id": null
        },
        {
            "name": "A5",
            "midi": 81,
            "time": 56.6363,
            "duration": 0.2129,
            "velocity": 0.9449,
            "articulation": "normal",
            "pedal": false,
            "chord_id": null
        },
        {
            "name": "D4",
            "midi": 62,
            "time": 56.8492,
            "duration": 0.2083,
            "velocity": 0.9449,
            "articulation": "normal",
            "pedal": false,
            "chord_id": null
        },
        {
            "name": "G5",
            "midi": 79,
            "time": 56.8492,
            "duration": 0.2083,
            "velocity": 0.9449,
            "articulation": "normal",
            "pedal": false,
            "chord_id": null
        },
        {
            "name": "F3",
            "midi": 53,
            "time": 57.0666,
            "duration": 0.2083,
            "velocity": 0.9449,
            "articulation": "normal",
            "pedal": false,
            "chord_id": null
        },
        {
            "name": "F5",
            "midi": 77,
            "time": 57.0666,
            "duration": 0.2083,
            "velocity": 0.9449,
            "articulation": "normal",
            "pedal": false,
            "chord_id": null
        },
        {
            "name": "G3",
            "midi": 55,
            "time": 57.0711,
            "duration": 0.2129,
            "velocity": 0.9449,
            "articulation": "normal",
            "pedal": false,
            "chord_id": null
        },
        {
            "name": "A#3",
            "midi": 58,
            "time": 57.0711,
            "duration": 0.2129,
            "velocity": 0.9449,
            "articulation": "normal",
            "pedal": false,
            "chord_id": null
        },
        {
            "name": "E5",
            "midi": 76,
            "time": 57.284,
            "duration": 0.2083,
            "velocity": 0.9449,
            "articulation": "normal",
            "pedal": false,
            "chord_id": null
        },
        {
            "name": "D4",
            "midi": 62,
            "time": 57.2885,
            "duration": 0.2129,
            "velocity": 0.9449,
            "articulation": "normal",
            "pedal": false,
            "chord_id": null
        },
        {
            "name": "A#3",
            "midi": 58,
            "time": 57.5014,
            "duration": 0.2083,
            "velocity": 0.9449,
            "articulation": "normal",
            "pedal": false,
            "chord_id": null
        },
        {
            "name": "D5",
            "midi": 74,
            "time": 57.5014,
            "duration": 0.2083,
            "velocity": 0.9449,
            "articulation": "normal",
            "pedal": false,
            "chord_id": null
        },
        {
            "name": "F3",
            "midi": 53,
            "time": 57.5059,
            "duration": 0.2129,
            "velocity": 0.9449,
            "articulation": "normal",
            "pedal": false,
            "chord_id": null
        },
        {
            "name": "G3",
            "midi": 55,
            "time": 57.5059,
            "duration": 0.2129,
            "velocity": 0.9449,
            "articulation": "normal",
            "pedal": false,
            "chord_id": null
        },
        {
            "name": "D4",
            "midi": 62,
            "time": 57.7188,
            "duration": 0.2083,
            "velocity": 0.9449,
            "articulation": "normal",
            "pedal": false,
            "chord_id": null
        },
        {
            "name": "C5",
            "midi": 72,
            "time": 57.7188,
            "duration": 0.2083,
            "velocity": 0.9449,
            "articulation": "normal",
            "pedal": false,
            "chord_id": null
        },
        {
            "name": "F3",
            "midi": 53,
            "time": 57.9362,
            "duration": 0.2083,
            "velocity": 0.9449,
            "articulation": "normal",
            "pedal": false,
            "chord_id": null
        },
        {
            "name": "A#4",
            "midi": 70,
            "time": 57.9362,
            "duration": 0.4257,
            "velocity": 0.9449,
            "articulation": "legato",
            "pedal": false,
            "chord_id": null
        },
        {
            "name": "A3",
            "midi": 57,
            "time": 58.1535,
            "duration": 0.2083,
            "velocity": 0.9449,
            "articulation": "normal",
            "pedal": false,
            "chord_id": null
        },
        {
            "name": "C4",
            "midi": 60,
            "time": 58.3709,
            "duration": 0.2083,
            "velocity": 0.9449,
            "articulation": "normal",
            "pedal": false,
            "chord_id": null
        },
        {
            "name": "A4",
            "midi": 69,
            "time": 58.3709,
            "duration": 0.317,
            "velocity": 0.9449,
            "articulation": "legato",
            "pedal": false,
            "chord_id": null
        },
        {
            "name": "A3",
            "midi": 57,
            "time": 58.5883,
            "duration": 0.2083,
            "velocity": 0.9449,
            "articulation": "normal",
            "pedal": false,
            "chord_id": null
        },
        {
            "name": "A#4",
            "midi": 70,
            "time": 58.697,
            "duration": 0.0996,
            "velocity": 0.9449,
            "articulation": "normal",
            "pedal": false,
            "chord_id": null
        },
        {
            "name": "C4",
            "midi": 60,
            "time": 58.8057,
            "duration": 0.2083,
            "velocity": 0.9449,
            "articulation": "normal",
            "pedal": false,
            "chord_id": null
        },
        {
            "name": "A4",
            "midi": 69,
            "time": 58.8102,
            "duration": 0.1042,
            "velocity": 0.9449,
            "articulation": "normal",
            "pedal": false,
            "chord_id": null
        },
        {
            "name": "G4",
            "midi": 67,
            "time": 58.9189,
            "duration": 0.1042,
            "velocity": 0.9449,
            "articulation": "normal",
            "pedal": false,
            "chord_id": null
        },
        {
            "name": "A3",
            "midi": 57,
            "time": 59.0231,
            "duration": 0.2083,
            "velocity": 0.9449,
            "articulation": "normal",
            "pedal": false,
            "chord_id": null
        },
        {
            "name": "A4",
            "midi": 69,
            "time": 59.0231,
            "duration": 0.0996,
            "velocity": 0.9449,
            "articulation": "normal",
            "pedal": false,
            "chord_id": null
        },
        {
            "name": "A#4",
            "midi": 70,
            "time": 59.1363,
            "duration": 0.1042,
            "velocity": 0.9449,
            "articulation": "normal",
            "pedal": false,
            "chord_id": null
        },
        {
            "name": "F3",
            "midi": 53,
            "time": 59.2405,
            "duration": 0.2083,
            "velocity": 0.9449,
            "articulation": "normal",
            "pedal": false,
            "chord_id": null
        },
        {
            "name": "C5",
            "midi": 72,
            "time": 59.2405,
            "duration": 0.8605,
            "velocity": 0.9449,
            "articulation": "legato",
            "pedal": false,
            "chord_id": null
        },
        {
            "name": "A3",
            "midi": 57,
            "time": 59.4579,
            "duration": 0.2083,
            "velocity": 0.9449,
            "articulation": "normal",
            "pedal": false,
            "chord_id": null
        },
        {
            "name": "C4",
            "midi": 60,
            "time": 59.6798,
            "duration": 0.2129,
            "velocity": 0.9449,
            "articulation": "normal",
            "pedal": false,
            "chord_id": null
        },
        {
            "name": "A3",
            "midi": 57,
            "time": 59.8972,
            "duration": 0.2129,
            "velocity": 0.9449,
            "articulation": "normal",
            "pedal": false,
            "chord_id": null
        },
        {
            "name": "C4",
            "midi": 60,
            "time": 60.1101,
            "duration": 0.2083,
            "velocity": 0.9449,
            "articulation": "normal",
            "pedal": false,
            "chord_id": null
        },
        {
            "name": "D5",
            "midi": 74,
            "time": 60.1101,
            "duration": 0.2083,
            "velocity": 0.9449,
            "articulation": "normal",
            "pedal": false,
            "chord_id": null
        },
        {
            "name": "D#5",
            "midi": 75,
            "time": 60.3275,
            "duration": 0.2083,
            "velocity": 0.9449,
            "articulation": "normal",
            "pedal": false,
            "chord_id": null
        },
        {
            "name": "A3",
            "midi": 57,
            "time": 60.332,
            "duration": 0.2129,
            "velocity": 0.9449,
            "articulation": "normal",
            "pedal": false,
            "chord_id": null
        },
        {
            "name": "E3",
            "midi": 52,
            "time": 60.5494,
            "duration": 0.2129,
            "velocity": 0.9449,
            "articulation": "normal",
            "pedal": false,
            "chord_id": null
        },
        {
            "name": "E5",
            "midi": 76,
            "time": 60.5494,
            "duration": 0.5389,
            "velocity": 0.9449,
            "articulation": "legato",
            "pedal": false,
            "chord_id": null
        },
        {
            "name": "A3",
            "midi": 57,
            "time": 60.7622,
            "duration": 0.2083,
            "velocity": 0.9449,
            "articulation": "normal",
            "pedal": false,
            "chord_id": null
        },
        {
            "name": "C4",
            "midi": 60,
            "time": 60.9796,
            "duration": 0.2083,
            "velocity": 0.9449,
            "articulation": "normal",
            "pedal": false,
            "chord_id": null
        },
        {
            "name": "A3",
            "midi": 57,
            "time": 61.197,
            "duration": 0.2083,
            "velocity": 0.9449,
            "articulation": "normal",
            "pedal": false,
            "chord_id": null
        },
        {
            "name": "E5",
            "midi": 76,
            "time": 61.197,
            "duration": 0.2083,
            "velocity": 0.9449,
            "articulation": "normal",
            "pedal": false,
            "chord_id": null
        },
        {
            "name": "F5",
            "midi": 77,
            "time": 61.4144,
            "duration": 0.2083,
            "velocity": 0.9449,
            "articulation": "normal",
            "pedal": false,
            "chord_id": null
        },
        {
            "name": "D3",
            "midi": 50,
            "time": 61.4189,
            "duration": 0.2129,
            "velocity": 0.9449,
            "articulation": "normal",
            "pedal": false,
            "chord_id": null
        },
        {
            "name": "D4",
            "midi": 62,
            "time": 61.4189,
            "duration": 0.2129,
            "velocity": 0.9449,
            "articulation": "normal",
            "pedal": false,
            "chord_id": null
        },
        {
            "name": "F3",
            "midi": 53,
            "time": 61.6318,
            "duration": 0.2083,
            "velocity": 0.9449,
            "articulation": "normal",
            "pedal": false,
            "chord_id": null
        },
        {
            "name": "A4",
            "midi": 69,
            "time": 61.6318,
            "duration": 0.0996,
            "velocity": 0.9449,
            "articulation": "normal",
            "pedal": false,
            "chord_id": null
        },
        {
            "name": "G3",
            "midi": 55,
            "time": 61.8492,
            "duration": 0.2083,
            "velocity": 0.9449,
            "articulation": "normal",
            "pedal": false,
            "chord_id": null
        },
        {
            "name": "C5",
            "midi": 72,
            "time": 61.8492,
            "duration": 0.317,
            "velocity": 0.9449,
            "articulation": "legato",
            "pedal": false,
            "chord_id": null
        },
        {
            "name": "E4",
            "midi": 64,
            "time": 62.0666,
            "duration": 0.2083,
            "velocity": 0.9449,
            "articulation": "normal",
            "pedal": false,
            "chord_id": null
        },
        {
            "name": "G3",
            "midi": 55,
            "time": 62.284,
            "duration": 0.2083,
            "velocity": 0.9449,
            "articulation": "normal",
            "pedal": false,
            "chord_id": null
        },
        {
            "name": "D5",
            "midi": 74,
            "time": 62.2885,
            "duration": 0.1042,
            "velocity": 0.9449,
            "articulation": "normal",
            "pedal": false,
            "chord_id": null
        },
        {
            "name": "C5",
            "midi": 72,
            "time": 62.3972,
            "duration": 0.1042,
            "velocity": 0.9449,
            "articulation": "normal",
            "pedal": false,
            "chord_id": null
        },
        {
            "name": "E4",
            "midi": 64,
            "time": 62.5014,
            "duration": 0.2083,
            "velocity": 0.9449,
            "articulation": "normal",
            "pedal": false,
            "chord_id": null
        },
        {
            "name": "B4",
            "midi": 71,
            "time": 62.5014,
            "duration": 0.0996,
            "velocity": 0.9449,
            "articulation": "normal",
            "pedal": false,
            "chord_id": null
        },
        {
            "name": "C5",
            "midi": 72,
            "time": 62.6101,
            "duration": 0.0996,
            "velocity": 0.9449,
            "articulation": "normal",
            "pedal": false,
            "chord_id": null
        },
        {
            "name": "G3",
            "midi": 55,
            "time": 62.7188,
            "duration": 0.2083,
            "velocity": 0.9449,
            "articulation": "normal",
            "pedal": false,
            "chord_id": null
        },
        {
            "name": "D5",
            "midi": 74,
            "time": 62.7188,
            "duration": 0.317,
            "velocity": 0.9449,
            "articulation": "legato",
            "pedal": false,
            "chord_id": null
        },
        {
            "name": "F4",
            "midi": 65,
            "time": 62.9407,
            "duration": 0.2129,
            "velocity": 0.9449,
            "articulation": "normal",
            "pedal": false,
            "chord_id": null
        },
        {
            "name": "B4",
            "midi": 71,
            "time": 63.0448,
            "duration": 0.0996,
            "velocity": 0.9449,
            "articulation": "normal",
            "pedal": false,
            "chord_id": null
        },
        {
            "name": "C4",
            "midi": 60,
            "time": 63.1535,
            "duration": 0.2083,
            "velocity": 0.9449,
            "articulation": "normal",
            "pedal": false,
            "chord_id": null
        },
        {
            "name": "E4",
            "midi": 64,
            "time": 63.1535,
            "duration": 0.2083,
            "velocity": 0.9449,
            "articulation": "normal",
            "pedal": false,
            "chord_id": null
        },
        {
            "name": "C5",
            "midi": 72,
            "time": 63.1581,
            "duration": 0.1042,
            "velocity": 0.9449,
            "articulation": "normal",
            "pedal": false,
            "chord_id": null
        },
        {
            "name": "G5",
            "midi": 79,
            "time": 63.2622,
            "duration": 0.0996,
            "velocity": 0.9449,
            "articulation": "normal",
            "pedal": false,
            "chord_id": null
        },
        {
            "name": "G4",
            "midi": 67,
            "time": 63.3755,
            "duration": 0.1042,
            "velocity": 0.9449,
            "articulation": "normal",
            "pedal": false,
            "chord_id": null
        },
        {
            "name": "G5",
            "midi": 79,
            "time": 63.4796,
            "duration": 0.0996,
            "velocity": 0.9449,
            "articulation": "normal",
            "pedal": false,
            "chord_id": null
        },
        {
            "name": "A4",
            "midi": 69,
            "time": 63.5883,
            "duration": 0.0996,
            "velocity": 0.9449,
            "articulation": "normal",
            "pedal": false,
            "chord_id": null
        },
        {
            "name": "G5",
            "midi": 79,
            "time": 63.697,
            "duration": 0.0996,
            "velocity": 0.9449,
            "articulation": "normal",
            "pedal": false,
            "chord_id": null
        },
        {
            "name": "G4",
            "midi": 67,
            "time": 63.8057,
            "duration": 0.2083,
            "velocity": 0.9449,
            "articulation": "normal",
            "pedal": false,
            "chord_id": null
        },
        {
            "name": "B4",
            "midi": 71,
            "time": 63.8057,
            "duration": 0.0996,
            "velocity": 0.9449,
            "articulation": "normal",
            "pedal": false,
            "chord_id": null
        },
        {
            "name": "F4",
            "midi": 65,
            "time": 63.8102,
            "duration": 0.2129,
            "velocity": 0.9449,
            "articulation": "normal",
            "pedal": false,
            "chord_id": null
        },
        {
            "name": "G5",
            "midi": 79,
            "time": 63.9144,
            "duration": 0.0996,
            "velocity": 0.9449,
            "articulation": "normal",
            "pedal": false,
            "chord_id": null
        },
        {
            "name": "E4",
            "midi": 64,
            "time": 64.0231,
            "duration": 0.2083,
            "velocity": 0.9449,
            "articulation": "normal",
            "pedal": false,
            "chord_id": null
        },
        {
            "name": "G4",
            "midi": 67,
            "time": 64.0231,
            "duration": 0.2083,
            "velocity": 0.9449,
            "articulation": "normal",
            "pedal": false,
            "chord_id": null
        },
        {
            "name": "C5",
            "midi": 72,
            "time": 64.0231,
            "duration": 0.0996,
            "velocity": 0.9449,
            "articulation": "normal",
            "pedal": false,
            "chord_id": null
        },
        {
            "name": "G5",
            "midi": 79,
            "time": 64.1363,
            "duration": 0.1042,
            "velocity": 0.9449,
            "articulation": "normal",
            "pedal": false,
            "chord_id": null
        },
        {
            "name": "D4",
            "midi": 62,
            "time": 64.2405,
            "duration": 0.2083,
            "velocity": 0.9449,
            "articulation": "normal",
            "pedal": false,
            "chord_id": null
        },
        {
            "name": "F4",
            "midi": 65,
            "time": 64.2405,
            "duration": 0.2083,
            "velocity": 0.9449,
            "articulation": "normal",
            "pedal": false,
            "chord_id": null
        },
        {
            "name": "G4",
            "midi": 67,
            "time": 64.2405,
            "duration": 0.2083,
            "velocity": 0.9449,
            "articulation": "normal",
            "pedal": false,
            "chord_id": null
        },
        {
            "name": "D5",
            "midi": 74,
            "time": 64.2405,
            "duration": 0.0996,
            "velocity": 0.9449,
            "articulation": "normal",
            "pedal": false,
            "chord_id": null
        },
        {
            "name": "G5",
            "midi": 79,
            "time": 64.3492,
            "duration": 0.0996,
            "velocity": 0.9449,
            "articulation": "normal",
            "pedal": false,
            "chord_id": null
        },
        {
            "name": "C4",
            "midi": 60,
            "time": 64.4579,
            "duration": 0.2083,
            "velocity": 0.9449,
            "articulation": "normal",
            "pedal": false,
            "chord_id": null
        },
        {
            "name": "G4",
            "midi": 67,
            "time": 64.4579,
            "duration": 0.2083,
            "velocity": 0.9449,
            "articulation": "normal",
            "pedal": false,
            "chord_id": null
        },
        {
            "name": "E5",
            "midi": 76,
            "time": 64.4579,
            "duration": 0.0996,
            "velocity": 0.9449,
            "articulation": "normal",
            "pedal": false,
            "chord_id": null
        },
        {
            "name": "E4",
            "midi": 64,
            "time": 64.4624,
            "duration": 0.2129,
            "velocity": 0.9449,
            "articulation": "normal",
            "pedal": false,
            "chord_id": null
        },
        {
            "name": "G5",
            "midi": 79,
            "time": 64.5666,
            "duration": 0.0996,
            "velocity": 0.9449,
            "articulation": "normal",
            "pedal": false,
            "chord_id": null
        },
        {
            "name": "C6",
            "midi": 84,
            "time": 64.6753,
            "duration": 0.0996,
            "velocity": 0.9449,
            "articulation": "normal",
            "pedal": false,
            "chord_id": null
        },
        {
            "name": "B5",
            "midi": 83,
            "time": 64.7885,
            "duration": 0.1042,
            "velocity": 0.9449,
            "articulation": "normal",
            "pedal": false,
            "chord_id": null
        },
        {
            "name": "A3",
            "midi": 57,
            "time": 64.8927,
            "duration": 0.4257,
            "velocity": 0.9449,
            "articulation": "legato",
            "pedal": false,
            "chord_id": null
        },
        {
            "name": "A5",
            "midi": 81,
            "time": 64.8927,
            "duration": 0.0996,
            "velocity": 0.9449,
            "articulation": "normal",
            "pedal": false,
            "chord_id": null
        },
        {
            "name": "F3",
            "midi": 53,
            "time": 64.8972,
            "duration": 0.4303,
            "velocity": 0.9449,
            "articulation": "legato",
            "pedal": false,
            "chord_id": null
        },
        {
            "name": "G5",
            "midi": 79,
            "time": 65.0014,
            "duration": 0.0996,
            "velocity": 0.9449,
            "articulation": "normal",
            "pedal": false,
            "chord_id": null
        },
        {
            "name": "F5",
            "midi": 77,
            "time": 65.1101,
            "duration": 0.0996,
            "velocity": 0.9449,
            "articulation": "normal",
            "pedal": false,
            "chord_id": null
        },
        {
            "name": "E5",
            "midi": 76,
            "time": 65.2188,
            "duration": 0.0996,
            "velocity": 0.9449,
            "articulation": "normal",
            "pedal": false,
            "chord_id": null
        },
        {
            "name": "B3",
            "midi": 59,
            "time": 65.3275,
            "duration": 0.2083,
            "velocity": 0.9449,
            "articulation": "normal",
            "pedal": false,
            "chord_id": null
        },
        {
            "name": "D5",
            "midi": 74,
            "time": 65.3275,
            "duration": 0.0996,
            "velocity": 0.9449,
            "articulation": "normal",
            "pedal": false,
            "chord_id": null
        },
        {
            "name": "G3",
            "midi": 55,
            "time": 65.332,
            "duration": 0.2129,
            "velocity": 0.9449,
            "articulation": "normal",
            "pedal": false,
            "chord_id": null
        },
        {
            "name": "G5",
            "midi": 79,
            "time": 65.4362,
            "duration": 0.0996,
            "velocity": 0.9449,
            "articulation": "normal",
            "pedal": false,
            "chord_id": null
        },
        {
            "name": "F5",
            "midi": 77,
            "time": 65.5448,
            "duration": 0.0996,
            "velocity": 0.9449,
            "articulation": "normal",
            "pedal": false,
            "chord_id": null
        },
        {
            "name": "D5",
            "midi": 74,
            "time": 65.6535,
            "duration": 0.0996,
            "velocity": 0.9449,
            "articulation": "normal",
            "pedal": false,
            "chord_id": null
        },
        {
            "name": "C4",
            "midi": 60,
            "time": 65.7622,
            "duration": 0.2083,
            "velocity": 0.9449,
            "articulation": "normal",
            "pedal": false,
            "chord_id": null
        },
        {
            "name": "C5",
            "midi": 72,
            "time": 65.7668,
            "duration": 0.1042,
            "velocity": 0.9449,
            "articulation": "normal",
            "pedal": false,
            "chord_id": null
        },
        {
            "name": "G5",
            "midi": 79,
            "time": 65.8755,
            "duration": 0.1042,
            "velocity": 0.9449,
            "articulation": "normal",
            "pedal": false,
            "chord_id": null
        },
        {
            "name": "G4",
            "midi": 67,
            "time": 65.9796,
            "duration": 0.0996,
            "velocity": 0.9449,
            "articulation": "normal",
            "pedal": false,
            "chord_id": null
        },
        {
            "name": "G5",
            "midi": 79,
            "time": 66.0929,
            "duration": 0.1042,
            "velocity": 0.9449,
            "articulation": "normal",
            "pedal": false,
            "chord_id": null
        },
        {
            "name": "A4",
            "midi": 69,
            "time": 66.197,
            "duration": 0.0996,
            "velocity": 0.9449,
            "articulation": "normal",
            "pedal": false,
            "chord_id": null
        },
        {
            "name": "G5",
            "midi": 79,
            "time": 66.3057,
            "duration": 0.0996,
            "velocity": 0.9449,
            "articulation": "normal",
            "pedal": false,
            "chord_id": null
        },
        {
            "name": "G4",
            "midi": 67,
            "time": 66.4144,
            "duration": 0.2083,
            "velocity": 0.9449,
            "articulation": "normal",
            "pedal": false,
            "chord_id": null
        },
        {
            "name": "B4",
            "midi": 71,
            "time": 66.4144,
            "duration": 0.0996,
            "velocity": 0.9449,
            "articulation": "normal",
            "pedal": false,
            "chord_id": null
        },
        {
            "name": "F4",
            "midi": 65,
            "time": 66.4189,
            "duration": 0.2129,
            "velocity": 0.9449,
            "articulation": "normal",
            "pedal": false,
            "chord_id": null
        },
        {
            "name": "G5",
            "midi": 79,
            "time": 66.5231,
            "duration": 0.0996,
            "velocity": 0.9449,
            "articulation": "normal",
            "pedal": false,
            "chord_id": null
        },
        {
            "name": "E4",
            "midi": 64,
            "time": 66.6318,
            "duration": 0.2083,
            "velocity": 0.9449,
            "articulation": "normal",
            "pedal": false,
            "chord_id": null
        },
        {
            "name": "G4",
            "midi": 67,
            "time": 66.6318,
            "duration": 0.2083,
            "velocity": 0.9449,
            "articulation": "normal",
            "pedal": false,
            "chord_id": null
        },
        {
            "name": "C5",
            "midi": 72,
            "time": 66.6318,
            "duration": 0.0996,
            "velocity": 0.9449,
            "articulation": "normal",
            "pedal": false,
            "chord_id": null
        },
        {
            "name": "G5",
            "midi": 79,
            "time": 66.7405,
            "duration": 0.0996,
            "velocity": 0.9449,
            "articulation": "normal",
            "pedal": false,
            "chord_id": null
        },
        {
            "name": "D4",
            "midi": 62,
            "time": 66.8492,
            "duration": 0.2083,
            "velocity": 0.9449,
            "articulation": "normal",
            "pedal": false,
            "chord_id": null
        },
        {
            "name": "F4",
            "midi": 65,
            "time": 66.8492,
            "duration": 0.2083,
            "velocity": 0.9449,
            "articulation": "normal",
            "pedal": false,
            "chord_id": null
        },
        {
            "name": "G4",
            "midi": 67,
            "time": 66.8492,
            "duration": 0.2083,
            "velocity": 0.9449,
            "articulation": "normal",
            "pedal": false,
            "chord_id": null
        },
        {
            "name": "D5",
            "midi": 74,
            "time": 66.8492,
            "duration": 0.0996,
            "velocity": 0.9449,
            "articulation": "normal",
            "pedal": false,
            "chord_id": null
        },
        {
            "name": "G5",
            "midi": 79,
            "time": 66.9624,
            "duration": 0.1042,
            "velocity": 0.9449,
            "articulation": "normal",
            "pedal": false,
            "chord_id": null
        },
        {
            "name": "C4",
            "midi": 60,
            "time": 67.0666,
            "duration": 0.2083,
            "velocity": 0.9449,
            "articulation": "normal",
            "pedal": false,
            "chord_id": null
        },
        {
            "name": "E4",
            "midi": 64,
            "time": 67.0666,
            "duration": 0.2083,
            "velocity": 0.9449,
            "articulation": "normal",
            "pedal": false,
            "chord_id": null
        },
        {
            "name": "G4",
            "midi": 67,
            "time": 67.0666,
            "duration": 0.2083,
            "velocity": 0.9449,
            "articulation": "normal",
            "pedal": false,
            "chord_id": null
        },
        {
            "name": "E5",
            "midi": 76,
            "time": 67.0666,
            "duration": 0.0996,
            "velocity": 0.9449,
            "articulation": "normal",
            "pedal": false,
            "chord_id": null
        },
        {
            "name": "G5",
            "midi": 79,
            "time": 67.1753,
            "duration": 0.0996,
            "velocity": 0.9449,
            "articulation": "normal",
            "pedal": false,
            "chord_id": null
        },
        {
            "name": "C6",
            "midi": 84,
            "time": 67.2885,
            "duration": 0.1042,
            "velocity": 0.9449,
            "articulation": "normal",
            "pedal": false,
            "chord_id": null
        },
        {
            "name": "B5",
            "midi": 83,
            "time": 67.3972,
            "duration": 0.1042,
            "velocity": 0.9449,
            "articulation": "normal",
            "pedal": false,
            "chord_id": null
        },
        {
            "name": "A5",
            "midi": 81,
            "time": 67.5014,
            "duration": 0.0996,
            "velocity": 0.9449,
            "articulation": "normal",
            "pedal": false,
            "chord_id": null
        },
        {
            "name": "F3",
            "midi": 53,
            "time": 67.5059,
            "duration": 0.2129,
            "velocity": 0.9449,
            "articulation": "normal",
            "pedal": false,
            "chord_id": null
        },
        {
            "name": "A3",
            "midi": 57,
            "time": 67.5059,
            "duration": 0.2129,
            "velocity": 0.9449,
            "articulation": "normal",
            "pedal": false,
            "chord_id": null
        },
        {
            "name": "G5",
            "midi": 79,
            "time": 67.6101,
            "duration": 0.0996,
            "velocity": 0.9449,
            "articulation": "normal",
            "pedal": false,
            "chord_id": null
        },
        {
            "name": "F5",
            "midi": 77,
            "time": 67.7188,
            "duration": 0.0996,
            "velocity": 0.9449,
            "articulation": "normal",
            "pedal": false,
            "chord_id": null
        },
        {
            "name": "E5",
            "midi": 76,
            "time": 67.8275,
            "duration": 0.0996,
            "velocity": 0.9449,
            "articulation": "normal",
            "pedal": false,
            "chord_id": null
        },
        {
            "name": "G3",
            "midi": 55,
            "time": 67.9362,
            "duration": 0.2083,
            "velocity": 0.9449,
            "articulation": "normal",
            "pedal": false,
            "chord_id": null
        },
        {
            "name": "B3",
            "midi": 59,
            "time": 67.9362,
            "duration": 0.2083,
            "velocity": 0.9449,
            "articulation": "normal",
            "pedal": false,
            "chord_id": null
        },
        {
            "name": "D5",
            "midi": 74,
            "time": 67.9362,
            "duration": 0.0996,
            "velocity": 0.9449,
            "articulation": "normal",
            "pedal": false,
            "chord_id": null
        },
        {
            "name": "G5",
            "midi": 79,
            "time": 68.0494,
            "duration": 0.1042,
            "velocity": 0.9449,
            "articulation": "normal",
            "pedal": false,
            "chord_id": null
        },
        {
            "name": "F5",
            "midi": 77,
            "time": 68.1535,
            "duration": 0.0996,
            "velocity": 0.9449,
            "articulation": "normal",
            "pedal": false,
            "chord_id": null
        },
        {
            "name": "D5",
            "midi": 74,
            "time": 68.2668,
            "duration": 0.1042,
            "velocity": 0.9449,
            "articulation": "normal",
            "pedal": false,
            "chord_id": null
        },
        {
            "name": "B3",
            "midi": 59,
            "time": 68.3709,
            "duration": 0.4257,
            "velocity": 0.9449,
            "articulation": "legato",
            "pedal": false,
            "chord_id": null
        },
        {
            "name": "E5",
            "midi": 76,
            "time": 68.3709,
            "duration": 0.0996,
            "velocity": 0.9449,
            "articulation": "normal",
            "pedal": false,
            "chord_id": null
        },
        {
            "name": "G#3",
            "midi": 56,
            "time": 68.3755,
            "duration": 0.4303,
            "velocity": 0.9449,
            "articulation": "legato",
            "pedal": false,
            "chord_id": null
        },
        {
            "name": "F5",
            "midi": 77,
            "time": 68.4796,
            "duration": 0.0996,
            "velocity": 0.9449,
            "articulation": "normal",
            "pedal": false,
            "chord_id": null
        },
        {
            "name": "E5",
            "midi": 76,
            "time": 68.5883,
            "duration": 0.0996,
            "velocity": 0.9449,
            "articulation": "normal",
            "pedal": false,
            "chord_id": null
        },
        {
            "name": "D#5",
            "midi": 75,
            "time": 68.697,
            "duration": 0.0996,
            "velocity": 0.9449,
            "articulation": "normal",
            "pedal": false,
            "chord_id": null
        },
        {
            "name": "E5",
            "midi": 76,
            "time": 68.8102,
            "duration": 0.1042,
            "velocity": 0.9449,
            "articulation": "normal",
            "pedal": false,
            "chord_id": null
        },
        {
            "name": "B4",
            "midi": 71,
            "time": 68.9189,
            "duration": 0.1042,
            "velocity": 0.9449,
            "articulation": "normal",
            "pedal": false,
            "chord_id": null
        },
        {
            "name": "E5",
            "midi": 76,
            "time": 69.0231,
            "duration": 0.0996,
            "velocity": 0.9449,
            "articulation": "normal",
            "pedal": false,
            "chord_id": null
        },
        {
            "name": "D#5",
            "midi": 75,
            "time": 69.1318,
            "duration": 0.0996,
            "velocity": 0.9449,
            "articulation": "normal",
            "pedal": false,
            "chord_id": null
        },
        {
            "name": "E5",
            "midi": 76,
            "time": 69.245,
            "duration": 0.1042,
            "velocity": 0.9449,
            "articulation": "normal",
            "pedal": false,
            "chord_id": null
        },
        {
            "name": "B4",
            "midi": 71,
            "time": 69.3492,
            "duration": 0.0996,
            "velocity": 0.9449,
            "articulation": "normal",
            "pedal": false,
            "chord_id": null
        },
        {
            "name": "E5",
            "midi": 76,
            "time": 69.4624,
            "duration": 0.1042,
            "velocity": 0.9449,
            "articulation": "normal",
            "pedal": false,
            "chord_id": null
        },
        {
            "name": "D#5",
            "midi": 75,
            "time": 69.5666,
            "duration": 0.0996,
            "velocity": 0.9449,
            "articulation": "normal",
            "pedal": false,
            "chord_id": null
        },
        {
            "name": "E5",
            "midi": 76,
            "time": 69.6753,
            "duration": 0.6968,
            "velocity": 0.9449,
            "articulation": "legato",
            "pedal": false,
            "chord_id": null
        },
        {
            "name": "B4",
            "midi": 71,
            "time": 70.3827,
            "duration": 0.2529,
            "velocity": 0.9449,
            "articulation": "legato",
            "pedal": false,
            "chord_id": null
        },
        {
            "name": "E5",
            "midi": 76,
            "time": 70.6467,
            "duration": 0.262,
            "velocity": 0.9449,
            "articulation": "legato",
            "pedal": false,
            "chord_id": null
        },
        {
            "name": "D#5",
            "midi": 75,
            "time": 70.9203,
            "duration": 0.271,
            "velocity": 0.9449,
            "articulation": "legato",
            "pedal": false,
            "chord_id": null
        },
        {
            "name": "E5",
            "midi": 76,
            "time": 71.2033,
            "duration": 0.8819,
            "velocity": 0.9449,
            "articulation": "legato",
            "pedal": false,
            "chord_id": null
        },
        {
            "name": "B4",
            "midi": 71,
            "time": 72.0982,
            "duration": 0.2995,
            "velocity": 0.9449,
            "articulation": "legato",
            "pedal": false,
            "chord_id": null
        },
        {
            "name": "E5",
            "midi": 76,
            "time": 72.4107,
            "duration": 0.3125,
            "velocity": 0.9449,
            "articulation": "legato",
            "pedal": false,
            "chord_id": null
        },
        {
            "name": "D#5",
            "midi": 75,
            "time": 72.7368,
            "duration": 0.3125,
            "velocity": 0.9449,
            "articulation": "legato",
            "pedal": false,
            "chord_id": null
        },
        {
            "name": "E5",
            "midi": 76,
            "time": 73.0629,
            "duration": 0.3125,
            "velocity": 0.9449,
            "articulation": "legato",
            "pedal": false,
            "chord_id": null
        },
        {
            "name": "D#5",
            "midi": 75,
            "time": 73.3958,
            "duration": 0.3193,
            "velocity": 0.9449,
            "articulation": "legato",
            "pedal": false,
            "chord_id": null
        },
        {
            "name": "E5",
            "midi": 76,
            "time": 73.7151,
            "duration": 0.3108,
            "velocity": 0.9449,
            "articulation": "legato",
            "pedal": false,
            "chord_id": null
        },
        {
            "name": "D#5",
            "midi": 75,
            "time": 74.0454,
            "duration": 0.3018,
            "velocity": 0.9449,
            "articulation": "legato",
            "pedal": false,
            "chord_id": null
        },
        {
            "name": "E5",
            "midi": 76,
            "time": 74.3472,
            "duration": 0.2737,
            "velocity": 0.9449,
            "articulation": "legato",
            "pedal": false,
            "chord_id": null
        },
        {
            "name": "D#5",
            "midi": 75,
            "time": 74.6323,
            "duration": 0.2559,
            "velocity": 0.9449,
            "articulation": "legato",
            "pedal": false,
            "chord_id": null
        },
        {
            "name": "E5",
            "midi": 76,
            "time": 74.904,
            "duration": 0.2388,
            "velocity": 0.9449,
            "articulation": "legato",
            "pedal": false,
            "chord_id": null
        },
        {
            "name": "D#5",
            "midi": 75,
            "time": 75.1428,
            "duration": 0.2086,
            "velocity": 0.9449,
            "articulation": "normal",
            "pedal": false,
            "chord_id": null
        },
        {
            "name": "E5",
            "midi": 76,
            "time": 75.3597,
            "duration": 0.1896,
            "velocity": 0.9449,
            "articulation": "normal",
            "pedal": false,
            "chord_id": null
        },
        {
            "name": "B4",
            "midi": 71,
            "time": 75.5575,
            "duration": 0.1891,
            "velocity": 0.9449,
            "articulation": "normal",
            "pedal": false,
            "chord_id": null
        },
        {
            "name": "D5",
            "midi": 74,
            "time": 75.7548,
            "duration": 0.1891,
            "velocity": 0.9449,
            "articulation": "normal",
            "pedal": false,
            "chord_id": null
        },
        {
            "name": "C5",
            "midi": 72,
            "time": 75.9522,
            "duration": 0.1891,
            "velocity": 0.9449,
            "articulation": "normal",
            "pedal": false,
            "chord_id": null
        },
        {
            "name": "A2",
            "midi": 45,
            "time": 76.1496,
            "duration": 0.1891,
            "velocity": 0.9449,
            "articulation": "normal",
            "pedal": false,
            "chord_id": null
        },
        {
            "name": "A4",
            "midi": 69,
            "time": 76.1496,
            "duration": 0.3865,
            "velocity": 0.9449,
            "articulation": "legato",
            "pedal": false,
            "chord_id": null
        },
        {
            "name": "E3",
            "midi": 52,
            "time": 76.347,
            "duration": 0.1891,
            "velocity": 0.9449,
            "articulation": "normal",
            "pedal": false,
            "chord_id": null
        },
        {
            "name": "A3",
            "midi": 57,
            "time": 76.5443,
            "duration": 0.1891,
            "velocity": 0.9449,
            "articulation": "normal",
            "pedal": false,
            "chord_id": null
        },
        {
            "name": "C4",
            "midi": 60,
            "time": 76.7417,
            "duration": 0.1891,
            "velocity": 0.9449,
            "articulation": "normal",
            "pedal": false,
            "chord_id": null
        },
        {
            "name": "E4",
            "midi": 64,
            "time": 76.9432,
            "duration": 0.1933,
            "velocity": 0.9449,
            "articulation": "normal",
            "pedal": false,
            "chord_id": null
        },
        {
            "name": "A4",
            "midi": 69,
            "time": 77.1364,
            "duration": 0.1891,
            "velocity": 0.9449,
            "articulation": "normal",
            "pedal": false,
            "chord_id": null
        },
        {
            "name": "E2",
            "midi": 40,
            "time": 77.3379,
            "duration": 0.1933,
            "velocity": 0.9449,
            "articulation": "normal",
            "pedal": false,
            "chord_id": null
        },
        {
            "name": "B4",
            "midi": 71,
            "time": 77.3379,
            "duration": 0.3906,
            "velocity": 0.9449,
            "articulation": "legato",
            "pedal": false,
            "chord_id": null
        },
        {
            "name": "E3",
            "midi": 52,
            "time": 77.5312,
            "duration": 0.1891,
            "velocity": 0.9449,
            "articulation": "normal",
            "pedal": false,
            "chord_id": null
        },
        {
            "name": "G#3",
            "midi": 56,
            "time": 77.7285,
            "duration": 0.1891,
            "velocity": 0.9449,
            "articulation": "normal",
            "pedal": false,
            "chord_id": null
        },
        {
            "name": "E4",
            "midi": 64,
            "time": 77.9259,
            "duration": 0.1891,
            "velocity": 0.9449,
            "articulation": "normal",
            "pedal": false,
            "chord_id": null
        },
        {
            "name": "G#4",
            "midi": 68,
            "time": 78.1233,
            "duration": 0.1891,
            "velocity": 0.9449,
            "articulation": "normal",
            "pedal": false,
            "chord_id": null
        },
        {
            "name": "B4",
            "midi": 71,
            "time": 78.3206,
            "duration": 0.1891,
            "velocity": 0.9449,
            "articulation": "normal",
            "pedal": false,
            "chord_id": null
        },
        {
            "name": "A2",
            "midi": 45,
            "time": 78.518,
            "duration": 0.1891,
            "velocity": 0.9449,
            "articulation": "normal",
            "pedal": false,
            "chord_id": null
        },
        {
            "name": "C5",
            "midi": 72,
            "time": 78.518,
            "duration": 0.3865,
            "velocity": 0.9449,
            "articulation": "legato",
            "pedal": false,
            "chord_id": null
        },
        {
            "name": "E3",
            "midi": 52,
            "time": 78.7195,
            "duration": 0.1933,
            "velocity": 0.9449,
            "articulation": "normal",
            "pedal": false,
            "chord_id": null
        },
        {
            "name": "A3",
            "midi": 57,
            "time": 78.9127,
            "duration": 0.1891,
            "velocity": 0.9449,
            "articulation": "normal",
            "pedal": false,
            "chord_id": null
        },
        {
            "name": "E4",
            "midi": 64,
            "time": 79.1101,
            "duration": 0.1891,
            "velocity": 0.9449,
            "articulation": "normal",
            "pedal": false,
            "chord_id": null
        },
        {
            "name": "E5",
            "midi": 76,
            "time": 79.3116,
            "duration": 0.1933,
            "velocity": 0.9449,
            "articulation": "normal",
            "pedal": false,
            "chord_id": null
        },
        {
            "name": "D#5",
            "midi": 75,
            "time": 79.5048,
            "duration": 0.1891,
            "velocity": 0.9449,
            "articulation": "normal",
            "pedal": false,
            "chord_id": null
        },
        {
            "name": "E5",
            "midi": 76,
            "time": 79.7022,
            "duration": 0.1891,
            "velocity": 0.9449,
            "articulation": "normal",
            "pedal": false,
            "chord_id": null
        },
        {
            "name": "D#5",
            "midi": 75,
            "time": 79.9037,
            "duration": 0.1933,
            "velocity": 0.9449,
            "articulation": "normal",
            "pedal": false,
            "chord_id": null
        },
        {
            "name": "E5",
            "midi": 76,
            "time": 80.0969,
            "duration": 0.1891,
            "velocity": 0.9449,
            "articulation": "normal",
            "pedal": false,
            "chord_id": null
        },
        {
            "name": "B4",
            "midi": 71,
            "time": 80.2984,
            "duration": 0.1933,
            "velocity": 0.9449,
            "articulation": "normal",
            "pedal": false,
            "chord_id": null
        },
        {
            "name": "D5",
            "midi": 74,
            "time": 80.4917,
            "duration": 0.1891,
            "velocity": 0.9449,
            "articulation": "normal",
            "pedal": false,
            "chord_id": null
        },
        {
            "name": "C5",
            "midi": 72,
            "time": 80.6932,
            "duration": 0.1933,
            "velocity": 0.9449,
            "articulation": "normal",
            "pedal": false,
            "chord_id": null
        },
        {
            "name": "A2",
            "midi": 45,
            "time": 80.8864,
            "duration": 0.1891,
            "velocity": 0.9449,
            "articulation": "normal",
            "pedal": false,
            "chord_id": null
        },
        {
            "name": "A4",
            "midi": 69,
            "time": 80.8864,
            "duration": 0.3865,
            "velocity": 0.9449,
            "articulation": "legato",
            "pedal": false,
            "chord_id": null
        },
        {
            "name": "E3",
            "midi": 52,
            "time": 81.0838,
            "duration": 0.1891,
            "velocity": 0.9449,
            "articulation": "normal",
            "pedal": false,
            "chord_id": null
        },
        {
            "name": "A3",
            "midi": 57,
            "time": 81.2853,
            "duration": 0.1933,
            "velocity": 0.9449,
            "articulation": "normal",
            "pedal": false,
            "chord_id": null
        },
        {
            "name": "C4",
            "midi": 60,
            "time": 81.4785,
            "duration": 0.1891,
            "velocity": 0.9449,
            "articulation": "normal",
            "pedal": false,
            "chord_id": null
        },
        {
            "name": "E4",
            "midi": 64,
            "time": 81.6759,
            "duration": 0.1891,
            "velocity": 0.9449,
            "articulation": "normal",
            "pedal": false,
            "chord_id": null
        },
        {
            "name": "A4",
            "midi": 69,
            "time": 81.8733,
            "duration": 0.1891,
            "velocity": 0.9449,
            "articulation": "normal",
            "pedal": false,
            "chord_id": null
        },
        {
            "name": "E2",
            "midi": 40,
            "time": 82.0706,
            "duration": 0.1891,
            "velocity": 0.9449,
            "articulation": "normal",
            "pedal": false,
            "chord_id": null
        },
        {
            "name": "B4",
            "midi": 71,
            "time": 82.0706,
            "duration": 0.3865,
            "velocity": 0.9449,
            "articulation": "legato",
            "pedal": false,
            "chord_id": null
        },
        {
            "name": "E3",
            "midi": 52,
            "time": 82.268,
            "duration": 0.1891,
            "velocity": 0.9449,
            "articulation": "normal",
            "pedal": false,
            "chord_id": null
        },
        {
            "name": "G#3",
            "midi": 56,
            "time": 82.4654,
            "duration": 0.1891,
            "velocity": 0.9449,
            "articulation": "normal",
            "pedal": false,
            "chord_id": null
        },
        {
            "name": "D4",
            "midi": 62,
            "time": 82.6627,
            "duration": 0.1891,
            "velocity": 0.9449,
            "articulation": "normal",
            "pedal": false,
            "chord_id": null
        },
        {
            "name": "C5",
            "midi": 72,
            "time": 82.8642,
            "duration": 0.1933,
            "velocity": 0.9449,
            "articulation": "normal",
            "pedal": false,
            "chord_id": null
        },
        {
            "name": "B4",
            "midi": 71,
            "time": 83.0575,
            "duration": 0.1891,
            "velocity": 0.9449,
            "articulation": "normal",
            "pedal": false,
            "chord_id": null
        },
        {
            "name": "A2",
            "midi": 45,
            "time": 83.2548,
            "duration": 0.1891,
            "velocity": 0.9449,
            "articulation": "normal",
            "pedal": false,
            "chord_id": null
        },
        {
            "name": "C4",
            "midi": 60,
            "time": 83.259,
            "duration": 0.3906,
            "velocity": 0.9449,
            "articulation": "legato",
            "pedal": false,
            "chord_id": null
        },
        {
            "name": "A4",
            "midi": 69,
            "time": 83.259,
            "duration": 0.3906,
            "velocity": 0.9449,
            "articulation": "legato",
            "pedal": false,
            "chord_id": null
        },
        {
            "name": "E3",
            "midi": 52,
            "time": 83.4522,
            "duration": 0.1891,
            "velocity": 0.9449,
            "articulation": "normal",
            "pedal": false,
            "chord_id": null
        },
        {
            "name": "A3",
            "midi": 57,
            "time": 83.6496,
            "duration": 0.1891,
            "velocity": 0.9449,
            "articulation": "normal",
            "pedal": false,
            "chord_id": null
        },
        {
            "name": "B4",
            "midi": 71,
            "time": 83.8469,
            "duration": 0.1891,
            "velocity": 0.9449,
            "articulation": "normal",
            "pedal": false,
            "chord_id": null
        },
        {
            "name": "C5",
            "midi": 72,
            "time": 84.0484,
            "duration": 0.1933,
            "velocity": 0.9449,
            "articulation": "normal",
            "pedal": false,
            "chord_id": null
        },
        {
            "name": "D5",
            "midi": 74,
            "time": 84.2417,
            "duration": 0.1891,
            "velocity": 0.9449,
            "articulation": "normal",
            "pedal": false,
            "chord_id": null
        },
        {
            "name": "C3",
            "midi": 48,
            "time": 84.439,
            "duration": 0.1891,
            "velocity": 0.9449,
            "articulation": "normal",
            "pedal": false,
            "chord_id": null
        },
        {
            "name": "E5",
            "midi": 76,
            "time": 84.439,
            "duration": 0.5839,
            "velocity": 0.9449,
            "articulation": "legato",
            "pedal": false,
            "chord_id": null
        },
        {
            "name": "G3",
            "midi": 55,
            "time": 84.6364,
            "duration": 0.1891,
            "velocity": 0.9449,
            "articulation": "normal",
            "pedal": false,
            "chord_id": null
        },
        {
            "name": "C4",
            "midi": 60,
            "time": 84.8338,
            "duration": 0.1891,
            "velocity": 0.9449,
            "articulation": "normal",
            "pedal": false,
            "chord_id": null
        },
        {
            "name": "G4",
            "midi": 67,
            "time": 85.0353,
            "duration": 0.1933,
            "velocity": 0.9449,
            "articulation": "normal",
            "pedal": false,
            "chord_id": null
        },
        {
            "name": "F5",
            "midi": 77,
            "time": 85.2326,
            "duration": 0.1933,
            "velocity": 0.9449,
            "articulation": "normal",
            "pedal": false,
            "chord_id": null
        },
        {
            "name": "E5",
            "midi": 76,
            "time": 85.4259,
            "duration": 0.1891,
            "velocity": 0.9449,
            "articulation": "normal",
            "pedal": false,
            "chord_id": null
        },
        {
            "name": "G2",
            "midi": 43,
            "time": 85.6233,
            "duration": 0.1891,
            "velocity": 0.9449,
            "articulation": "normal",
            "pedal": false,
            "chord_id": null
        },
        {
            "name": "D5",
            "midi": 74,
            "time": 85.6274,
            "duration": 0.588,
            "velocity": 0.9449,
            "articulation": "legato",
            "pedal": false,
            "chord_id": null
        },
        {
            "name": "G3",
            "midi": 55,
            "time": 85.8247,
            "duration": 0.1933,
            "velocity": 0.9449,
            "articulation": "normal",
            "pedal": false,
            "chord_id": null
        },
        {
            "name": "B3",
            "midi": 59,
            "time": 86.018,
            "duration": 0.1891,
            "velocity": 0.9449,
            "articulation": "normal",
            "pedal": false,
            "chord_id": null
        },
        {
            "name": "F4",
            "midi": 65,
            "time": 86.2154,
            "duration": 0.1891,
            "velocity": 0.9449,
            "articulation": "normal",
            "pedal": false,
            "chord_id": null
        },
        {
            "name": "E5",
            "midi": 76,
            "time": 86.4127,
            "duration": 0.1891,
            "velocity": 0.9449,
            "articulation": "normal",
            "pedal": false,
            "chord_id": null
        },
        {
            "name": "D5",
            "midi": 74,
            "time": 86.6142,
            "duration": 0.1933,
            "velocity": 0.9449,
            "articulation": "normal",
            "pedal": false,
            "chord_id": null
        },
        {
            "name": "A2",
            "midi": 45,
            "time": 86.8075,
            "duration": 0.1891,
            "velocity": 0.9449,
            "articulation": "normal",
            "pedal": false,
            "chord_id": null
        },
        {
            "name": "C5",
            "midi": 72,
            "time": 86.8075,
            "duration": 0.5839,
            "velocity": 0.9449,
            "articulation": "legato",
            "pedal": false,
            "chord_id": null
        },
        {
            "name": "E3",
            "midi": 52,
            "time": 87.0048,
            "duration": 0.1891,
            "velocity": 0.9449,
            "articulation": "normal",
            "pedal": false,
            "chord_id": null
        },
        {
            "name": "A3",
            "midi": 57,
            "time": 87.2022,
            "duration": 0.1891,
            "velocity": 0.9449,
            "articulation": "normal",
            "pedal": false,
            "chord_id": null
        },
        {
            "name": "E4",
            "midi": 64,
            "time": 87.3996,
            "duration": 0.1891,
            "velocity": 0.9449,
            "articulation": "normal",
            "pedal": false,
            "chord_id": null
        },
        {
            "name": "D5",
            "midi": 74,
            "time": 87.5969,
            "duration": 0.1891,
            "velocity": 0.9449,
            "articulation": "normal",
            "pedal": false,
            "chord_id": null
        },
        {
            "name": "C5",
            "midi": 72,
            "time": 87.7943,
            "duration": 0.1891,
            "velocity": 0.9449,
            "articulation": "normal",
            "pedal": false,
            "chord_id": null
        },
        {
            "name": "E2",
            "midi": 40,
            "time": 87.9917,
            "duration": 0.1891,
            "velocity": 0.9449,
            "articulation": "normal",
            "pedal": false,
            "chord_id": null
        },
        {
            "name": "B4",
            "midi": 71,
            "time": 87.9917,
            "duration": 0.1891,
            "velocity": 0.9449,
            "articulation": "normal",
            "pedal": false,
            "chord_id": null
        },
        {
            "name": "E3",
            "midi": 52,
            "time": 88.1932,
            "duration": 0.1933,
            "velocity": 0.9449,
            "articulation": "normal",
            "pedal": false,
            "chord_id": null
        },
        {
            "name": "E4",
            "midi": 64,
            "time": 88.3864,
            "duration": 0.1891,
            "velocity": 0.9449,
            "articulation": "normal",
            "pedal": false,
            "chord_id": null
        },
        {
            "name": "E4",
            "midi": 64,
            "time": 88.5838,
            "duration": 0.1891,
            "velocity": 0.9449,
            "articulation": "normal",
            "pedal": false,
            "chord_id": null
        },
        {
            "name": "E5",
            "midi": 76,
            "time": 88.7812,
            "duration": 0.1891,
            "velocity": 0.9449,
            "articulation": "normal",
            "pedal": false,
            "chord_id": null
        },
        {
            "name": "E4",
            "midi": 64,
            "time": 88.9785,
            "duration": 0.1891,
            "velocity": 0.9449,
            "articulation": "normal",
            "pedal": false,
            "chord_id": null
        },
        {
            "name": "E5",
            "midi": 76,
            "time": 89.1759,
            "duration": 0.1891,
            "velocity": 0.9449,
            "articulation": "normal",
            "pedal": false,
            "chord_id": null
        },
        {
            "name": "E5",
            "midi": 76,
            "time": 89.3774,
            "duration": 0.1933,
            "velocity": 0.9449,
            "articulation": "normal",
            "pedal": false,
            "chord_id": null
        },
        {
            "name": "E6",
            "midi": 88,
            "time": 89.5706,
            "duration": 0.1891,
            "velocity": 0.9449,
            "articulation": "normal",
            "pedal": false,
            "chord_id": null
        },
        {
            "name": "D#5",
            "midi": 75,
            "time": 89.768,
            "duration": 0.1891,
            "velocity": 0.9449,
            "articulation": "normal",
            "pedal": false,
            "chord_id": null
        },
        {
            "name": "E5",
            "midi": 76,
            "time": 89.9654,
            "duration": 0.1891,
            "velocity": 0.9449,
            "articulation": "normal",
            "pedal": false,
            "chord_id": null
        },
        {
            "name": "D#5",
            "midi": 75,
            "time": 90.1627,
            "duration": 0.1891,
            "velocity": 0.9449,
            "articulation": "normal",
            "pedal": false,
            "chord_id": null
        },
        {
            "name": "E5",
            "midi": 76,
            "time": 90.3642,
            "duration": 0.1933,
            "velocity": 0.9449,
            "articulation": "normal",
            "pedal": false,
            "chord_id": null
        },
        {
            "name": "D#5",
            "midi": 75,
            "time": 90.5575,
            "duration": 0.1891,
            "velocity": 0.9449,
            "articulation": "normal",
            "pedal": false,
            "chord_id": null
        },
        {
            "name": "E5",
            "midi": 76,
            "time": 90.7548,
            "duration": 0.1891,
            "velocity": 0.9449,
            "articulation": "normal",
            "pedal": false,
            "chord_id": null
        },
        {
            "name": "D#5",
            "midi": 75,
            "time": 90.9522,
            "duration": 0.1891,
            "velocity": 0.9449,
            "articulation": "normal",
            "pedal": false,
            "chord_id": null
        },
        {
            "name": "E5",
            "midi": 76,
            "time": 91.1496,
            "duration": 0.1891,
            "velocity": 0.9449,
            "articulation": "normal",
            "pedal": false,
            "chord_id": null
        },
        {
            "name": "D#5",
            "midi": 75,
            "time": 91.3469,
            "duration": 0.1891,
            "velocity": 0.9449,
            "articulation": "normal",
            "pedal": false,
            "chord_id": null
        },
        {
            "name": "E5",
            "midi": 76,
            "time": 91.5443,
            "duration": 0.1891,
            "velocity": 0.9449,
            "articulation": "normal",
            "pedal": false,
            "chord_id": null
        },
        {
            "name": "D#5",
            "midi": 75,
            "time": 91.7417,
            "duration": 0.1891,
            "velocity": 0.9449,
            "articulation": "normal",
            "pedal": false,
            "chord_id": null
        },
        {
            "name": "E5",
            "midi": 76,
            "time": 91.939,
            "duration": 0.1891,
            "velocity": 0.9449,
            "articulation": "normal",
            "pedal": false,
            "chord_id": null
        },
        {
            "name": "B4",
            "midi": 71,
            "time": 92.1364,
            "duration": 0.1891,
            "velocity": 0.9449,
            "articulation": "normal",
            "pedal": false,
            "chord_id": null
        },
        {
            "name": "D5",
            "midi": 74,
            "time": 92.3338,
            "duration": 0.1891,
            "velocity": 0.9449,
            "articulation": "normal",
            "pedal": false,
            "chord_id": null
        },
        {
            "name": "C5",
            "midi": 72,
            "time": 92.5311,
            "duration": 0.1891,
            "velocity": 0.9449,
            "articulation": "normal",
            "pedal": false,
            "chord_id": null
        },
        {
            "name": "A4",
            "midi": 69,
            "time": 92.7285,
            "duration": 0.5839,
            "velocity": 0.9449,
            "articulation": "legato",
            "pedal": false,
            "chord_id": null
        },
        {
            "name": "A2",
            "midi": 45,
            "time": 92.7326,
            "duration": 0.1933,
            "velocity": 0.9449,
            "articulation": "normal",
            "pedal": false,
            "chord_id": null
        },
        {
            "name": "E3",
            "midi": 52,
            "time": 92.9259,
            "duration": 0.1891,
            "velocity": 0.9449,
            "articulation": "normal",
            "pedal": false,
            "chord_id": null
        },
        {
            "name": "A3",
            "midi": 57,
            "time": 93.1274,
            "duration": 0.1933,
            "velocity": 0.9449,
            "articulation": "normal",
            "pedal": false,
            "chord_id": null
        },
        {
            "name": "C4",
            "midi": 60,
            "time": 93.3206,
            "duration": 0.1891,
            "velocity": 0.9449,
            "articulation": "normal",
            "pedal": false,
            "chord_id": null
        },
        {
            "name": "E4",
            "midi": 64,
            "time": 93.518,
            "duration": 0.1891,
            "velocity": 0.9449,
            "articulation": "normal",
            "pedal": false,
            "chord_id": null
        },
        {
            "name": "A4",
            "midi": 69,
            "time": 93.7154,
            "duration": 0.1891,
            "velocity": 0.9449,
            "articulation": "normal",
            "pedal": false,
            "chord_id": null
        },
        {
            "name": "E2",
            "midi": 40,
            "time": 93.9127,
            "duration": 0.1891,
            "velocity": 0.9449,
            "articulation": "normal",
            "pedal": false,
            "chord_id": null
        },
        {
            "name": "B4",
            "midi": 71,
            "time": 93.9168,
            "duration": 0.3906,
            "velocity": 0.9449,
            "articulation": "legato",
            "pedal": false,
            "chord_id": null
        },
        {
            "name": "E3",
            "midi": 52,
            "time": 94.1101,
            "duration": 0.1891,
            "velocity": 0.9449,
            "articulation": "normal",
            "pedal": false,
            "chord_id": null
        },
        {
            "name": "G#3",
            "midi": 56,
            "time": 94.3116,
            "duration": 0.1933,
            "velocity": 0.9449,
            "articulation": "normal",
            "pedal": false,
            "chord_id": null
        },
        {
            "name": "E4",
            "midi": 64,
            "time": 94.5048,
            "duration": 0.1891,
            "velocity": 0.9449,
            "articulation": "normal",
            "pedal": false,
            "chord_id": null
        },
        {
            "name": "G#4",
            "midi": 68,
            "time": 94.7063,
            "duration": 0.1933,
            "velocity": 0.9449,
            "articulation": "normal",
            "pedal": false,
            "chord_id": null
        },
        {
            "name": "B4",
            "midi": 71,
            "time": 94.8996,
            "duration": 0.1891,
            "velocity": 0.9449,
            "articulation": "normal",
            "pedal": false,
            "chord_id": null
        },
        {
            "name": "A2",
            "midi": 45,
            "time": 95.101,
            "duration": 0.1933,
            "velocity": 0.9449,
            "articulation": "normal",
            "pedal": false,
            "chord_id": null
        },
        {
            "name": "C5",
            "midi": 72,
            "time": 95.101,
            "duration": 0.3906,
            "velocity": 0.9449,
            "articulation": "legato",
            "pedal": false,
            "chord_id": null
        },
        {
            "name": "E3",
            "midi": 52,
            "time": 95.2984,
            "duration": 0.1933,
            "velocity": 0.9449,
            "articulation": "normal",
            "pedal": false,
            "chord_id": null
        },
        {
            "name": "A3",
            "midi": 57,
            "time": 95.4958,
            "duration": 0.1933,
            "velocity": 0.9449,
            "articulation": "normal",
            "pedal": false,
            "chord_id": null
        },
        {
            "name": "E4",
            "midi": 64,
            "time": 95.689,
            "duration": 0.1891,
            "velocity": 0.9449,
            "articulation": "normal",
            "pedal": false,
            "chord_id": null
        },
        {
            "name": "E5",
            "midi": 76,
            "time": 95.8905,
            "duration": 0.1933,
            "velocity": 0.9449,
            "articulation": "normal",
            "pedal": false,
            "chord_id": null
        },
        {
            "name": "D#5",
            "midi": 75,
            "time": 96.0838,
            "duration": 0.1891,
            "velocity": 0.9449,
            "articulation": "normal",
            "pedal": false,
            "chord_id": null
        },
        {
            "name": "E5",
            "midi": 76,
            "time": 96.2811,
            "duration": 0.1891,
            "velocity": 0.9449,
            "articulation": "normal",
            "pedal": false,
            "chord_id": null
        },
        {
            "name": "D#5",
            "midi": 75,
            "time": 96.4826,
            "duration": 0.1933,
            "velocity": 0.9449,
            "articulation": "normal",
            "pedal": false,
            "chord_id": null
        },
        {
            "name": "E5",
            "midi": 76,
            "time": 96.6759,
            "duration": 0.1891,
            "velocity": 0.9449,
            "articulation": "normal",
            "pedal": false,
            "chord_id": null
        },
        {
            "name": "B4",
            "midi": 71,
            "time": 96.8774,
            "duration": 0.1933,
            "velocity": 0.9449,
            "articulation": "normal",
            "pedal": false,
            "chord_id": null
        },
        {
            "name": "D5",
            "midi": 74,
            "time": 97.0747,
            "duration": 0.1933,
            "velocity": 0.9449,
            "articulation": "normal",
            "pedal": false,
            "chord_id": null
        },
        {
            "name": "C5",
            "midi": 72,
            "time": 97.2721,
            "duration": 0.1933,
            "velocity": 0.9449,
            "articulation": "normal",
            "pedal": false,
            "chord_id": null
        },
        {
            "name": "A2",
            "midi": 45,
            "time": 97.4654,
            "duration": 0.1891,
            "velocity": 0.9449,
            "articulation": "normal",
            "pedal": false,
            "chord_id": null
        },
        {
            "name": "A4",
            "midi": 69,
            "time": 97.4654,
            "duration": 0.5839,
            "velocity": 0.9449,
            "articulation": "legato",
            "pedal": false,
            "chord_id": null
        },
        {
            "name": "E3",
            "midi": 52,
            "time": 97.6627,
            "duration": 0.1891,
            "velocity": 0.9449,
            "articulation": "normal",
            "pedal": false,
            "chord_id": null
        },
        {
            "name": "A3",
            "midi": 57,
            "time": 97.8601,
            "duration": 0.1891,
            "velocity": 0.9449,
            "articulation": "normal",
            "pedal": false,
            "chord_id": null
        },
        {
            "name": "C4",
            "midi": 60,
            "time": 98.0575,
            "duration": 0.1891,
            "velocity": 0.9449,
            "articulation": "normal",
            "pedal": false,
            "chord_id": null
        },
        {
            "name": "E4",
            "midi": 64,
            "time": 98.2548,
            "duration": 0.1891,
            "velocity": 0.9449,
            "articulation": "normal",
            "pedal": false,
            "chord_id": null
        },
        {
            "name": "A4",
            "midi": 69,
            "time": 98.4563,
            "duration": 0.1933,
            "velocity": 0.9449,
            "articulation": "normal",
            "pedal": false,
            "chord_id": null
        },
        {
            "name": "E2",
            "midi": 40,
            "time": 98.6496,
            "duration": 0.1891,
            "velocity": 0.9449,
            "articulation": "normal",
            "pedal": false,
            "chord_id": null
        },
        {
            "name": "B4",
            "midi": 71,
            "time": 98.6496,
            "duration": 0.3865,
            "velocity": 0.9449,
            "articulation": "legato",
            "pedal": false,
            "chord_id": null
        },
        {
            "name": "E3",
            "midi": 52,
            "time": 98.8469,
            "duration": 0.1891,
            "velocity": 0.9449,
            "articulation": "normal",
            "pedal": false,
            "chord_id": null
        },
        {
            "name": "G#3",
            "midi": 56,
            "time": 99.0443,
            "duration": 0.1891,
            "velocity": 0.9449,
            "articulation": "normal",
            "pedal": false,
            "chord_id": null
        },
        {
            "name": "D4",
            "midi": 62,
            "time": 99.2458,
            "duration": 0.588,
            "velocity": 0.9449,
            "articulation": "legato",
            "pedal": false,
            "chord_id": null
        },
        {
            "name": "C5",
            "midi": 72,
            "time": 99.439,
            "duration": 0.1891,
            "velocity": 0.9449,
            "articulation": "normal",
            "pedal": false,
            "chord_id": null
        },
        {
            "name": "B4",
            "midi": 71,
            "time": 99.6364,
            "duration": 0.1891,
            "velocity": 0.9449,
            "articulation": "normal",
            "pedal": false,
            "chord_id": null
        },
        {
            "name": "A2",
            "midi": 45,
            "time": 99.8338,
            "duration": 0.1891,
            "velocity": 0.9449,
            "articulation": "normal",
            "pedal": false,
            "chord_id": null
        },
        {
            "name": "A4",
            "midi": 69,
            "time": 99.8338,
            "duration": 0.3865,
            "velocity": 0.9449,
            "articulation": "legato",
            "pedal": false,
            "chord_id": null
        },
        {
            "name": "C4",
            "midi": 60,
            "time": 99.8379,
            "duration": 0.3906,
            "velocity": 0.9449,
            "articulation": "legato",
            "pedal": false,
            "chord_id": null
        },
        {
            "name": "A2",
            "midi": 45,
            "time": 100.0353,
            "duration": 0.1933,
            "velocity": 0.9449,
            "articulation": "normal",
            "pedal": false,
            "chord_id": null
        },
        {
            "name": "A2",
            "midi": 45,
            "time": 100.2285,
            "duration": 0.1891,
            "velocity": 0.9449,
            "articulation": "normal",
            "pedal": false,
            "chord_id": null
        },
        {
            "name": "A2",
            "midi": 45,
            "time": 100.4259,
            "duration": 0.1891,
            "velocity": 0.9449,
            "articulation": "normal",
            "pedal": false,
            "chord_id": null
        },
        {
            "name": "A2",
            "midi": 45,
            "time": 100.6274,
            "duration": 0.1933,
            "velocity": 0.9449,
            "articulation": "normal",
            "pedal": false,
            "chord_id": null
        },
        {
            "name": "A2",
            "midi": 45,
            "time": 100.8247,
            "duration": 0.1933,
            "velocity": 0.9449,
            "articulation": "normal",
            "pedal": false,
            "chord_id": null
        },
        {
            "name": "A2",
            "midi": 45,
            "time": 101.018,
            "duration": 0.1891,
            "velocity": 0.9449,
            "articulation": "normal",
            "pedal": false,
            "chord_id": null
        },
        {
            "name": "E4",
            "midi": 64,
            "time": 101.018,
            "duration": 0.9786,
            "velocity": 0.9449,
            "articulation": "legato",
            "pedal": false,
            "chord_id": null
        },
        {
            "name": "A#4",
            "midi": 70,
            "time": 101.018,
            "duration": 0.9786,
            "velocity": 0.9449,
            "articulation": "legato",
            "pedal": false,
            "chord_id": null
        },
        {
            "name": "G4",
            "midi": 67,
            "time": 101.0221,
            "duration": 0.9827,
            "velocity": 0.9449,
            "articulation": "legato",
            "pedal": false,
            "chord_id": null
        },
        {
            "name": "C#5",
            "midi": 73,
            "time": 101.0221,
            "duration": 0.9827,
            "velocity": 0.9449,
            "articulation": "legato",
            "pedal": false,
            "chord_id": null
        },
        {
            "name": "A2",
            "midi": 45,
            "time": 101.2154,
            "duration": 0.1891,
            "velocity": 0.9449,
            "articulation": "normal",
            "pedal": false,
            "chord_id": null
        },
        {
            "name": "A2",
            "midi": 45,
            "time": 101.4127,
            "duration": 0.1891,
            "velocity": 0.9449,
            "articulation": "normal",
            "pedal": false,
            "chord_id": null
        },
        {
            "name": "A2",
            "midi": 45,
            "time": 101.6142,
            "duration": 0.1933,
            "velocity": 0.9449,
            "articulation": "normal",
            "pedal": false,
            "chord_id": null
        },
        {
            "name": "A2",
            "midi": 45,
            "time": 101.8075,
            "duration": 0.1891,
            "velocity": 0.9449,
            "articulation": "normal",
            "pedal": false,
            "chord_id": null
        },
        {
            "name": "A2",
            "midi": 45,
            "time": 102.0048,
            "duration": 0.1891,
            "velocity": 0.9449,
            "articulation": "normal",
            "pedal": false,
            "chord_id": null
        },
        {
            "name": "A2",
            "midi": 45,
            "time": 102.2022,
            "duration": 0.1891,
            "velocity": 0.9449,
            "articulation": "normal",
            "pedal": false,
            "chord_id": null
        },
        {
            "name": "F4",
            "midi": 65,
            "time": 102.2022,
            "duration": 0.5839,
            "velocity": 0.9449,
            "articulation": "legato",
            "pedal": false,
            "chord_id": null
        },
        {
            "name": "D5",
            "midi": 74,
            "time": 102.2022,
            "duration": 0.5839,
            "velocity": 0.9449,
            "articulation": "legato",
            "pedal": false,
            "chord_id": null
        },
        {
            "name": "A4",
            "midi": 69,
            "time": 102.2063,
            "duration": 0.588,
            "velocity": 0.9449,
            "articulation": "legato",
            "pedal": false,
            "chord_id": null
        },
        {
            "name": "A2",
            "midi": 45,
            "time": 102.3996,
            "duration": 0.1891,
            "velocity": 0.9449,
            "articulation": "normal",
            "pedal": false,
            "chord_id": null
        },
        {
            "name": "A2",
            "midi": 45,
            "time": 102.601,
            "duration": 0.1933,
            "velocity": 0.9449,
            "articulation": "normal",
            "pedal": false,
            "chord_id": null
        },
        {
            "name": "A2",
            "midi": 45,
            "time": 102.7943,
            "duration": 0.1891,
            "velocity": 0.9449,
            "articulation": "normal",
            "pedal": false,
            "chord_id": null
        },
        {
            "name": "A2",
            "midi": 45,
            "time": 102.9917,
            "duration": 0.1891,
            "velocity": 0.9449,
            "articulation": "normal",
            "pedal": false,
            "chord_id": null
        },
        {
            "name": "C#5",
            "midi": 73,
            "time": 102.9917,
            "duration": 0.1891,
            "velocity": 0.9449,
            "articulation": "normal",
            "pedal": false,
            "chord_id": null
        },
        {
            "name": "E5",
            "midi": 76,
            "time": 102.9917,
            "duration": 0.1891,
            "velocity": 0.9449,
            "articulation": "normal",
            "pedal": false,
            "chord_id": null
        },
        {
            "name": "A2",
            "midi": 45,
            "time": 103.189,
            "duration": 0.1891,
            "velocity": 0.9449,
            "articulation": "normal",
            "pedal": false,
            "chord_id": null
        },
        {
            "name": "D5",
            "midi": 74,
            "time": 103.189,
            "duration": 0.1891,
            "velocity": 0.9449,
            "articulation": "normal",
            "pedal": false,
            "chord_id": null
        },
        {
            "name": "F5",
            "midi": 77,
            "time": 103.189,
            "duration": 0.1891,
            "velocity": 0.9449,
            "articulation": "normal",
            "pedal": false,
            "chord_id": null
        },
        {
            "name": "A2",
            "midi": 45,
            "time": 103.3864,
            "duration": 0.1891,
            "velocity": 0.9449,
            "articulation": "normal",
            "pedal": false,
            "chord_id": null
        },
        {
            "name": "G#4",
            "midi": 68,
            "time": 103.3864,
            "duration": 0.5839,
            "velocity": 0.9449,
            "articulation": "legato",
            "pedal": false,
            "chord_id": null
        },
        {
            "name": "D5",
            "midi": 74,
            "time": 103.3864,
            "duration": 0.5839,
            "velocity": 0.9449,
            "articulation": "legato",
            "pedal": false,
            "chord_id": null
        },
        {
            "name": "F5",
            "midi": 77,
            "time": 103.3905,
            "duration": 0.588,
            "velocity": 0.9449,
            "articulation": "legato",
            "pedal": false,
            "chord_id": null
        },
        {
            "name": "A2",
            "midi": 45,
            "time": 103.5838,
            "duration": 0.1891,
            "velocity": 0.9449,
            "articulation": "normal",
            "pedal": false,
            "chord_id": null
        },
        {
            "name": "A2",
            "midi": 45,
            "time": 103.7852,
            "duration": 0.1933,
            "velocity": 0.9449,
            "articulation": "normal",
            "pedal": false,
            "chord_id": null
        },
        {
            "name": "A2",
            "midi": 45,
            "time": 103.9785,
            "duration": 0.1891,
            "velocity": 0.9449,
            "articulation": "normal",
            "pedal": false,
            "chord_id": null
        },
        {
            "name": "G#4",
            "midi": 68,
            "time": 104.1759,
            "duration": 0.1891,
            "velocity": 0.9449,
            "articulation": "normal",
            "pedal": false,
            "chord_id": null
        },
        {
            "name": "A2",
            "midi": 45,
            "time": 104.18,
            "duration": 0.1933,
            "velocity": 0.9449,
            "articulation": "normal",
            "pedal": false,
            "chord_id": null
        },
        {
            "name": "D5",
            "midi": 74,
            "time": 104.18,
            "duration": 0.1933,
            "velocity": 0.9449,
            "articulation": "normal",
            "pedal": false,
            "chord_id": null
        },
        {
            "name": "F5",
            "midi": 77,
            "time": 104.18,
            "duration": 0.1933,
            "velocity": 0.9449,
            "articulation": "normal",
            "pedal": false,
            "chord_id": null
        },
        {
            "name": "A2",
            "midi": 45,
            "time": 104.3732,
            "duration": 0.1891,
            "velocity": 0.9449,
            "articulation": "normal",
            "pedal": false,
            "chord_id": null
        },
        {
            "name": "C5",
            "midi": 72,
            "time": 104.5706,
            "duration": 0.9786,
            "velocity": 0.9449,
            "articulation": "legato",
            "pedal": false,
            "chord_id": null
        },
        {
            "name": "A2",
            "midi": 45,
            "time": 104.5747,
            "duration": 0.1933,
            "velocity": 0.9449,
            "articulation": "normal",
            "pedal": false,
            "chord_id": null
        },
        {
            "name": "A4",
            "midi": 69,
            "time": 104.5747,
            "duration": 0.9827,
            "velocity": 0.9449,
            "articulation": "legato",
            "pedal": false,
            "chord_id": null
        },
        {
            "name": "E5",
            "midi": 76,
            "time": 104.5747,
            "duration": 0.9827,
            "velocity": 0.9449,
            "articulation": "legato",
            "pedal": false,
            "chord_id": null
        },
        {
            "name": "A2",
            "midi": 45,
            "time": 104.768,
            "duration": 0.1891,
            "velocity": 0.9449,
            "articulation": "normal",
            "pedal": false,
            "chord_id": null
        },
        {
            "name": "A2",
            "midi": 45,
            "time": 104.9653,
            "duration": 0.1891,
            "velocity": 0.9449,
            "articulation": "normal",
            "pedal": false,
            "chord_id": null
        },
        {
            "name": "A2",
            "midi": 45,
            "time": 105.1627,
            "duration": 0.1891,
            "velocity": 0.9449,
            "articulation": "normal",
            "pedal": false,
            "chord_id": null
        },
        {
            "name": "A2",
            "midi": 45,
            "time": 105.3642,
            "duration": 0.1933,
            "velocity": 0.9449,
            "articulation": "normal",
            "pedal": false,
            "chord_id": null
        },
        {
            "name": "A2",
            "midi": 45,
            "time": 105.5575,
            "duration": 0.1891,
            "velocity": 0.9449,
            "articulation": "normal",
            "pedal": false,
            "chord_id": null
        },
        {
            "name": "A2",
            "midi": 45,
            "time": 105.7548,
            "duration": 0.1891,
            "velocity": 0.9449,
            "articulation": "normal",
            "pedal": false,
            "chord_id": null
        },
        {
            "name": "F4",
            "midi": 65,
            "time": 105.7548,
            "duration": 0.5839,
            "velocity": 0.9449,
            "articulation": "legato",
            "pedal": false,
            "chord_id": null
        },
        {
            "name": "D5",
            "midi": 74,
            "time": 105.7548,
            "duration": 0.5839,
            "velocity": 0.9449,
            "articulation": "legato",
            "pedal": false,
            "chord_id": null
        },
        {
            "name": "D2",
            "midi": 38,
            "time": 105.7589,
            "duration": 0.1933,
            "velocity": 0.9449,
            "articulation": "normal",
            "pedal": false,
            "chord_id": null
        },
        {
            "name": "D2",
            "midi": 38,
            "time": 105.9522,
            "duration": 0.1891,
            "velocity": 0.9449,
            "articulation": "normal",
            "pedal": false,
            "chord_id": null
        },
        {
            "name": "A2",
            "midi": 45,
            "time": 105.9563,
            "duration": 0.1933,
            "velocity": 0.9449,
            "articulation": "normal",
            "pedal": false,
            "chord_id": null
        },
        {
            "name": "D2",
            "midi": 38,
            "time": 106.1496,
            "duration": 0.1891,
            "velocity": 0.9449,
            "articulation": "normal",
            "pedal": false,
            "chord_id": null
        },
        {
            "name": "A2",
            "midi": 45,
            "time": 106.1496,
            "duration": 0.1891,
            "velocity": 0.9449,
            "articulation": "normal",
            "pedal": false,
            "chord_id": null
        },
        {
            "name": "D2",
            "midi": 38,
            "time": 106.3469,
            "duration": 0.1891,
            "velocity": 0.9449,
            "articulation": "normal",
            "pedal": false,
            "chord_id": null
        },
        {
            "name": "A2",
            "midi": 45,
            "time": 106.3469,
            "duration": 0.1891,
            "velocity": 0.9449,
            "articulation": "normal",
            "pedal": false,
            "chord_id": null
        },
        {
            "name": "D2",
            "midi": 38,
            "time": 106.5443,
            "duration": 0.1891,
            "velocity": 0.9449,
            "articulation": "normal",
            "pedal": false,
            "chord_id": null
        },
        {
            "name": "A2",
            "midi": 45,
            "time": 106.5443,
            "duration": 0.1891,
            "velocity": 0.9449,
            "articulation": "normal",
            "pedal": false,
            "chord_id": null
        },
        {
            "name": "E4",
            "midi": 64,
            "time": 106.5484,
            "duration": 0.1933,
            "velocity": 0.9449,
            "articulation": "normal",
            "pedal": false,
            "chord_id": null
        },
        {
            "name": "C5",
            "midi": 72,
            "time": 106.5484,
            "duration": 0.1933,
            "velocity": 0.9449,
            "articulation": "normal",
            "pedal": false,
            "chord_id": null
        },
        {
            "name": "D2",
            "midi": 38,
            "time": 106.7417,
            "duration": 0.1891,
            "velocity": 0.9449,
            "articulation": "normal",
            "pedal": false,
            "chord_id": null
        },
        {
            "name": "A2",
            "midi": 45,
            "time": 106.7417,
            "duration": 0.1891,
            "velocity": 0.9449,
            "articulation": "normal",
            "pedal": false,
            "chord_id": null
        },
        {
            "name": "D4",
            "midi": 62,
            "time": 106.7417,
            "duration": 0.1891,
            "velocity": 0.9449,
            "articulation": "normal",
            "pedal": false,
            "chord_id": null
        },
        {
            "name": "B4",
            "midi": 71,
            "time": 106.7417,
            "duration": 0.1891,
            "velocity": 0.9449,
            "articulation": "normal",
            "pedal": false,
            "chord_id": null
        },
        {
            "name": "D#2",
            "midi": 39,
            "time": 106.939,
            "duration": 0.1891,
            "velocity": 0.9449,
            "articulation": "normal",
            "pedal": false,
            "chord_id": null
        },
        {
            "name": "C4",
            "midi": 60,
            "time": 106.939,
            "duration": 0.7812,
            "velocity": 0.9449,
            "articulation": "legato",
            "pedal": false,
            "chord_id": null
        },
        {
            "name": "F#4",
            "midi": 66,
            "time": 106.939,
            "duration": 0.5839,
            "velocity": 0.9449,
            "articulation": "legato",
            "pedal": false,
            "chord_id": null
        },
        {
            "name": "A4",
            "midi": 69,
            "time": 106.939,
            "duration": 0.7812,
            "velocity": 0.9449,
            "articulation": "legato",
            "pedal": false,
            "chord_id": null
        },
        {
            "name": "A2",
            "midi": 45,
            "time": 106.9431,
            "duration": 0.1933,
            "velocity": 0.9449,
            "articulation": "normal",
            "pedal": false,
            "chord_id": null
        },
        {
            "name": "D#2",
            "midi": 39,
            "time": 107.1364,
            "duration": 0.1891,
            "velocity": 0.9449,
            "articulation": "normal",
            "pedal": false,
            "chord_id": null
        },
        {
            "name": "A2",
            "midi": 45,
            "time": 107.1364,
            "duration": 0.1891,
            "velocity": 0.9449,
            "articulation": "normal",
            "pedal": false,
            "chord_id": null
        },
        {
            "name": "D#2",
            "midi": 39,
            "time": 107.3338,
            "duration": 0.1891,
            "velocity": 0.9449,
            "articulation": "normal",
            "pedal": false,
            "chord_id": null
        },
        {
            "name": "A2",
            "midi": 45,
            "time": 107.3379,
            "duration": 0.1933,
            "velocity": 0.9449,
            "articulation": "normal",
            "pedal": false,
            "chord_id": null
        },
        {
            "name": "D#2",
            "midi": 39,
            "time": 107.5311,
            "duration": 0.1891,
            "velocity": 0.9449,
            "articulation": "normal",
            "pedal": false,
            "chord_id": null
        },
        {
            "name": "A2",
            "midi": 45,
            "time": 107.5311,
            "duration": 0.1891,
            "velocity": 0.9449,
            "articulation": "normal",
            "pedal": false,
            "chord_id": null
        },
        {
            "name": "A2",
            "midi": 45,
            "time": 107.7285,
            "duration": 0.1891,
            "velocity": 0.9449,
            "articulation": "normal",
            "pedal": false,
            "chord_id": null
        },
        {
            "name": "A4",
            "midi": 69,
            "time": 107.7285,
            "duration": 0.1891,
            "velocity": 0.9449,
            "articulation": "normal",
            "pedal": false,
            "chord_id": null
        },
        {
            "name": "D#2",
            "midi": 39,
            "time": 107.7326,
            "duration": 0.1933,
            "velocity": 0.9449,
            "articulation": "normal",
            "pedal": false,
            "chord_id": null
        },
        {
            "name": "C4",
            "midi": 60,
            "time": 107.7326,
            "duration": 0.1933,
            "velocity": 0.9449,
            "articulation": "normal",
            "pedal": false,
            "chord_id": null
        },
        {
            "name": "D#2",
            "midi": 39,
            "time": 107.9259,
            "duration": 0.1891,
            "velocity": 0.9449,
            "articulation": "normal",
            "pedal": false,
            "chord_id": null
        },
        {
            "name": "A2",
            "midi": 45,
            "time": 107.9259,
            "duration": 0.1891,
            "velocity": 0.9449,
            "articulation": "normal",
            "pedal": false,
            "chord_id": null
        },
        {
            "name": "E2",
            "midi": 40,
            "time": 108.1232,
            "duration": 0.1891,
            "velocity": 0.9449,
            "articulation": "normal",
            "pedal": false,
            "chord_id": null
        },
        {
            "name": "A2",
            "midi": 45,
            "time": 108.1232,
            "duration": 0.1891,
            "velocity": 0.9449,
            "articulation": "normal",
            "pedal": false,
            "chord_id": null
        },
        {
            "name": "C4",
            "midi": 60,
            "time": 108.1232,
            "duration": 0.1891,
            "velocity": 0.9449,
            "articulation": "normal",
            "pedal": false,
            "chord_id": null
        },
        {
            "name": "A4",
            "midi": 69,
            "time": 108.1274,
            "duration": 0.1933,
            "velocity": 0.9449,
            "articulation": "normal",
            "pedal": false,
            "chord_id": null
        },
        {
            "name": "A2",
            "midi": 45,
            "time": 108.3206,
            "duration": 0.1891,
            "velocity": 0.9449,
            "articulation": "normal",
            "pedal": false,
            "chord_id": null
        },
        {
            "name": "E2",
            "midi": 40,
            "time": 108.3247,
            "duration": 0.1933,
            "velocity": 0.9449,
            "articulation": "normal",
            "pedal": false,
            "chord_id": null
        },
        {
            "name": "E2",
            "midi": 40,
            "time": 108.518,
            "duration": 0.1891,
            "velocity": 0.9449,
            "articulation": "normal",
            "pedal": false,
            "chord_id": null
        },
        {
            "name": "E4",
            "midi": 64,
            "time": 108.518,
            "duration": 0.1891,
            "velocity": 0.9449,
            "articulation": "normal",
            "pedal": false,
            "chord_id": null
        },
        {
            "name": "C5",
            "midi": 72,
            "time": 108.518,
            "duration": 0.1891,
            "velocity": 0.9449,
            "articulation": "normal",
            "pedal": false,
            "chord_id": null
        },
        {
            "name": "A2",
            "midi": 45,
            "time": 108.5221,
            "duration": 0.1933,
            "velocity": 0.9449,
            "articulation": "normal",
            "pedal": false,
            "chord_id": null
        },
        {
            "name": "E2",
            "midi": 40,
            "time": 108.7153,
            "duration": 0.1891,
            "velocity": 0.9449,
            "articulation": "normal",
            "pedal": false,
            "chord_id": null
        },
        {
            "name": "A2",
            "midi": 45,
            "time": 108.7153,
            "duration": 0.1891,
            "velocity": 0.9449,
            "articulation": "normal",
            "pedal": false,
            "chord_id": null
        },
        {
            "name": "E2",
            "midi": 40,
            "time": 108.9127,
            "duration": 0.1891,
            "velocity": 0.9449,
            "articulation": "normal",
            "pedal": false,
            "chord_id": null
        },
        {
            "name": "G#2",
            "midi": 44,
            "time": 108.9127,
            "duration": 0.1891,
            "velocity": 0.9449,
            "articulation": "normal",
            "pedal": false,
            "chord_id": null
        },
        {
            "name": "D4",
            "midi": 62,
            "time": 108.9127,
            "duration": 0.1891,
            "velocity": 0.9449,
            "articulation": "normal",
            "pedal": false,
            "chord_id": null
        },
        {
            "name": "B4",
            "midi": 71,
            "time": 108.9168,
            "duration": 0.1933,
            "velocity": 0.9449,
            "articulation": "normal",
            "pedal": false,
            "chord_id": null
        },
        {
            "name": "E2",
            "midi": 40,
            "time": 109.1101,
            "duration": 0.1891,
            "velocity": 0.9449,
            "articulation": "normal",
            "pedal": false,
            "chord_id": null
        },
        {
            "name": "G#2",
            "midi": 44,
            "time": 109.1101,
            "duration": 0.1891,
            "velocity": 0.9449,
            "articulation": "normal",
            "pedal": false,
            "chord_id": null
        },
        {
            "name": "A1",
            "midi": 33,
            "time": 109.3074,
            "duration": 0.3865,
            "velocity": 0.9449,
            "articulation": "legato",
            "pedal": false,
            "chord_id": null
        },
        {
            "name": "A2",
            "midi": 45,
            "time": 109.3074,
            "duration": 0.1891,
            "velocity": 0.9449,
            "articulation": "normal",
            "pedal": false,
            "chord_id": null
        },
        {
            "name": "C4",
            "midi": 60,
            "time": 109.3074,
            "duration": 0.7812,
            "velocity": 0.9449,
            "articulation": "legato",
            "pedal": false,
            "chord_id": null
        },
        {
            "name": "A4",
            "midi": 69,
            "time": 109.3074,
            "duration": 0.7812,
            "velocity": 0.9449,
            "articulation": "legato",
            "pedal": false,
            "chord_id": null
        },
        {
            "name": "A2",
            "midi": 45,
            "time": 109.5048,
            "duration": 0.1891,
            "velocity": 0.9449,
            "articulation": "normal",
            "pedal": false,
            "chord_id": null
        },
        {
            "name": "A2",
            "midi": 45,
            "time": 109.7022,
            "duration": 0.1891,
            "velocity": 0.9449,
            "articulation": "normal",
            "pedal": false,
            "chord_id": null
        },
        {
            "name": "A2",
            "midi": 45,
            "time": 109.8996,
            "duration": 0.1891,
            "velocity": 0.9449,
            "articulation": "normal",
            "pedal": false,
            "chord_id": null
        },
        {
            "name": "A2",
            "midi": 45,
            "time": 110.0969,
            "duration": 0.1891,
            "velocity": 0.9449,
            "articulation": "normal",
            "pedal": false,
            "chord_id": null
        },
        {
            "name": "A2",
            "midi": 45,
            "time": 110.2943,
            "duration": 0.1891,
            "velocity": 0.9449,
            "articulation": "normal",
            "pedal": false,
            "chord_id": null
        },
        {
            "name": "E4",
            "midi": 64,
            "time": 110.4917,
            "duration": 0.9786,
            "velocity": 0.9449,
            "articulation": "legato",
            "pedal": false,
            "chord_id": null
        },
        {
            "name": "G4",
            "midi": 67,
            "time": 110.4917,
            "duration": 0.9786,
            "velocity": 0.9449,
            "articulation": "legato",
            "pedal": false,
            "chord_id": null
        },
        {
            "name": "A#4",
            "midi": 70,
            "time": 110.4917,
            "duration": 0.9786,
            "velocity": 0.9449,
            "articulation": "legato",
            "pedal": false,
            "chord_id": null
        },
        {
            "name": "C#5",
            "midi": 73,
            "time": 110.4917,
            "duration": 0.9786,
            "velocity": 0.9449,
            "articulation": "legato",
            "pedal": false,
            "chord_id": null
        },
        {
            "name": "A2",
            "midi": 45,
            "time": 110.4958,
            "duration": 0.1933,
            "velocity": 0.9449,
            "articulation": "normal",
            "pedal": false,
            "chord_id": null
        },
        {
            "name": "A2",
            "midi": 45,
            "time": 110.6931,
            "duration": 0.1933,
            "velocity": 0.9449,
            "articulation": "normal",
            "pedal": false,
            "chord_id": null
        },
        {
            "name": "A2",
            "midi": 45,
            "time": 110.8905,
            "duration": 0.1933,
            "velocity": 0.9449,
            "articulation": "normal",
            "pedal": false,
            "chord_id": null
        },
        {
            "name": "A2",
            "midi": 45,
            "time": 111.0838,
            "duration": 0.1891,
            "velocity": 0.9449,
            "articulation": "normal",
            "pedal": false,
            "chord_id": null
        },
        {
            "name": "A2",
            "midi": 45,
            "time": 111.2811,
            "duration": 0.1891,
            "velocity": 0.9449,
            "articulation": "normal",
            "pedal": false,
            "chord_id": null
        },
        {
            "name": "A2",
            "midi": 45,
            "time": 111.4785,
            "duration": 0.1891,
            "velocity": 0.9449,
            "articulation": "normal",
            "pedal": false,
            "chord_id": null
        },
        {
            "name": "A2",
            "midi": 45,
            "time": 111.6759,
            "duration": 0.1891,
            "velocity": 0.9449,
            "articulation": "normal",
            "pedal": false,
            "chord_id": null
        },
        {
            "name": "F4",
            "midi": 65,
            "time": 111.6759,
            "duration": 0.5839,
            "velocity": 0.9449,
            "articulation": "legato",
            "pedal": false,
            "chord_id": null
        },
        {
            "name": "A4",
            "midi": 69,
            "time": 111.6759,
            "duration": 0.5839,
            "velocity": 0.9449,
            "articulation": "legato",
            "pedal": false,
            "chord_id": null
        },
        {
            "name": "D5",
            "midi": 74,
            "time": 111.6759,
            "duration": 0.5839,
            "velocity": 0.9449,
            "articulation": "legato",
            "pedal": false,
            "chord_id": null
        },
        {
            "name": "A2",
            "midi": 45,
            "time": 111.8732,
            "duration": 0.1891,
            "velocity": 0.9449,
            "articulation": "normal",
            "pedal": false,
            "chord_id": null
        },
        {
            "name": "A2",
            "midi": 45,
            "time": 112.0747,
            "duration": 0.1933,
            "velocity": 0.9449,
            "articulation": "normal",
            "pedal": false,
            "chord_id": null
        },
        {
            "name": "A2",
            "midi": 45,
            "time": 112.268,
            "duration": 0.1891,
            "velocity": 0.9449,
            "articulation": "normal",
            "pedal": false,
            "chord_id": null
        },
        {
            "name": "C#5",
            "midi": 73,
            "time": 112.4653,
            "duration": 0.1891,
            "velocity": 0.9449,
            "articulation": "normal",
            "pedal": false,
            "chord_id": null
        },
        {
            "name": "E5",
            "midi": 76,
            "time": 112.4653,
            "duration": 0.1891,
            "velocity": 0.9449,
            "articulation": "normal",
            "pedal": false,
            "chord_id": null
        },
        {
            "name": "A2",
            "midi": 45,
            "time": 112.4695,
            "duration": 0.1933,
            "velocity": 0.9449,
            "articulation": "normal",
            "pedal": false,
            "chord_id": null
        },
        {
            "name": "F5",
            "midi": 77,
            "time": 112.6627,
            "duration": 0.1891,
            "velocity": 0.9449,
            "articulation": "normal",
            "pedal": false,
            "chord_id": null
        },
        {
            "name": "A2",
            "midi": 45,
            "time": 112.6668,
            "duration": 0.1933,
            "velocity": 0.9449,
            "articulation": "normal",
            "pedal": false,
            "chord_id": null
        },
        {
            "name": "D5",
            "midi": 74,
            "time": 112.6668,
            "duration": 0.1933,
            "velocity": 0.9449,
            "articulation": "normal",
            "pedal": false,
            "chord_id": null
        },
        {
            "name": "A2",
            "midi": 45,
            "time": 112.8601,
            "duration": 0.1891,
            "velocity": 0.9449,
            "articulation": "normal",
            "pedal": false,
            "chord_id": null
        },
        {
            "name": "F5",
            "midi": 77,
            "time": 112.8601,
            "duration": 0.5839,
            "velocity": 0.9449,
            "articulation": "legato",
            "pedal": false,
            "chord_id": null
        },
        {
            "name": "D5",
            "midi": 74,
            "time": 112.8642,
            "duration": 0.588,
            "velocity": 0.9449,
            "articulation": "legato",
            "pedal": false,
            "chord_id": null
        },
        {
            "name": "A2",
            "midi": 45,
            "time": 113.0574,
            "duration": 0.1891,
            "velocity": 0.9449,
            "articulation": "normal",
            "pedal": false,
            "chord_id": null
        },
        {
            "name": "A2",
            "midi": 45,
            "time": 113.2548,
            "duration": 0.1891,
            "velocity": 0.9449,
            "articulation": "normal",
            "pedal": false,
            "chord_id": null
        },
        {
            "name": "A2",
            "midi": 45,
            "time": 113.4522,
            "duration": 0.1891,
            "velocity": 0.9449,
            "articulation": "normal",
            "pedal": false,
            "chord_id": null
        },
        {
            "name": "A2",
            "midi": 45,
            "time": 113.6496,
            "duration": 0.1891,
            "velocity": 0.9449,
            "articulation": "normal",
            "pedal": false,
            "chord_id": null
        },
        {
            "name": "D5",
            "midi": 74,
            "time": 113.6537,
            "duration": 0.1933,
            "velocity": 0.9449,
            "articulation": "normal",
            "pedal": false,
            "chord_id": null
        },
        {
            "name": "F5",
            "midi": 77,
            "time": 113.6537,
            "duration": 0.1933,
            "velocity": 0.9449,
            "articulation": "normal",
            "pedal": false,
            "chord_id": null
        },
        {
            "name": "A2",
            "midi": 45,
            "time": 113.8469,
            "duration": 0.1891,
            "velocity": 0.9449,
            "articulation": "normal",
            "pedal": false,
            "chord_id": null
        },
        {
            "name": "A#2",
            "midi": 46,
            "time": 114.0443,
            "duration": 0.1891,
            "velocity": 0.9449,
            "articulation": "normal",
            "pedal": false,
            "chord_id": null
        },
        {
            "name": "F5",
            "midi": 77,
            "time": 114.0443,
            "duration": 0.9786,
            "velocity": 0.9449,
            "articulation": "legato",
            "pedal": false,
            "chord_id": null
        },
        {
            "name": "D5",
            "midi": 74,
            "time": 114.0484,
            "duration": 0.9827,
            "velocity": 0.9449,
            "articulation": "legato",
            "pedal": false,
            "chord_id": null
        },
        {
            "name": "A#2",
            "midi": 46,
            "time": 114.2417,
            "duration": 0.1891,
            "velocity": 0.9449,
            "articulation": "normal",
            "pedal": false,
            "chord_id": null
        },
        {
            "name": "A#2",
            "midi": 46,
            "time": 114.439,
            "duration": 0.1891,
            "velocity": 0.9449,
            "articulation": "normal",
            "pedal": false,
            "chord_id": null
        },
        {
            "name": "A#2",
            "midi": 46,
            "time": 114.6364,
            "duration": 0.1891,
            "velocity": 0.9449,
            "articulation": "normal",
            "pedal": false,
            "chord_id": null
        },
        {
            "name": "A#2",
            "midi": 46,
            "time": 114.8379,
            "duration": 0.1933,
            "velocity": 0.9449,
            "articulation": "normal",
            "pedal": false,
            "chord_id": null
        },
        {
            "name": "A#2",
            "midi": 46,
            "time": 115.0352,
            "duration": 0.1933,
            "velocity": 0.9449,
            "articulation": "normal",
            "pedal": false,
            "chord_id": null
        },
        {
            "name": "G4",
            "midi": 67,
            "time": 115.2285,
            "duration": 0.5839,
            "velocity": 0.9449,
            "articulation": "legato",
            "pedal": false,
            "chord_id": null
        },
        {
            "name": "A#2",
            "midi": 46,
            "time": 115.2326,
            "duration": 0.1933,
            "velocity": 0.9449,
            "articulation": "normal",
            "pedal": false,
            "chord_id": null
        },
        {
            "name": "D#5",
            "midi": 75,
            "time": 115.2326,
            "duration": 0.588,
            "velocity": 0.9449,
            "articulation": "legato",
            "pedal": false,
            "chord_id": null
        },
        {
            "name": "A#2",
            "midi": 46,
            "time": 115.4259,
            "duration": 0.1891,
            "velocity": 0.9449,
            "articulation": "normal",
            "pedal": false,
            "chord_id": null
        },
        {
            "name": "A#2",
            "midi": 46,
            "time": 115.6232,
            "duration": 0.1891,
            "velocity": 0.9449,
            "articulation": "normal",
            "pedal": false,
            "chord_id": null
        },
        {
            "name": "A#2",
            "midi": 46,
            "time": 115.8206,
            "duration": 0.1891,
            "velocity": 0.9449,
            "articulation": "normal",
            "pedal": false,
            "chord_id": null
        },
        {
            "name": "A#2",
            "midi": 46,
            "time": 116.018,
            "duration": 0.1891,
            "velocity": 0.9449,
            "articulation": "normal",
            "pedal": false,
            "chord_id": null
        },
        {
            "name": "F4",
            "midi": 65,
            "time": 116.018,
            "duration": 0.1891,
            "velocity": 0.9449,
            "articulation": "normal",
            "pedal": false,
            "chord_id": null
        },
        {
            "name": "D5",
            "midi": 74,
            "time": 116.0221,
            "duration": 0.1933,
            "velocity": 0.9449,
            "articulation": "normal",
            "pedal": false,
            "chord_id": null
        },
        {
            "name": "A#2",
            "midi": 46,
            "time": 116.2153,
            "duration": 0.1891,
            "velocity": 0.9449,
            "articulation": "normal",
            "pedal": false,
            "chord_id": null
        },
        {
            "name": "D#4",
            "midi": 63,
            "time": 116.2153,
            "duration": 0.1891,
            "velocity": 0.9449,
            "articulation": "normal",
            "pedal": false,
            "chord_id": null
        },
        {
            "name": "C5",
            "midi": 72,
            "time": 116.2153,
            "duration": 0.1891,
            "velocity": 0.9449,
            "articulation": "normal",
            "pedal": false,
            "chord_id": null
        },
        {
            "name": "A#2",
            "midi": 46,
            "time": 116.4127,
            "duration": 0.1891,
            "velocity": 0.9449,
            "articulation": "normal",
            "pedal": false,
            "chord_id": null
        },
        {
            "name": "A#4",
            "midi": 70,
            "time": 116.4127,
            "duration": 0.7812,
            "velocity": 0.9449,
            "articulation": "legato",
            "pedal": false,
            "chord_id": null
        },
        {
            "name": "D4",
            "midi": 62,
            "time": 116.4168,
            "duration": 0.7854,
            "velocity": 0.9449,
            "articulation": "legato",
            "pedal": false,
            "chord_id": null
        },
        {
            "name": "F4",
            "midi": 65,
            "time": 116.4168,
            "duration": 0.7854,
            "velocity": 0.9449,
            "articulation": "legato",
            "pedal": false,
            "chord_id": null
        },
        {
            "name": "A#2",
            "midi": 46,
            "time": 116.6101,
            "duration": 0.1891,
            "velocity": 0.9449,
            "articulation": "normal",
            "pedal": false,
            "chord_id": null
        },
        {
            "name": "A#2",
            "midi": 46,
            "time": 116.8074,
            "duration": 0.1891,
            "velocity": 0.9449,
            "articulation": "normal",
            "pedal": false,
            "chord_id": null
        },
        {
            "name": "A#2",
            "midi": 46,
            "time": 117.0048,
            "duration": 0.1891,
            "velocity": 0.9449,
            "articulation": "normal",
            "pedal": false,
            "chord_id": null
        },
        {
            "name": "A#2",
            "midi": 46,
            "time": 117.2022,
            "duration": 0.1891,
            "velocity": 0.9449,
            "articulation": "normal",
            "pedal": false,
            "chord_id": null
        },
        {
            "name": "F4",
            "midi": 65,
            "time": 117.2022,
            "duration": 0.3865,
            "velocity": 0.9449,
            "articulation": "legato",
            "pedal": false,
            "chord_id": null
        },
        {
            "name": "A4",
            "midi": 69,
            "time": 117.2022,
            "duration": 0.1891,
            "velocity": 0.9449,
            "articulation": "normal",
            "pedal": false,
            "chord_id": null
        },
        {
            "name": "D4",
            "midi": 62,
            "time": 117.2063,
            "duration": 0.3906,
            "velocity": 0.9449,
            "articulation": "legato",
            "pedal": false,
            "chord_id": null
        },
        {
            "name": "A#2",
            "midi": 46,
            "time": 117.4037,
            "duration": 0.1933,
            "velocity": 0.9449,
            "articulation": "normal",
            "pedal": false,
            "chord_id": null
        },
        {
            "name": "B2",
            "midi": 47,
            "time": 117.5969,
            "duration": 0.1891,
            "velocity": 0.9449,
            "articulation": "normal",
            "pedal": false,
            "chord_id": null
        },
        {
            "name": "F4",
            "midi": 65,
            "time": 117.5969,
            "duration": 0.5839,
            "velocity": 0.9449,
            "articulation": "legato",
            "pedal": false,
            "chord_id": null
        },
        {
            "name": "G#4",
            "midi": 68,
            "time": 117.5969,
            "duration": 0.5839,
            "velocity": 0.9449,
            "articulation": "legato",
            "pedal": false,
            "chord_id": null
        },
        {
            "name": "D4",
            "midi": 62,
            "time": 117.601,
            "duration": 0.588,
            "velocity": 0.9449,
            "articulation": "legato",
            "pedal": false,
            "chord_id": null
        },
        {
            "name": "B2",
            "midi": 47,
            "time": 117.7943,
            "duration": 0.1891,
            "velocity": 0.9449,
            "articulation": "normal",
            "pedal": false,
            "chord_id": null
        },
        {
            "name": "B2",
            "midi": 47,
            "time": 117.9958,
            "duration": 0.1933,
            "velocity": 0.9449,
            "articulation": "normal",
            "pedal": false,
            "chord_id": null
        },
        {
            "name": "B2",
            "midi": 47,
            "time": 118.189,
            "duration": 0.1891,
            "velocity": 0.9449,
            "articulation": "normal",
            "pedal": false,
            "chord_id": null
        },
        {
            "name": "D4",
            "midi": 62,
            "time": 118.3864,
            "duration": 0.1891,
            "velocity": 0.9449,
            "articulation": "normal",
            "pedal": false,
            "chord_id": null
        },
        {
            "name": "F4",
            "midi": 65,
            "time": 118.3864,
            "duration": 0.1891,
            "velocity": 0.9449,
            "articulation": "normal",
            "pedal": false,
            "chord_id": null
        },
        {
            "name": "B2",
            "midi": 47,
            "time": 118.3905,
            "duration": 0.1933,
            "velocity": 0.9449,
            "articulation": "normal",
            "pedal": false,
            "chord_id": null
        },
        {
            "name": "G#4",
            "midi": 68,
            "time": 118.3905,
            "duration": 0.1933,
            "velocity": 0.9449,
            "articulation": "normal",
            "pedal": false,
            "chord_id": null
        },
        {
            "name": "B2",
            "midi": 47,
            "time": 118.5838,
            "duration": 0.1891,
            "velocity": 0.9449,
            "articulation": "normal",
            "pedal": false,
            "chord_id": null
        },
        {
            "name": "C3",
            "midi": 48,
            "time": 118.7811,
            "duration": 0.3865,
            "velocity": 0.9449,
            "articulation": "legato",
            "pedal": false,
            "chord_id": null
        },
        {
            "name": "C4",
            "midi": 60,
            "time": 118.7811,
            "duration": 0.5839,
            "velocity": 0.9449,
            "articulation": "legato",
            "pedal": false,
            "chord_id": null
        },
        {
            "name": "E4",
            "midi": 64,
            "time": 118.7811,
            "duration": 0.5839,
            "velocity": 0.9449,
            "articulation": "legato",
            "pedal": false,
            "chord_id": null
        },
        {
            "name": "A4",
            "midi": 69,
            "time": 118.7811,
            "duration": 0.5839,
            "velocity": 0.9449,
            "articulation": "legato",
            "pedal": false,
            "chord_id": null
        },
        {
            "name": "E3",
            "midi": 52,
            "time": 119.9653,
            "duration": 0.3865,
            "velocity": 0.9449,
            "articulation": "legato",
            "pedal": false,
            "chord_id": null
        },
        {
            "name": "G#3",
            "midi": 56,
            "time": 119.9653,
            "duration": 0.3865,
            "velocity": 0.9449,
            "articulation": "legato",
            "pedal": false,
            "chord_id": null
        },
        {
            "name": "E4",
            "midi": 64,
            "time": 119.9653,
            "duration": 0.3865,
            "velocity": 0.9449,
            "articulation": "legato",
            "pedal": false,
            "chord_id": null
        },
        {
            "name": "B4",
            "midi": 71,
            "time": 119.9653,
            "duration": 0.3865,
            "velocity": 0.9449,
            "articulation": "legato",
            "pedal": false,
            "chord_id": null
        },
        {
            "name": "A1",
            "midi": 33,
            "time": 121.1495,
            "duration": 0.3865,
            "velocity": 0.9449,
            "articulation": "legato",
            "pedal": false,
            "chord_id": null
        },
        {
            "name": "A3",
            "midi": 57,
            "time": 121.1495,
            "duration": 0.1234,
            "velocity": 0.9449,
            "articulation": "normal",
            "pedal": false,
            "chord_id": null
        },
        {
            "name": "C4",
            "midi": 60,
            "time": 121.2811,
            "duration": 0.1234,
            "velocity": 0.9449,
            "articulation": "normal",
            "pedal": false,
            "chord_id": null
        },
        {
            "name": "E4",
            "midi": 64,
            "time": 121.4127,
            "duration": 0.1234,
            "velocity": 0.9449,
            "articulation": "normal",
            "pedal": false,
            "chord_id": null
        },
        {
            "name": "A4",
            "midi": 69,
            "time": 121.5443,
            "duration": 0.1234,
            "velocity": 0.9449,
            "articulation": "normal",
            "pedal": false,
            "chord_id": null
        },
        {
            "name": "C5",
            "midi": 72,
            "time": 121.6759,
            "duration": 0.1234,
            "velocity": 0.9449,
            "articulation": "normal",
            "pedal": false,
            "chord_id": null
        },
        {
            "name": "E5",
            "midi": 76,
            "time": 121.8074,
            "duration": 0.1234,
            "velocity": 0.9449,
            "articulation": "normal",
            "pedal": false,
            "chord_id": null
        },
        {
            "name": "A3",
            "midi": 57,
            "time": 121.939,
            "duration": 0.1937,
            "velocity": 0.9449,
            "articulation": "normal",
            "pedal": false,
            "chord_id": null
        },
        {
            "name": "D5",
            "midi": 74,
            "time": 121.939,
            "duration": 0.1252,
            "velocity": 0.9449,
            "articulation": "normal",
            "pedal": false,
            "chord_id": null
        },
        {
            "name": "C4",
            "midi": 60,
            "time": 121.9431,
            "duration": 0.4085,
            "velocity": 0.9449,
            "articulation": "legato",
            "pedal": false,
            "chord_id": null
        },
        {
            "name": "E4",
            "midi": 64,
            "time": 121.9431,
            "duration": 0.1982,
            "velocity": 0.9449,
            "articulation": "normal",
            "pedal": false,
            "chord_id": null
        },
        {
            "name": "C5",
            "midi": 72,
            "time": 122.0728,
            "duration": 0.1293,
            "velocity": 0.9449,
            "articulation": "normal",
            "pedal": false,
            "chord_id": null
        },
        {
            "name": "B4",
            "midi": 71,
            "time": 122.2108,
            "duration": 0.1318,
            "velocity": 0.9449,
            "articulation": "normal",
            "pedal": false,
            "chord_id": null
        },
        {
            "name": "C4",
            "midi": 60,
            "time": 122.3516,
            "duration": 0.2113,
            "velocity": 0.9449,
            "articulation": "normal",
            "pedal": false,
            "chord_id": null
        },
        {
            "name": "E4",
            "midi": 64,
            "time": 122.3516,
            "duration": 0.2113,
            "velocity": 0.9449,
            "articulation": "normal",
            "pedal": false,
            "chord_id": null
        },
        {
            "name": "A3",
            "midi": 57,
            "time": 122.3562,
            "duration": 0.2161,
            "velocity": 0.9449,
            "articulation": "normal",
            "pedal": false,
            "chord_id": null
        },
        {
            "name": "A4",
            "midi": 69,
            "time": 122.3562,
            "duration": 0.1415,
            "velocity": 0.9449,
            "articulation": "normal",
            "pedal": false,
            "chord_id": null
        },
        {
            "name": "C5",
            "midi": 72,
            "time": 122.5023,
            "duration": 0.1457,
            "velocity": 0.9449,
            "articulation": "normal",
            "pedal": false,
            "chord_id": null
        },
        {
            "name": "E5",
            "midi": 76,
            "time": 122.6529,
            "duration": 0.1508,
            "velocity": 0.9449,
            "articulation": "normal",
            "pedal": false,
            "chord_id": null
        },
        {
            "name": "A5",
            "midi": 81,
            "time": 122.8037,
            "duration": 0.1504,
            "velocity": 0.9449,
            "articulation": "normal",
            "pedal": false,
            "chord_id": null
        },
        {
            "name": "C6",
            "midi": 84,
            "time": 122.9644,
            "duration": 0.1556,
            "velocity": 0.9449,
            "articulation": "normal",
            "pedal": false,
            "chord_id": null
        },
        {
            "name": "E6",
            "midi": 88,
            "time": 123.1304,
            "duration": 0.1586,
            "velocity": 0.9449,
            "articulation": "normal",
            "pedal": false,
            "chord_id": null
        },
        {
            "name": "A3",
            "midi": 57,
            "time": 123.3,
            "duration": 0.2557,
            "velocity": 0.9449,
            "articulation": "legato",
            "pedal": false,
            "chord_id": null
        },
        {
            "name": "C4",
            "midi": 60,
            "time": 123.3,
            "duration": 0.2557,
            "velocity": 0.9449,
            "articulation": "legato",
            "pedal": false,
            "chord_id": null
        },
        {
            "name": "D6",
            "midi": 86,
            "time": 123.3,
            "duration": 0.1658,
            "velocity": 0.9449,
            "articulation": "normal",
            "pedal": false,
            "chord_id": null
        },
        {
            "name": "E4",
            "midi": 64,
            "time": 123.3054,
            "duration": 0.2616,
            "velocity": 0.9449,
            "articulation": "legato",
            "pedal": false,
            "chord_id": null
        },
        {
            "name": "C6",
            "midi": 84,
            "time": 123.477,
            "duration": 0.1696,
            "velocity": 0.9449,
            "articulation": "normal",
            "pedal": false,
            "chord_id": null
        },
        {
            "name": "B5",
            "midi": 83,
            "time": 123.658,
            "duration": 0.1705,
            "velocity": 0.9449,
            "articulation": "normal",
            "pedal": false,
            "chord_id": null
        },
        {
            "name": "A3",
            "midi": 57,
            "time": 123.8398,
            "duration": 0.2614,
            "velocity": 0.9449,
            "articulation": "legato",
            "pedal": false,
            "chord_id": null
        },
        {
            "name": "C4",
            "midi": 60,
            "time": 123.8398,
            "duration": 0.2614,
            "velocity": 0.9449,
            "articulation": "legato",
            "pedal": false,
            "chord_id": null
        },
        {
            "name": "E4",
            "midi": 64,
            "time": 123.8398,
            "duration": 0.2614,
            "velocity": 0.9449,
            "articulation": "legato",
            "pedal": false,
            "chord_id": null
        },
        {
            "name": "A5",
            "midi": 81,
            "time": 123.8455,
            "duration": 0.1761,
            "velocity": 0.9449,
            "articulation": "normal",
            "pedal": false,
            "chord_id": null
        },
        {
            "name": "C6",
            "midi": 84,
            "time": 124.0216,
            "duration": 0.1719,
            "velocity": 0.9449,
            "articulation": "normal",
            "pedal": false,
            "chord_id": null
        },
        {
            "name": "E6",
            "midi": 88,
            "time": 124.2109,
            "duration": 0.1803,
            "velocity": 0.9449,
            "articulation": "normal",
            "pedal": false,
            "chord_id": null
        },
        {
            "name": "A6",
            "midi": 93,
            "time": 124.3912,
            "duration": 0.1769,
            "velocity": 0.9449,
            "articulation": "normal",
            "pedal": false,
            "chord_id": null
        },
        {
            "name": "C7",
            "midi": 96,
            "time": 124.5857,
            "duration": 0.1828,
            "velocity": 0.9449,
            "articulation": "normal",
            "pedal": false,
            "chord_id": null
        },
        {
            "name": "E7",
            "midi": 100,
            "time": 124.7685,
            "duration": 0.1769,
            "velocity": 0.9449,
            "articulation": "normal",
            "pedal": false,
            "chord_id": null
        },
        {
            "name": "C4",
            "midi": 60,
            "time": 124.9572,
            "duration": 0.2712,
            "velocity": 0.9449,
            "articulation": "legato",
            "pedal": false,
            "chord_id": null
        },
        {
            "name": "E4",
            "midi": 64,
            "time": 124.9572,
            "duration": 0.2712,
            "velocity": 0.9449,
            "articulation": "legato",
            "pedal": false,
            "chord_id": null
        },
        {
            "name": "D7",
            "midi": 98,
            "time": 124.9572,
            "duration": 0.1769,
            "velocity": 0.9449,
            "articulation": "normal",
            "pedal": false,
            "chord_id": null
        },
        {
            "name": "A3",
            "midi": 57,
            "time": 124.9631,
            "duration": 0.2771,
            "velocity": 0.9449,
            "articulation": "legato",
            "pedal": false,
            "chord_id": null
        },
        {
            "name": "C7",
            "midi": 96,
            "time": 125.1518,
            "duration": 0.1828,
            "velocity": 0.9449,
            "articulation": "normal",
            "pedal": false,
            "chord_id": null
        },
        {
            "name": "B6",
            "midi": 95,
            "time": 125.3405,
            "duration": 0.1828,
            "velocity": 0.9449,
            "articulation": "normal",
            "pedal": false,
            "chord_id": null
        },
        {
            "name": "A3",
            "midi": 57,
            "time": 125.5232,
            "duration": 0.2712,
            "velocity": 0.9449,
            "articulation": "legato",
            "pedal": false,
            "chord_id": null
        },
        {
            "name": "C4",
            "midi": 60,
            "time": 125.5232,
            "duration": 0.2712,
            "velocity": 0.9449,
            "articulation": "legato",
            "pedal": false,
            "chord_id": null
        },
        {
            "name": "E4",
            "midi": 64,
            "time": 125.5232,
            "duration": 0.2712,
            "velocity": 0.9449,
            "articulation": "legato",
            "pedal": false,
            "chord_id": null
        },
        {
            "name": "A#6",
            "midi": 94,
            "time": 125.5291,
            "duration": 0.1828,
            "velocity": 0.9449,
            "articulation": "normal",
            "pedal": false,
            "chord_id": null
        },
        {
            "name": "A6",
            "midi": 93,
            "time": 125.7119,
            "duration": 0.1769,
            "velocity": 0.9449,
            "articulation": "normal",
            "pedal": false,
            "chord_id": null
        },
        {
            "name": "G#6",
            "midi": 92,
            "time": 125.9065,
            "duration": 0.1819,
            "velocity": 0.9449,
            "articulation": "normal",
            "pedal": false,
            "chord_id": null
        },
        {
            "name": "G6",
            "midi": 91,
            "time": 126.0884,
            "duration": 0.1721,
            "velocity": 0.9449,
            "articulation": "normal",
            "pedal": false,
            "chord_id": null
        },
        {
            "name": "F#6",
            "midi": 90,
            "time": 126.2776,
            "duration": 0.1761,
            "velocity": 0.9449,
            "articulation": "normal",
            "pedal": false,
            "chord_id": null
        },
        {
            "name": "F6",
            "midi": 89,
            "time": 126.4594,
            "duration": 0.1745,
            "velocity": 0.9449,
            "articulation": "normal",
            "pedal": false,
            "chord_id": null
        },
        {
            "name": "E6",
            "midi": 88,
            "time": 126.6339,
            "duration": 0.1668,
            "velocity": 0.9449,
            "articulation": "normal",
            "pedal": false,
            "chord_id": null
        },
        {
            "name": "D#6",
            "midi": 87,
            "time": 126.8117,
            "duration": 0.1619,
            "velocity": 0.9449,
            "articulation": "normal",
            "pedal": false,
            "chord_id": null
        },
        {
            "name": "D6",
            "midi": 86,
            "time": 126.9842,
            "duration": 0.1589,
            "velocity": 0.9449,
            "articulation": "normal",
            "pedal": false,
            "chord_id": null
        },
        {
            "name": "C#6",
            "midi": 85,
            "time": 127.1537,
            "duration": 0.1562,
            "velocity": 0.9449,
            "articulation": "normal",
            "pedal": false,
            "chord_id": null
        },
        {
            "name": "C6",
            "midi": 84,
            "time": 127.3203,
            "duration": 0.1562,
            "velocity": 0.9449,
            "articulation": "normal",
            "pedal": false,
            "chord_id": null
        },
        {
            "name": "B5",
            "midi": 83,
            "time": 127.4922,
            "duration": 0.1615,
            "velocity": 0.9449,
            "articulation": "normal",
            "pedal": false,
            "chord_id": null
        },
        {
            "name": "A#5",
            "midi": 82,
            "time": 127.6537,
            "duration": 0.1562,
            "velocity": 0.9449,
            "articulation": "normal",
            "pedal": false,
            "chord_id": null
        },
        {
            "name": "A5",
            "midi": 81,
            "time": 127.8203,
            "duration": 0.1562,
            "velocity": 0.9449,
            "articulation": "normal",
            "pedal": false,
            "chord_id": null
        },
        {
            "name": "G#5",
            "midi": 80,
            "time": 127.987,
            "duration": 0.1562,
            "velocity": 0.9449,
            "articulation": "normal",
            "pedal": false,
            "chord_id": null
        },
        {
            "name": "G5",
            "midi": 79,
            "time": 128.1537,
            "duration": 0.1532,
            "velocity": 0.9449,
            "articulation": "normal",
            "pedal": false,
            "chord_id": null
        },
        {
            "name": "F#5",
            "midi": 78,
            "time": 128.322,
            "duration": 0.155,
            "velocity": 0.9449,
            "articulation": "normal",
            "pedal": false,
            "chord_id": null
        },
        {
            "name": "F5",
            "midi": 77,
            "time": 128.477,
            "duration": 0.1465,
            "velocity": 0.9449,
            "articulation": "normal",
            "pedal": false,
            "chord_id": null
        },
        {
            "name": "E5",
            "midi": 76,
            "time": 128.6332,
            "duration": 0.2197,
            "velocity": 0.9449,
            "articulation": "normal",
            "pedal": false,
            "chord_id": null
        },
        {
            "name": "D#5",
            "midi": 75,
            "time": 128.8623,
            "duration": 0.2127,
            "velocity": 0.9449,
            "articulation": "normal",
            "pedal": false,
            "chord_id": null
        },
        {
            "name": "E5",
            "midi": 76,
            "time": 129.0885,
            "duration": 0.2108,
            "velocity": 0.9449,
            "articulation": "normal",
            "pedal": false,
            "chord_id": null
        },
        {
            "name": "B4",
            "midi": 71,
            "time": 129.2994,
            "duration": 0.1993,
            "velocity": 0.9449,
            "articulation": "normal",
            "pedal": false,
            "chord_id": null
        },
        {
            "name": "D5",
            "midi": 74,
            "time": 129.5115,
            "duration": 0.1966,
            "velocity": 0.9449,
            "articulation": "normal",
            "pedal": false,
            "chord_id": null
        },
        {
            "name": "C5",
            "midi": 72,
            "time": 129.7081,
            "duration": 0.1917,
            "velocity": 0.9449,
            "articulation": "normal",
            "pedal": false,
            "chord_id": null
        },
        {
            "name": "A2",
            "midi": 45,
            "time": 129.9081,
            "duration": 0.1917,
            "velocity": 0.9449,
            "articulation": "normal",
            "pedal": false,
            "chord_id": null
        },
        {
            "name": "A4",
            "midi": 69,
            "time": 129.9123,
            "duration": 0.3958,
            "velocity": 0.9449,
            "articulation": "legato",
            "pedal": false,
            "chord_id": null
        },
        {
            "name": "E3",
            "midi": 52,
            "time": 130.1123,
            "duration": 0.1958,
            "velocity": 0.9449,
            "articulation": "normal",
            "pedal": false,
            "chord_id": null
        },
        {
            "name": "A3",
            "midi": 57,
            "time": 130.3081,
            "duration": 0.1917,
            "velocity": 0.9449,
            "articulation": "normal",
            "pedal": false,
            "chord_id": null
        },
        {
            "name": "C4",
            "midi": 60,
            "time": 130.5123,
            "duration": 0.1958,
            "velocity": 0.9449,
            "articulation": "normal",
            "pedal": false,
            "chord_id": null
        },
        {
            "name": "E4",
            "midi": 64,
            "time": 130.7123,
            "duration": 0.1958,
            "velocity": 0.9449,
            "articulation": "normal",
            "pedal": false,
            "chord_id": null
        },
        {
            "name": "A4",
            "midi": 69,
            "time": 130.9081,
            "duration": 0.1917,
            "velocity": 0.9449,
            "articulation": "normal",
            "pedal": false,
            "chord_id": null
        },
        {
            "name": "E2",
            "midi": 40,
            "time": 131.1081,
            "duration": 0.1917,
            "velocity": 0.9449,
            "articulation": "normal",
            "pedal": false,
            "chord_id": null
        },
        {
            "name": "B4",
            "midi": 71,
            "time": 131.1081,
            "duration": 0.3917,
            "velocity": 0.9449,
            "articulation": "legato",
            "pedal": false,
            "chord_id": null
        },
        {
            "name": "E3",
            "midi": 52,
            "time": 131.3081,
            "duration": 0.1917,
            "velocity": 0.9449,
            "articulation": "normal",
            "pedal": false,
            "chord_id": null
        },
        {
            "name": "G#3",
            "midi": 56,
            "time": 131.5081,
            "duration": 0.1917,
            "velocity": 0.9449,
            "articulation": "normal",
            "pedal": false,
            "chord_id": null
        },
        {
            "name": "E4",
            "midi": 64,
            "time": 131.7123,
            "duration": 0.1958,
            "velocity": 0.9449,
            "articulation": "normal",
            "pedal": false,
            "chord_id": null
        },
        {
            "name": "G#4",
            "midi": 68,
            "time": 131.9123,
            "duration": 0.1958,
            "velocity": 0.9449,
            "articulation": "normal",
            "pedal": false,
            "chord_id": null
        },
        {
            "name": "B4",
            "midi": 71,
            "time": 132.1081,
            "duration": 0.1917,
            "velocity": 0.9449,
            "articulation": "normal",
            "pedal": false,
            "chord_id": null
        },
        {
            "name": "A2",
            "midi": 45,
            "time": 132.3081,
            "duration": 0.1917,
            "velocity": 0.9449,
            "articulation": "normal",
            "pedal": false,
            "chord_id": null
        },
        {
            "name": "C5",
            "midi": 72,
            "time": 132.3123,
            "duration": 0.3958,
            "velocity": 0.9449,
            "articulation": "legato",
            "pedal": false,
            "chord_id": null
        },
        {
            "name": "E3",
            "midi": 52,
            "time": 132.5081,
            "duration": 0.1917,
            "velocity": 0.9449,
            "articulation": "normal",
            "pedal": false,
            "chord_id": null
        },
        {
            "name": "A3",
            "midi": 57,
            "time": 132.7081,
            "duration": 0.1917,
            "velocity": 0.9449,
            "articulation": "normal",
            "pedal": false,
            "chord_id": null
        },
        {
            "name": "E4",
            "midi": 64,
            "time": 132.9081,
            "duration": 0.1917,
            "velocity": 0.9449,
            "articulation": "normal",
            "pedal": false,
            "chord_id": null
        },
        {
            "name": "E5",
            "midi": 76,
            "time": 133.1081,
            "duration": 0.1917,
            "velocity": 0.9449,
            "articulation": "normal",
            "pedal": false,
            "chord_id": null
        },
        {
            "name": "D#5",
            "midi": 75,
            "time": 133.3123,
            "duration": 0.1958,
            "velocity": 0.9449,
            "articulation": "normal",
            "pedal": false,
            "chord_id": null
        },
        {
            "name": "E5",
            "midi": 76,
            "time": 133.5081,
            "duration": 0.1917,
            "velocity": 0.9449,
            "articulation": "normal",
            "pedal": false,
            "chord_id": null
        },
        {
            "name": "D#5",
            "midi": 75,
            "time": 133.7081,
            "duration": 0.1917,
            "velocity": 0.9449,
            "articulation": "normal",
            "pedal": false,
            "chord_id": null
        },
        {
            "name": "E5",
            "midi": 76,
            "time": 133.9081,
            "duration": 0.1917,
            "velocity": 0.9449,
            "articulation": "normal",
            "pedal": false,
            "chord_id": null
        },
        {
            "name": "B4",
            "midi": 71,
            "time": 134.1081,
            "duration": 0.1917,
            "velocity": 0.9449,
            "articulation": "normal",
            "pedal": false,
            "chord_id": null
        },
        {
            "name": "D5",
            "midi": 74,
            "time": 134.3081,
            "duration": 0.1917,
            "velocity": 0.9449,
            "articulation": "normal",
            "pedal": false,
            "chord_id": null
        },
        {
            "name": "C5",
            "midi": 72,
            "time": 134.5081,
            "duration": 0.1917,
            "velocity": 0.9449,
            "articulation": "normal",
            "pedal": false,
            "chord_id": null
        },
        {
            "name": "A2",
            "midi": 45,
            "time": 134.7081,
            "duration": 0.1917,
            "velocity": 0.9449,
            "articulation": "normal",
            "pedal": false,
            "chord_id": null
        },
        {
            "name": "A4",
            "midi": 69,
            "time": 134.7081,
            "duration": 0.3917,
            "velocity": 0.9449,
            "articulation": "legato",
            "pedal": false,
            "chord_id": null
        },
        {
            "name": "E3",
            "midi": 52,
            "time": 134.9123,
            "duration": 0.1958,
            "velocity": 0.9449,
            "articulation": "normal",
            "pedal": false,
            "chord_id": null
        },
        {
            "name": "A3",
            "midi": 57,
            "time": 135.1123,
            "duration": 0.1958,
            "velocity": 0.9449,
            "articulation": "normal",
            "pedal": false,
            "chord_id": null
        },
        {
            "name": "C4",
            "midi": 60,
            "time": 135.3081,
            "duration": 0.1917,
            "velocity": 0.9449,
            "articulation": "normal",
            "pedal": false,
            "chord_id": null
        },
        {
            "name": "E4",
            "midi": 64,
            "time": 135.5081,
            "duration": 0.1917,
            "velocity": 0.9449,
            "articulation": "normal",
            "pedal": false,
            "chord_id": null
        },
        {
            "name": "A4",
            "midi": 69,
            "time": 135.7081,
            "duration": 0.1917,
            "velocity": 0.9449,
            "articulation": "normal",
            "pedal": false,
            "chord_id": null
        },
        {
            "name": "E2",
            "midi": 40,
            "time": 135.9081,
            "duration": 0.1917,
            "velocity": 0.9449,
            "articulation": "normal",
            "pedal": false,
            "chord_id": null
        },
        {
            "name": "B4",
            "midi": 71,
            "time": 135.9123,
            "duration": 0.3958,
            "velocity": 0.9449,
            "articulation": "legato",
            "pedal": false,
            "chord_id": null
        },
        {
            "name": "E3",
            "midi": 52,
            "time": 136.1123,
            "duration": 0.1958,
            "velocity": 0.9449,
            "articulation": "normal",
            "pedal": false,
            "chord_id": null
        },
        {
            "name": "G#3",
            "midi": 56,
            "time": 136.3081,
            "duration": 0.1917,
            "velocity": 0.9449,
            "articulation": "normal",
            "pedal": false,
            "chord_id": null
        },
        {
            "name": "D4",
            "midi": 62,
            "time": 136.5081,
            "duration": 0.1917,
            "velocity": 0.9449,
            "articulation": "normal",
            "pedal": false,
            "chord_id": null
        },
        {
            "name": "C5",
            "midi": 72,
            "time": 136.7123,
            "duration": 0.1958,
            "velocity": 0.9449,
            "articulation": "normal",
            "pedal": false,
            "chord_id": null
        },
        {
            "name": "B4",
            "midi": 71,
            "time": 136.9123,
            "duration": 0.1958,
            "velocity": 0.9449,
            "articulation": "normal",
            "pedal": false,
            "chord_id": null
        },
        {
            "name": "A2",
            "midi": 45,
            "time": 137.1081,
            "duration": 0.1917,
            "velocity": 0.9449,
            "articulation": "normal",
            "pedal": false,
            "chord_id": null
        },
        {
            "name": "C4",
            "midi": 60,
            "time": 137.1081,
            "duration": 0.3917,
            "velocity": 0.9449,
            "articulation": "legato",
            "pedal": false,
            "chord_id": null
        },
        {
            "name": "A4",
            "midi": 69,
            "time": 137.1123,
            "duration": 0.3958,
            "velocity": 0.9449,
            "articulation": "legato",
            "pedal": false,
            "chord_id": null
        },
        {
            "name": "E3",
            "midi": 52,
            "time": 137.3123,
            "duration": 0.1958,
            "velocity": 0.9449,
            "articulation": "normal",
            "pedal": false,
            "chord_id": null
        },
        {
            "name": "A3",
            "midi": 57,
            "time": 137.5123,
            "duration": 0.1958,
            "velocity": 0.9449,
            "articulation": "normal",
            "pedal": false,
            "chord_id": null
        },
        {
            "name": "B4",
            "midi": 71,
            "time": 137.7081,
            "duration": 0.1917,
            "velocity": 0.9449,
            "articulation": "normal",
            "pedal": false,
            "chord_id": null
        },
        {
            "name": "C5",
            "midi": 72,
            "time": 137.9081,
            "duration": 0.1917,
            "velocity": 0.9449,
            "articulation": "normal",
            "pedal": false,
            "chord_id": null
        },
        {
            "name": "D5",
            "midi": 74,
            "time": 138.1081,
            "duration": 0.1917,
            "velocity": 0.9449,
            "articulation": "normal",
            "pedal": false,
            "chord_id": null
        },
        {
            "name": "E5",
            "midi": 76,
            "time": 138.3081,
            "duration": 0.5917,
            "velocity": 0.9449,
            "articulation": "legato",
            "pedal": false,
            "chord_id": null
        },
        {
            "name": "C3",
            "midi": 48,
            "time": 138.3123,
            "duration": 0.1958,
            "velocity": 0.9449,
            "articulation": "normal",
            "pedal": false,
            "chord_id": null
        },
        {
            "name": "G3",
            "midi": 55,
            "time": 138.5123,
            "duration": 0.1958,
            "velocity": 0.9449,
            "articulation": "normal",
            "pedal": false,
            "chord_id": null
        },
        {
            "name": "C4",
            "midi": 60,
            "time": 138.7123,
            "duration": 0.1958,
            "velocity": 0.9449,
            "articulation": "normal",
            "pedal": false,
            "chord_id": null
        },
        {
            "name": "G4",
            "midi": 67,
            "time": 138.9123,
            "duration": 0.1958,
            "velocity": 0.9449,
            "articulation": "normal",
            "pedal": false,
            "chord_id": null
        },
        {
            "name": "F5",
            "midi": 77,
            "time": 139.1123,
            "duration": 0.1958,
            "velocity": 0.9449,
            "articulation": "normal",
            "pedal": false,
            "chord_id": null
        },
        {
            "name": "E5",
            "midi": 76,
            "time": 139.3081,
            "duration": 0.1917,
            "velocity": 0.9449,
            "articulation": "normal",
            "pedal": false,
            "chord_id": null
        },
        {
            "name": "G2",
            "midi": 43,
            "time": 139.5081,
            "duration": 0.1917,
            "velocity": 0.9449,
            "articulation": "normal",
            "pedal": false,
            "chord_id": null
        },
        {
            "name": "D5",
            "midi": 74,
            "time": 139.5081,
            "duration": 0.5917,
            "velocity": 0.9449,
            "articulation": "legato",
            "pedal": false,
            "chord_id": null
        },
        {
            "name": "G3",
            "midi": 55,
            "time": 139.7081,
            "duration": 0.1917,
            "velocity": 0.9449,
            "articulation": "normal",
            "pedal": false,
            "chord_id": null
        },
        {
            "name": "B3",
            "midi": 59,
            "time": 139.9081,
            "duration": 0.1917,
            "velocity": 0.9449,
            "articulation": "normal",
            "pedal": false,
            "chord_id": null
        },
        {
            "name": "F4",
            "midi": 65,
            "time": 140.1123,
            "duration": 0.1958,
            "velocity": 0.9449,
            "articulation": "normal",
            "pedal": false,
            "chord_id": null
        },
        {
            "name": "E5",
            "midi": 76,
            "time": 140.3081,
            "duration": 0.1917,
            "velocity": 0.9449,
            "articulation": "normal",
            "pedal": false,
            "chord_id": null
        },
        {
            "name": "D5",
            "midi": 74,
            "time": 140.5081,
            "duration": 0.1917,
            "velocity": 0.9449,
            "articulation": "normal",
            "pedal": false,
            "chord_id": null
        },
        {
            "name": "A2",
            "midi": 45,
            "time": 140.7081,
            "duration": 0.1917,
            "velocity": 0.9449,
            "articulation": "normal",
            "pedal": false,
            "chord_id": null
        },
        {
            "name": "C5",
            "midi": 72,
            "time": 140.7123,
            "duration": 0.5958,
            "velocity": 0.9449,
            "articulation": "legato",
            "pedal": false,
            "chord_id": null
        },
        {
            "name": "E3",
            "midi": 52,
            "time": 140.9081,
            "duration": 0.1917,
            "velocity": 0.9449,
            "articulation": "normal",
            "pedal": false,
            "chord_id": null
        },
        {
            "name": "A3",
            "midi": 57,
            "time": 141.1081,
            "duration": 0.1917,
            "velocity": 0.9449,
            "articulation": "normal",
            "pedal": false,
            "chord_id": null
        },
        {
            "name": "E4",
            "midi": 64,
            "time": 141.3123,
            "duration": 0.1958,
            "velocity": 0.9449,
            "articulation": "normal",
            "pedal": false,
            "chord_id": null
        },
        {
            "name": "D5",
            "midi": 74,
            "time": 141.5081,
            "duration": 0.1917,
            "velocity": 0.9449,
            "articulation": "normal",
            "pedal": false,
            "chord_id": null
        },
        {
            "name": "C5",
            "midi": 72,
            "time": 141.7081,
            "duration": 0.1917,
            "velocity": 0.9449,
            "articulation": "normal",
            "pedal": false,
            "chord_id": null
        },
        {
            "name": "E2",
            "midi": 40,
            "time": 141.9081,
            "duration": 0.1917,
            "velocity": 0.9449,
            "articulation": "normal",
            "pedal": false,
            "chord_id": null
        },
        {
            "name": "B4",
            "midi": 71,
            "time": 141.9081,
            "duration": 0.1917,
            "velocity": 0.9449,
            "articulation": "normal",
            "pedal": false,
            "chord_id": null
        },
        {
            "name": "E3",
            "midi": 52,
            "time": 142.1081,
            "duration": 0.1917,
            "velocity": 0.9449,
            "articulation": "normal",
            "pedal": false,
            "chord_id": null
        },
        {
            "name": "E4",
            "midi": 64,
            "time": 142.3081,
            "duration": 0.1917,
            "velocity": 0.9449,
            "articulation": "normal",
            "pedal": false,
            "chord_id": null
        },
        {
            "name": "E4",
            "midi": 64,
            "time": 142.5081,
            "duration": 0.1917,
            "velocity": 0.9449,
            "articulation": "normal",
            "pedal": false,
            "chord_id": null
        },
        {
            "name": "E5",
            "midi": 76,
            "time": 142.7081,
            "duration": 0.1917,
            "velocity": 0.9449,
            "articulation": "normal",
            "pedal": false,
            "chord_id": null
        },
        {
            "name": "E4",
            "midi": 64,
            "time": 142.9081,
            "duration": 0.1917,
            "velocity": 0.9449,
            "articulation": "normal",
            "pedal": false,
            "chord_id": null
        },
        {
            "name": "E5",
            "midi": 76,
            "time": 143.1123,
            "duration": 0.1958,
            "velocity": 0.9449,
            "articulation": "normal",
            "pedal": false,
            "chord_id": null
        },
        {
            "name": "E5",
            "midi": 76,
            "time": 143.3123,
            "duration": 0.1958,
            "velocity": 0.9449,
            "articulation": "normal",
            "pedal": false,
            "chord_id": null
        },
        {
            "name": "E6",
            "midi": 88,
            "time": 143.5123,
            "duration": 0.1958,
            "velocity": 0.9449,
            "articulation": "normal",
            "pedal": false,
            "chord_id": null
        },
        {
            "name": "D#5",
            "midi": 75,
            "time": 143.7081,
            "duration": 0.1917,
            "velocity": 0.9449,
            "articulation": "normal",
            "pedal": false,
            "chord_id": null
        },
        {
            "name": "E5",
            "midi": 76,
            "time": 143.9081,
            "duration": 0.1917,
            "velocity": 0.9449,
            "articulation": "normal",
            "pedal": false,
            "chord_id": null
        },
        {
            "name": "D#5",
            "midi": 75,
            "time": 144.1081,
            "duration": 0.1917,
            "velocity": 0.9449,
            "articulation": "normal",
            "pedal": false,
            "chord_id": null
        },
        {
            "name": "E5",
            "midi": 76,
            "time": 144.3081,
            "duration": 0.1917,
            "velocity": 0.9449,
            "articulation": "normal",
            "pedal": false,
            "chord_id": null
        },
        {
            "name": "D#5",
            "midi": 75,
            "time": 144.5123,
            "duration": 0.1958,
            "velocity": 0.9449,
            "articulation": "normal",
            "pedal": false,
            "chord_id": null
        },
        {
            "name": "E5",
            "midi": 76,
            "time": 144.7081,
            "duration": 0.1917,
            "velocity": 0.9449,
            "articulation": "normal",
            "pedal": false,
            "chord_id": null
        },
        {
            "name": "D#5",
            "midi": 75,
            "time": 144.9081,
            "duration": 0.1917,
            "velocity": 0.9449,
            "articulation": "normal",
            "pedal": false,
            "chord_id": null
        },
        {
            "name": "E5",
            "midi": 76,
            "time": 145.1123,
            "duration": 0.1958,
            "velocity": 0.9449,
            "articulation": "normal",
            "pedal": false,
            "chord_id": null
        },
        {
            "name": "D#5",
            "midi": 75,
            "time": 145.3081,
            "duration": 0.1917,
            "velocity": 0.9449,
            "articulation": "normal",
            "pedal": false,
            "chord_id": null
        },
        {
            "name": "E5",
            "midi": 76,
            "time": 145.5081,
            "duration": 0.1917,
            "velocity": 0.9449,
            "articulation": "normal",
            "pedal": false,
            "chord_id": null
        },
        {
            "name": "D#5",
            "midi": 75,
            "time": 145.7081,
            "duration": 0.1917,
            "velocity": 0.9449,
            "articulation": "normal",
            "pedal": false,
            "chord_id": null
        },
        {
            "name": "E5",
            "midi": 76,
            "time": 145.9081,
            "duration": 0.1917,
            "velocity": 0.9449,
            "articulation": "normal",
            "pedal": false,
            "chord_id": null
        },
        {
            "name": "B4",
            "midi": 71,
            "time": 146.1081,
            "duration": 0.1917,
            "velocity": 0.9449,
            "articulation": "normal",
            "pedal": false,
            "chord_id": null
        },
        {
            "name": "D5",
            "midi": 74,
            "time": 146.3081,
            "duration": 0.1917,
            "velocity": 0.9449,
            "articulation": "normal",
            "pedal": false,
            "chord_id": null
        },
        {
            "name": "C5",
            "midi": 72,
            "time": 146.5081,
            "duration": 0.1917,
            "velocity": 0.9449,
            "articulation": "normal",
            "pedal": false,
            "chord_id": null
        },
        {
            "name": "A2",
            "midi": 45,
            "time": 146.7081,
            "duration": 0.1917,
            "velocity": 0.9449,
            "articulation": "normal",
            "pedal": false,
            "chord_id": null
        },
        {
            "name": "A4",
            "midi": 69,
            "time": 146.7081,
            "duration": 0.5917,
            "velocity": 0.9449,
            "articulation": "legato",
            "pedal": false,
            "chord_id": null
        },
        {
            "name": "E3",
            "midi": 52,
            "time": 146.9081,
            "duration": 0.1917,
            "velocity": 0.9449,
            "articulation": "normal",
            "pedal": false,
            "chord_id": null
        },
        {
            "name": "A3",
            "midi": 57,
            "time": 147.1123,
            "duration": 0.1958,
            "velocity": 0.9449,
            "articulation": "normal",
            "pedal": false,
            "chord_id": null
        },
        {
            "name": "C4",
            "midi": 60,
            "time": 147.3081,
            "duration": 0.1917,
            "velocity": 0.9449,
            "articulation": "normal",
            "pedal": false,
            "chord_id": null
        },
        {
            "name": "E4",
            "midi": 64,
            "time": 147.5081,
            "duration": 0.1917,
            "velocity": 0.9449,
            "articulation": "normal",
            "pedal": false,
            "chord_id": null
        },
        {
            "name": "A4",
            "midi": 69,
            "time": 147.7081,
            "duration": 0.1917,
            "velocity": 0.9449,
            "articulation": "normal",
            "pedal": false,
            "chord_id": null
        },
        {
            "name": "B4",
            "midi": 71,
            "time": 147.9081,
            "duration": 0.5917,
            "velocity": 0.9449,
            "articulation": "legato",
            "pedal": false,
            "chord_id": null
        },
        {
            "name": "E2",
            "midi": 40,
            "time": 147.9123,
            "duration": 0.1958,
            "velocity": 0.9449,
            "articulation": "normal",
            "pedal": false,
            "chord_id": null
        },
        {
            "name": "E3",
            "midi": 52,
            "time": 148.1081,
            "duration": 0.1917,
            "velocity": 0.9449,
            "articulation": "normal",
            "pedal": false,
            "chord_id": null
        },
        {
            "name": "G#3",
            "midi": 56,
            "time": 148.3123,
            "duration": 0.1958,
            "velocity": 0.9449,
            "articulation": "normal",
            "pedal": false,
            "chord_id": null
        },
        {
            "name": "E4",
            "midi": 64,
            "time": 148.5123,
            "duration": 0.1958,
            "velocity": 0.9449,
            "articulation": "normal",
            "pedal": false,
            "chord_id": null
        },
        {
            "name": "G#4",
            "midi": 68,
            "time": 148.7081,
            "duration": 0.1917,
            "velocity": 0.9449,
            "articulation": "normal",
            "pedal": false,
            "chord_id": null
        },
        {
            "name": "B4",
            "midi": 71,
            "time": 148.9081,
            "duration": 0.1917,
            "velocity": 0.9449,
            "articulation": "normal",
            "pedal": false,
            "chord_id": null
        },
        {
            "name": "A2",
            "midi": 45,
            "time": 149.1081,
            "duration": 0.1917,
            "velocity": 0.9449,
            "articulation": "normal",
            "pedal": false,
            "chord_id": null
        },
        {
            "name": "C5",
            "midi": 72,
            "time": 149.1081,
            "duration": 0.3917,
            "velocity": 0.9449,
            "articulation": "legato",
            "pedal": false,
            "chord_id": null
        },
        {
            "name": "E3",
            "midi": 52,
            "time": 149.3081,
            "duration": 0.1917,
            "velocity": 0.9449,
            "articulation": "normal",
            "pedal": false,
            "chord_id": null
        },
        {
            "name": "A3",
            "midi": 57,
            "time": 149.5081,
            "duration": 0.1917,
            "velocity": 0.9449,
            "articulation": "normal",
            "pedal": false,
            "chord_id": null
        },
        {
            "name": "E4",
            "midi": 64,
            "time": 149.7123,
            "duration": 0.1958,
            "velocity": 0.9449,
            "articulation": "normal",
            "pedal": false,
            "chord_id": null
        },
        {
            "name": "E5",
            "midi": 76,
            "time": 149.9081,
            "duration": 0.1917,
            "velocity": 0.9449,
            "articulation": "normal",
            "pedal": false,
            "chord_id": null
        },
        {
            "name": "D#5",
            "midi": 75,
            "time": 150.1081,
            "duration": 0.1917,
            "velocity": 0.9449,
            "articulation": "normal",
            "pedal": false,
            "chord_id": null
        },
        {
            "name": "E5",
            "midi": 76,
            "time": 150.3081,
            "duration": 0.1917,
            "velocity": 0.9449,
            "articulation": "normal",
            "pedal": false,
            "chord_id": null
        },
        {
            "name": "D#5",
            "midi": 75,
            "time": 150.5081,
            "duration": 0.1917,
            "velocity": 0.9449,
            "articulation": "normal",
            "pedal": false,
            "chord_id": null
        },
        {
            "name": "E5",
            "midi": 76,
            "time": 150.7081,
            "duration": 0.1917,
            "velocity": 0.9449,
            "articulation": "normal",
            "pedal": false,
            "chord_id": null
        },
        {
            "name": "B4",
            "midi": 71,
            "time": 150.9081,
            "duration": 0.1917,
            "velocity": 0.9449,
            "articulation": "normal",
            "pedal": false,
            "chord_id": null
        },
        {
            "name": "D5",
            "midi": 74,
            "time": 151.1081,
            "duration": 0.1917,
            "velocity": 0.9449,
            "articulation": "normal",
            "pedal": false,
            "chord_id": null
        },
        {
            "name": "C5",
            "midi": 72,
            "time": 151.3081,
            "duration": 0.1917,
            "velocity": 0.9449,
            "articulation": "normal",
            "pedal": false,
            "chord_id": null
        },
        {
            "name": "A2",
            "midi": 45,
            "time": 151.5081,
            "duration": 0.1942,
            "velocity": 0.9449,
            "articulation": "normal",
            "pedal": false,
            "chord_id": null
        },
        {
            "name": "A4",
            "midi": 69,
            "time": 151.5081,
            "duration": 0.4005,
            "velocity": 0.9449,
            "articulation": "legato",
            "pedal": false,
            "chord_id": null
        },
        {
            "name": "E3",
            "midi": 52,
            "time": 151.7109,
            "duration": 0.1978,
            "velocity": 0.9449,
            "articulation": "normal",
            "pedal": false,
            "chord_id": null
        },
        {
            "name": "A3",
            "midi": 57,
            "time": 151.9216,
            "duration": 0.204,
            "velocity": 0.9449,
            "articulation": "normal",
            "pedal": false,
            "chord_id": null
        },
        {
            "name": "C4",
            "midi": 60,
            "time": 152.1256,
            "duration": 0.1997,
            "velocity": 0.9449,
            "articulation": "normal",
            "pedal": false,
            "chord_id": null
        },
        {
            "name": "E4",
            "midi": 64,
            "time": 152.334,
            "duration": 0.2025,
            "velocity": 0.9449,
            "articulation": "normal",
            "pedal": false,
            "chord_id": null
        },
        {
            "name": "A4",
            "midi": 69,
            "time": 152.5452,
            "duration": 0.2063,
            "velocity": 0.9449,
            "articulation": "normal",
            "pedal": false,
            "chord_id": null
        },
        {
            "name": "E2",
            "midi": 40,
            "time": 152.7606,
            "duration": 0.2083,
            "velocity": 0.9449,
            "articulation": "normal",
            "pedal": false,
            "chord_id": null
        },
        {
            "name": "B4",
            "midi": 71,
            "time": 152.7606,
            "duration": 0.4276,
            "velocity": 0.9449,
            "articulation": "legato",
            "pedal": false,
            "chord_id": null
        },
        {
            "name": "E3",
            "midi": 52,
            "time": 152.978,
            "duration": 0.2102,
            "velocity": 0.9449,
            "articulation": "normal",
            "pedal": false,
            "chord_id": null
        },
        {
            "name": "G#3",
            "midi": 56,
            "time": 153.1975,
            "duration": 0.2146,
            "velocity": 0.9449,
            "articulation": "normal",
            "pedal": false,
            "chord_id": null
        },
        {
            "name": "D4",
            "midi": 62,
            "time": 153.4261,
            "duration": 0.682,
            "velocity": 0.9449,
            "articulation": "legato",
            "pedal": false,
            "chord_id": null
        },
        {
            "name": "C5",
            "midi": 72,
            "time": 153.6453,
            "duration": 0.22,
            "velocity": 0.9449,
            "articulation": "normal",
            "pedal": false,
            "chord_id": null
        },
        {
            "name": "B4",
            "midi": 71,
            "time": 153.8749,
            "duration": 0.2234,
            "velocity": 0.9449,
            "articulation": "normal",
            "pedal": false,
            "chord_id": null
        },
        {
            "name": "A1",
            "midi": 33,
            "time": 154.1081,
            "duration": 0.9495,
            "velocity": 0.9449,
            "articulation": "legato",
            "pedal": false,
            "chord_id": null
        },
        {
            "name": "A2",
            "midi": 45,
            "time": 154.1081,
            "duration": 0.9495,
            "velocity": 0.9449,
            "articulation": "legato",
            "pedal": false,
            "chord_id": null
        },
        {
            "name": "C4",
            "midi": 60,
            "time": 154.1081,
            "duration": 0.9495,
            "velocity": 0.9449,
            "articulation": "legato",
            "pedal": false,
            "chord_id": null
        },
        {
            "name": "A4",
            "midi": 69,
            "time": 154.113,
            "duration": 0.9549,
            "velocity": 0.9449,
            "articulation": "legato",
            "pedal": false,
            "chord_id": null
        }
    ],
    "midi_filename": "Fur_Elise.mid"
}