[
    {
        "name": "E5",
        "midi": 76,
        "time": 0.03333,
        "duration": 0.19167,
        "velocity": 120
    },
    {
        "name": "D#5",
        "midi": 75,
        "time": 0.2375,
        "duration": 0.19583,
        "velocity": 120
    },
    {
        "name": "E5",
        "midi": 76,
        "time": 0.43333,
        "duration": 0.19167,
        "velocity": 120
    },
    {
        "name": "D#5",
        "midi": 75,
        "time": 0.63333,
        "duration": 0.19167,
        "velocity": 120
    },
    {
        "name": "D#5",
        "midi": 75,
        "time": 0.6375,
        "duration": 0.19583,
        "velocity": 120
    },
    {
        "name": "E5",
        "midi": 76,
        "time": 0.83333,
        "duration": 0.19167,
        "velocity": 120
    },
    {
        "name": "E5",
        "midi": 76,
        "time": 0.8375,
        "duration": 0.19583,
        "velocity": 120
    },
    {
        "name": "B4",
        "midi": 71,
        "time": 1.03333,
        "duration": 0.19167,
        "velocity": 120
    },
    {
        "name": "D5",
        "midi": 74,
        "time": 1.2375,
        "duration": 0.19583,
        "velocity": 120
    },
    {
        "name": "C5",
        "midi": 72,
        "time": 1.4375,
        "duration": 0.19583,
        "velocity": 120
    },
    {
        "name": "A2",
        "midi": 45,
        "time": 1.63333,
        "duration": 0.19167,
        "velocity": 120
    },
    {
        "name": "A4",
        "midi": 69,
        "time": 1.63333,
        "duration": 0.39167,
        "velocity": 120
    },
    {
        "name": "A4",
        "midi": 69,
        "time": 1.6375,
        "duration": 0.39583,
        "velocity": 120
    },
    {
        "name": "A2",
        "midi": 45,
        "time": 1.6375,
        "duration": 0.19583,
        "velocity": 120
    },
    {
        "name": "E3",
        "midi": 52,
        "time": 1.83333,
        "duration": 0.19167,
        "velocity": 120
    },
    {
        "name": "E3",
        "midi": 52,
        "time": 1.8375,
        "duration": 0.19583,
        "velocity": 120
    },
    {
        "name": "A3",
        "midi": 57,
        "time": 2.03333,
        "duration": 0.19167,
        "velocity": 120
    },
    {
        "name": "A3",
        "midi": 57,
        "time": 2.0375,
        "duration": 0.19583,
        "velocity": 120
    },
    {
        "name": "C4",
        "midi": 60,
        "time": 2.23333,
        "duration": 0.19167,
        "velocity": 120
    },
    {
        "name": "C4",
        "midi": 60,
        "time": 2.2375,
        "duration": 0.19583,
        "velocity": 120
    },
    {
        "name": "E4",
        "midi": 64,
        "time": 2.4375,
        "duration": 0.19583,
        "velocity": 120
    },
    {
        "name": "A4",
        "midi": 69,
        "time": 2.63333,
        "duration": 0.19167,
        "velocity": 120
    },
    {
        "name": "A4",
        "midi": 69,
        "time": 2.6375,
        "duration": 0.19583,
        "velocity": 120
    },
    {
        "name": "B4",
        "midi": 71,
        "time": 2.83333,
        "duration": 0.39167,
        "velocity": 120
    },
    {
        "name": "E2",
        "midi": 40,
        "time": 2.83333,
        "duration": 0.19167,
        "velocity": 120
    },
    {
        "name": "E2",
        "midi": 40,
        "time": 2.8375,
        "duration": 0.19583,
        "velocity": 120
    },
    {
        "name": "E3",
        "midi": 52,
        "time": 3.03333,
        "duration": 0.19167,
        "velocity": 120
    },
    {
        "name": "E3",
        "midi": 52,
        "time": 3.0375,
        "duration": 0.19583,
        "velocity": 120
    },
    {
        "name": "G#3",
        "midi": 56,
        "time": 3.23333,
        "duration": 0.19167,
        "velocity": 120
    },
    {
        "name": "G#3",
        "midi": 56,
        "time": 3.2375,
        "duration": 0.19583,
        "velocity": 120
    },
    {
        "name": "E4",
        "midi": 64,
        "time": 3.43333,
        "duration": 0.19167,
        "velocity": 120
    },
    {
        "name": "E4",
        "midi": 64,
        "time": 3.4375,
        "duration": 0.19583,
        "velocity": 120
    },
    {
        "name": "G#4",
        "midi": 68,
        "time": 3.63333,
        "duration": 0.19167,
        "velocity": 120
    },
    {
        "name": "G#4",
        "midi": 68,
        "time": 3.6375,
        "duration": 0.19583,
        "velocity": 120
    },
    {
        "name": "B4",
        "midi": 71,
        "time": 3.83333,
        "duration": 0.19167,
        "velocity": 120
    },
    {
        "name": "B4",
        "midi": 71,
        "time": 3.8375,
        "duration": 0.19583,
        "velocity": 120
    },
    {
        "name": "C5",
        "midi": 72,
        "time": 4.03333,
        "duration": 0.39167,
        "velocity": 120
    },
    {
        "name": "A2",
        "midi": 45,
        "time": 4.0375,
        "duration": 0.19583,
        "velocity": 120
    },
    {
        "name": "E3",
        "midi": 52,
        "time": 4.2375,
        "duration": 0.19583,
        "velocity": 120
    },
    {
        "name": "A3",
        "midi": 57,
        "time": 4.4375,
        "duration": 0.19583,
        "velocity": 120
    },
    {
        "name": "E4",
        "midi": 64,
        "time": 4.63333,
        "duration": 0.19167,
        "velocity": 120
    },
    {
        "name": "E5",
        "midi": 76,
        "time": 4.83333,
        "duration": 0.19167,
        "velocity": 120
    },
    {
        "name": "D#5",
        "midi": 75,
        "time": 5.03333,
        "duration": 0.19167,
        "velocity": 120
    },
    {
        "name": "D#5",
        "midi": 75,
        "time": 5.0375,
        "duration": 0.19583,
        "velocity": 120
    },
    {
        "name": "E5",
        "midi": 76,
        "time": 5.23333,
        "duration": 0.19167,
        "velocity": 120
    },
    {
        "name": "E5",
        "midi": 76,
        "time": 5.2375,
        "duration": 0.19583,
        "velocity": 120
    },
    {
        "name": "D#5",
        "midi": 75,
        "time": 5.4375,
        "duration": 0.19583,
        "velocity": 120
    },
    {
        "name": "E5",
        "midi": 76,
        "time": 5.63333,
        "duration": 0.19167,
        "velocity": 120
    },
    {
        "name": "E5",
        "midi": 76,
        "time": 5.6375,
        "duration": 0.19583,
        "velocity": 120
    },
    {
        "name": "B4",
        "midi": 71,
        "time": 5.83333,
        "duration": 0.19167,
        "velocity": 120
    },
    {
        "name": "D5",
        "midi": 74,
        "time": 6.0375,
        "duration": 0.19583,
        "velocity": 120
    },
    {
        "name": "C5",
        "midi": 72,
        "time": 6.23333,
        "duration": 0.19167,
        "velocity": 120
    },
    {
        "name": "A4",
        "midi": 69,
        "time": 6.43333,
        "duration": 0.39167,
        "velocity": 120
    },
    {
        "name": "A2",
        "midi": 45,
        "time": 6.43333,
        "duration": 0.19167,
        "velocity": 120
    },
    {
        "name": "A2",
        "midi": 45,
        "time": 6.4375,
        "duration": 0.19583,
        "velocity": 120
    },
    {
        "name": "E3",
        "midi": 52,
        "time": 6.63333,
        "duration": 0.19167,
        "velocity": 120
    },
    {
        "name": "E3",
        "midi": 52,
        "time": 6.6375,
        "duration": 0.19583,
        "velocity": 120
    },
    {
        "name": "A3",
        "midi": 57,
        "time": 6.83333,
        "duration": 0.19167,
        "velocity": 120
    },
    {
        "name": "C4",
        "midi": 60,
        "time": 7.0375,
        "duration": 0.19583,
        "velocity": 120
    },
    {
        "name": "E4",
        "midi": 64,
        "time": 7.23333,
        "duration": 0.19167,
        "velocity": 120
    },
    {
        "name": "E4",
        "midi": 64,
        "time": 7.2375,
        "duration": 0.19583,
        "velocity": 120
    },
    {
        "name": "A4",
        "midi": 69,
        "time": 7.4375,
        "duration": 0.19583,
        "velocity": 120
    },
    {
        "name": "B4",
        "midi": 71,
        "time": 7.63333,
        "duration": 0.59167,
        "velocity": 120
    },
    {
        "name": "E2",
        "midi": 40,
        "time": 7.63333,
        "duration": 0.19167,
        "velocity": 120
    },
    {
        "name": "E2",
        "midi": 40,
        "time": 7.6375,
        "duration": 0.19583,
        "velocity": 120
    },
    {
        "name": "E3",
        "midi": 52,
        "time": 7.8375,
        "duration": 0.19583,
        "velocity": 120
    },
    {
        "name": "G#3",
        "midi": 56,
        "time": 8.03333,
        "duration": 0.19167,
        "velocity": 120
    },
    {
        "name": "G#3",
        "midi": 56,
        "time": 8.0375,
        "duration": 0.19583,
        "velocity": 120
    },
    {
        "name": "D4",
        "midi": 62,
        "time": 8.23333,
        "duration": 0.59167,
        "velocity": 120
    },
    {
        "name": "D4",
        "midi": 62,
        "time": 8.2375,
        "duration": 0.59583,
        "velocity": 120
    },
    {
        "name": "C5",
        "midi": 72,
        "time": 8.4375,
        "duration": 0.19583,
        "velocity": 120
    },
    {
        "name": "B4",
        "midi": 71,
        "time": 8.63333,
        "duration": 0.19167,
        "velocity": 120
    },
    {
        "name": "B4",
        "midi": 71,
        "time": 8.6375,
        "duration": 0.19583,
        "velocity": 120
    },
    {
        "name": "A4",
        "midi": 69,
        "time": 8.83333,
        "duration": 0.39167,
        "velocity": 120
    },
    {
        "name": "C4",
        "midi": 60,
        "time": 8.83333,
        "duration": 0.39167,
        "velocity": 120
    },
    {
        "name": "A2",
        "midi": 45,
        "time": 8.83333,
        "duration": 0.19167,
        "velocity": 120
    },
    {
        "name": "C4",
        "midi": 60,
        "time": 8.8375,
        "duration": 0.39583,
        "velocity": 120
    },
    {
        "name": "A2",
        "midi": 45,
        "time": 8.8375,
        "duration": 0.19583,
        "velocity": 120
    },
    {
        "name": "E3",
        "midi": 52,
        "time": 9.03333,
        "duration": 0.19167,
        "velocity": 120
    },
    {
        "name": "A3",
        "midi": 57,
        "time": 9.23333,
        "duration": 0.19167,
        "velocity": 120
    },
    {
        "name": "E5",
        "midi": 76,
        "time": 9.6375,
        "duration": 0.19905,
        "velocity": 120
    },
    {
        "name": "D#5",
        "midi": 75,
        "time": 9.83655,
        "duration": 0.20478,
        "velocity": 120
    },
    {
        "name": "D#5",
        "midi": 75,
        "time": 9.84089,
        "duration": 0.2095,
        "velocity": 120
    },
    {
        "name": "E5",
        "midi": 76,
        "time": 10.05492,
        "duration": 0.21286,
        "velocity": 120
    },
    {
        "name": "D#5",
        "midi": 75,
        "time": 10.26778,
        "duration": 0.20833,
        "velocity": 120
    },
    {
        "name": "D#5",
        "midi": 75,
        "time": 10.27231,
        "duration": 0.21286,
        "velocity": 120
    },
    {
        "name": "E5",
        "midi": 76,
        "time": 10.48517,
        "duration": 0.20833,
        "velocity": 120
    },
    {
        "name": "E5",
        "midi": 76,
        "time": 10.4897,
        "duration": 0.21286,
        "velocity": 120
    },
    {
        "name": "B4",
        "midi": 71,
        "time": 10.70256,
        "duration": 0.19585,
        "velocity": 120
    },
    {
        "name": "B4",
        "midi": 71,
        "time": 10.70696,
        "duration": 0.19978,
        "velocity": 120
    },
    {
        "name": "D5",
        "midi": 74,
        "time": 10.90674,
        "duration": 0.19167,
        "velocity": 120
    },
    {
        "name": "C5",
        "midi": 72,
        "time": 11.10674,
        "duration": 0.19167,
        "velocity": 120
    },
    {
        "name": "C5",
        "midi": 72,
        "time": 11.11091,
        "duration": 0.19583,
        "velocity": 120
    },
    {
        "name": "A4",
        "midi": 69,
        "time": 11.30674,
        "duration": 0.39167,
        "velocity": 120
    },
    {
        "name": "A2",
        "midi": 45,
        "time": 11.30674,
        "duration": 0.19167,
        "velocity": 120
    },
    {
        "name": "A2",
        "midi": 45,
        "time": 11.31091,
        "duration": 0.19583,
        "velocity": 120
    },
    {
        "name": "E3",
        "midi": 52,
        "time": 11.51091,
        "duration": 0.19583,
        "velocity": 120
    },
    {
        "name": "A3",
        "midi": 57,
        "time": 11.70674,
        "duration": 0.19167,
        "velocity": 120
    },
    {
        "name": "A3",
        "midi": 57,
        "time": 11.71091,
        "duration": 0.19583,
        "velocity": 120
    },
    {
        "name": "C4",
        "midi": 60,
        "time": 11.90674,
        "duration": 0.19167,
        "velocity": 120
    },
    {
        "name": "C4",
        "midi": 60,
        "time": 11.91091,
        "duration": 0.19583,
        "velocity": 120
    },
    {
        "name": "E4",
        "midi": 64,
        "time": 12.10674,
        "duration": 0.19167,
        "velocity": 120
    },
    {
        "name": "A4",
        "midi": 69,
        "time": 12.30674,
        "duration": 0.19167,
        "velocity": 120
    },
    {
        "name": "A4",
        "midi": 69,
        "time": 12.31091,
        "duration": 0.19583,
        "velocity": 120
    },
    {
        "name": "E2",
        "midi": 40,
        "time": 12.50674,
        "duration": 0.19167,
        "velocity": 120
    },
    {
        "name": "B4",
        "midi": 71,
        "time": 12.51091,
        "duration": 0.39583,
        "velocity": 120
    },
    {
        "name": "E2",
        "midi": 40,
        "time": 12.51091,
        "duration": 0.19583,
        "velocity": 120
    },
    {
        "name": "E3",
        "midi": 52,
        "time": 12.70674,
        "duration": 0.19167,
        "velocity": 120
    },
    {
        "name": "G#3",
        "midi": 56,
        "time": 12.90674,
        "duration": 0.19167,
        "velocity": 120
    },
    {
        "name": "E4",
        "midi": 64,
        "time": 13.10674,
        "duration": 0.19167,
        "velocity": 120
    },
    {
        "name": "E4",
        "midi": 64,
        "time": 13.11091,
        "duration": 0.19583,
        "velocity": 120
    },
    {
        "name": "G#4",
        "midi": 68,
        "time": 13.30674,
        "duration": 0.19167,
        "velocity": 120
    },
    {
        "name": "G#4",
        "midi": 68,
        "time": 13.31091,
        "duration": 0.19583,
        "velocity": 120
    },
    {
        "name": "B4",
        "midi": 71,
        "time": 13.51091,
        "duration": 0.19583,
        "velocity": 120
    },
    {
        "name": "A2",
        "midi": 45,
        "time": 13.70674,
        "duration": 0.19167,
        "velocity": 120
    },
    {
        "name": "C5",
        "midi": 72,
        "time": 13.71091,
        "duration": 0.39583,
        "velocity": 120
    },
    {
        "name": "E3",
        "midi": 52,
        "time": 13.91091,
        "duration": 0.19583,
        "velocity": 120
    },
    {
        "name": "A3",
        "midi": 57,
        "time": 14.10674,
        "duration": 0.19167,
        "velocity": 120
    },
    {
        "name": "A3",
        "midi": 57,
        "time": 14.11091,
        "duration": 0.19583,
        "velocity": 120
    },
    {
        "name": "E4",
        "midi": 64,
        "time": 14.30674,
        "duration": 0.19167,
        "velocity": 120
    },
    {
        "name": "E4",
        "midi": 64,
        "time": 14.31091,
        "duration": 0.19583,
        "velocity": 120
    },
    {
        "name": "E5",
        "midi": 76,
        "time": 14.50674,
        "duration": 0.19167,
        "velocity": 120
    },
    {
        "name": "D#5",
        "midi": 75,
        "time": 14.70674,
        "duration": 0.19167,
        "velocity": 120
    },
    {
        "name": "D#5",
        "midi": 75,
        "time": 14.71091,
        "duration": 0.19583,
        "velocity": 120
    },
    {
        "name": "E5",
        "midi": 76,
        "time": 14.91091,
        "duration": 0.19583,
        "velocity": 120
    },
    {
        "name": "D#5",
        "midi": 75,
        "time": 15.11091,
        "duration": 0.19583,
        "velocity": 120
    },
    {
        "name": "E5",
        "midi": 76,
        "time": 15.30674,
        "duration": 0.19167,
        "velocity": 120
    },
    {
        "name": "B4",
        "midi": 71,
        "time": 15.50674,
        "duration": 0.19167,
        "velocity": 120
    },
    {
        "name": "B4",
        "midi": 71,
        "time": 15.51091,
        "duration": 0.19583,
        "velocity": 120
    },
    {
        "name": "D5",
        "midi": 74,
        "time": 15.70674,
        "duration": 0.19167,
        "velocity": 120
    },
    {
        "name": "C5",
        "midi": 72,
        "time": 15.90674,
        "duration": 0.19167,
        "velocity": 120
    },
    {
        "name": "C5",
        "midi": 72,
        "time": 15.91091,
        "duration": 0.19583,
        "velocity": 120
    },
    {
        "name": "A4",
        "midi": 69,
        "time": 16.10674,
        "duration": 0.39167,
        "velocity": 120
    },
    {
        "name": "A2",
        "midi": 45,
        "time": 16.10674,
        "duration": 0.19167,
        "velocity": 120
    },
    {
        "name": "A4",
        "midi": 69,
        "time": 16.11091,
        "duration": 0.39583,
        "velocity": 120
    },
    {
        "name": "A2",
        "midi": 45,
        "time": 16.11091,
        "duration": 0.19583,
        "velocity": 120
    },
    {
        "name": "E3",
        "midi": 52,
        "time": 16.30674,
        "duration": 0.19167,
        "velocity": 120
    },
    {
        "name": "A3",
        "midi": 57,
        "time": 16.50674,
        "duration": 0.19167,
        "velocity": 120
    },
    {
        "name": "C4",
        "midi": 60,
        "time": 16.70674,
        "duration": 0.19167,
        "velocity": 120
    },
    {
        "name": "E4",
        "midi": 64,
        "time": 16.90674,
        "duration": 0.19167,
        "velocity": 120
    },
    {
        "name": "E4",
        "midi": 64,
        "time": 16.91091,
        "duration": 0.19583,
        "velocity": 120
    },
    {
        "name": "A4",
        "midi": 69,
        "time": 17.10674,
        "duration": 0.19167,
        "velocity": 120
    },
    {
        "name": "E2",
        "midi": 40,
        "time": 17.30674,
        "duration": 0.19167,
        "velocity": 120
    },
    {
        "name": "B4",
        "midi": 71,
        "time": 17.30674,
        "duration": 0.39167,
        "velocity": 120
    },
    {
        "name": "B4",
        "midi": 71,
        "time": 17.31091,
        "duration": 0.39583,
        "velocity": 120
    },
    {
        "name": "E2",
        "midi": 40,
        "time": 17.31091,
        "duration": 0.19583,
        "velocity": 120
    },
    {
        "name": "E3",
        "midi": 52,
        "time": 17.51091,
        "duration": 0.19583,
        "velocity": 120
    },
    {
        "name": "G#3",
        "midi": 56,
        "time": 17.70674,
        "duration": 0.19167,
        "velocity": 120
    },
    {
        "name": "G#3",
        "midi": 56,
        "time": 17.71091,
        "duration": 0.19583,
        "velocity": 120
    },
    {
        "name": "D4",
        "midi": 62,
        "time": 17.90674,
        "duration": 0.59167,
        "velocity": 120
    },
    {
        "name": "D4",
        "midi": 62,
        "time": 17.91091,
        "duration": 0.59583,
        "velocity": 120
    },
    {
        "name": "C5",
        "midi": 72,
        "time": 18.10674,
        "duration": 0.19167,
        "velocity": 120
    },
    {
        "name": "B4",
        "midi": 71,
        "time": 18.30674,
        "duration": 0.19167,
        "velocity": 120
    },
    {
        "name": "A4",
        "midi": 69,
        "time": 18.50674,
        "duration": 0.39167,
        "velocity": 120
    },
    {
        "name": "C4",
        "midi": 60,
        "time": 18.50674,
        "duration": 0.39167,
        "velocity": 120
    },
    {
        "name": "C4",
        "midi": 60,
        "time": 18.51091,
        "duration": 0.39583,
        "velocity": 120
    },
    {
        "name": "A2",
        "midi": 45,
        "time": 18.51091,
        "duration": 0.19583,
        "velocity": 120
    },
    {
        "name": "E3",
        "midi": 52,
        "time": 18.71091,
        "duration": 0.19583,
        "velocity": 120
    },
    {
        "name": "A3",
        "midi": 57,
        "time": 18.90674,
        "duration": 0.19167,
        "velocity": 120
    },
    {
        "name": "A3",
        "midi": 57,
        "time": 18.91091,
        "duration": 0.19583,
        "velocity": 120
    },
    {
        "name": "B4",
        "midi": 71,
        "time": 19.10674,
        "duration": 0.19167,
        "velocity": 120
    },
    {
        "name": "B4",
        "midi": 71,
        "time": 19.11091,
        "duration": 0.19583,
        "velocity": 120
    },
    {
        "name": "C5",
        "midi": 72,
        "time": 19.30674,
        "duration": 0.19167,
        "velocity": 120
    },
    {
        "name": "D5",
        "midi": 74,
        "time": 19.50674,
        "duration": 0.19167,
        "velocity": 120
    },
    {
        "name": "D5",
        "midi": 74,
        "time": 19.51091,
        "duration": 0.19583,
        "velocity": 120
    },
    {
        "name": "E5",
        "midi": 76,
        "time": 19.70674,
        "duration": 0.59167,
        "velocity": 120
    },
    {
        "name": "C3",
        "midi": 48,
        "time": 19.70674,
        "duration": 0.19167,
        "velocity": 120
    },
    {
        "name": "C3",
        "midi": 48,
        "time": 19.71091,
        "duration": 0.19583,
        "velocity": 120
    },
    {
        "name": "E5",
        "midi": 76,
        "time": 19.71091,
        "duration": 0.59583,
        "velocity": 120
    },
    {
        "name": "G3",
        "midi": 55,
        "time": 19.90674,
        "duration": 0.19167,
        "velocity": 120
    },
    {
        "name": "G3",
        "midi": 55,
        "time": 19.91091,
        "duration": 0.19583,
        "velocity": 120
    },
    {
        "name": "C4",
        "midi": 60,
        "time": 20.11091,
        "duration": 0.19583,
        "velocity": 120
    },
    {
        "name": "G4",
        "midi": 67,
        "time": 20.30674,
        "duration": 0.19167,
        "velocity": 120
    },
    {
        "name": "G4",
        "midi": 67,
        "time": 20.31091,
        "duration": 0.19583,
        "velocity": 120
    },
    {
        "name": "F5",
        "midi": 77,
        "time": 20.50674,
        "duration": 0.19167,
        "velocity": 120
    },
    {
        "name": "F5",
        "midi": 77,
        "time": 20.51091,
        "duration": 0.19583,
        "velocity": 120
    },
    {
        "name": "E5",
        "midi": 76,
        "time": 20.70674,
        "duration": 0.19167,
        "velocity": 120
    },
    {
        "name": "D5",
        "midi": 74,
        "time": 20.91091,
        "duration": 0.59583,
        "velocity": 120
    },
    {
        "name": "G2",
        "midi": 43,
        "time": 20.91091,
        "duration": 0.19583,
        "velocity": 120
    },
    {
        "name": "G3",
        "midi": 55,
        "time": 21.10674,
        "duration": 0.19167,
        "velocity": 120
    },
    {
        "name": "B3",
        "midi": 59,
        "time": 21.31091,
        "duration": 0.19583,
        "velocity": 120
    },
    {
        "name": "F4",
        "midi": 65,
        "time": 21.50674,
        "duration": 0.19167,
        "velocity": 120
    },
    {
        "name": "F4",
        "midi": 65,
        "time": 21.51091,
        "duration": 0.19583,
        "velocity": 120
    },
    {
        "name": "E5",
        "midi": 76,
        "time": 21.70674,
        "duration": 0.19167,
        "velocity": 120
    },
    {
        "name": "E5",
        "midi": 76,
        "time": 21.71091,
        "duration": 0.19583,
        "velocity": 120
    },
    {
        "name": "D5",
        "midi": 74,
        "time": 21.90674,
        "duration": 0.19167,
        "velocity": 120
    },
    {
        "name": "D5",
        "midi": 74,
        "time": 21.91091,
        "duration": 0.19583,
        "velocity": 120
    },
    {
        "name": "C5",
        "midi": 72,
        "time": 22.10674,
        "duration": 0.59167,
        "velocity": 120
    },
    {
        "name": "A2",
        "midi": 45,
        "time": 22.10674,
        "duration": 0.19167,
        "velocity": 120
    },
    {
        "name": "C5",
        "midi": 72,
        "time": 22.11091,
        "duration": 0.59583,
        "velocity": 120
    },
    {
        "name": "A2",
        "midi": 45,
        "time": 22.11091,
        "duration": 0.19583,
        "velocity": 120
    },
    {
        "name": "E3",
        "midi": 52,
        "time": 22.31091,
        "duration": 0.19583,
        "velocity": 120
    },
    {
        "name": "A3",
        "midi": 57,
        "time": 22.50674,
        "duration": 0.19167,
        "velocity": 120
    },
    {
        "name": "E4",
        "midi": 64,
        "time": 22.70674,
        "duration": 0.19167,
        "velocity": 120
    },
    {
        "name": "D5",
        "midi": 74,
        "time": 22.90674,
        "duration": 0.19167,
        "velocity": 120
    },
    {
        "name": "D5",
        "midi": 74,
        "time": 22.91091,
        "duration": 0.19583,
        "velocity": 120
    },
    {
        "name": "C5",
        "midi": 72,
        "time": 23.10674,
        "duration": 0.19167,
        "velocity": 120
    },
    {
        "name": "C5",
        "midi": 72,
        "time": 23.11091,
        "duration": 0.19583,
        "velocity": 120
    },
    {
        "name": "B4",
        "midi": 71,
        "time": 23.30674,
        "duration": 0.19167,
        "velocity": 120
    },
    {
        "name": "E2",
        "midi": 40,
        "time": 23.30674,
        "duration": 0.19167,
        "velocity": 120
    },
    {
        "name": "E3",
        "midi": 52,
        "time": 23.50674,
        "duration": 0.19167,
        "velocity": 120
    },
    {
        "name": "E3",
        "midi": 52,
        "time": 23.51091,
        "duration": 0.19583,
        "velocity": 120
    },
    {
        "name": "E4",
        "midi": 64,
        "time": 23.71091,
        "duration": 0.19583,
        "velocity": 120
    },
    {
        "name": "E4",
        "midi": 64,
        "time": 23.91091,
        "duration": 0.19583,
        "velocity": 120
    },
    {
        "name": "E5",
        "midi": 76,
        "time": 24.11091,
        "duration": 0.19583,
        "velocity": 120
    },
    {
        "name": "E4",
        "midi": 64,
        "time": 24.31091,
        "duration": 0.19583,
        "velocity": 120
    },
    {
        "name": "E5",
        "midi": 76,
        "time": 24.50674,
        "duration": 0.19167,
        "velocity": 120
    },
    {
        "name": "E5",
        "midi": 76,
        "time": 24.51091,
        "duration": 0.19583,
        "velocity": 120
    },
    {
        "name": "E5",
        "midi": 76,
        "time": 24.71091,
        "duration": 0.19583,
        "velocity": 120
    },
    {
        "name": "E6",
        "midi": 88,
        "time": 24.91091,
        "duration": 0.19583,
        "velocity": 120
    },
    {
        "name": "D#5",
        "midi": 75,
        "time": 25.10674,
        "duration": 0.19167,
        "velocity": 120
    },
    {
        "name": "D#5",
        "midi": 75,
        "time": 25.11091,
        "duration": 0.19583,
        "velocity": 120
    },
    {
        "name": "E5",
        "midi": 76,
        "time": 25.30674,
        "duration": 0.19167,
        "velocity": 120
    },
    {
        "name": "E5",
        "midi": 76,
        "time": 25.31091,
        "duration": 0.19583,
        "velocity": 120
    },
    {
        "name": "D#5",
        "midi": 75,
        "time": 25.50674,
        "duration": 0.19167,
        "velocity": 120
    },
    {
        "name": "E5",
        "midi": 76,
        "time": 25.70674,
        "duration": 0.19167,
        "velocity": 120
    },
    {
        "name": "E5",
        "midi": 76,
        "time": 25.71091,
        "duration": 0.19583,
        "velocity": 120
    },
    {
        "name": "D#5",
        "midi": 75,
        "time": 25.90674,
        "duration": 0.19167,
        "velocity": 120
    },
    {
        "name": "D#5",
        "midi": 75,
        "time": 25.91091,
        "duration": 0.19583,
        "velocity": 120
    },
    {
        "name": "E5",
        "midi": 76,
        "time": 26.10674,
        "duration": 0.19167,
        "velocity": 120
    },
    {
        "name": "E5",
        "midi": 76,
        "time": 26.11091,
        "duration": 0.19583,
        "velocity": 120
    },
    {
        "name": "D#5",
        "midi": 75,
        "time": 26.30674,
        "duration": 0.19167,
        "velocity": 120
    },
    {
        "name": "E5",
        "midi": 76,
        "time": 26.51091,
        "duration": 0.19675,
        "velocity": 120
    },
    {
        "name": "D#5",
        "midi": 75,
        "time": 26.71194,
        "duration": 0.20167,
        "velocity": 120
    },
    {
        "name": "E5",
        "midi": 76,
        "time": 26.91361,
        "duration": 0.19965,
        "velocity": 120
    },
    {
        "name": "E5",
        "midi": 76,
        "time": 26.91795,
        "duration": 0.20399,
        "velocity": 120
    },
    {
        "name": "D#5",
        "midi": 75,
        "time": 27.12194,
        "duration": 0.20457,
        "velocity": 120
    },
    {
        "name": "D#5",
        "midi": 75,
        "time": 27.12628,
        "duration": 0.20956,
        "velocity": 120
    },
    {
        "name": "E5",
        "midi": 76,
        "time": 27.33585,
        "duration": 0.22106,
        "velocity": 120
    },
    {
        "name": "E5",
        "midi": 76,
        "time": 27.34051,
        "duration": 0.22616,
        "velocity": 120
    },
    {
        "name": "B4",
        "midi": 71,
        "time": 27.57155,
        "duration": 0.22949,
        "velocity": 120
    },
    {
        "name": "D5",
        "midi": 74,
        "time": 27.80104,
        "duration": 0.22461,
        "velocity": 120
    },
    {
        "name": "D5",
        "midi": 74,
        "time": 27.80593,
        "duration": 0.22949,
        "velocity": 120
    },
    {
        "name": "C5",
        "midi": 72,
        "time": 28.03542,
        "duration": 0.22461,
        "velocity": 120
    },
    {
        "name": "A4",
        "midi": 69,
        "time": 28.26979,
        "duration": 0.42652,
        "velocity": 120
    },
    {
        "name": "A2",
        "midi": 45,
        "time": 28.26979,
        "duration": 0.21381,
        "velocity": 120
    },
    {
        "name": "A2",
        "midi": 45,
        "time": 28.2746,
        "duration": 0.21806,
        "velocity": 120
    },
    {
        "name": "A4",
        "midi": 69,
        "time": 28.2746,
        "duration": 0.43039,
        "velocity": 120
    },
    {
        "name": "E3",
        "midi": 52,
        "time": 28.49266,
        "duration": 0.20365,
        "velocity": 120
    },
    {
        "name": "E3",
        "midi": 52,
        "time": 28.49719,
        "duration": 0.2078,
        "velocity": 120
    },
    {
        "name": "A3",
        "midi": 57,
        "time": 28.70499,
        "duration": 0.19965,
        "velocity": 120
    },
    {
        "name": "A3",
        "midi": 57,
        "time": 28.70933,
        "duration": 0.20399,
        "velocity": 120
    },
    {
        "name": "C4",
        "midi": 60,
        "time": 28.91332,
        "duration": 0.19441,
        "velocity": 120
    },
    {
        "name": "E4",
        "midi": 64,
        "time": 29.11606,
        "duration": 0.19167,
        "velocity": 120
    },
    {
        "name": "A4",
        "midi": 69,
        "time": 29.31606,
        "duration": 0.19167,
        "velocity": 120
    },
    {
        "name": "E2",
        "midi": 40,
        "time": 29.51606,
        "duration": 0.19167,
        "velocity": 120
    },
    {
        "name": "B4",
        "midi": 71,
        "time": 29.52023,
        "duration": 0.39583,
        "velocity": 120
    },
    {
        "name": "E3",
        "midi": 52,
        "time": 29.71606,
        "duration": 0.19167,
        "velocity": 120
    },
    {
        "name": "G#3",
        "midi": 56,
        "time": 29.91606,
        "duration": 0.19167,
        "velocity": 120
    }
]