{
    "tempo_bpm": 63.0,
    "total_time": 120.17,
    "notes": [
        {
            "name": "C4",
            "midi": 60,
            "time": 0.0,
            "duration": 0.5,
            "velocity": 0.5669291338582677
        },
        {
            "name": "D#4",
            "midi": 63,
            "time": 0.16667,
            "duration": 0.33333,
            "velocity": 0.5669291338582677
        },
        {
            "name": "G#4",
            "midi": 68,
            "time": 0.33333,
            "duration": 0.16667,
            "velocity": 0.5669291338582677
        },
        {
            "name": "G#4",
            "midi": 68,
            "time": 0.5,
            "duration": 1.0,
            "velocity": 0.7007874015748031
        },
        {
            "name": "G#3",
            "midi": 56,
            "time": 0.5,
            "duration": 0.15625,
            "velocity": 0.49606299212598426
        },
        {
            "name": "D#4",
            "midi": 63,
            "time": 0.66667,
            "duration": 0.06771,
            "velocity": 0.007874015748031496
        },
        {
            "name": "G#3",
            "midi": 56,
            "time": 0.83333,
            "duration": 0.08333,
            "velocity": 0.44881889763779526
        },
        {
            "name": "D#4",
            "midi": 63,
            "time": 1.0,
            "duration": 0.05729,
            "velocity": 0.44881889763779526
        },
        {
            "name": "G#3",
            "midi": 56,
            "time": 1.16667,
            "duration": 0.07812,
            "velocity": 0.3464566929133858
        },
        {
            "name": "D#4",
            "midi": 63,
            "time": 1.33333,
            "duration": 0.0625,
            "velocity": 0.44881889763779526
        },
        {
            "name": "G#3",
            "midi": 56,
            "time": 1.5,
            "duration": 0.08333,
            "velocity": 0.5511811023622047
        },
        {
            "name": "C5",
            "midi": 72,
            "time": 1.66667,
            "duration": 0.16667,
            "velocity": 0.7007874015748031
        },
        {
            "name": "D#4",
            "midi": 63,
            "time": 1.66667,
            "duration": 0.0625,
            "velocity": 0.5354330708661418
        },
        {
            "name": "A#4",
            "midi": 70,
            "time": 1.83333,
            "duration": 0.16667,
            "velocity": 0.6299212598425197
        },
        {
            "name": "G#3",
            "midi": 56,
            "time": 1.83333,
            "duration": 0.07292,
            "velocity": 0.4015748031496063
        },
        {
            "name": "C5",
            "midi": 72,
            "time": 2.0,
            "duration": 0.16667,
            "velocity": 0.7007874015748031
        },
        {
            "name": "D#4",
            "midi": 63,
            "time": 2.0,
            "duration": 0.0625,
            "velocity": 0.5669291338582677
        },
        {
            "name": "G#4",
            "midi": 68,
            "time": 2.16667,
            "duration": 0.16667,
            "velocity": 0.6299212598425197
        },
        {
            "name": "G#3",
            "midi": 56,
            "time": 2.16667,
            "duration": 0.08854,
            "velocity": 0.44881889763779526
        },
        {
            "name": "C5",
            "midi": 72,
            "time": 2.33333,
            "duration": 1.16667,
            "velocity": 0.7007874015748031
        },
        {
            "name": "D#4",
            "midi": 63,
            "time": 2.33333,
            "duration": 0.06771,
            "velocity": 0.4881889763779528
        },
        {
            "name": "F3",
            "midi": 53,
            "time": 2.5,
            "duration": 0.125,
            "velocity": 0.48031496062992124
        },
        {
            "name": "D#4",
            "midi": 63,
            "time": 2.66667,
            "duration": 0.07812,
            "velocity": 0.49606299212598426
        },
        {
            "name": "F3",
            "midi": 53,
            "time": 2.83333,
            "duration": 0.10417,
            "velocity": 0.4566929133858268
        },
        {
            "name": "C4",
            "midi": 60,
            "time": 3.0,
            "duration": 0.04688,
            "velocity": 0.3937007874015748
        },
        {
            "name": "F3",
            "midi": 53,
            "time": 3.16667,
            "duration": 0.13021,
            "velocity": 0.1968503937007874
        },
        {
            "name": "D#4",
            "midi": 63,
            "time": 3.33333,
            "duration": 0.06771,
            "velocity": 0.5354330708661418
        },
        {
            "name": "F3",
            "midi": 53,
            "time": 3.5,
            "duration": 0.14583,
            "velocity": 0.4015748031496063
        },
        {
            "name": "D#4",
            "midi": 63,
            "time": 3.66667,
            "duration": 0.07292,
            "velocity": 0.4251968503937008
        },
        {
            "name": "F3",
            "midi": 53,
            "time": 3.83333,
            "duration": 0.13021,
            "velocity": 0.25984251968503935
        },
        {
            "name": "A#4",
            "midi": 70,
            "time": 4.0,
            "duration": 0.125,
            "velocity": 0.6771653543307087
        },
        {
            "name": "C4",
            "midi": 60,
            "time": 4.0,
            "duration": 0.05208,
            "velocity": 0.44881889763779526
        },
        {
            "name": "C5",
            "midi": 72,
            "time": 4.16667,
            "duration": 0.125,
            "velocity": 0.7007874015748031
        },
        {
            "name": "F3",
            "midi": 53,
            "time": 4.16667,
            "duration": 0.13021,
            "velocity": 0.3543307086614173
        },
        {
            "name": "C5",
            "midi": 72,
            "time": 4.33333,
            "duration": 0.125,
            "velocity": 0.6377952755905512
        },
        {
            "name": "D#4",
            "midi": 63,
            "time": 4.33333,
            "duration": 0.07292,
            "velocity": 0.5905511811023622
        },
        {
            "name": "C5",
            "midi": 72,
            "time": 4.5,
            "duration": 0.125,
            "velocity": 0.7007874015748031
        },
        {
            "name": "C#3",
            "midi": 49,
            "time": 4.5,
            "duration": 0.11458,
            "velocity": 0.6377952755905512
        },
        {
            "name": "G#3",
            "midi": 56,
            "time": 4.66667,
            "duration": 0.07292,
            "velocity": 0.49606299212598426
        },
        {
            "name": "G#4",
            "midi": 68,
            "time": 4.83333,
            "duration": 0.125,
            "velocity": 0.7007874015748031
        },
        {
            "name": "C#3",
            "midi": 49,
            "time": 4.83333,
            "duration": 0.11458,
            "velocity": 0.28346456692913385
        },
        {
            "name": "G#4",
            "midi": 68,
            "time": 5.0,
            "duration": 0.125,
            "velocity": 0.6299212598425197
        },
        {
            "name": "G#3",
            "midi": 56,
            "time": 5.0,
            "duration": 0.08333,
            "velocity": 0.5196850393700787
        },
        {
            "name": "C#3",
            "midi": 49,
            "time": 5.16667,
            "duration": 0.08854,
            "velocity": 0.3779527559055118
        },
        {
            "name": "G#3",
            "midi": 56,
            "time": 5.33333,
            "duration": 0.06771,
            "velocity": 0.5905511811023622
        },
        {
            "name": "C#3",
            "midi": 49,
            "time": 5.5,
            "duration": 0.08333,
            "velocity": 0.5669291338582677
        },
        {
            "name": "G#3",
            "midi": 56,
            "time": 5.66667,
            "duration": 0.0625,
            "velocity": 0.5984251968503937
        },
        {
            "name": "C#3",
            "midi": 49,
            "time": 5.83333,
            "duration": 0.07292,
            "velocity": 0.5354330708661418
        },
        {
            "name": "G#4",
            "midi": 68,
            "time": 6.0,
            "duration": 0.125,
            "velocity": 0.7007874015748031
        },
        {
            "name": "G#3",
            "midi": 56,
            "time": 6.0,
            "duration": 0.07812,
            "velocity": 0.5669291338582677
        },
        {
            "name": "A#4",
            "midi": 70,
            "time": 6.16667,
            "duration": 0.125,
            "velocity": 0.7007874015748031
        },
        {
            "name": "C#3",
            "midi": 49,
            "time": 6.16667,
            "duration": 0.07812,
            "velocity": 0.5354330708661418
        },
        {
            "name": "C5",
            "midi": 72,
            "time": 6.33333,
            "duration": 0.125,
            "velocity": 0.7007874015748031
        },
        {
            "name": "G#3",
            "midi": 56,
            "time": 6.33333,
            "duration": 0.06771,
            "velocity": 0.49606299212598426
        },
        {
            "name": "A#4",
            "midi": 70,
            "time": 6.5,
            "duration": 0.125,
            "velocity": 0.7007874015748031
        },
        {
            "name": "D#3",
            "midi": 51,
            "time": 6.5,
            "duration": 0.13021,
            "velocity": 0.6299212598425197
        },
        {
            "name": "A#3",
            "midi": 58,
            "time": 6.66667,
            "duration": 0.07292,
            "velocity": 0.6377952755905512
        },
        {
            "name": "D#3",
            "midi": 51,
            "time": 6.83333,
            "duration": 0.19271,
            "velocity": 0.5590551181102362
        },
        {
            "name": "D#4",
            "midi": 63,
            "time": 7.0,
            "duration": 0.07812,
            "velocity": 0.6220472440944882
        },
        {
            "name": "D#3",
            "midi": 51,
            "time": 7.16667,
            "duration": 0.14583,
            "velocity": 0.5826771653543307
        },
        {
            "name": "A#3",
            "midi": 58,
            "time": 7.33333,
            "duration": 0.06771,
            "velocity": 0.6299212598425197
        },
        {
            "name": "D#3",
            "midi": 51,
            "time": 7.5,
            "duration": 0.13542,
            "velocity": 0.5669291338582677
        },
        {
            "name": "A#3",
            "midi": 58,
            "time": 7.66667,
            "duration": 0.07812,
            "velocity": 0.5039370078740157
        },
        {
            "name": "D#3",
            "midi": 51,
            "time": 7.83333,
            "duration": 0.13542,
            "velocity": 0.5354330708661418
        },
        {
            "name": "C5",
            "midi": 72,
            "time": 8.0,
            "duration": 0.16667,
            "velocity": 0.7007874015748031
        },
        {
            "name": "D#4",
            "midi": 63,
            "time": 8.0,
            "duration": 0.07812,
            "velocity": 0.5196850393700787
        },
        {
            "name": "A#4",
            "midi": 70,
            "time": 8.16667,
            "duration": 0.16667,
            "velocity": 0.7007874015748031
        },
        {
            "name": "D#3",
            "midi": 51,
            "time": 8.16667,
            "duration": 0.11979,
            "velocity": 0.49606299212598426
        },
        {
            "name": "G#4",
            "midi": 68,
            "time": 8.33333,
            "duration": 0.16667,
            "velocity": 0.7007874015748031
        },
        {
            "name": "D#4",
            "midi": 63,
            "time": 8.33333,
            "duration": 0.0625,
            "velocity": 0.5905511811023622
        },
        {
            "name": "C5",
            "midi": 72,
            "time": 8.5,
            "duration": 0.16667,
            "velocity": 0.7007874015748031
        },
        {
            "name": "G#3",
            "midi": 56,
            "time": 8.5,
            "duration": 0.21875,
            "velocity": 0.5669291338582677
        },
        {
            "name": "D#4",
            "midi": 63,
            "time": 8.66667,
            "duration": 0.07812,
            "velocity": 0.44881889763779526
        },
        {
            "name": "G#3",
            "midi": 56,
            "time": 8.83333,
            "duration": 0.14062,
            "velocity": 0.5039370078740157
        },
        {
            "name": "A#4",
            "midi": 70,
            "time": 9.0,
            "duration": 0.07812,
            "velocity": 0.6535433070866141
        },
        {
            "name": "G#3",
            "midi": 56,
            "time": 9.16667,
            "duration": 0.16667,
            "velocity": 0.5354330708661418
        },
        {
            "name": "D#4",
            "midi": 63,
            "time": 9.33333,
            "duration": 0.07812,
            "velocity": 0.5511811023622047
        },
        {
            "name": "G#3",
            "midi": 56,
            "time": 9.5,
            "duration": 0.13021,
            "velocity": 0.3937007874015748
        },
        {
            "name": "D#4",
            "midi": 63,
            "time": 9.66667,
            "duration": 0.11458,
            "velocity": 0.5354330708661418
        },
        {
            "name": "G#3",
            "midi": 56,
            "time": 9.83333,
            "duration": 0.10938,
            "velocity": 0.5590551181102362
        },
        {
            "name": "D#5",
            "midi": 75,
            "time": 10.0,
            "duration": 0.16667,
            "velocity": 0.7007874015748031
        },
        {
            "name": "A#4",
            "midi": 70,
            "time": 10.0,
            "duration": 0.0625,
            "velocity": 0.6614173228346457
        },
        {
            "name": "G#3",
            "midi": 56,
            "time": 10.16667,
            "duration": 0.13021,
            "velocity": 0.5039370078740157
        },
        {
            "name": "C5",
            "midi": 72,
            "time": 10.33333,
            "duration": 0.16667,
            "velocity": 0.7007874015748031
        },
        {
            "name": "D#4",
            "midi": 63,
            "time": 10.33333,
            "duration": 0.06771,
            "velocity": 0.5039370078740157
        },
        {
            "name": "G#4",
            "midi": 68,
            "time": 10.5,
            "duration": 0.16667,
            "velocity": 0.7007874015748031
        },
        {
            "name": "F3",
            "midi": 53,
            "time": 10.5,
            "duration": 0.09896,
            "velocity": 0.6299212598425197
        },
        {
            "name": "D#4",
            "midi": 63,
            "time": 10.66667,
            "duration": 0.09375,
            "velocity": 0.3779527559055118
        },
        {
            "name": "F3",
            "midi": 53,
            "time": 10.83333,
            "duration": 0.13542,
            "velocity": 0.5039370078740157
        },
        {
            "name": "G#4",
            "midi": 68,
            "time": 11.0,
            "duration": 0.16667,
            "velocity": 0.6299212598425197
        },
        {
            "name": "F4",
            "midi": 65,
            "time": 11.0,
            "duration": 0.09375,
            "velocity": 0.5905511811023622
        },
        {
            "name": "F3",
            "midi": 53,
            "time": 11.16667,
            "duration": 0.16146,
            "velocity": 0.4251968503937008
        },
        {
            "name": "D#4",
            "midi": 63,
            "time": 11.33333,
            "duration": 0.08333,
            "velocity": 0.5275590551181102
        },
        {
            "name": "F3",
            "midi": 53,
            "time": 11.5,
            "duration": 0.13021,
            "velocity": 0.5275590551181102
        },
        {
            "name": "D#4",
            "midi": 63,
            "time": 11.66667,
            "duration": 0.07812,
            "velocity": 0.3228346456692913
        },
        {
            "name": "F3",
            "midi": 53,
            "time": 11.83333,
            "duration": 0.125,
            "velocity": 0.3937007874015748
        },
        {
            "name": "G#4",
            "midi": 68,
            "time": 12.0,
            "duration": 0.16667,
            "velocity": 0.7007874015748031
        },
        {
            "name": "F4",
            "midi": 65,
            "time": 12.0,
            "duration": 0.08333,
            "velocity": 0.49606299212598426
        },
        {
            "name": "A#4",
            "midi": 70,
            "time": 12.16667,
            "duration": 0.16667,
            "velocity": 0.7007874015748031
        },
        {
            "name": "F3",
            "midi": 53,
            "time": 12.16667,
            "duration": 0.11458,
            "velocity": 0.4330708661417323
        },
        {
            "name": "C5",
            "midi": 72,
            "time": 12.33333,
            "duration": 0.16667,
            "velocity": 0.7007874015748031
        },
        {
            "name": "D#4",
            "midi": 63,
            "time": 12.33333,
            "duration": 0.07812,
            "velocity": 0.007874015748031496
        },
        {
            "name": "C#5",
            "midi": 73,
            "time": 12.5,
            "duration": 0.16667,
            "velocity": 0.7007874015748031
        },
        {
            "name": "C#3",
            "midi": 49,
            "time": 12.5,
            "duration": 0.125,
            "velocity": 0.5590551181102362
        },
        {
            "name": "G#3",
            "midi": 56,
            "time": 12.66667,
            "duration": 0.07812,
            "velocity": 0.5984251968503937
        },
        {
            "name": "C#5",
            "midi": 73,
            "time": 12.83333,
            "duration": 0.16667,
            "velocity": 0.6299212598425197
        },
        {
            "name": "C#3",
            "midi": 49,
            "time": 12.83333,
            "duration": 0.08854,
            "velocity": 0.4251968503937008
        },
        {
            "name": "C5",
            "midi": 72,
            "time": 13.0,
            "duration": 0.16667,
            "velocity": 0.7007874015748031
        },
        {
            "name": "G#3",
            "midi": 56,
            "time": 13.0,
            "duration": 0.07812,
            "velocity": 0.5039370078740157
        },
        {
            "name": "C#3",
            "midi": 49,
            "time": 13.16667,
            "duration": 0.07812,
            "velocity": 0.4566929133858268
        },
        {
            "name": "G#3",
            "midi": 56,
            "time": 13.33333,
            "duration": 0.05208,
            "velocity": 0.5354330708661418
        },
        {
            "name": "A#4",
            "midi": 70,
            "time": 13.5,
            "duration": 0.16667,
            "velocity": 0.7007874015748031
        },
        {
            "name": "C#3",
            "midi": 49,
            "time": 13.5,
            "duration": 0.06771,
            "velocity": 0.4881889763779528
        },
        {
            "name": "G#4",
            "midi": 68,
            "time": 13.66667,
            "duration": 0.16667,
            "velocity": 0.7007874015748031
        },
        {
            "name": "G#3",
            "midi": 56,
            "time": 13.66667,
            "duration": 0.0625,
            "velocity": 0.5826771653543307
        },
        {
            "name": "C#3",
            "midi": 49,
            "time": 13.83333,
            "duration": 0.07812,
            "velocity": 0.5039370078740157
        },
        {
            "name": "G#4",
            "midi": 68,
            "time": 14.0,
            "duration": 0.16667,
            "velocity": 0.7007874015748031
        },
        {
            "name": "G#3",
            "midi": 56,
            "time": 14.0,
            "duration": 0.06771,
            "velocity": 0.5826771653543307
        },
        {
            "name": "A#4",
            "midi": 70,
            "time": 14.16667,
            "duration": 0.16667,
            "velocity": 0.7007874015748031
        },
        {
            "name": "C#3",
            "midi": 49,
            "time": 14.16667,
            "duration": 0.06771,
            "velocity": 0.5590551181102362
        },
        {
            "name": "C5",
            "midi": 72,
            "time": 14.33333,
            "duration": 0.16667,
            "velocity": 0.7007874015748031
        },
        {
            "name": "G#3",
            "midi": 56,
            "time": 14.33333,
            "duration": 0.05729,
            "velocity": 0.5984251968503937
        },
        {
            "name": "A#4",
            "midi": 70,
            "time": 14.5,
            "duration": 0.16667,
            "velocity": 0.7007874015748031
        },
        {
            "name": "D#3",
            "midi": 51,
            "time": 14.5,
            "duration": 0.16146,
            "velocity": 0.5669291338582677
        },
        {
            "name": "A#3",
            "midi": 58,
            "time": 14.66667,
            "duration": 0.07292,
            "velocity": 0.6299212598425197
        },
        {
            "name": "D#4",
            "midi": 63,
            "time": 14.83333,
            "duration": 0.16667,
            "velocity": 0.4881889763779528
        },
        {
            "name": "G4",
            "midi": 67,
            "time": 15.0,
            "duration": 0.06771,
            "velocity": 0.6220472440944882
        },
        {
            "name": "G#4",
            "midi": 68,
            "time": 15.16667,
            "duration": 0.14583,
            "velocity": 0.4015748031496063
        },
        {
            "name": "A#4",
            "midi": 70,
            "time": 15.33333,
            "duration": 0.06771,
            "velocity": 0.5511811023622047
        },
        {
            "name": "D#5",
            "midi": 75,
            "time": 15.5,
            "duration": 0.16667,
            "velocity": 0.7007874015748031
        },
        {
            "name": "D#5",
            "midi": 75,
            "time": 15.66667,
            "duration": 0.16667,
            "velocity": 0.6771653543307087
        },
        {
            "name": "D#5",
            "midi": 75,
            "time": 15.83333,
            "duration": 0.16667,
            "velocity": 0.6299212598425197
        },
        {
            "name": "F5",
            "midi": 77,
            "time": 16.0,
            "duration": 0.16667,
            "velocity": 0.7007874015748031
        },
        {
            "name": "A#4",
            "midi": 70,
            "time": 16.16667,
            "duration": 0.16667,
            "velocity": 0.7007874015748031
        },
        {
            "name": "A#4",
            "midi": 70,
            "time": 16.33333,
            "duration": 0.16667,
            "velocity": 0.7007874015748031
        },
        {
            "name": "C5",
            "midi": 72,
            "time": 16.5,
            "duration": 0.16667,
            "velocity": 0.7007874015748031
        },
        {
            "name": "G#2",
            "midi": 44,
            "time": 16.5,
            "duration": 0.21875,
            "velocity": 0.6614173228346457
        },
        {
            "name": "D#3",
            "midi": 51,
            "time": 16.66667,
            "duration": 0.16146,
            "velocity": 0.5354330708661418
        },
        {
            "name": "G#3",
            "midi": 56,
            "time": 16.83333,
            "duration": 0.21354,
            "velocity": 0.5905511811023622
        },
        {
            "name": "C5",
            "midi": 72,
            "time": 17.0,
            "duration": 0.16667,
            "velocity": 0.7007874015748031
        },
        {
            "name": "A#3",
            "midi": 58,
            "time": 17.0,
            "duration": 0.11458,
            "velocity": 0.6299212598425197
        },
        {
            "name": "C4",
            "midi": 60,
            "time": 17.16667,
            "duration": 0.07812,
            "velocity": 0.5275590551181102
        },
        {
            "name": "A#3",
            "midi": 58,
            "time": 17.33333,
            "duration": 0.04688,
            "velocity": 0.5196850393700787
        },
        {
            "name": "C5",
            "midi": 72,
            "time": 17.5,
            "duration": 0.16667,
            "velocity": 0.7007874015748031
        },
        {
            "name": "G#2",
            "midi": 44,
            "time": 17.5,
            "duration": 0.21875,
            "velocity": 0.7007874015748031
        },
        {
            "name": "D#3",
            "midi": 51,
            "time": 17.66667,
            "duration": 0.11979,
            "velocity": 0.5905511811023622
        },
        {
            "name": "G#3",
            "midi": 56,
            "time": 17.83333,
            "duration": 0.11458,
            "velocity": 0.5275590551181102
        },
        {
            "name": "C5",
            "midi": 72,
            "time": 18.0,
            "duration": 0.16667,
            "velocity": 0.7007874015748031
        },
        {
            "name": "A#3",
            "midi": 58,
            "time": 18.0,
            "duration": 0.13021,
            "velocity": 0.5590551181102362
        },
        {
            "name": "A#4",
            "midi": 70,
            "time": 18.16667,
            "duration": 0.16667,
            "velocity": 0.7007874015748031
        },
        {
            "name": "C4",
            "midi": 60,
            "time": 18.16667,
            "duration": 0.09896,
            "velocity": 0.3464566929133858
        },
        {
            "name": "G#4",
            "midi": 68,
            "time": 18.33333,
            "duration": 0.16667,
            "velocity": 0.7007874015748031
        },
        {
            "name": "A#3",
            "midi": 58,
            "time": 18.33333,
            "duration": 0.06771,
            "velocity": 0.6220472440944882
        },
        {
            "name": "C5",
            "midi": 72,
            "time": 18.5,
            "duration": 0.16667,
            "velocity": 0.7007874015748031
        },
        {
            "name": "F2",
            "midi": 41,
            "time": 18.5,
            "duration": 0.30729,
            "velocity": 0.6220472440944882
        },
        {
            "name": "D#3",
            "midi": 51,
            "time": 18.66667,
            "duration": 0.31771,
            "velocity": 0.5039370078740157
        },
        {
            "name": "G#3",
            "midi": 56,
            "time": 18.83333,
            "duration": 0.16146,
            "velocity": 0.6377952755905512
        },
        {
            "name": "C5",
            "midi": 72,
            "time": 19.0,
            "duration": 0.16667,
            "velocity": 0.7007874015748031
        },
        {
            "name": "A#3",
            "midi": 58,
            "time": 19.0,
            "duration": 0.08333,
            "velocity": 0.7401574803149606
        },
        {
            "name": "D#4",
            "midi": 63,
            "time": 19.16667,
            "duration": 0.09896,
            "velocity": 0.5984251968503937
        },
        {
            "name": "A#3",
            "midi": 58,
            "time": 19.33333,
            "duration": 0.11458,
            "velocity": 0.41732283464566927
        },
        {
            "name": "C5",
            "midi": 72,
            "time": 19.5,
            "duration": 0.16667,
            "velocity": 0.7007874015748031
        },
        {
            "name": "F2",
            "midi": 41,
            "time": 19.5,
            "duration": 0.39062,
            "velocity": 0.6062992125984252
        },
        {
            "name": "D#3",
            "midi": 51,
            "time": 19.66667,
            "duration": 0.33854,
            "velocity": 0.5039370078740157
        },
        {
            "name": "G#3",
            "midi": 56,
            "time": 19.83333,
            "duration": 0.17188,
            "velocity": 0.5905511811023622
        },
        {
            "name": "C5",
            "midi": 72,
            "time": 20.0,
            "duration": 0.16667,
            "velocity": 0.7007874015748031
        },
        {
            "name": "A#3",
            "midi": 58,
            "time": 20.0,
            "duration": 0.13542,
            "velocity": 0.7007874015748031
        },
        {
            "name": "A#4",
            "midi": 70,
            "time": 20.16667,
            "duration": 0.16667,
            "velocity": 0.7007874015748031
        },
        {
            "name": "D#4",
            "midi": 63,
            "time": 20.16667,
            "duration": 0.11458,
            "velocity": 0.6377952755905512
        },
        {
            "name": "G#4",
            "midi": 68,
            "time": 20.33333,
            "duration": 0.16667,
            "velocity": 0.7007874015748031
        },
        {
            "name": "A#3",
            "midi": 58,
            "time": 20.33333,
            "duration": 0.10417,
            "velocity": 0.7401574803149606
        },
        {
            "name": "C#5",
            "midi": 73,
            "time": 20.5,
            "duration": 0.16667,
            "velocity": 0.7007874015748031
        },
        {
            "name": "C#3",
            "midi": 49,
            "time": 20.5,
            "duration": 0.69271,
            "velocity": 0.7244094488188977
        },
        {
            "name": "G#3",
            "midi": 56,
            "time": 20.66667,
            "duration": 0.55208,
            "velocity": 0.6850393700787402
        },
        {
            "name": "C#4",
            "midi": 61,
            "time": 20.83333,
            "duration": 0.44792,
            "velocity": 0.5511811023622047
        },
        {
            "name": "C5",
            "midi": 72,
            "time": 21.0,
            "duration": 0.16667,
            "velocity": 0.7007874015748031
        },
        {
            "name": "D#4",
            "midi": 63,
            "time": 21.0,
            "duration": 0.1875,
            "velocity": 0.6377952755905512
        },
        {
            "name": "F4",
            "midi": 65,
            "time": 21.16667,
            "duration": 0.18229,
            "velocity": 0.6692913385826772
        },
        {
            "name": "D#4",
            "midi": 63,
            "time": 21.33333,
            "duration": 0.10938,
            "velocity": 0.5590551181102362
        },
        {
            "name": "G#4",
            "midi": 68,
            "time": 21.5,
            "duration": 0.16667,
            "velocity": 0.7007874015748031
        },
        {
            "name": "C#3",
            "midi": 49,
            "time": 21.5,
            "duration": 0.59375,
            "velocity": 0.6850393700787402
        },
        {
            "name": "G#3",
            "midi": 56,
            "time": 21.66667,
            "duration": 0.33333,
            "velocity": 0.4645669291338583
        },
        {
            "name": "C#4",
            "midi": 61,
            "time": 21.83333,
            "duration": 0.31771,
            "velocity": 0.5354330708661418
        },
        {
            "name": "D#4",
            "midi": 63,
            "time": 22.0,
            "duration": 0.16667,
            "velocity": 0.7007874015748031
        },
        {
            "name": "F4",
            "midi": 65,
            "time": 22.16667,
            "duration": 0.10417,
            "velocity": 0.5275590551181102
        },
        {
            "name": "D#4",
            "midi": 63,
            "time": 22.33333,
            "duration": 0.05729,
            "velocity": 0.6220472440944882
        },
        {
            "name": "C5",
            "midi": 72,
            "time": 22.5,
            "duration": 0.16667,
            "velocity": 0.7007874015748031
        },
        {
            "name": "G#2",
            "midi": 44,
            "time": 22.5,
            "duration": 0.21875,
            "velocity": 0.6614173228346457
        },
        {
            "name": "D#3",
            "midi": 51,
            "time": 22.66667,
            "duration": 0.16146,
            "velocity": 0.5354330708661418
        },
        {
            "name": "G#3",
            "midi": 56,
            "time": 22.83333,
            "duration": 0.21354,
            "velocity": 0.5905511811023622
        },
        {
            "name": "A#3",
            "midi": 58,
            "time": 23.0,
            "duration": 0.11458,
            "velocity": 0.6299212598425197
        },
        {
            "name": "C#5",
            "midi": 73,
            "time": 23.16667,
            "duration": 0.16667,
            "velocity": 0.7007874015748031
        },
        {
            "name": "C4",
            "midi": 60,
            "time": 23.16667,
            "duration": 0.07812,
            "velocity": 0.5275590551181102
        },
        {
            "name": "C5",
            "midi": 72,
            "time": 23.33333,
            "duration": 0.16667,
            "velocity": 0.7007874015748031
        },
        {
            "name": "A#3",
            "midi": 58,
            "time": 23.33333,
            "duration": 0.07812,
            "velocity": 0.5275590551181102
        },
        {
            "name": "A#4",
            "midi": 70,
            "time": 23.5,
            "duration": 0.16667,
            "velocity": 0.7007874015748031
        },
        {
            "name": "D#2",
            "midi": 39,
            "time": 23.5,
            "duration": 0.58854,
            "velocity": 0.7401574803149606
        },
        {
            "name": "A#2",
            "midi": 46,
            "time": 23.66667,
            "duration": 0.34896,
            "velocity": 0.5196850393700787
        },
        {
            "name": "D#3",
            "midi": 51,
            "time": 23.83333,
            "duration": 0.27083,
            "velocity": 0.5039370078740157
        },
        {
            "name": "C5",
            "midi": 72,
            "time": 24.0,
            "duration": 0.16667,
            "velocity": 0.7007874015748031
        },
        {
            "name": "G3",
            "midi": 55,
            "time": 24.0,
            "duration": 0.17708,
            "velocity": 0.5984251968503937
        },
        {
            "name": "A#4",
            "midi": 70,
            "time": 24.16667,
            "duration": 0.16667,
            "velocity": 0.7007874015748031
        },
        {
            "name": "A#3",
            "midi": 58,
            "time": 24.16667,
            "duration": 0.15104,
            "velocity": 0.7637795275590551
        },
        {
            "name": "G#4",
            "midi": 68,
            "time": 24.33333,
            "duration": 0.16667,
            "velocity": 0.7007874015748031
        },
        {
            "name": "G3",
            "midi": 55,
            "time": 24.33333,
            "duration": 0.07812,
            "velocity": 0.6299212598425197
        },
        {
            "name": "C5",
            "midi": 72,
            "time": 24.5,
            "duration": 0.16667,
            "velocity": 0.7007874015748031
        },
        {
            "name": "G#2",
            "midi": 44,
            "time": 24.5,
            "duration": 0.21875,
            "velocity": 0.6614173228346457
        },
        {
            "name": "D#3",
            "midi": 51,
            "time": 24.66667,
            "duration": 0.16146,
            "velocity": 0.5354330708661418
        },
        {
            "name": "G#3",
            "midi": 56,
            "time": 24.83333,
            "duration": 0.21354,
            "velocity": 0.5905511811023622
        },
        {
            "name": "C5",
            "midi": 72,
            "time": 25.0,
            "duration": 0.16667,
            "velocity": 0.5826771653543307
        },
        {
            "name": "A#3",
            "midi": 58,
            "time": 25.0,
            "duration": 0.11458,
            "velocity": 0.6299212598425197
        },
        {
            "name": "C4",
            "midi": 60,
            "time": 25.16667,
            "duration": 0.07812,
            "velocity": 0.5275590551181102
        },
        {
            "name": "A#3",
            "midi": 58,
            "time": 25.33333,
            "duration": 0.04688,
            "velocity": 0.5196850393700787
        },
        {
            "name": "C5",
            "midi": 72,
            "time": 25.5,
            "duration": 0.16667,
            "velocity": 0.47244094488188976
        },
        {
            "name": "G#2",
            "midi": 44,
            "time": 25.5,
            "duration": 0.21875,
            "velocity": 0.7007874015748031
        },
        {
            "name": "D#3",
            "midi": 51,
            "time": 25.66667,
            "duration": 0.11979,
            "velocity": 0.5905511811023622
        },
        {
            "name": "G#3",
            "midi": 56,
            "time": 25.83333,
            "duration": 0.11458,
            "velocity": 0.5275590551181102
        },
        {
            "name": "C5",
            "midi": 72,
            "time": 26.0,
            "duration": 0.16667,
            "velocity": 0.7007874015748031
        },
        {
            "name": "A#3",
            "midi": 58,
            "time": 26.0,
            "duration": 0.13021,
            "velocity": 0.5590551181102362
        },
        {
            "name": "A#4",
            "midi": 70,
            "time": 26.16667,
            "duration": 0.16667,
            "velocity": 0.7007874015748031
        },
        {
            "name": "C4",
            "midi": 60,
            "time": 26.16667,
            "duration": 0.09896,
            "velocity": 0.3464566929133858
        },
        {
            "name": "G#4",
            "midi": 68,
            "time": 26.33333,
            "duration": 0.16667,
            "velocity": 0.7007874015748031
        },
        {
            "name": "A#3",
            "midi": 58,
            "time": 26.33333,
            "duration": 0.06771,
            "velocity": 0.6220472440944882
        },
        {
            "name": "C5",
            "midi": 72,
            "time": 26.5,
            "duration": 0.16667,
            "velocity": 0.7007874015748031
        },
        {
            "name": "F2",
            "midi": 41,
            "time": 26.5,
            "duration": 0.30729,
            "velocity": 0.6220472440944882
        },
        {
            "name": "D#3",
            "midi": 51,
            "time": 26.66667,
            "duration": 0.31771,
            "velocity": 0.5039370078740157
        },
        {
            "name": "G#3",
            "midi": 56,
            "time": 26.83333,
            "duration": 0.16146,
            "velocity": 0.6377952755905512
        },
        {
            "name": "C5",
            "midi": 72,
            "time": 27.0,
            "duration": 0.16667,
            "velocity": 0.6141732283464567
        },
        {
            "name": "A#3",
            "midi": 58,
            "time": 27.0,
            "duration": 0.08333,
            "velocity": 0.7401574803149606
        },
        {
            "name": "D#4",
            "midi": 63,
            "time": 27.16667,
            "duration": 0.09896,
            "velocity": 0.5984251968503937
        },
        {
            "name": "A#3",
            "midi": 58,
            "time": 27.33333,
            "duration": 0.11458,
            "velocity": 0.41732283464566927
        },
        {
            "name": "C5",
            "midi": 72,
            "time": 27.5,
            "duration": 0.16667,
            "velocity": 0.4881889763779528
        },
        {
            "name": "F2",
            "midi": 41,
            "time": 27.5,
            "duration": 0.39062,
            "velocity": 0.6062992125984252
        },
        {
            "name": "D#3",
            "midi": 51,
            "time": 27.66667,
            "duration": 0.33854,
            "velocity": 0.5039370078740157
        },
        {
            "name": "G#3",
            "midi": 56,
            "time": 27.83333,
            "duration": 0.17188,
            "velocity": 0.5905511811023622
        },
        {
            "name": "C5",
            "midi": 72,
            "time": 28.0,
            "duration": 0.16667,
            "velocity": 0.7007874015748031
        },
        {
            "name": "A#3",
            "midi": 58,
            "time": 28.0,
            "duration": 0.13542,
            "velocity": 0.7007874015748031
        },
        {
            "name": "A#4",
            "midi": 70,
            "time": 28.16667,
            "duration": 0.16667,
            "velocity": 0.7007874015748031
        },
        {
            "name": "D#4",
            "midi": 63,
            "time": 28.16667,
            "duration": 0.11458,
            "velocity": 0.6377952755905512
        },
        {
            "name": "G#4",
            "midi": 68,
            "time": 28.33333,
            "duration": 0.16667,
            "velocity": 0.7007874015748031
        },
        {
            "name": "A#3",
            "midi": 58,
            "time": 28.33333,
            "duration": 0.10417,
            "velocity": 0.7401574803149606
        },
        {
            "name": "C#5",
            "midi": 73,
            "time": 28.5,
            "duration": 0.16667,
            "velocity": 0.7007874015748031
        },
        {
            "name": "C#3",
            "midi": 49,
            "time": 28.5,
            "duration": 0.69271,
            "velocity": 0.7244094488188977
        },
        {
            "name": "C#2",
            "midi": 37,
            "time": 28.5,
            "duration": 2.0,
            "velocity": 0.6850393700787402
        },
        {
            "name": "G#3",
            "midi": 56,
            "time": 28.66667,
            "duration": 0.55208,
            "velocity": 0.6850393700787402
        },
        {
            "name": "C#4",
            "midi": 61,
            "time": 28.83333,
            "duration": 0.44792,
            "velocity": 0.5511811023622047
        },
        {
            "name": "C5",
            "midi": 72,
            "time": 29.0,
            "duration": 0.16667,
            "velocity": 0.7007874015748031
        },
        {
            "name": "D#4",
            "midi": 63,
            "time": 29.0,
            "duration": 0.1875,
            "velocity": 0.6377952755905512
        },
        {
            "name": "F4",
            "midi": 65,
            "time": 29.16667,
            "duration": 0.18229,
            "velocity": 0.6692913385826772
        },
        {
            "name": "D#4",
            "midi": 63,
            "time": 29.33333,
            "duration": 0.10938,
            "velocity": 0.5590551181102362
        },
        {
            "name": "G#4",
            "midi": 68,
            "time": 29.5,
            "duration": 0.16667,
            "velocity": 0.7007874015748031
        },
        {
            "name": "C#3",
            "midi": 49,
            "time": 29.5,
            "duration": 0.59375,
            "velocity": 0.6850393700787402
        },
        {
            "name": "G#3",
            "midi": 56,
            "time": 29.66667,
            "duration": 0.33333,
            "velocity": 0.4645669291338583
        },
        {
            "name": "C#4",
            "midi": 61,
            "time": 29.83333,
            "duration": 0.31771,
            "velocity": 0.5354330708661418
        },
        {
            "name": "D#4",
            "midi": 63,
            "time": 30.0,
            "duration": 0.16667,
            "velocity": 0.7007874015748031
        },
        {
            "name": "A#4",
            "midi": 70,
            "time": 30.16667,
            "duration": 0.16667,
            "velocity": 0.7007874015748031
        },
        {
            "name": "F4",
            "midi": 65,
            "time": 30.16667,
            "duration": 0.10417,
            "velocity": 0.5275590551181102
        },
        {
            "name": "G#4",
            "midi": 68,
            "time": 30.33333,
            "duration": 0.16667,
            "velocity": 0.7007874015748031
        },
        {
            "name": "D#4",
            "midi": 63,
            "time": 30.33333,
            "duration": 0.05729,
            "velocity": 0.6220472440944882
        },
        {
            "name": "A#4",
            "midi": 70,
            "time": 30.5,
            "duration": 0.16667,
            "velocity": 0.7007874015748031
        },
        {
            "name": "D#3",
            "midi": 51,
            "time": 30.5,
            "duration": 0.69271,
            "velocity": 0.7007874015748031
        },
        {
            "name": "A#3",
            "midi": 58,
            "time": 30.66667,
            "duration": 0.48438,
            "velocity": 0.6850393700787402
        },
        {
            "name": "D#4",
            "midi": 63,
            "time": 30.83333,
            "duration": 0.38542,
            "velocity": 0.8031496062992126
        },
        {
            "name": "G4",
            "midi": 67,
            "time": 31.0,
            "duration": 0.1875,
            "velocity": 0.5590551181102362
        },
        {
            "name": "A#4",
            "midi": 70,
            "time": 31.16667,
            "duration": 0.14583,
            "velocity": 0.5511811023622047
        },
        {
            "name": "G4",
            "midi": 67,
            "time": 31.33333,
            "duration": 0.10417,
            "velocity": 0.5511811023622047
        },
        {
            "name": "D#5",
            "midi": 75,
            "time": 31.5,
            "duration": 0.16667,
            "velocity": 0.7007874015748031
        },
        {
            "name": "C5",
            "midi": 72,
            "time": 32.0,
            "duration": 0.16667,
            "velocity": 0.7007874015748031
        },
        {
            "name": "G#4",
            "midi": 68,
            "time": 32.5,
            "duration": 0.16667,
            "velocity": 0.7007874015748031
        },
        {
            "name": "F2",
            "midi": 41,
            "time": 32.5,
            "duration": 0.50521,
            "velocity": 0.7007874015748031
        },
        {
            "name": "C3",
            "midi": 48,
            "time": 32.66667,
            "duration": 0.32812,
            "velocity": 0.7637795275590551
        },
        {
            "name": "F3",
            "midi": 53,
            "time": 32.83333,
            "duration": 0.17188,
            "velocity": 0.7007874015748031
        },
        {
            "name": "G#3",
            "midi": 56,
            "time": 33.0,
            "duration": 0.15625,
            "velocity": 0.6535433070866141
        },
        {
            "name": "F3",
            "midi": 53,
            "time": 33.16667,
            "duration": 0.10938,
            "velocity": 0.5748031496062992
        },
        {
            "name": "C3",
            "midi": 48,
            "time": 33.33333,
            "duration": 0.05729,
            "velocity": 0.6614173228346457
        },
        {
            "name": "G#5",
            "midi": 80,
            "time": 33.5,
            "duration": 0.16667,
            "velocity": 0.7007874015748031
        },
        {
            "name": "C#2",
            "midi": 37,
            "time": 33.5,
            "duration": 0.50521,
            "velocity": 0.7322834645669292
        },
        {
            "name": "G#2",
            "midi": 44,
            "time": 33.66667,
            "duration": 0.32812,
            "velocity": 0.7637795275590551
        },
        {
            "name": "G5",
            "midi": 79,
            "time": 33.83333,
            "duration": 0.16667,
            "velocity": 0.7007874015748031
        },
        {
            "name": "C#3",
            "midi": 49,
            "time": 33.83333,
            "duration": 0.17188,
            "velocity": 0.7007874015748031
        },
        {
            "name": "F5",
            "midi": 77,
            "time": 34.0,
            "duration": 0.16667,
            "velocity": 0.7007874015748031
        },
        {
            "name": "F3",
            "midi": 53,
            "time": 34.0,
            "duration": 0.15625,
            "velocity": 0.6535433070866141
        },
        {
            "name": "C#3",
            "midi": 49,
            "time": 34.16667,
            "duration": 0.10938,
            "velocity": 0.5748031496062992
        },
        {
            "name": "G5",
            "midi": 79,
            "time": 34.33333,
            "duration": 0.16667,
            "velocity": 0.7007874015748031
        },
        {
            "name": "G#2",
            "midi": 44,
            "time": 34.33333,
            "duration": 0.05729,
            "velocity": 0.6614173228346457
        },
        {
            "name": "C5",
            "midi": 72,
            "time": 34.5,
            "duration": 0.16667,
            "velocity": 0.7007874015748031
        },
        {
            "name": "G#2",
            "midi": 44,
            "time": 34.5,
            "duration": 0.50521,
            "velocity": 0.7322834645669292
        },
        {
            "name": "D#3",
            "midi": 51,
            "time": 34.66667,
            "duration": 0.32812,
            "velocity": 0.7637795275590551
        },
        {
            "name": "G#3",
            "midi": 56,
            "time": 34.83333,
            "duration": 0.17188,
            "velocity": 0.7007874015748031
        },
        {
            "name": "C4",
            "midi": 60,
            "time": 35.0,
            "duration": 0.15625,
            "velocity": 0.6535433070866141
        },
        {
            "name": "G#3",
            "midi": 56,
            "time": 35.16667,
            "duration": 0.10938,
            "velocity": 0.5748031496062992
        },
        {
            "name": "D#3",
            "midi": 51,
            "time": 35.33333,
            "duration": 0.05729,
            "velocity": 0.6614173228346457
        },
        {
            "name": "D#5",
            "midi": 75,
            "time": 35.5,
            "duration": 0.16667,
            "velocity": 0.7007874015748031
        },
        {
            "name": "D#2",
            "midi": 39,
            "time": 35.5,
            "duration": 0.50521,
            "velocity": 0.7322834645669292
        },
        {
            "name": "A#2",
            "midi": 46,
            "time": 35.66667,
            "duration": 0.32812,
            "velocity": 0.7637795275590551
        },
        {
            "name": "C#5",
            "midi": 73,
            "time": 35.83333,
            "duration": 0.16667,
            "velocity": 0.7007874015748031
        },
        {
            "name": "D#3",
            "midi": 51,
            "time": 35.83333,
            "duration": 0.17188,
            "velocity": 0.7007874015748031
        },
        {
            "name": "C5",
            "midi": 72,
            "time": 36.0,
            "duration": 0.16667,
            "velocity": 0.7007874015748031
        },
        {
            "name": "G3",
            "midi": 55,
            "time": 36.0,
            "duration": 0.15625,
            "velocity": 0.6535433070866141
        },
        {
            "name": "D#3",
            "midi": 51,
            "time": 36.16667,
            "duration": 0.10938,
            "velocity": 0.5748031496062992
        },
        {
            "name": "A#4",
            "midi": 70,
            "time": 36.33333,
            "duration": 0.16667,
            "velocity": 0.7007874015748031
        },
        {
            "name": "A#2",
            "midi": 46,
            "time": 36.33333,
            "duration": 0.05729,
            "velocity": 0.6614173228346457
        },
        {
            "name": "G#4",
            "midi": 68,
            "time": 36.5,
            "duration": 0.16667,
            "velocity": 0.7007874015748031
        },
        {
            "name": "F2",
            "midi": 41,
            "time": 36.5,
            "duration": 0.50521,
            "velocity": 0.7401574803149606
        },
        {
            "name": "C3",
            "midi": 48,
            "time": 36.66667,
            "duration": 0.32812,
            "velocity": 0.7637795275590551
        },
        {
            "name": "F3",
            "midi": 53,
            "time": 36.83333,
            "duration": 0.17188,
            "velocity": 0.7007874015748031
        },
        {
            "name": "G#3",
            "midi": 56,
            "time": 37.0,
            "duration": 0.15625,
            "velocity": 0.6535433070866141
        },
        {
            "name": "F3",
            "midi": 53,
            "time": 37.16667,
            "duration": 0.10938,
            "velocity": 0.5748031496062992
        },
        {
            "name": "C3",
            "midi": 48,
            "time": 37.33333,
            "duration": 0.05729,
            "velocity": 0.6614173228346457
        },
        {
            "name": "G#5",
            "midi": 80,
            "time": 37.5,
            "duration": 0.16667,
            "velocity": 0.7007874015748031
        },
        {
            "name": "C#2",
            "midi": 37,
            "time": 37.5,
            "duration": 0.50521,
            "velocity": 0.7322834645669292
        },
        {
            "name": "G#2",
            "midi": 44,
            "time": 37.66667,
            "duration": 0.32812,
            "velocity": 0.7637795275590551
        },
        {
            "name": "G5",
            "midi": 79,
            "time": 37.83333,
            "duration": 0.16667,
            "velocity": 0.7007874015748031
        },
        {
            "name": "C#3",
            "midi": 49,
            "time": 37.83333,
            "duration": 0.17188,
            "velocity": 0.7007874015748031
        },
        {
            "name": "F5",
            "midi": 77,
            "time": 38.0,
            "duration": 0.16667,
            "velocity": 0.7007874015748031
        },
        {
            "name": "F3",
            "midi": 53,
            "time": 38.0,
            "duration": 0.15625,
            "velocity": 0.6535433070866141
        },
        {
            "name": "C#3",
            "midi": 49,
            "time": 38.16667,
            "duration": 0.10938,
            "velocity": 0.5748031496062992
        },
        {
            "name": "G#4",
            "midi": 68,
            "time": 38.33333,
            "duration": 0.16667,
            "velocity": 0.7007874015748031
        },
        {
            "name": "G#2",
            "midi": 44,
            "time": 38.33333,
            "duration": 0.05729,
            "velocity": 0.6614173228346457
        },
        {
            "name": "C5",
            "midi": 72,
            "time": 38.5,
            "duration": 0.16667,
            "velocity": 0.7007874015748031
        },
        {
            "name": "G#2",
            "midi": 44,
            "time": 38.5,
            "duration": 0.50521,
            "velocity": 0.7480314960629921
        },
        {
            "name": "D#3",
            "midi": 51,
            "time": 38.66667,
            "duration": 0.32812,
            "velocity": 0.7637795275590551
        },
        {
            "name": "G#3",
            "midi": 56,
            "time": 38.83333,
            "duration": 0.17188,
            "velocity": 0.7007874015748031
        },
        {
            "name": "C4",
            "midi": 60,
            "time": 39.0,
            "duration": 0.15625,
            "velocity": 0.6535433070866141
        },
        {
            "name": "G#3",
            "midi": 56,
            "time": 39.16667,
            "duration": 0.10938,
            "velocity": 0.5748031496062992
        },
        {
            "name": "D#3",
            "midi": 51,
            "time": 39.33333,
            "duration": 0.05729,
            "velocity": 0.6614173228346457
        },
        {
            "name": "D#5",
            "midi": 75,
            "time": 39.5,
            "duration": 0.16667,
            "velocity": 0.7007874015748031
        },
        {
            "name": "D#2",
            "midi": 39,
            "time": 39.5,
            "duration": 0.50521,
            "velocity": 0.7322834645669292
        },
        {
            "name": "D#5",
            "midi": 75,
            "time": 39.66667,
            "duration": 0.16667,
            "velocity": 0.5511811023622047
        },
        {
            "name": "A#2",
            "midi": 46,
            "time": 39.66667,
            "duration": 0.32812,
            "velocity": 0.7637795275590551
        },
        {
            "name": "D#5",
            "midi": 75,
            "time": 39.83333,
            "duration": 0.16667,
            "velocity": 0.5748031496062992
        },
        {
            "name": "D#3",
            "midi": 51,
            "time": 39.83333,
            "duration": 0.17188,
            "velocity": 0.7007874015748031
        },
        {
            "name": "D#5",
            "midi": 75,
            "time": 40.0,
            "duration": 0.16667,
            "velocity": 0.5354330708661418
        },
        {
            "name": "G3",
            "midi": 55,
            "time": 40.0,
            "duration": 0.15625,
            "velocity": 0.6535433070866141
        },
        {
            "name": "F5",
            "midi": 77,
            "time": 40.16667,
            "duration": 0.16667,
            "velocity": 0.7007874015748031
        },
        {
            "name": "D#3",
            "midi": 51,
            "time": 40.16667,
            "duration": 0.10938,
            "velocity": 0.5748031496062992
        },
        {
            "name": "A#2",
            "midi": 46,
            "time": 40.33333,
            "duration": 0.05729,
            "velocity": 0.6614173228346457
        },
        {
            "name": "C5",
            "midi": 72,
            "time": 40.5,
            "duration": 0.16667,
            "velocity": 0.7007874015748031
        },
        {
            "name": "F2",
            "midi": 41,
            "time": 40.5,
            "duration": 0.50521,
            "velocity": 0.7322834645669292
        },
        {
            "name": "A#4",
            "midi": 70,
            "time": 40.66667,
            "duration": 0.16667,
            "velocity": 0.7007874015748031
        },
        {
            "name": "C3",
            "midi": 48,
            "time": 40.66667,
            "duration": 0.32812,
            "velocity": 0.7637795275590551
        },
        {
            "name": "G#4",
            "midi": 68,
            "time": 40.83333,
            "duration": 0.16667,
            "velocity": 0.7007874015748031
        },
        {
            "name": "F3",
            "midi": 53,
            "time": 40.83333,
            "duration": 0.17188,
            "velocity": 0.7007874015748031
        },
        {
            "name": "G#3",
            "midi": 56,
            "time": 41.0,
            "duration": 0.15625,
            "velocity": 0.6535433070866141
        },
        {
            "name": "C5",
            "midi": 72,
            "time": 41.16667,
            "duration": 0.16667,
            "velocity": 0.7007874015748031
        },
        {
            "name": "F3",
            "midi": 53,
            "time": 41.16667,
            "duration": 0.10938,
            "velocity": 0.5748031496062992
        },
        {
            "name": "D#5",
            "midi": 75,
            "time": 41.33333,
            "duration": 0.16667,
            "velocity": 0.7007874015748031
        },
        {
            "name": "C3",
            "midi": 48,
            "time": 41.33333,
            "duration": 0.05729,
            "velocity": 0.6614173228346457
        },
        {
            "name": "G#5",
            "midi": 80,
            "time": 41.5,
            "duration": 0.16667,
            "velocity": 0.7007874015748031
        },
        {
            "name": "C#2",
            "midi": 37,
            "time": 41.5,
            "duration": 0.50521,
            "velocity": 0.7322834645669292
        },
        {
            "name": "G#2",
            "midi": 44,
            "time": 41.66667,
            "duration": 0.32812,
            "velocity": 0.7637795275590551
        },
        {
            "name": "G5",
            "midi": 79,
            "time": 41.83333,
            "duration": 0.16667,
            "velocity": 0.7007874015748031
        },
        {
            "name": "C#3",
            "midi": 49,
            "time": 41.83333,
            "duration": 0.17188,
            "velocity": 0.7007874015748031
        },
        {
            "name": "F5",
            "midi": 77,
            "time": 42.0,
            "duration": 0.16667,
            "velocity": 0.7007874015748031
        },
        {
            "name": "F3",
            "midi": 53,
            "time": 42.0,
            "duration": 0.15625,
            "velocity": 0.6535433070866141
        },
        {
            "name": "C#3",
            "midi": 49,
            "time": 42.16667,
            "duration": 0.10938,
            "velocity": 0.5748031496062992
        },
        {
            "name": "G5",
            "midi": 79,
            "time": 42.33333,
            "duration": 0.16667,
            "velocity": 0.7007874015748031
        },
        {
            "name": "G#2",
            "midi": 44,
            "time": 42.33333,
            "duration": 0.05729,
            "velocity": 0.6614173228346457
        },
        {
            "name": "C5",
            "midi": 72,
            "time": 42.5,
            "duration": 0.16667,
            "velocity": 0.7007874015748031
        },
        {
            "name": "G#2",
            "midi": 44,
            "time": 42.5,
            "duration": 0.50521,
            "velocity": 0.7086614173228346
        },
        {
            "name": "D#3",
            "midi": 51,
            "time": 42.66667,
            "duration": 0.32812,
            "velocity": 0.7637795275590551
        },
        {
            "name": "G#3",
            "midi": 56,
            "time": 42.83333,
            "duration": 0.17188,
            "velocity": 0.7007874015748031
        },
        {
            "name": "G#4",
            "midi": 68,
            "time": 43.0,
            "duration": 0.16667,
            "velocity": 0.7007874015748031
        },
        {
            "name": "C4",
            "midi": 60,
            "time": 43.0,
            "duration": 0.15625,
            "velocity": 0.6535433070866141
        },
        {
            "name": "A#4",
            "midi": 70,
            "time": 43.16667,
            "duration": 0.16667,
            "velocity": 0.7007874015748031
        },
        {
            "name": "G#3",
            "midi": 56,
            "time": 43.16667,
            "duration": 0.10938,
            "velocity": 0.5748031496062992
        },
        {
            "name": "C5",
            "midi": 72,
            "time": 43.33333,
            "duration": 0.16667,
            "velocity": 0.7007874015748031
        },
        {
            "name": "D#3",
            "midi": 51,
            "time": 43.33333,
            "duration": 0.05729,
            "velocity": 0.6614173228346457
        },
        {
            "name": "D#5",
            "midi": 75,
            "time": 43.5,
            "duration": 0.16667,
            "velocity": 0.7007874015748031
        },
        {
            "name": "D#2",
            "midi": 39,
            "time": 43.5,
            "duration": 0.50521,
            "velocity": 0.7322834645669292
        },
        {
            "name": "A#2",
            "midi": 46,
            "time": 43.66667,
            "duration": 0.32812,
            "velocity": 0.7637795275590551
        },
        {
            "name": "C#5",
            "midi": 73,
            "time": 43.83333,
            "duration": 0.16667,
            "velocity": 0.7007874015748031
        },
        {
            "name": "D#3",
            "midi": 51,
            "time": 43.83333,
            "duration": 0.17188,
            "velocity": 0.7007874015748031
        },
        {
            "name": "C5",
            "midi": 72,
            "time": 44.0,
            "duration": 0.16667,
            "velocity": 0.7007874015748031
        },
        {
            "name": "G3",
            "midi": 55,
            "time": 44.0,
            "duration": 0.15625,
            "velocity": 0.6535433070866141
        },
        {
            "name": "D#3",
            "midi": 51,
            "time": 44.16667,
            "duration": 0.10938,
            "velocity": 0.5748031496062992
        },
        {
            "name": "C#5",
            "midi": 73,
            "time": 44.33333,
            "duration": 0.16667,
            "velocity": 0.7007874015748031
        },
        {
            "name": "A#2",
            "midi": 46,
            "time": 44.33333,
            "duration": 0.05729,
            "velocity": 0.6614173228346457
        },
        {
            "name": "C5",
            "midi": 72,
            "time": 44.5,
            "duration": 0.16667,
            "velocity": 0.7007874015748031
        },
        {
            "name": "F2",
            "midi": 41,
            "time": 44.5,
            "duration": 0.50521,
            "velocity": 0.7244094488188977
        },
        {
            "name": "C3",
            "midi": 48,
            "time": 44.66667,
            "duration": 0.32812,
            "velocity": 0.7480314960629921
        },
        {
            "name": "F3",
            "midi": 53,
            "time": 44.83333,
            "duration": 0.17188,
            "velocity": 0.7007874015748031
        },
        {
            "name": "G#4",
            "midi": 68,
            "time": 45.0,
            "duration": 0.16667,
            "velocity": 0.7007874015748031
        },
        {
            "name": "G#3",
            "midi": 56,
            "time": 45.0,
            "duration": 0.15625,
            "velocity": 0.6535433070866141
        },
        {
            "name": "F3",
            "midi": 53,
            "time": 45.16667,
            "duration": 0.10938,
            "velocity": 0.5748031496062992
        },
        {
            "name": "C3",
            "midi": 48,
            "time": 45.33333,
            "duration": 0.05729,
            "velocity": 0.6614173228346457
        },
        {
            "name": "C#5",
            "midi": 73,
            "time": 45.5,
            "duration": 0.16667,
            "velocity": 0.7007874015748031
        },
        {
            "name": "C#2",
            "midi": 37,
            "time": 45.5,
            "duration": 0.50521,
            "velocity": 0.7322834645669292
        },
        {
            "name": "G#2",
            "midi": 44,
            "time": 45.66667,
            "duration": 0.32812,
            "velocity": 0.7637795275590551
        },
        {
            "name": "C#3",
            "midi": 49,
            "time": 45.83333,
            "duration": 0.17188,
            "velocity": 0.7007874015748031
        },
        {
            "name": "C5",
            "midi": 72,
            "time": 46.0,
            "duration": 0.16667,
            "velocity": 0.7007874015748031
        },
        {
            "name": "F3",
            "midi": 53,
            "time": 46.0,
            "duration": 0.15625,
            "velocity": 0.6535433070866141
        },
        {
            "name": "C#3",
            "midi": 49,
            "time": 46.16667,
            "duration": 0.10938,
            "velocity": 0.5748031496062992
        },
        {
            "name": "G#4",
            "midi": 68,
            "time": 46.33333,
            "duration": 0.08333,
            "velocity": 0.7007874015748031
        },
        {
            "name": "G#2",
            "midi": 44,
            "time": 46.33333,
            "duration": 0.05729,
            "velocity": 0.6614173228346457
        },
        {
            "name": "A#4",
            "midi": 70,
            "time": 46.41667,
            "duration": 0.08333,
            "velocity": 0.7007874015748031
        },
        {
            "name": "C5",
            "midi": 72,
            "time": 46.5,
            "duration": 0.08333,
            "velocity": 0.7007874015748031
        },
        {
            "name": "G#2",
            "midi": 44,
            "time": 46.5,
            "duration": 0.50521,
            "velocity": 0.7322834645669292
        },
        {
            "name": "D#3",
            "midi": 51,
            "time": 46.66667,
            "duration": 0.32812,
            "velocity": 0.7637795275590551
        },
        {
            "name": "G#3",
            "midi": 56,
            "time": 46.83333,
            "duration": 0.17188,
            "velocity": 0.7007874015748031
        },
        {
            "name": "A#4",
            "midi": 70,
            "time": 47.0,
            "duration": 0.08333,
            "velocity": 0.7007874015748031
        },
        {
            "name": "C4",
            "midi": 60,
            "time": 47.0,
            "duration": 0.15625,
            "velocity": 0.6535433070866141
        },
        {
            "name": "G#3",
            "midi": 56,
            "time": 47.16667,
            "duration": 0.10938,
            "velocity": 0.5748031496062992
        },
        {
            "name": "D#3",
            "midi": 51,
            "time": 47.33333,
            "duration": 0.05729,
            "velocity": 0.6614173228346457
        },
        {
            "name": "A#4",
            "midi": 70,
            "time": 47.5,
            "duration": 0.08333,
            "velocity": 0.7007874015748031
        },
        {
            "name": "D#2",
            "midi": 39,
            "time": 47.5,
            "duration": 0.50521,
            "velocity": 0.7480314960629921
        },
        {
            "name": "A#2",
            "midi": 46,
            "time": 47.66667,
            "duration": 0.32812,
            "velocity": 0.7637795275590551
        },
        {
            "name": "D#3",
            "midi": 51,
            "time": 47.83333,
            "duration": 0.17188,
            "velocity": 0.7007874015748031
        },
        {
            "name": "G#4",
            "midi": 68,
            "time": 48.0,
            "duration": 0.08333,
            "velocity": 0.7007874015748031
        },
        {
            "name": "G3",
            "midi": 55,
            "time": 48.0,
            "duration": 0.15625,
            "velocity": 0.6535433070866141
        },
        {
            "name": "D#3",
            "midi": 51,
            "time": 48.16667,
            "duration": 0.10938,
            "velocity": 0.5748031496062992
        },
        {
            "name": "G#4",
            "midi": 68,
            "time": 48.33333,
            "duration": 0.08333,
            "velocity": 0.7007874015748031
        },
        {
            "name": "A#2",
            "midi": 46,
            "time": 48.33333,
            "duration": 0.05729,
            "velocity": 0.6614173228346457
        },
        {
            "name": "C5",
            "midi": 72,
            "time": 48.5,
            "duration": 0.5,
            "velocity": 0.7007874015748031
        },
        {
            "name": "G#2",
            "midi": 44,
            "time": 48.5,
            "duration": 0.5,
            "velocity": 0.6062992125984252
        },
        {
            "name": "D#3",
            "midi": 51,
            "time": 48.66667,
            "duration": 0.25,
            "velocity": 0.6062992125984252
        },
        {
            "name": "C4",
            "midi": 60,
            "time": 48.83333,
            "duration": 0.16667,
            "velocity": 0.6062992125984252
        },
        {
            "name": "A#4",
            "midi": 70,
            "time": 49.0,
            "duration": 0.5,
            "velocity": 0.7007874015748031
        },
        {
            "name": "G2",
            "midi": 43,
            "time": 49.0,
            "duration": 0.5,
            "velocity": 0.6062992125984252
        },
        {
            "name": "D#3",
            "midi": 51,
            "time": 49.16667,
            "duration": 0.33333,
            "velocity": 0.6062992125984252
        },
        {
            "name": "A#3",
            "midi": 58,
            "time": 49.33333,
            "duration": 0.16667,
            "velocity": 0.6062992125984252
        },
        {
            "name": "G#4",
            "midi": 68,
            "time": 49.5,
            "duration": 0.5,
            "velocity": 0.7007874015748031
        },
        {
            "name": "F2",
            "midi": 41,
            "time": 49.5,
            "duration": 0.5,
            "velocity": 0.6062992125984252
        },
        {
            "name": "C3",
            "midi": 48,
            "time": 49.66667,
            "duration": 0.33333,
            "velocity": 0.6062992125984252
        },
        {
            "name": "G#3",
            "midi": 56,
            "time": 49.83333,
            "duration": 0.16667,
            "velocity": 0.6062992125984252
        },
        {
            "name": "G4",
            "midi": 67,
            "time": 50.0,
            "duration": 0.5,
            "velocity": 0.7007874015748031
        },
        {
            "name": "D#2",
            "midi": 39,
            "time": 50.0,
            "duration": 0.5,
            "velocity": 0.6062992125984252
        },
        {
            "name": "A#2",
            "midi": 46,
            "time": 50.16667,
            "duration": 0.33333,
            "velocity": 0.6062992125984252
        },
        {
            "name": "G3",
            "midi": 55,
            "time": 50.33333,
            "duration": 0.16667,
            "velocity": 0.6062992125984252
        },
        {
            "name": "F4",
            "midi": 65,
            "time": 50.5,
            "duration": 0.99479,
            "velocity": 0.7007874015748031
        },
        {
            "name": "C#2",
            "midi": 37,
            "time": 50.5,
            "duration": 0.99479,
            "velocity": 0.6062992125984252
        },
        {
            "name": "G#2",
            "midi": 44,
            "time": 50.66667,
            "duration": 0.16146,
            "velocity": 0.6062992125984252
        },
        {
            "name": "C#3",
            "midi": 49,
            "time": 50.83333,
            "duration": 0.16667,
            "velocity": 0.6456692913385826
        },
        {
            "name": "F3",
            "midi": 53,
            "time": 51.0,
            "duration": 0.16146,
            "velocity": 0.6456692913385826
        },
        {
            "name": "C#3",
            "midi": 49,
            "time": 51.16667,
            "duration": 0.16146,
            "velocity": 0.6456692913385826
        },
        {
            "name": "G#2",
            "midi": 44,
            "time": 51.33333,
            "duration": 0.16146,
            "velocity": 0.49606299212598426
        },
        {
            "name": "G4",
            "midi": 67,
            "time": 51.5,
            "duration": 0.99479,
            "velocity": 0.7007874015748031
        },
        {
            "name": "D#2",
            "midi": 39,
            "time": 51.5,
            "duration": 0.99479,
            "velocity": 0.6062992125984252
        },
        {
            "name": "A#2",
            "midi": 46,
            "time": 51.66667,
            "duration": 0.16146,
            "velocity": 0.49606299212598426
        },
        {
            "name": "D#3",
            "midi": 51,
            "time": 51.83333,
            "duration": 0.16146,
            "velocity": 0.49606299212598426
        },
        {
            "name": "C5",
            "midi": 72,
            "time": 52.0,
            "duration": 0.16667,
            "velocity": 0.7007874015748031
        },
        {
            "name": "D#5",
            "midi": 75,
            "time": 52.16667,
            "duration": 0.16667,
            "velocity": 0.7007874015748031
        },
        {
            "name": "C5",
            "midi": 72,
            "time": 52.33333,
            "duration": 0.16667,
            "velocity": 0.7007874015748031
        },
        {
            "name": "C5",
            "midi": 72,
            "time": 52.5,
            "duration": 0.16667,
            "velocity": 0.7007874015748031
        },
        {
            "name": "G#2",
            "midi": 44,
            "time": 52.5,
            "duration": 0.21875,
            "velocity": 0.6614173228346457
        },
        {
            "name": "D#3",
            "midi": 51,
            "time": 52.66667,
            "duration": 0.16146,
            "velocity": 0.5354330708661418
        },
        {
            "name": "C5",
            "midi": 72,
            "time": 52.83333,
            "duration": 0.16667,
            "velocity": 0.7007874015748031
        },
        {
            "name": "G#3",
            "midi": 56,
            "time": 52.83333,
            "duration": 0.21354,
            "velocity": 0.5905511811023622
        },
        {
            "name": "A#3",
            "midi": 58,
            "time": 53.0,
            "duration": 0.11458,
            "velocity": 0.6299212598425197
        },
        {
            "name": "C4",
            "midi": 60,
            "time": 53.16667,
            "duration": 0.07812,
            "velocity": 0.5275590551181102
        },
        {
            "name": "A#3",
            "midi": 58,
            "time": 53.33333,
            "duration": 0.04688,
            "velocity": 0.5196850393700787
        },
        {
            "name": "G#2",
            "midi": 44,
            "time": 53.5,
            "duration": 0.21875,
            "velocity": 0.7007874015748031
        },
        {
            "name": "D#3",
            "midi": 51,
            "time": 53.66667,
            "duration": 0.11979,
            "velocity": 0.5905511811023622
        },
        {
            "name": "G#3",
            "midi": 56,
            "time": 53.83333,
            "duration": 0.11458,
            "velocity": 0.5275590551181102
        },
        {
            "name": "G#4",
            "midi": 68,
            "time": 54.0,
            "duration": 0.16667,
            "velocity": 0.7007874015748031
        },
        {
            "name": "A#3",
            "midi": 58,
            "time": 54.0,
            "duration": 0.13021,
            "velocity": 0.5590551181102362
        },
        {
            "name": "C4",
            "midi": 60,
            "time": 54.16667,
            "duration": 0.09896,
            "velocity": 0.3464566929133858
        },
        {
            "name": "A#4",
            "midi": 70,
            "time": 54.25,
            "duration": 0.08333,
            "velocity": 0.7007874015748031
        },
        {
            "name": "C5",
            "midi": 72,
            "time": 54.33333,
            "duration": 0.08333,
            "velocity": 0.7007874015748031
        },
        {
            "name": "A#3",
            "midi": 58,
            "time": 54.33333,
            "duration": 0.06771,
            "velocity": 0.6220472440944882
        },
        {
            "name": "C5",
            "midi": 72,
            "time": 54.5,
            "duration": 0.16667,
            "velocity": 0.7007874015748031
        },
        {
            "name": "F2",
            "midi": 41,
            "time": 54.5,
            "duration": 0.30729,
            "velocity": 0.6220472440944882
        },
        {
            "name": "G#4",
            "midi": 68,
            "time": 54.66667,
            "duration": 0.16667,
            "velocity": 0.7007874015748031
        },
        {
            "name": "D#3",
            "midi": 51,
            "time": 54.66667,
            "duration": 0.31771,
            "velocity": 0.5039370078740157
        },
        {
            "name": "G#4",
            "midi": 68,
            "time": 54.83333,
            "duration": 0.16667,
            "velocity": 0.6220472440944882
        },
        {
            "name": "G#3",
            "midi": 56,
            "time": 54.83333,
            "duration": 0.16146,
            "velocity": 0.6377952755905512
        },
        {
            "name": "G#4",
            "midi": 68,
            "time": 55.0,
            "duration": 0.16667,
            "velocity": 0.5275590551181102
        },
        {
            "name": "A#3",
            "midi": 58,
            "time": 55.0,
            "duration": 0.08333,
            "velocity": 0.7401574803149606
        },
        {
            "name": "G#4",
            "midi": 68,
            "time": 55.16667,
            "duration": 0.16667,
            "velocity": 0.7007874015748031
        },
        {
            "name": "D#4",
            "midi": 63,
            "time": 55.16667,
            "duration": 0.09896,
            "velocity": 0.5984251968503937
        },
        {
            "name": "A#3",
            "midi": 58,
            "time": 55.33333,
            "duration": 0.11458,
            "velocity": 0.41732283464566927
        },
        {
            "name": "F2",
            "midi": 41,
            "time": 55.5,
            "duration": 0.39062,
            "velocity": 0.6062992125984252
        },
        {
            "name": "D#3",
            "midi": 51,
            "time": 55.66667,
            "duration": 0.33854,
            "velocity": 0.5039370078740157
        },
        {
            "name": "G#3",
            "midi": 56,
            "time": 55.83333,
            "duration": 0.17188,
            "velocity": 0.5905511811023622
        },
        {
            "name": "G#4",
            "midi": 68,
            "time": 56.0,
            "duration": 0.16667,
            "velocity": 0.7007874015748031
        },
        {
            "name": "A#3",
            "midi": 58,
            "time": 56.0,
            "duration": 0.13542,
            "velocity": 0.7007874015748031
        },
        {
            "name": "A#4",
            "midi": 70,
            "time": 56.16667,
            "duration": 0.16667,
            "velocity": 0.7007874015748031
        },
        {
            "name": "D#4",
            "midi": 63,
            "time": 56.16667,
            "duration": 0.11458,
            "velocity": 0.6377952755905512
        },
        {
            "name": "C5",
            "midi": 72,
            "time": 56.33333,
            "duration": 0.16667,
            "velocity": 0.7007874015748031
        },
        {
            "name": "A#3",
            "midi": 58,
            "time": 56.33333,
            "duration": 0.10417,
            "velocity": 0.7401574803149606
        },
        {
            "name": "C#5",
            "midi": 73,
            "time": 56.5,
            "duration": 0.16667,
            "velocity": 0.7007874015748031
        },
        {
            "name": "C#3",
            "midi": 49,
            "time": 56.5,
            "duration": 0.69271,
            "velocity": 0.7244094488188977
        },
        {
            "name": "C#2",
            "midi": 37,
            "time": 56.5,
            "duration": 1.99479,
            "velocity": 0.7559055118110236
        },
        {
            "name": "G#3",
            "midi": 56,
            "time": 56.66667,
            "duration": 0.55208,
            "velocity": 0.6850393700787402
        },
        {
            "name": "C#5",
            "midi": 73,
            "time": 56.83333,
            "duration": 0.16667,
            "velocity": 0.7007874015748031
        },
        {
            "name": "C#4",
            "midi": 61,
            "time": 56.83333,
            "duration": 0.44792,
            "velocity": 0.5511811023622047
        },
        {
            "name": "C5",
            "midi": 72,
            "time": 57.0,
            "duration": 0.16667,
            "velocity": 0.7007874015748031
        },
        {
            "name": "D#4",
            "midi": 63,
            "time": 57.0,
            "duration": 0.1875,
            "velocity": 0.6377952755905512
        },
        {
            "name": "F4",
            "midi": 65,
            "time": 57.16667,
            "duration": 0.18229,
            "velocity": 0.6692913385826772
        },
        {
            "name": "C5",
            "midi": 72,
            "time": 57.33333,
            "duration": 0.16667,
            "velocity": 0.7007874015748031
        },
        {
            "name": "D#4",
            "midi": 63,
            "time": 57.33333,
            "duration": 0.10938,
            "velocity": 0.5590551181102362
        },
        {
            "name": "A#4",
            "midi": 70,
            "time": 57.5,
            "duration": 0.16667,
            "velocity": 0.7007874015748031
        },
        {
            "name": "C#3",
            "midi": 49,
            "time": 57.5,
            "duration": 0.59375,
            "velocity": 0.6850393700787402
        },
        {
            "name": "G#4",
            "midi": 68,
            "time": 57.66667,
            "duration": 0.16667,
            "velocity": 0.7007874015748031
        },
        {
            "name": "G#3",
            "midi": 56,
            "time": 57.66667,
            "duration": 0.33333,
            "velocity": 0.4645669291338583
        },
        {
            "name": "C#4",
            "midi": 61,
            "time": 57.83333,
            "duration": 0.31771,
            "velocity": 0.5354330708661418
        },
        {
            "name": "G#4",
            "midi": 68,
            "time": 58.0,
            "duration": 0.16667,
            "velocity": 0.7007874015748031
        },
        {
            "name": "D#4",
            "midi": 63,
            "time": 58.0,
            "duration": 0.15625,
            "velocity": 0.49606299212598426
        },
        {
            "name": "A#4",
            "midi": 70,
            "time": 58.16667,
            "duration": 0.16667,
            "velocity": 0.7007874015748031
        },
        {
            "name": "F4",
            "midi": 65,
            "time": 58.16667,
            "duration": 0.10417,
            "velocity": 0.5275590551181102
        },
        {
            "name": "C5",
            "midi": 72,
            "time": 58.33333,
            "duration": 0.16667,
            "velocity": 0.7007874015748031
        },
        {
            "name": "D#4",
            "midi": 63,
            "time": 58.33333,
            "duration": 0.05729,
            "velocity": 0.6220472440944882
        },
        {
            "name": "A#4",
            "midi": 70,
            "time": 58.5,
            "duration": 0.16667,
            "velocity": 0.7007874015748031
        },
        {
            "name": "D#2",
            "midi": 39,
            "time": 58.5,
            "duration": 0.58854,
            "velocity": 0.7637795275590551
        },
        {
            "name": "A#2",
            "midi": 46,
            "time": 58.66667,
            "duration": 0.34896,
            "velocity": 0.5196850393700787
        },
        {
            "name": "D#3",
            "midi": 51,
            "time": 58.83333,
            "duration": 0.27083,
            "velocity": 0.5039370078740157
        },
        {
            "name": "C5",
            "midi": 72,
            "time": 59.0,
            "duration": 0.16667,
            "velocity": 0.7007874015748031
        },
        {
            "name": "G3",
            "midi": 55,
            "time": 59.0,
            "duration": 0.17708,
            "velocity": 0.5984251968503937
        },
        {
            "name": "A#3",
            "midi": 58,
            "time": 59.16667,
            "duration": 0.15104,
            "velocity": 0.7637795275590551
        },
        {
            "name": "G3",
            "midi": 55,
            "time": 59.33333,
            "duration": 0.07812,
            "velocity": 0.6299212598425197
        },
        {
            "name": "C5",
            "midi": 72,
            "time": 59.5,
            "duration": 0.08333,
            "velocity": 0.7007874015748031
        },
        {
            "name": "D#2",
            "midi": 39,
            "time": 59.5,
            "duration": 0.58854,
            "velocity": 0.7637795275590551
        },
        {
            "name": "D#5",
            "midi": 75,
            "time": 59.58333,
            "duration": 0.08333,
            "velocity": 0.7007874015748031
        },
        {
            "name": "A#2",
            "midi": 46,
            "time": 59.66667,
            "duration": 0.34896,
            "velocity": 0.5196850393700787
        },
        {
            "name": "D#3",
            "midi": 51,
            "time": 59.83333,
            "duration": 0.27083,
            "velocity": 0.5039370078740157
        },
        {
            "name": "F5",
            "midi": 77,
            "time": 60.0,
            "duration": 0.16667,
            "velocity": 0.7007874015748031
        },
        {
            "name": "G3",
            "midi": 55,
            "time": 60.0,
            "duration": 0.17708,
            "velocity": 0.5984251968503937
        },
        {
            "name": "D#5",
            "midi": 75,
            "time": 60.16667,
            "duration": 0.16667,
            "velocity": 0.7007874015748031
        },
        {
            "name": "A#3",
            "midi": 58,
            "time": 60.16667,
            "duration": 0.15104,
            "velocity": 0.7637795275590551
        },
        {
            "name": "D#5",
            "midi": 75,
            "time": 60.33333,
            "duration": 0.16667,
            "velocity": 0.7007874015748031
        },
        {
            "name": "G3",
            "midi": 55,
            "time": 60.33333,
            "duration": 0.07812,
            "velocity": 0.6299212598425197
        },
        {
            "name": "C5",
            "midi": 72,
            "time": 60.5,
            "duration": 0.16667,
            "velocity": 0.7007874015748031
        },
        {
            "name": "G#2",
            "midi": 44,
            "time": 60.5,
            "duration": 0.21875,
            "velocity": 0.6614173228346457
        },
        {
            "name": "D#3",
            "midi": 51,
            "time": 60.66667,
            "duration": 0.16146,
            "velocity": 0.5354330708661418
        },
        {
            "name": "G#4",
            "midi": 68,
            "time": 60.83333,
            "duration": 0.16667,
            "velocity": 0.7007874015748031
        },
        {
            "name": "G#3",
            "midi": 56,
            "time": 60.83333,
            "duration": 0.21354,
            "velocity": 0.5905511811023622
        },
        {
            "name": "A#3",
            "midi": 58,
            "time": 61.0,
            "duration": 0.11458,
            "velocity": 0.6299212598425197
        },
        {
            "name": "C4",
            "midi": 60,
            "time": 61.16667,
            "duration": 0.07812,
            "velocity": 0.5275590551181102
        },
        {
            "name": "A#3",
            "midi": 58,
            "time": 61.33333,
            "duration": 0.04688,
            "velocity": 0.5196850393700787
        },
        {
            "name": "G#2",
            "midi": 44,
            "time": 61.5,
            "duration": 0.21875,
            "velocity": 0.7007874015748031
        },
        {
            "name": "D#3",
            "midi": 51,
            "time": 61.66667,
            "duration": 0.11979,
            "velocity": 0.5905511811023622
        },
        {
            "name": "G#3",
            "midi": 56,
            "time": 61.83333,
            "duration": 0.11458,
            "velocity": 0.5275590551181102
        },
        {
            "name": "A#3",
            "midi": 58,
            "time": 62.0,
            "duration": 0.13021,
            "velocity": 0.5590551181102362
        },
        {
            "name": "C4",
            "midi": 60,
            "time": 62.16667,
            "duration": 0.09896,
            "velocity": 0.3464566929133858
        },
        {
            "name": "C5",
            "midi": 72,
            "time": 62.33333,
            "duration": 0.08333,
            "velocity": 0.7007874015748031
        },
        {
            "name": "A#3",
            "midi": 58,
            "time": 62.33333,
            "duration": 0.06771,
            "velocity": 0.6220472440944882
        },
        {
            "name": "D#5",
            "midi": 75,
            "time": 62.41667,
            "duration": 0.08333,
            "velocity": 0.7007874015748031
        },
        {
            "name": "D#5",
            "midi": 75,
            "time": 62.5,
            "duration": 0.16667,
            "velocity": 0.7007874015748031
        },
        {
            "name": "F2",
            "midi": 41,
            "time": 62.5,
            "duration": 0.30729,
            "velocity": 0.6220472440944882
        },
        {
            "name": "D#3",
            "midi": 51,
            "time": 62.66667,
            "duration": 0.31771,
            "velocity": 0.5039370078740157
        },
        {
            "name": "C5",
            "midi": 72,
            "time": 62.83333,
            "duration": 0.16667,
            "velocity": 0.7007874015748031
        },
        {
            "name": "G#3",
            "midi": 56,
            "time": 62.83333,
            "duration": 0.16146,
            "velocity": 0.6377952755905512
        },
        {
            "name": "C5",
            "midi": 72,
            "time": 63.0,
            "duration": 0.16667,
            "velocity": 0.7007874015748031
        },
        {
            "name": "A#3",
            "midi": 58,
            "time": 63.0,
            "duration": 0.08333,
            "velocity": 0.7401574803149606
        },
        {
            "name": "D#4",
            "midi": 63,
            "time": 63.16667,
            "duration": 0.09896,
            "velocity": 0.5984251968503937
        },
        {
            "name": "A#4",
            "midi": 70,
            "time": 63.33333,
            "duration": 0.16667,
            "velocity": 0.7007874015748031
        },
        {
            "name": "A#3",
            "midi": 58,
            "time": 63.33333,
            "duration": 0.11458,
            "velocity": 0.41732283464566927
        },
        {
            "name": "A#4",
            "midi": 70,
            "time": 63.5,
            "duration": 0.16667,
            "velocity": 0.7007874015748031
        },
        {
            "name": "F2",
            "midi": 41,
            "time": 63.5,
            "duration": 0.39062,
            "velocity": 0.6062992125984252
        },
        {
            "name": "G#4",
            "midi": 68,
            "time": 63.66667,
            "duration": 0.16667,
            "velocity": 0.7007874015748031
        },
        {
            "name": "D#3",
            "midi": 51,
            "time": 63.66667,
            "duration": 0.33854,
            "velocity": 0.5039370078740157
        },
        {
            "name": "G#3",
            "midi": 56,
            "time": 63.83333,
            "duration": 0.17188,
            "velocity": 0.5905511811023622
        },
        {
            "name": "A#3",
            "midi": 58,
            "time": 64.0,
            "duration": 0.13542,
            "velocity": 0.7007874015748031
        },
        {
            "name": "D#4",
            "midi": 63,
            "time": 64.16667,
            "duration": 0.11458,
            "velocity": 0.6377952755905512
        },
        {
            "name": "G#4",
            "midi": 68,
            "time": 64.25,
            "duration": 0.08333,
            "velocity": 0.7007874015748031
        },
        {
            "name": "A#4",
            "midi": 70,
            "time": 64.33333,
            "duration": 0.08333,
            "velocity": 0.7007874015748031
        },
        {
            "name": "A#3",
            "midi": 58,
            "time": 64.33333,
            "duration": 0.10417,
            "velocity": 0.7401574803149606
        },
        {
            "name": "C5",
            "midi": 72,
            "time": 64.41667,
            "duration": 0.08333,
            "velocity": 0.7007874015748031
        },
        {
            "name": "C#5",
            "midi": 73,
            "time": 64.5,
            "duration": 0.08333,
            "velocity": 0.7007874015748031
        },
        {
            "name": "C#3",
            "midi": 49,
            "time": 64.5,
            "duration": 0.69271,
            "velocity": 0.7244094488188977
        },
        {
            "name": "C#2",
            "midi": 37,
            "time": 64.5,
            "duration": 2.0,
            "velocity": 0.9133858267716536
        },
        {
            "name": "G#3",
            "midi": 56,
            "time": 64.66667,
            "duration": 0.55208,
            "velocity": 0.6850393700787402
        },
        {
            "name": "C#4",
            "midi": 61,
            "time": 64.83333,
            "duration": 0.44792,
            "velocity": 0.5511811023622047
        },
        {
            "name": "D#4",
            "midi": 63,
            "time": 65.0,
            "duration": 0.1875,
            "velocity": 0.6377952755905512
        },
        {
            "name": "G#4",
            "midi": 68,
            "time": 65.08333,
            "duration": 0.08333,
            "velocity": 0.7007874015748031
        },
        {
            "name": "D#5",
            "midi": 75,
            "time": 65.16667,
            "duration": 0.08333,
            "velocity": 0.7007874015748031
        },
        {
            "name": "F4",
            "midi": 65,
            "time": 65.16667,
            "duration": 0.18229,
            "velocity": 0.6692913385826772
        },
        {
            "name": "C5",
            "midi": 72,
            "time": 65.25,
            "duration": 0.08333,
            "velocity": 0.7007874015748031
        },
        {
            "name": "D#4",
            "midi": 63,
            "time": 65.33333,
            "duration": 0.10938,
            "velocity": 0.5590551181102362
        },
        {
            "name": "C5",
            "midi": 72,
            "time": 65.41667,
            "duration": 0.08333,
            "velocity": 0.7007874015748031
        },
        {
            "name": "C#3",
            "midi": 49,
            "time": 65.5,
            "duration": 0.59375,
            "velocity": 0.6850393700787402
        },
        {
            "name": "G#4",
            "midi": 68,
            "time": 65.66667,
            "duration": 0.08333,
            "velocity": 0.7007874015748031
        },
        {
            "name": "G#3",
            "midi": 56,
            "time": 65.66667,
            "duration": 0.33333,
            "velocity": 0.4645669291338583
        },
        {
            "name": "C#4",
            "midi": 61,
            "time": 65.83333,
            "duration": 0.31771,
            "velocity": 0.5354330708661418
        },
        {
            "name": "D#4",
            "midi": 63,
            "time": 66.0,
            "duration": 0.15625,
            "velocity": 0.49606299212598426
        },
        {
            "name": "G#4",
            "midi": 68,
            "time": 66.16667,
            "duration": 0.16667,
            "velocity": 0.7007874015748031
        },
        {
            "name": "F4",
            "midi": 65,
            "time": 66.16667,
            "duration": 0.10417,
            "velocity": 0.5275590551181102
        },
        {
            "name": "A#4",
            "midi": 70,
            "time": 66.33333,
            "duration": 0.16667,
            "velocity": 0.7007874015748031
        },
        {
            "name": "D#4",
            "midi": 63,
            "time": 66.33333,
            "duration": 0.05729,
            "velocity": 0.6220472440944882
        },
        {
            "name": "A#4",
            "midi": 70,
            "time": 66.5,
            "duration": 0.16667,
            "velocity": 0.7007874015748031
        },
        {
            "name": "D#2",
            "midi": 39,
            "time": 66.5,
            "duration": 0.58854,
            "velocity": 0.7637795275590551
        },
        {
            "name": "A#2",
            "midi": 46,
            "time": 66.66667,
            "duration": 0.34896,
            "velocity": 0.5196850393700787
        },
        {
            "name": "D#3",
            "midi": 51,
            "time": 66.83333,
            "duration": 0.27083,
            "velocity": 0.5039370078740157
        },
        {
            "name": "G3",
            "midi": 55,
            "time": 67.0,
            "duration": 0.17708,
            "velocity": 0.5984251968503937
        },
        {
            "name": "A#3",
            "midi": 58,
            "time": 67.16667,
            "duration": 0.15104,
            "velocity": 0.7637795275590551
        },
        {
            "name": "G3",
            "midi": 55,
            "time": 67.33333,
            "duration": 0.07812,
            "velocity": 0.6299212598425197
        },
        {
            "name": "D#5",
            "midi": 75,
            "time": 67.5,
            "duration": 0.16667,
            "velocity": 0.7007874015748031
        },
        {
            "name": "D#2",
            "midi": 39,
            "time": 67.5,
            "duration": 0.58854,
            "velocity": 0.7637795275590551
        },
        {
            "name": "D#5",
            "midi": 75,
            "time": 67.66667,
            "duration": 0.16667,
            "velocity": 0.7007874015748031
        },
        {
            "name": "A#2",
            "midi": 46,
            "time": 67.66667,
            "duration": 0.34896,
            "velocity": 0.5196850393700787
        },
        {
            "name": "D#5",
            "midi": 75,
            "time": 67.83333,
            "duration": 0.16667,
            "velocity": 0.7007874015748031
        },
        {
            "name": "D#3",
            "midi": 51,
            "time": 67.83333,
            "duration": 0.27083,
            "velocity": 0.5039370078740157
        },
        {
            "name": "F5",
            "midi": 77,
            "time": 68.0,
            "duration": 0.16667,
            "velocity": 0.7007874015748031
        },
        {
            "name": "G3",
            "midi": 55,
            "time": 68.0,
            "duration": 0.17708,
            "velocity": 0.5984251968503937
        },
        {
            "name": "A#4",
            "midi": 70,
            "time": 68.16667,
            "duration": 0.16667,
            "velocity": 0.7007874015748031
        },
        {
            "name": "A#3",
            "midi": 58,
            "time": 68.16667,
            "duration": 0.15104,
            "velocity": 0.7637795275590551
        },
        {
            "name": "A#4",
            "midi": 70,
            "time": 68.33333,
            "duration": 0.16667,
            "velocity": 0.7007874015748031
        },
        {
            "name": "G3",
            "midi": 55,
            "time": 68.33333,
            "duration": 0.07812,
            "velocity": 0.6299212598425197
        },
        {
            "name": "C5",
            "midi": 72,
            "time": 68.5,
            "duration": 0.16667,
            "velocity": 0.7007874015748031
        },
        {
            "name": "G#2",
            "midi": 44,
            "time": 68.5,
            "duration": 0.21875,
            "velocity": 0.6614173228346457
        },
        {
            "name": "D#3",
            "midi": 51,
            "time": 68.66667,
            "duration": 0.16146,
            "velocity": 0.5354330708661418
        },
        {
            "name": "G#3",
            "midi": 56,
            "time": 68.83333,
            "duration": 0.21354,
            "velocity": 0.5905511811023622
        },
        {
            "name": "C5",
            "midi": 72,
            "time": 69.0,
            "duration": 0.16667,
            "velocity": 0.7007874015748031
        },
        {
            "name": "A#3",
            "midi": 58,
            "time": 69.0,
            "duration": 0.11458,
            "velocity": 0.6299212598425197
        },
        {
            "name": "C4",
            "midi": 60,
            "time": 69.16667,
            "duration": 0.07812,
            "velocity": 0.5275590551181102
        },
        {
            "name": "A#3",
            "midi": 58,
            "time": 69.33333,
            "duration": 0.04688,
            "velocity": 0.5196850393700787
        },
        {
            "name": "C5",
            "midi": 72,
            "time": 69.5,
            "duration": 0.16667,
            "velocity": 0.7007874015748031
        },
        {
            "name": "G#2",
            "midi": 44,
            "time": 69.5,
            "duration": 0.21875,
            "velocity": 0.7007874015748031
        },
        {
            "name": "D#3",
            "midi": 51,
            "time": 69.66667,
            "duration": 0.11979,
            "velocity": 0.5905511811023622
        },
        {
            "name": "G#3",
            "midi": 56,
            "time": 69.83333,
            "duration": 0.11458,
            "velocity": 0.5275590551181102
        },
        {
            "name": "C5",
            "midi": 72,
            "time": 70.0,
            "duration": 0.16667,
            "velocity": 0.7007874015748031
        },
        {
            "name": "A#3",
            "midi": 58,
            "time": 70.0,
            "duration": 0.13021,
            "velocity": 0.5590551181102362
        },
        {
            "name": "A#4",
            "midi": 70,
            "time": 70.16667,
            "duration": 0.16667,
            "velocity": 0.7007874015748031
        },
        {
            "name": "C4",
            "midi": 60,
            "time": 70.16667,
            "duration": 0.09896,
            "velocity": 0.3464566929133858
        },
        {
            "name": "G#4",
            "midi": 68,
            "time": 70.33333,
            "duration": 0.16667,
            "velocity": 0.7007874015748031
        },
        {
            "name": "A#3",
            "midi": 58,
            "time": 70.33333,
            "duration": 0.06771,
            "velocity": 0.6220472440944882
        },
        {
            "name": "C5",
            "midi": 72,
            "time": 70.5,
            "duration": 0.16667,
            "velocity": 0.7007874015748031
        },
        {
            "name": "F2",
            "midi": 41,
            "time": 70.5,
            "duration": 0.30729,
            "velocity": 0.6220472440944882
        },
        {
            "name": "D#3",
            "midi": 51,
            "time": 70.66667,
            "duration": 0.31771,
            "velocity": 0.5039370078740157
        },
        {
            "name": "G#3",
            "midi": 56,
            "time": 70.83333,
            "duration": 0.16146,
            "velocity": 0.6377952755905512
        },
        {
            "name": "C5",
            "midi": 72,
            "time": 71.0,
            "duration": 0.16667,
            "velocity": 0.7007874015748031
        },
        {
            "name": "A#3",
            "midi": 58,
            "time": 71.0,
            "duration": 0.08333,
            "velocity": 0.7401574803149606
        },
        {
            "name": "D#4",
            "midi": 63,
            "time": 71.16667,
            "duration": 0.09896,
            "velocity": 0.5984251968503937
        },
        {
            "name": "A#3",
            "midi": 58,
            "time": 71.33333,
            "duration": 0.11458,
            "velocity": 0.41732283464566927
        },
        {
            "name": "C5",
            "midi": 72,
            "time": 71.5,
            "duration": 0.16667,
            "velocity": 0.7007874015748031
        },
        {
            "name": "F2",
            "midi": 41,
            "time": 71.5,
            "duration": 0.39062,
            "velocity": 0.6062992125984252
        },
        {
            "name": "D#3",
            "midi": 51,
            "time": 71.66667,
            "duration": 0.33854,
            "velocity": 0.5039370078740157
        },
        {
            "name": "G#3",
            "midi": 56,
            "time": 71.83333,
            "duration": 0.17188,
            "velocity": 0.5905511811023622
        },
        {
            "name": "C5",
            "midi": 72,
            "time": 72.0,
            "duration": 0.16667,
            "velocity": 0.7007874015748031
        },
        {
            "name": "A#3",
            "midi": 58,
            "time": 72.0,
            "duration": 0.13542,
            "velocity": 0.7007874015748031
        },
        {
            "name": "A#4",
            "midi": 70,
            "time": 72.16667,
            "duration": 0.16667,
            "velocity": 0.7007874015748031
        },
        {
            "name": "D#4",
            "midi": 63,
            "time": 72.16667,
            "duration": 0.11458,
            "velocity": 0.6377952755905512
        },
        {
            "name": "G#4",
            "midi": 68,
            "time": 72.33333,
            "duration": 0.16667,
            "velocity": 0.7007874015748031
        },
        {
            "name": "A#3",
            "midi": 58,
            "time": 72.33333,
            "duration": 0.10417,
            "velocity": 0.7401574803149606
        },
        {
            "name": "C#5",
            "midi": 73,
            "time": 72.5,
            "duration": 0.16667,
            "velocity": 0.7007874015748031
        },
        {
            "name": "C#3",
            "midi": 49,
            "time": 72.5,
            "duration": 0.69271,
            "velocity": 0.7244094488188977
        },
        {
            "name": "C#2",
            "midi": 37,
            "time": 72.5,
            "duration": 1.99479,
            "velocity": 0.7637795275590551
        },
        {
            "name": "G#3",
            "midi": 56,
            "time": 72.66667,
            "duration": 0.55208,
            "velocity": 0.6850393700787402
        },
        {
            "name": "C#4",
            "midi": 61,
            "time": 72.83333,
            "duration": 0.44792,
            "velocity": 0.5511811023622047
        },
        {
            "name": "C5",
            "midi": 72,
            "time": 73.0,
            "duration": 0.16667,
            "velocity": 0.7007874015748031
        },
        {
            "name": "D#4",
            "midi": 63,
            "time": 73.0,
            "duration": 0.1875,
            "velocity": 0.6377952755905512
        },
        {
            "name": "F4",
            "midi": 65,
            "time": 73.16667,
            "duration": 0.18229,
            "velocity": 0.6692913385826772
        },
        {
            "name": "D#4",
            "midi": 63,
            "time": 73.33333,
            "duration": 0.10938,
            "velocity": 0.5590551181102362
        },
        {
            "name": "G#4",
            "midi": 68,
            "time": 73.5,
            "duration": 0.16667,
            "velocity": 0.7007874015748031
        },
        {
            "name": "C#3",
            "midi": 49,
            "time": 73.5,
            "duration": 0.59375,
            "velocity": 0.6850393700787402
        },
        {
            "name": "G#3",
            "midi": 56,
            "time": 73.66667,
            "duration": 0.33333,
            "velocity": 0.4645669291338583
        },
        {
            "name": "C#4",
            "midi": 61,
            "time": 73.83333,
            "duration": 0.31771,
            "velocity": 0.5354330708661418
        },
        {
            "name": "D#4",
            "midi": 63,
            "time": 74.0,
            "duration": 0.16667,
            "velocity": 0.7007874015748031
        },
        {
            "name": "F4",
            "midi": 65,
            "time": 74.16667,
            "duration": 0.10417,
            "velocity": 0.5275590551181102
        },
        {
            "name": "D#4",
            "midi": 63,
            "time": 74.33333,
            "duration": 0.05729,
            "velocity": 0.6220472440944882
        },
        {
            "name": "C5",
            "midi": 72,
            "time": 74.5,
            "duration": 0.16667,
            "velocity": 0.7007874015748031
        },
        {
            "name": "G#2",
            "midi": 44,
            "time": 74.5,
            "duration": 0.21875,
            "velocity": 0.6614173228346457
        },
        {
            "name": "D#3",
            "midi": 51,
            "time": 74.66667,
            "duration": 0.16146,
            "velocity": 0.5354330708661418
        },
        {
            "name": "G#3",
            "midi": 56,
            "time": 74.83333,
            "duration": 0.21354,
            "velocity": 0.5905511811023622
        },
        {
            "name": "A#3",
            "midi": 58,
            "time": 75.0,
            "duration": 0.11458,
            "velocity": 0.6299212598425197
        },
        {
            "name": "C#5",
            "midi": 73,
            "time": 75.16667,
            "duration": 0.16667,
            "velocity": 0.7007874015748031
        },
        {
            "name": "C4",
            "midi": 60,
            "time": 75.16667,
            "duration": 0.07812,
            "velocity": 0.5275590551181102
        },
        {
            "name": "C5",
            "midi": 72,
            "time": 75.33333,
            "duration": 0.16667,
            "velocity": 0.7007874015748031
        },
        {
            "name": "A#3",
            "midi": 58,
            "time": 75.33333,
            "duration": 0.07812,
            "velocity": 0.5275590551181102
        },
        {
            "name": "A#4",
            "midi": 70,
            "time": 75.5,
            "duration": 0.16667,
            "velocity": 0.7007874015748031
        },
        {
            "name": "D#2",
            "midi": 39,
            "time": 75.5,
            "duration": 0.58854,
            "velocity": 0.7637795275590551
        },
        {
            "name": "A#2",
            "midi": 46,
            "time": 75.66667,
            "duration": 0.34896,
            "velocity": 0.5196850393700787
        },
        {
            "name": "D#3",
            "midi": 51,
            "time": 75.83333,
            "duration": 0.27083,
            "velocity": 0.5039370078740157
        },
        {
            "name": "C5",
            "midi": 72,
            "time": 76.0,
            "duration": 0.16667,
            "velocity": 0.7007874015748031
        },
        {
            "name": "G3",
            "midi": 55,
            "time": 76.0,
            "duration": 0.17708,
            "velocity": 0.5984251968503937
        },
        {
            "name": "A#4",
            "midi": 70,
            "time": 76.16667,
            "duration": 0.16667,
            "velocity": 0.7007874015748031
        },
        {
            "name": "A#3",
            "midi": 58,
            "time": 76.16667,
            "duration": 0.15104,
            "velocity": 0.7637795275590551
        },
        {
            "name": "G#4",
            "midi": 68,
            "time": 76.33333,
            "duration": 0.16667,
            "velocity": 0.7007874015748031
        },
        {
            "name": "G3",
            "midi": 55,
            "time": 76.33333,
            "duration": 0.07812,
            "velocity": 0.6299212598425197
        },
        {
            "name": "C5",
            "midi": 72,
            "time": 76.5,
            "duration": 0.16667,
            "velocity": 0.7007874015748031
        },
        {
            "name": "G#2",
            "midi": 44,
            "time": 76.5,
            "duration": 0.21875,
            "velocity": 0.6614173228346457
        },
        {
            "name": "D#3",
            "midi": 51,
            "time": 76.66667,
            "duration": 0.16146,
            "velocity": 0.5354330708661418
        },
        {
            "name": "G#3",
            "midi": 56,
            "time": 76.83333,
            "duration": 0.21354,
            "velocity": 0.5905511811023622
        },
        {
            "name": "C5",
            "midi": 72,
            "time": 77.0,
            "duration": 0.16667,
            "velocity": 0.7007874015748031
        },
        {
            "name": "A#3",
            "midi": 58,
            "time": 77.0,
            "duration": 0.11458,
            "velocity": 0.6299212598425197
        },
        {
            "name": "C4",
            "midi": 60,
            "time": 77.16667,
            "duration": 0.07812,
            "velocity": 0.5275590551181102
        },
        {
            "name": "A#3",
            "midi": 58,
            "time": 77.33333,
            "duration": 0.04688,
            "velocity": 0.5196850393700787
        },
        {
            "name": "C5",
            "midi": 72,
            "time": 77.5,
            "duration": 0.16667,
            "velocity": 0.7007874015748031
        },
        {
            "name": "G#2",
            "midi": 44,
            "time": 77.5,
            "duration": 0.21875,
            "velocity": 0.7007874015748031
        },
        {
            "name": "D#3",
            "midi": 51,
            "time": 77.66667,
            "duration": 0.11979,
            "velocity": 0.5905511811023622
        },
        {
            "name": "G#3",
            "midi": 56,
            "time": 77.83333,
            "duration": 0.11458,
            "velocity": 0.5275590551181102
        },
        {
            "name": "C5",
            "midi": 72,
            "time": 78.0,
            "duration": 0.16667,
            "velocity": 0.7007874015748031
        },
        {
            "name": "A#3",
            "midi": 58,
            "time": 78.0,
            "duration": 0.13021,
            "velocity": 0.5590551181102362
        },
        {
            "name": "A#4",
            "midi": 70,
            "time": 78.16667,
            "duration": 0.16667,
            "velocity": 0.7007874015748031
        },
        {
            "name": "C4",
            "midi": 60,
            "time": 78.16667,
            "duration": 0.09896,
            "velocity": 0.3464566929133858
        },
        {
            "name": "G#4",
            "midi": 68,
            "time": 78.33333,
            "duration": 0.16667,
            "velocity": 0.7007874015748031
        },
        {
            "name": "A#3",
            "midi": 58,
            "time": 78.33333,
            "duration": 0.06771,
            "velocity": 0.6220472440944882
        },
        {
            "name": "C5",
            "midi": 72,
            "time": 78.5,
            "duration": 0.16667,
            "velocity": 0.7007874015748031
        },
        {
            "name": "F2",
            "midi": 41,
            "time": 78.5,
            "duration": 0.30729,
            "velocity": 0.6220472440944882
        },
        {
            "name": "D#3",
            "midi": 51,
            "time": 78.66667,
            "duration": 0.31771,
            "velocity": 0.5039370078740157
        },
        {
            "name": "G#3",
            "midi": 56,
            "time": 78.83333,
            "duration": 0.16146,
            "velocity": 0.6377952755905512
        },
        {
            "name": "C5",
            "midi": 72,
            "time": 79.0,
            "duration": 0.16667,
            "velocity": 0.7007874015748031
        },
        {
            "name": "A#3",
            "midi": 58,
            "time": 79.0,
            "duration": 0.08333,
            "velocity": 0.7401574803149606
        },
        {
            "name": "D#4",
            "midi": 63,
            "time": 79.16667,
            "duration": 0.09896,
            "velocity": 0.5984251968503937
        },
        {
            "name": "A#3",
            "midi": 58,
            "time": 79.33333,
            "duration": 0.11458,
            "velocity": 0.41732283464566927
        },
        {
            "name": "C5",
            "midi": 72,
            "time": 79.5,
            "duration": 0.16667,
            "velocity": 0.7007874015748031
        },
        {
            "name": "F2",
            "midi": 41,
            "time": 79.5,
            "duration": 0.39062,
            "velocity": 0.6062992125984252
        },
        {
            "name": "D#3",
            "midi": 51,
            "time": 79.66667,
            "duration": 0.33854,
            "velocity": 0.5039370078740157
        },
        {
            "name": "G#3",
            "midi": 56,
            "time": 79.83333,
            "duration": 0.17188,
            "velocity": 0.5905511811023622
        },
        {
            "name": "C5",
            "midi": 72,
            "time": 80.0,
            "duration": 0.16667,
            "velocity": 0.7007874015748031
        },
        {
            "name": "A#3",
            "midi": 58,
            "time": 80.0,
            "duration": 0.13542,
            "velocity": 0.7007874015748031
        },
        {
            "name": "A#4",
            "midi": 70,
            "time": 80.16667,
            "duration": 0.16667,
            "velocity": 0.7007874015748031
        },
        {
            "name": "D#4",
            "midi": 63,
            "time": 80.16667,
            "duration": 0.11458,
            "velocity": 0.6377952755905512
        },
        {
            "name": "G#4",
            "midi": 68,
            "time": 80.33333,
            "duration": 0.16667,
            "velocity": 0.7007874015748031
        },
        {
            "name": "A#3",
            "midi": 58,
            "time": 80.33333,
            "duration": 0.10417,
            "velocity": 0.7401574803149606
        },
        {
            "name": "C#5",
            "midi": 73,
            "time": 80.5,
            "duration": 0.16667,
            "velocity": 0.7007874015748031
        },
        {
            "name": "C#3",
            "midi": 49,
            "time": 80.5,
            "duration": 0.69271,
            "velocity": 0.7244094488188977
        },
        {
            "name": "C#2",
            "midi": 37,
            "time": 80.5,
            "duration": 2.0,
            "velocity": 0.7952755905511811
        },
        {
            "name": "G#3",
            "midi": 56,
            "time": 80.66667,
            "duration": 0.55208,
            "velocity": 0.6850393700787402
        },
        {
            "name": "C#4",
            "midi": 61,
            "time": 80.83333,
            "duration": 0.44792,
            "velocity": 0.5511811023622047
        },
        {
            "name": "C5",
            "midi": 72,
            "time": 81.0,
            "duration": 0.16667,
            "velocity": 0.7007874015748031
        },
        {
            "name": "D#4",
            "midi": 63,
            "time": 81.0,
            "duration": 0.1875,
            "velocity": 0.6377952755905512
        },
        {
            "name": "F4",
            "midi": 65,
            "time": 81.16667,
            "duration": 0.18229,
            "velocity": 0.6692913385826772
        },
        {
            "name": "D#4",
            "midi": 63,
            "time": 81.33333,
            "duration": 0.10938,
            "velocity": 0.5590551181102362
        },
        {
            "name": "G#4",
            "midi": 68,
            "time": 81.5,
            "duration": 0.16667,
            "velocity": 0.7007874015748031
        },
        {
            "name": "C#3",
            "midi": 49,
            "time": 81.5,
            "duration": 0.59375,
            "velocity": 0.6850393700787402
        },
        {
            "name": "G#3",
            "midi": 56,
            "time": 81.66667,
            "duration": 0.33333,
            "velocity": 0.4645669291338583
        },
        {
            "name": "C#4",
            "midi": 61,
            "time": 81.83333,
            "duration": 0.31771,
            "velocity": 0.5354330708661418
        },
        {
            "name": "D#4",
            "midi": 63,
            "time": 82.0,
            "duration": 0.16667,
            "velocity": 0.7007874015748031
        },
        {
            "name": "A#4",
            "midi": 70,
            "time": 82.16667,
            "duration": 0.16667,
            "velocity": 0.7007874015748031
        },
        {
            "name": "F4",
            "midi": 65,
            "time": 82.16667,
            "duration": 0.10417,
            "velocity": 0.5275590551181102
        },
        {
            "name": "G#4",
            "midi": 68,
            "time": 82.33333,
            "duration": 0.16667,
            "velocity": 0.7007874015748031
        },
        {
            "name": "D#4",
            "midi": 63,
            "time": 82.33333,
            "duration": 0.05729,
            "velocity": 0.6220472440944882
        },
        {
            "name": "A#4",
            "midi": 70,
            "time": 82.5,
            "duration": 0.16667,
            "velocity": 0.7007874015748031
        },
        {
            "name": "D#3",
            "midi": 51,
            "time": 82.5,
            "duration": 0.69271,
            "velocity": 0.7007874015748031
        },
        {
            "name": "D#2",
            "midi": 39,
            "time": 82.5,
            "duration": 1.99479,
            "velocity": 0.6771653543307087
        },
        {
            "name": "A#3",
            "midi": 58,
            "time": 82.66667,
            "duration": 0.48438,
            "velocity": 0.6850393700787402
        },
        {
            "name": "D#4",
            "midi": 63,
            "time": 82.83333,
            "duration": 0.38542,
            "velocity": 0.5669291338582677
        },
        {
            "name": "G4",
            "midi": 67,
            "time": 83.0,
            "duration": 0.1875,
            "velocity": 0.5590551181102362
        },
        {
            "name": "A#4",
            "midi": 70,
            "time": 83.16667,
            "duration": 0.14583,
            "velocity": 0.5511811023622047
        },
        {
            "name": "G4",
            "midi": 67,
            "time": 83.33333,
            "duration": 0.14583,
            "velocity": 0.5511811023622047
        },
        {
            "name": "D#5",
            "midi": 75,
            "time": 83.5,
            "duration": 0.16667,
            "velocity": 0.7007874015748031
        },
        {
            "name": "C5",
            "midi": 72,
            "time": 84.0,
            "duration": 0.16667,
            "velocity": 0.7007874015748031
        },
        {
            "name": "G#4",
            "midi": 68,
            "time": 84.5,
            "duration": 0.16667,
            "velocity": 0.7007874015748031
        },
        {
            "name": "F2",
            "midi": 41,
            "time": 84.5,
            "duration": 0.50521,
            "velocity": 0.6771653543307087
        },
        {
            "name": "C3",
            "midi": 48,
            "time": 84.66667,
            "duration": 0.32812,
            "velocity": 0.7559055118110236
        },
        {
            "name": "F3",
            "midi": 53,
            "time": 84.83333,
            "duration": 0.17188,
            "velocity": 0.6850393700787402
        },
        {
            "name": "G#3",
            "midi": 56,
            "time": 85.0,
            "duration": 0.15625,
            "velocity": 0.6456692913385826
        },
        {
            "name": "F3",
            "midi": 53,
            "time": 85.16667,
            "duration": 0.10938,
            "velocity": 0.5669291338582677
        },
        {
            "name": "C3",
            "midi": 48,
            "time": 85.33333,
            "duration": 0.05729,
            "velocity": 0.6535433070866141
        },
        {
            "name": "G#6",
            "midi": 92,
            "time": 85.5,
            "duration": 0.16667,
            "velocity": 0.7007874015748031
        },
        {
            "name": "G#5",
            "midi": 80,
            "time": 85.5,
            "duration": 0.16667,
            "velocity": 0.7007874015748031
        },
        {
            "name": "C#2",
            "midi": 37,
            "time": 85.5,
            "duration": 0.50521,
            "velocity": 0.6771653543307087
        },
        {
            "name": "G#2",
            "midi": 44,
            "time": 85.66667,
            "duration": 0.32812,
            "velocity": 0.7559055118110236
        },
        {
            "name": "G6",
            "midi": 91,
            "time": 85.83333,
            "duration": 0.16667,
            "velocity": 0.7007874015748031
        },
        {
            "name": "G5",
            "midi": 79,
            "time": 85.83333,
            "duration": 0.16667,
            "velocity": 0.7007874015748031
        },
        {
            "name": "C#3",
            "midi": 49,
            "time": 85.83333,
            "duration": 0.17188,
            "velocity": 0.6850393700787402
        },
        {
            "name": "F6",
            "midi": 89,
            "time": 86.0,
            "duration": 0.16667,
            "velocity": 0.7007874015748031
        },
        {
            "name": "F5",
            "midi": 77,
            "time": 86.0,
            "duration": 0.16667,
            "velocity": 0.7007874015748031
        },
        {
            "name": "F3",
            "midi": 53,
            "time": 86.0,
            "duration": 0.15625,
            "velocity": 0.6456692913385826
        },
        {
            "name": "C#3",
            "midi": 49,
            "time": 86.16667,
            "duration": 0.10938,
            "velocity": 0.5669291338582677
        },
        {
            "name": "G6",
            "midi": 91,
            "time": 86.33333,
            "duration": 0.16667,
            "velocity": 0.7007874015748031
        },
        {
            "name": "G5",
            "midi": 79,
            "time": 86.33333,
            "duration": 0.16667,
            "velocity": 0.7007874015748031
        },
        {
            "name": "G#2",
            "midi": 44,
            "time": 86.33333,
            "duration": 0.05729,
            "velocity": 0.6535433070866141
        },
        {
            "name": "C5",
            "midi": 72,
            "time": 86.5,
            "duration": 0.16667,
            "velocity": 0.7007874015748031
        },
        {
            "name": "C6",
            "midi": 84,
            "time": 86.5,
            "duration": 0.16667,
            "velocity": 0.7007874015748031
        },
        {
            "name": "G#2",
            "midi": 44,
            "time": 86.5,
            "duration": 0.50521,
            "velocity": 0.7952755905511811
        },
        {
            "name": "D#3",
            "midi": 51,
            "time": 86.66667,
            "duration": 0.32812,
            "velocity": 0.7559055118110236
        },
        {
            "name": "G#3",
            "midi": 56,
            "time": 86.83333,
            "duration": 0.17188,
            "velocity": 0.6850393700787402
        },
        {
            "name": "C4",
            "midi": 60,
            "time": 87.0,
            "duration": 0.15625,
            "velocity": 0.6456692913385826
        },
        {
            "name": "G#3",
            "midi": 56,
            "time": 87.16667,
            "duration": 0.10938,
            "velocity": 0.5669291338582677
        },
        {
            "name": "D#3",
            "midi": 51,
            "time": 87.33333,
            "duration": 0.05729,
            "velocity": 0.6535433070866141
        },
        {
            "name": "D#6",
            "midi": 87,
            "time": 87.5,
            "duration": 0.16667,
            "velocity": 0.7007874015748031
        },
        {
            "name": "D#5",
            "midi": 75,
            "time": 87.5,
            "duration": 0.16667,
            "velocity": 0.7007874015748031
        },
        {
            "name": "D#2",
            "midi": 39,
            "time": 87.5,
            "duration": 0.50521,
            "velocity": 0.6771653543307087
        },
        {
            "name": "A#2",
            "midi": 46,
            "time": 87.66667,
            "duration": 0.32812,
            "velocity": 0.7559055118110236
        },
        {
            "name": "C#6",
            "midi": 85,
            "time": 87.83333,
            "duration": 0.16667,
            "velocity": 0.7007874015748031
        },
        {
            "name": "C#5",
            "midi": 73,
            "time": 87.83333,
            "duration": 0.16667,
            "velocity": 0.7007874015748031
        },
        {
            "name": "D#3",
            "midi": 51,
            "time": 87.83333,
            "duration": 0.17188,
            "velocity": 0.6850393700787402
        },
        {
            "name": "C6",
            "midi": 84,
            "time": 88.0,
            "duration": 0.16667,
            "velocity": 0.7007874015748031
        },
        {
            "name": "C5",
            "midi": 72,
            "time": 88.0,
            "duration": 0.16667,
            "velocity": 0.7007874015748031
        },
        {
            "name": "G3",
            "midi": 55,
            "time": 88.0,
            "duration": 0.15625,
            "velocity": 0.6456692913385826
        },
        {
            "name": "D#3",
            "midi": 51,
            "time": 88.16667,
            "duration": 0.10938,
            "velocity": 0.5669291338582677
        },
        {
            "name": "A#5",
            "midi": 82,
            "time": 88.33333,
            "duration": 0.16667,
            "velocity": 0.7007874015748031
        },
        {
            "name": "A#4",
            "midi": 70,
            "time": 88.33333,
            "duration": 0.16667,
            "velocity": 0.7007874015748031
        },
        {
            "name": "A#2",
            "midi": 46,
            "time": 88.33333,
            "duration": 0.05729,
            "velocity": 0.6535433070866141
        },
        {
            "name": "G#4",
            "midi": 68,
            "time": 88.5,
            "duration": 0.16667,
            "velocity": 0.7007874015748031
        },
        {
            "name": "G#5",
            "midi": 80,
            "time": 88.5,
            "duration": 0.16667,
            "velocity": 0.7007874015748031
        },
        {
            "name": "F2",
            "midi": 41,
            "time": 88.5,
            "duration": 0.50521,
            "velocity": 0.6771653543307087
        },
        {
            "name": "C3",
            "midi": 48,
            "time": 88.66667,
            "duration": 0.32812,
            "velocity": 0.7559055118110236
        },
        {
            "name": "F3",
            "midi": 53,
            "time": 88.83333,
            "duration": 0.17188,
            "velocity": 0.6850393700787402
        },
        {
            "name": "G#3",
            "midi": 56,
            "time": 89.0,
            "duration": 0.15625,
            "velocity": 0.6456692913385826
        },
        {
            "name": "F3",
            "midi": 53,
            "time": 89.16667,
            "duration": 0.10938,
            "velocity": 0.5669291338582677
        },
        {
            "name": "C3",
            "midi": 48,
            "time": 89.33333,
            "duration": 0.05729,
            "velocity": 0.6535433070866141
        },
        {
            "name": "G#6",
            "midi": 92,
            "time": 89.5,
            "duration": 0.16667,
            "velocity": 0.7007874015748031
        },
        {
            "name": "G#5",
            "midi": 80,
            "time": 89.5,
            "duration": 0.16667,
            "velocity": 0.7007874015748031
        },
        {
            "name": "C#2",
            "midi": 37,
            "time": 89.5,
            "duration": 0.50521,
            "velocity": 0.6771653543307087
        },
        {
            "name": "G#2",
            "midi": 44,
            "time": 89.66667,
            "duration": 0.32812,
            "velocity": 0.7559055118110236
        },
        {
            "name": "G6",
            "midi": 91,
            "time": 89.83333,
            "duration": 0.16667,
            "velocity": 0.7007874015748031
        },
        {
            "name": "G5",
            "midi": 79,
            "time": 89.83333,
            "duration": 0.16667,
            "velocity": 0.7007874015748031
        },
        {
            "name": "C#3",
            "midi": 49,
            "time": 89.83333,
            "duration": 0.17188,
            "velocity": 0.6850393700787402
        },
        {
            "name": "F6",
            "midi": 89,
            "time": 90.0,
            "duration": 0.16667,
            "velocity": 0.7007874015748031
        },
        {
            "name": "F5",
            "midi": 77,
            "time": 90.0,
            "duration": 0.16667,
            "velocity": 0.7007874015748031
        },
        {
            "name": "F3",
            "midi": 53,
            "time": 90.0,
            "duration": 0.15625,
            "velocity": 0.6456692913385826
        },
        {
            "name": "C#3",
            "midi": 49,
            "time": 90.16667,
            "duration": 0.10938,
            "velocity": 0.5669291338582677
        },
        {
            "name": "G#5",
            "midi": 80,
            "time": 90.33333,
            "duration": 0.16667,
            "velocity": 0.7007874015748031
        },
        {
            "name": "G#4",
            "midi": 68,
            "time": 90.33333,
            "duration": 0.16667,
            "velocity": 0.7007874015748031
        },
        {
            "name": "G#2",
            "midi": 44,
            "time": 90.33333,
            "duration": 0.05729,
            "velocity": 0.6535433070866141
        },
        {
            "name": "C5",
            "midi": 72,
            "time": 90.5,
            "duration": 0.16667,
            "velocity": 0.7007874015748031
        },
        {
            "name": "C6",
            "midi": 84,
            "time": 90.5,
            "duration": 0.16667,
            "velocity": 0.7007874015748031
        },
        {
            "name": "G#2",
            "midi": 44,
            "time": 90.5,
            "duration": 0.50521,
            "velocity": 0.7952755905511811
        },
        {
            "name": "D#3",
            "midi": 51,
            "time": 90.66667,
            "duration": 0.32812,
            "velocity": 0.7559055118110236
        },
        {
            "name": "G#3",
            "midi": 56,
            "time": 90.83333,
            "duration": 0.17188,
            "velocity": 0.6850393700787402
        },
        {
            "name": "C4",
            "midi": 60,
            "time": 91.0,
            "duration": 0.15625,
            "velocity": 0.6456692913385826
        },
        {
            "name": "G#3",
            "midi": 56,
            "time": 91.16667,
            "duration": 0.10938,
            "velocity": 0.5669291338582677
        },
        {
            "name": "D#3",
            "midi": 51,
            "time": 91.33333,
            "duration": 0.05729,
            "velocity": 0.6535433070866141
        },
        {
            "name": "D#6",
            "midi": 87,
            "time": 91.5,
            "duration": 0.16667,
            "velocity": 0.7007874015748031
        },
        {
            "name": "D#5",
            "midi": 75,
            "time": 91.5,
            "duration": 0.16667,
            "velocity": 0.7007874015748031
        },
        {
            "name": "D#2",
            "midi": 39,
            "time": 91.5,
            "duration": 0.50521,
            "velocity": 0.6771653543307087
        },
        {
            "name": "D#5",
            "midi": 75,
            "time": 91.66667,
            "duration": 0.16667,
            "velocity": 0.7007874015748031
        },
        {
            "name": "D#6",
            "midi": 87,
            "time": 91.66667,
            "duration": 0.16667,
            "velocity": 0.7007874015748031
        },
        {
            "name": "A#2",
            "midi": 46,
            "time": 91.66667,
            "duration": 0.32812,
            "velocity": 0.7559055118110236
        },
        {
            "name": "D#6",
            "midi": 87,
            "time": 91.83333,
            "duration": 0.16667,
            "velocity": 0.7007874015748031
        },
        {
            "name": "D#5",
            "midi": 75,
            "time": 91.83333,
            "duration": 0.16667,
            "velocity": 0.7007874015748031
        },
        {
            "name": "D#3",
            "midi": 51,
            "time": 91.83333,
            "duration": 0.17188,
            "velocity": 0.6850393700787402
        },
        {
            "name": "D#5",
            "midi": 75,
            "time": 92.0,
            "duration": 0.16667,
            "velocity": 0.7007874015748031
        },
        {
            "name": "D#6",
            "midi": 87,
            "time": 92.0,
            "duration": 0.16667,
            "velocity": 0.7007874015748031
        },
        {
            "name": "G3",
            "midi": 55,
            "time": 92.0,
            "duration": 0.15625,
            "velocity": 0.6456692913385826
        },
        {
            "name": "F6",
            "midi": 89,
            "time": 92.16667,
            "duration": 0.16667,
            "velocity": 0.7007874015748031
        },
        {
            "name": "F5",
            "midi": 77,
            "time": 92.16667,
            "duration": 0.16667,
            "velocity": 0.7007874015748031
        },
        {
            "name": "D#3",
            "midi": 51,
            "time": 92.16667,
            "duration": 0.10938,
            "velocity": 0.5669291338582677
        },
        {
            "name": "A#2",
            "midi": 46,
            "time": 92.33333,
            "duration": 0.05729,
            "velocity": 0.6535433070866141
        },
        {
            "name": "C6",
            "midi": 84,
            "time": 92.5,
            "duration": 0.16667,
            "velocity": 0.7007874015748031
        },
        {
            "name": "C5",
            "midi": 72,
            "time": 92.5,
            "duration": 0.16667,
            "velocity": 0.7007874015748031
        },
        {
            "name": "F2",
            "midi": 41,
            "time": 92.5,
            "duration": 0.50521,
            "velocity": 0.6771653543307087
        },
        {
            "name": "A#4",
            "midi": 70,
            "time": 92.66667,
            "duration": 0.16667,
            "velocity": 0.7007874015748031
        },
        {
            "name": "A#5",
            "midi": 82,
            "time": 92.66667,
            "duration": 0.16667,
            "velocity": 0.7007874015748031
        },
        {
            "name": "C3",
            "midi": 48,
            "time": 92.66667,
            "duration": 0.32812,
            "velocity": 0.7559055118110236
        },
        {
            "name": "G#5",
            "midi": 80,
            "time": 92.83333,
            "duration": 0.16667,
            "velocity": 0.7007874015748031
        },
        {
            "name": "G#4",
            "midi": 68,
            "time": 92.83333,
            "duration": 0.16667,
            "velocity": 0.7007874015748031
        },
        {
            "name": "F3",
            "midi": 53,
            "time": 92.83333,
            "duration": 0.17188,
            "velocity": 0.6850393700787402
        },
        {
            "name": "G#3",
            "midi": 56,
            "time": 93.0,
            "duration": 0.15625,
            "velocity": 0.6456692913385826
        },
        {
            "name": "C6",
            "midi": 84,
            "time": 93.16667,
            "duration": 0.16667,
            "velocity": 0.7007874015748031
        },
        {
            "name": "C5",
            "midi": 72,
            "time": 93.16667,
            "duration": 0.16667,
            "velocity": 0.7007874015748031
        },
        {
            "name": "F3",
            "midi": 53,
            "time": 93.16667,
            "duration": 0.10938,
            "velocity": 0.5669291338582677
        },
        {
            "name": "D#6",
            "midi": 87,
            "time": 93.33333,
            "duration": 0.16667,
            "velocity": 0.7007874015748031
        },
        {
            "name": "D#5",
            "midi": 75,
            "time": 93.33333,
            "duration": 0.16667,
            "velocity": 0.7007874015748031
        },
        {
            "name": "C3",
            "midi": 48,
            "time": 93.33333,
            "duration": 0.05729,
            "velocity": 0.6535433070866141
        },
        {
            "name": "G#5",
            "midi": 80,
            "time": 93.5,
            "duration": 0.16667,
            "velocity": 0.7007874015748031
        },
        {
            "name": "G#6",
            "midi": 92,
            "time": 93.5,
            "duration": 0.16667,
            "velocity": 0.7007874015748031
        },
        {
            "name": "C#2",
            "midi": 37,
            "time": 93.5,
            "duration": 0.50521,
            "velocity": 0.6771653543307087
        },
        {
            "name": "G#2",
            "midi": 44,
            "time": 93.66667,
            "duration": 0.32812,
            "velocity": 0.7559055118110236
        },
        {
            "name": "G6",
            "midi": 91,
            "time": 93.83333,
            "duration": 0.16667,
            "velocity": 0.7007874015748031
        },
        {
            "name": "G5",
            "midi": 79,
            "time": 93.83333,
            "duration": 0.16667,
            "velocity": 0.7007874015748031
        },
        {
            "name": "C#3",
            "midi": 49,
            "time": 93.83333,
            "duration": 0.17188,
            "velocity": 0.6850393700787402
        },
        {
            "name": "F6",
            "midi": 89,
            "time": 94.0,
            "duration": 0.16667,
            "velocity": 0.7007874015748031
        },
        {
            "name": "F5",
            "midi": 77,
            "time": 94.0,
            "duration": 0.16667,
            "velocity": 0.7007874015748031
        },
        {
            "name": "F3",
            "midi": 53,
            "time": 94.0,
            "duration": 0.15625,
            "velocity": 0.6456692913385826
        },
        {
            "name": "C#3",
            "midi": 49,
            "time": 94.16667,
            "duration": 0.10938,
            "velocity": 0.5669291338582677
        },
        {
            "name": "G6",
            "midi": 91,
            "time": 94.33333,
            "duration": 0.16667,
            "velocity": 0.7007874015748031
        },
        {
            "name": "G5",
            "midi": 79,
            "time": 94.33333,
            "duration": 0.16667,
            "velocity": 0.7007874015748031
        },
        {
            "name": "G#2",
            "midi": 44,
            "time": 94.33333,
            "duration": 0.05729,
            "velocity": 0.6535433070866141
        },
        {
            "name": "C5",
            "midi": 72,
            "time": 94.5,
            "duration": 0.16667,
            "velocity": 0.7007874015748031
        },
        {
            "name": "C6",
            "midi": 84,
            "time": 94.5,
            "duration": 0.16667,
            "velocity": 0.7007874015748031
        },
        {
            "name": "G#2",
            "midi": 44,
            "time": 94.5,
            "duration": 0.50521,
            "velocity": 0.6771653543307087
        },
        {
            "name": "D#3",
            "midi": 51,
            "time": 94.66667,
            "duration": 0.32812,
            "velocity": 0.7559055118110236
        },
        {
            "name": "G#3",
            "midi": 56,
            "time": 94.83333,
            "duration": 0.17188,
            "velocity": 0.6850393700787402
        },
        {
            "name": "G#5",
            "midi": 80,
            "time": 95.0,
            "duration": 0.16667,
            "velocity": 0.7007874015748031
        },
        {
            "name": "G#4",
            "midi": 68,
            "time": 95.0,
            "duration": 0.16667,
            "velocity": 0.7007874015748031
        },
        {
            "name": "C4",
            "midi": 60,
            "time": 95.0,
            "duration": 0.15625,
            "velocity": 0.6456692913385826
        },
        {
            "name": "A#5",
            "midi": 82,
            "time": 95.16667,
            "duration": 0.16667,
            "velocity": 0.7007874015748031
        },
        {
            "name": "A#4",
            "midi": 70,
            "time": 95.16667,
            "duration": 0.16667,
            "velocity": 0.7007874015748031
        },
        {
            "name": "G#3",
            "midi": 56,
            "time": 95.16667,
            "duration": 0.10938,
            "velocity": 0.5669291338582677
        },
        {
            "name": "C6",
            "midi": 84,
            "time": 95.33333,
            "duration": 0.16667,
            "velocity": 0.7007874015748031
        },
        {
            "name": "C5",
            "midi": 72,
            "time": 95.33333,
            "duration": 0.16667,
            "velocity": 0.7007874015748031
        },
        {
            "name": "D#3",
            "midi": 51,
            "time": 95.33333,
            "duration": 0.05729,
            "velocity": 0.6535433070866141
        },
        {
            "name": "D#5",
            "midi": 75,
            "time": 95.5,
            "duration": 0.16667,
            "velocity": 0.7007874015748031
        },
        {
            "name": "D#6",
            "midi": 87,
            "time": 95.5,
            "duration": 0.16667,
            "velocity": 0.7007874015748031
        },
        {
            "name": "D#2",
            "midi": 39,
            "time": 95.5,
            "duration": 0.50521,
            "velocity": 0.6771653543307087
        },
        {
            "name": "A#2",
            "midi": 46,
            "time": 95.66667,
            "duration": 0.32812,
            "velocity": 0.7559055118110236
        },
        {
            "name": "C#6",
            "midi": 85,
            "time": 95.83333,
            "duration": 0.16667,
            "velocity": 0.7007874015748031
        },
        {
            "name": "C#5",
            "midi": 73,
            "time": 95.83333,
            "duration": 0.16667,
            "velocity": 0.7007874015748031
        },
        {
            "name": "D#3",
            "midi": 51,
            "time": 95.83333,
            "duration": 0.17188,
            "velocity": 0.6850393700787402
        },
        {
            "name": "C6",
            "midi": 84,
            "time": 96.0,
            "duration": 0.16667,
            "velocity": 0.7007874015748031
        },
        {
            "name": "C5",
            "midi": 72,
            "time": 96.0,
            "duration": 0.16667,
            "velocity": 0.7007874015748031
        },
        {
            "name": "G3",
            "midi": 55,
            "time": 96.0,
            "duration": 0.15625,
            "velocity": 0.6456692913385826
        },
        {
            "name": "D#3",
            "midi": 51,
            "time": 96.16667,
            "duration": 0.10938,
            "velocity": 0.5669291338582677
        },
        {
            "name": "C#6",
            "midi": 85,
            "time": 96.33333,
            "duration": 0.16667,
            "velocity": 0.7007874015748031
        },
        {
            "name": "C#5",
            "midi": 73,
            "time": 96.33333,
            "duration": 0.16667,
            "velocity": 0.7007874015748031
        },
        {
            "name": "A#2",
            "midi": 46,
            "time": 96.33333,
            "duration": 0.05729,
            "velocity": 0.6535433070866141
        },
        {
            "name": "C5",
            "midi": 72,
            "time": 96.5,
            "duration": 0.16667,
            "velocity": 0.7007874015748031
        },
        {
            "name": "C6",
            "midi": 84,
            "time": 96.5,
            "duration": 0.16667,
            "velocity": 0.7007874015748031
        },
        {
            "name": "F2",
            "midi": 41,
            "time": 96.5,
            "duration": 0.50521,
            "velocity": 0.6771653543307087
        },
        {
            "name": "C3",
            "midi": 48,
            "time": 96.66667,
            "duration": 0.32812,
            "velocity": 0.7559055118110236
        },
        {
            "name": "F3",
            "midi": 53,
            "time": 96.83333,
            "duration": 0.17188,
            "velocity": 0.6850393700787402
        },
        {
            "name": "A#5",
            "midi": 82,
            "time": 97.0,
            "duration": 0.16667,
            "velocity": 0.7007874015748031
        },
        {
            "name": "A#4",
            "midi": 70,
            "time": 97.0,
            "duration": 0.16667,
            "velocity": 0.7007874015748031
        },
        {
            "name": "G#3",
            "midi": 56,
            "time": 97.0,
            "duration": 0.15625,
            "velocity": 0.6456692913385826
        },
        {
            "name": "F3",
            "midi": 53,
            "time": 97.16667,
            "duration": 0.10938,
            "velocity": 0.5669291338582677
        },
        {
            "name": "C3",
            "midi": 48,
            "time": 97.33333,
            "duration": 0.05729,
            "velocity": 0.6535433070866141
        },
        {
            "name": "C#6",
            "midi": 85,
            "time": 97.5,
            "duration": 0.16667,
            "velocity": 0.7007874015748031
        },
        {
            "name": "C#5",
            "midi": 73,
            "time": 97.5,
            "duration": 0.16667,
            "velocity": 0.7007874015748031
        },
        {
            "name": "C#2",
            "midi": 37,
            "time": 97.5,
            "duration": 0.50521,
            "velocity": 0.6771653543307087
        },
        {
            "name": "G#2",
            "midi": 44,
            "time": 97.66667,
            "duration": 0.32812,
            "velocity": 0.7559055118110236
        },
        {
            "name": "C#3",
            "midi": 49,
            "time": 97.83333,
            "duration": 0.17188,
            "velocity": 0.6850393700787402
        },
        {
            "name": "C6",
            "midi": 84,
            "time": 98.0,
            "duration": 0.16667,
            "velocity": 0.7007874015748031
        },
        {
            "name": "C5",
            "midi": 72,
            "time": 98.0,
            "duration": 0.16667,
            "velocity": 0.7007874015748031
        },
        {
            "name": "F3",
            "midi": 53,
            "time": 98.0,
            "duration": 0.15625,
            "velocity": 0.6456692913385826
        },
        {
            "name": "C#3",
            "midi": 49,
            "time": 98.16667,
            "duration": 0.10938,
            "velocity": 0.5669291338582677
        },
        {
            "name": "G#5",
            "midi": 80,
            "time": 98.33333,
            "duration": 0.08333,
            "velocity": 0.7007874015748031
        },
        {
            "name": "G#4",
            "midi": 68,
            "time": 98.33333,
            "duration": 0.08333,
            "velocity": 0.7007874015748031
        },
        {
            "name": "G#2",
            "midi": 44,
            "time": 98.33333,
            "duration": 0.05729,
            "velocity": 0.6535433070866141
        },
        {
            "name": "A#4",
            "midi": 70,
            "time": 98.41667,
            "duration": 0.08333,
            "velocity": 0.7007874015748031
        },
        {
            "name": "A#5",
            "midi": 82,
            "time": 98.41667,
            "duration": 0.08333,
            "velocity": 0.7007874015748031
        },
        {
            "name": "C5",
            "midi": 72,
            "time": 98.5,
            "duration": 0.08333,
            "velocity": 0.7007874015748031
        },
        {
            "name": "C6",
            "midi": 84,
            "time": 98.5,
            "duration": 0.08333,
            "velocity": 0.7007874015748031
        },
        {
            "name": "G#2",
            "midi": 44,
            "time": 98.5,
            "duration": 0.50521,
            "velocity": 0.7952755905511811
        },
        {
            "name": "D#3",
            "midi": 51,
            "time": 98.66667,
            "duration": 0.32812,
            "velocity": 0.7559055118110236
        },
        {
            "name": "G#3",
            "midi": 56,
            "time": 98.83333,
            "duration": 0.17188,
            "velocity": 0.6850393700787402
        },
        {
            "name": "A#4",
            "midi": 70,
            "time": 99.0,
            "duration": 0.08333,
            "velocity": 0.7007874015748031
        },
        {
            "name": "A#5",
            "midi": 82,
            "time": 99.0,
            "duration": 0.08333,
            "velocity": 0.7007874015748031
        },
        {
            "name": "C4",
            "midi": 60,
            "time": 99.0,
            "duration": 0.15625,
            "velocity": 0.6456692913385826
        },
        {
            "name": "G#3",
            "midi": 56,
            "time": 99.16667,
            "duration": 0.10938,
            "velocity": 0.5669291338582677
        },
        {
            "name": "D#3",
            "midi": 51,
            "time": 99.33333,
            "duration": 0.05729,
            "velocity": 0.6535433070866141
        },
        {
            "name": "A#5",
            "midi": 82,
            "time": 99.5,
            "duration": 0.08333,
            "velocity": 0.7007874015748031
        },
        {
            "name": "A#4",
            "midi": 70,
            "time": 99.5,
            "duration": 0.08333,
            "velocity": 0.7007874015748031
        },
        {
            "name": "D#2",
            "midi": 39,
            "time": 99.5,
            "duration": 0.50521,
            "velocity": 0.7007874015748031
        },
        {
            "name": "A#2",
            "midi": 46,
            "time": 99.66667,
            "duration": 0.32812,
            "velocity": 0.7559055118110236
        },
        {
            "name": "D#3",
            "midi": 51,
            "time": 99.83333,
            "duration": 0.17188,
            "velocity": 0.6850393700787402
        },
        {
            "name": "G#4",
            "midi": 68,
            "time": 100.0,
            "duration": 0.08333,
            "velocity": 0.7007874015748031
        },
        {
            "name": "G#5",
            "midi": 80,
            "time": 100.0,
            "duration": 0.08333,
            "velocity": 0.7007874015748031
        },
        {
            "name": "G3",
            "midi": 55,
            "time": 100.0,
            "duration": 0.15625,
            "velocity": 0.6456692913385826
        },
        {
            "name": "D#3",
            "midi": 51,
            "time": 100.16667,
            "duration": 0.10938,
            "velocity": 0.5669291338582677
        },
        {
            "name": "G#5",
            "midi": 80,
            "time": 100.33333,
            "duration": 0.08333,
            "velocity": 0.7007874015748031
        },
        {
            "name": "G#4",
            "midi": 68,
            "time": 100.33333,
            "duration": 0.08333,
            "velocity": 0.7007874015748031
        },
        {
            "name": "A#2",
            "midi": 46,
            "time": 100.33333,
            "duration": 0.05729,
            "velocity": 0.6535433070866141
        },
        {
            "name": "G#5",
            "midi": 80,
            "time": 100.5,
            "duration": 0.08333,
            "velocity": 0.7007874015748031
        },
        {
            "name": "G#4",
            "midi": 68,
            "time": 100.5,
            "duration": 0.08333,
            "velocity": 0.7007874015748031
        },
        {
            "name": "G#3",
            "midi": 56,
            "time": 100.5,
            "duration": 0.15625,
            "velocity": 0.4566929133858268
        },
        {
            "name": "D#4",
            "midi": 63,
            "time": 100.66667,
            "duration": 0.06771,
            "velocity": 0.007874015748031496
        },
        {
            "name": "G#3",
            "midi": 56,
            "time": 100.83333,
            "duration": 0.08333,
            "velocity": 0.44881889763779526
        },
        {
            "name": "D#4",
            "midi": 63,
            "time": 101.0,
            "duration": 0.05729,
            "velocity": 0.44881889763779526
        },
        {
            "name": "G#3",
            "midi": 56,
            "time": 101.16667,
            "duration": 0.07812,
            "velocity": 0.3464566929133858
        },
        {
            "name": "D#4",
            "midi": 63,
            "time": 101.33333,
            "duration": 0.0625,
            "velocity": 0.44881889763779526
        },
        {
            "name": "G#3",
            "midi": 56,
            "time": 101.5,
            "duration": 0.08333,
            "velocity": 0.5511811023622047
        },
        {
            "name": "D#4",
            "midi": 63,
            "time": 101.66667,
            "duration": 0.0625,
            "velocity": 0.5354330708661418
        },
        {
            "name": "G#3",
            "midi": 56,
            "time": 101.83333,
            "duration": 0.07292,
            "velocity": 0.4015748031496063
        },
        {
            "name": "C5",
            "midi": 72,
            "time": 102.0,
            "duration": 0.16667,
            "velocity": 0.6692913385826772
        },
        {
            "name": "D#4",
            "midi": 63,
            "time": 102.0,
            "duration": 0.0625,
            "velocity": 0.5669291338582677
        },
        {
            "name": "A#4",
            "midi": 70,
            "time": 102.16667,
            "duration": 0.16667,
            "velocity": 0.6692913385826772
        },
        {
            "name": "G#3",
            "midi": 56,
            "time": 102.16667,
            "duration": 0.08854,
            "velocity": 0.44881889763779526
        },
        {
            "name": "G#4",
            "midi": 68,
            "time": 102.33333,
            "duration": 0.16667,
            "velocity": 0.6692913385826772
        },
        {
            "name": "D#4",
            "midi": 63,
            "time": 102.33333,
            "duration": 0.06771,
            "velocity": 0.4881889763779528
        },
        {
            "name": "A#4",
            "midi": 70,
            "time": 102.5,
            "duration": 0.16667,
            "velocity": 0.6692913385826772
        },
        {
            "name": "F3",
            "midi": 53,
            "time": 102.5,
            "duration": 0.125,
            "velocity": 0.48031496062992124
        },
        {
            "name": "D#4",
            "midi": 63,
            "time": 102.66667,
            "duration": 0.07812,
            "velocity": 0.49606299212598426
        },
        {
            "name": "A#4",
            "midi": 70,
            "time": 102.79167,
            "duration": 0.04167,
            "velocity": 0.6692913385826772
        },
        {
            "name": "G#4",
            "midi": 68,
            "time": 102.83333,
            "duration": 0.16667,
            "velocity": 0.6692913385826772
        },
        {
            "name": "F3",
            "midi": 53,
            "time": 102.83333,
            "duration": 0.10417,
            "velocity": 0.4566929133858268
        },
        {
            "name": "C4",
            "midi": 60,
            "time": 103.0,
            "duration": 0.04688,
            "velocity": 0.3937007874015748
        },
        {
            "name": "F3",
            "midi": 53,
            "time": 103.16667,
            "duration": 0.13021,
            "velocity": 0.1968503937007874
        },
        {
            "name": "D#4",
            "midi": 63,
            "time": 103.33333,
            "duration": 0.06771,
            "velocity": 0.5354330708661418
        },
        {
            "name": "F3",
            "midi": 53,
            "time": 103.5,
            "duration": 0.14583,
            "velocity": 0.4015748031496063
        },
        {
            "name": "D#4",
            "midi": 63,
            "time": 103.66667,
            "duration": 0.07292,
            "velocity": 0.4251968503937008
        },
        {
            "name": "F3",
            "midi": 53,
            "time": 103.83333,
            "duration": 0.13021,
            "velocity": 0.25984251968503935
        },
        {
            "name": "D#4",
            "midi": 63,
            "time": 104.0,
            "duration": 0.08333,
            "velocity": 0.6692913385826772
        },
        {
            "name": "C4",
            "midi": 60,
            "time": 104.0,
            "duration": 0.05208,
            "velocity": 0.44881889763779526
        },
        {
            "name": "F4",
            "midi": 65,
            "time": 104.08333,
            "duration": 0.08333,
            "velocity": 0.6692913385826772
        },
        {
            "name": "G#4",
            "midi": 68,
            "time": 104.16667,
            "duration": 0.16667,
            "velocity": 0.6692913385826772
        },
        {
            "name": "F3",
            "midi": 53,
            "time": 104.16667,
            "duration": 0.13021,
            "velocity": 0.3543307086614173
        },
        {
            "name": "A#4",
            "midi": 70,
            "time": 104.33333,
            "duration": 0.16667,
            "velocity": 0.6692913385826772
        },
        {
            "name": "D#4",
            "midi": 63,
            "time": 104.33333,
            "duration": 0.07292,
            "velocity": 0.5905511811023622
        },
        {
            "name": "C5",
            "midi": 72,
            "time": 104.5,
            "duration": 0.16667,
            "velocity": 0.6692913385826772
        },
        {
            "name": "C#3",
            "midi": 49,
            "time": 104.5,
            "duration": 0.11458,
            "velocity": 0.6377952755905512
        },
        {
            "name": "G#3",
            "midi": 56,
            "time": 104.66667,
            "duration": 0.07292,
            "velocity": 0.49606299212598426
        },
        {
            "name": "C#3",
            "midi": 49,
            "time": 104.83333,
            "duration": 0.11458,
            "velocity": 0.28346456692913385
        },
        {
            "name": "A#4",
            "midi": 70,
            "time": 105.0,
            "duration": 0.16667,
            "velocity": 0.6692913385826772
        },
        {
            "name": "G#3",
            "midi": 56,
            "time": 105.0,
            "duration": 0.08333,
            "velocity": 0.5196850393700787
        },
        {
            "name": "G#4",
            "midi": 68,
            "time": 105.16667,
            "duration": 0.16667,
            "velocity": 0.6692913385826772
        },
        {
            "name": "C#3",
            "midi": 49,
            "time": 105.16667,
            "duration": 0.08854,
            "velocity": 0.3779527559055118
        },
        {
            "name": "A#4",
            "midi": 70,
            "time": 105.33333,
            "duration": 0.16667,
            "velocity": 0.6692913385826772
        },
        {
            "name": "G#3",
            "midi": 56,
            "time": 105.33333,
            "duration": 0.06771,
            "velocity": 0.5905511811023622
        },
        {
            "name": "C#5",
            "midi": 73,
            "time": 105.5,
            "duration": 0.16667,
            "velocity": 0.6692913385826772
        },
        {
            "name": "C#3",
            "midi": 49,
            "time": 105.5,
            "duration": 0.08333,
            "velocity": 0.5669291338582677
        },
        {
            "name": "G#3",
            "midi": 56,
            "time": 105.66667,
            "duration": 0.0625,
            "velocity": 0.5984251968503937
        },
        {
            "name": "C#3",
            "midi": 49,
            "time": 105.83333,
            "duration": 0.07292,
            "velocity": 0.5354330708661418
        },
        {
            "name": "G#4",
            "midi": 68,
            "time": 106.0,
            "duration": 0.16667,
            "velocity": 0.6692913385826772
        },
        {
            "name": "G#3",
            "midi": 56,
            "time": 106.0,
            "duration": 0.07812,
            "velocity": 0.5669291338582677
        },
        {
            "name": "A#4",
            "midi": 70,
            "time": 106.16667,
            "duration": 0.16667,
            "velocity": 0.6692913385826772
        },
        {
            "name": "C#3",
            "midi": 49,
            "time": 106.16667,
            "duration": 0.07812,
            "velocity": 0.5354330708661418
        },
        {
            "name": "A#4",
            "midi": 70,
            "time": 106.33333,
            "duration": 0.16667,
            "velocity": 0.6692913385826772
        },
        {
            "name": "G#3",
            "midi": 56,
            "time": 106.33333,
            "duration": 0.06771,
            "velocity": 0.49606299212598426
        },
        {
            "name": "A#4",
            "midi": 70,
            "time": 106.5,
            "duration": 0.16667,
            "velocity": 0.6692913385826772
        },
        {
            "name": "D#3",
            "midi": 51,
            "time": 106.5,
            "duration": 0.13021,
            "velocity": 0.5196850393700787
        },
        {
            "name": "A#3",
            "midi": 58,
            "time": 106.66667,
            "duration": 0.07292,
            "velocity": 0.5354330708661418
        },
        {
            "name": "D#3",
            "midi": 51,
            "time": 106.83333,
            "duration": 0.19271,
            "velocity": 0.4645669291338583
        },
        {
            "name": "D#4",
            "midi": 63,
            "time": 107.0,
            "duration": 0.07812,
            "velocity": 0.5118110236220472
        },
        {
            "name": "D#3",
            "midi": 51,
            "time": 107.16667,
            "duration": 0.14583,
            "velocity": 0.48031496062992124
        },
        {
            "name": "A#3",
            "midi": 58,
            "time": 107.33333,
            "duration": 0.06771,
            "velocity": 0.5196850393700787
        },
        {
            "name": "D#5",
            "midi": 75,
            "time": 107.5,
            "duration": 0.16667,
            "velocity": 0.7007874015748031
        },
        {
            "name": "D#3",
            "midi": 51,
            "time": 107.5,
            "duration": 0.13542,
            "velocity": 0.47244094488188976
        },
        {
            "name": "F5",
            "midi": 77,
            "time": 108.0,
            "duration": 0.16667,
            "velocity": 0.7007874015748031
        },
        {
            "name": "D#5",
            "midi": 75,
            "time": 108.16667,
            "duration": 0.16667,
            "velocity": 0.7007874015748031
        },
        {
            "name": "C5",
            "midi": 72,
            "time": 108.33333,
            "duration": 0.16667,
            "velocity": 0.7007874015748031
        },
        {
            "name": "C5",
            "midi": 72,
            "time": 108.5,
            "duration": 0.16667,
            "velocity": 0.7007874015748031
        },
        {
            "name": "F2",
            "midi": 41,
            "time": 108.5,
            "duration": 0.50521,
            "velocity": 0.8031496062992126
        },
        {
            "name": "C3",
            "midi": 48,
            "time": 108.66667,
            "duration": 0.32812,
            "velocity": 0.7244094488188977
        },
        {
            "name": "F3",
            "midi": 53,
            "time": 108.83333,
            "duration": 0.17188,
            "velocity": 0.7559055118110236
        },
        {
            "name": "G#3",
            "midi": 56,
            "time": 109.0,
            "duration": 0.15625,
            "velocity": 0.7007874015748031
        },
        {
            "name": "F3",
            "midi": 53,
            "time": 109.16667,
            "duration": 0.10938,
            "velocity": 0.6220472440944882
        },
        {
            "name": "C3",
            "midi": 48,
            "time": 109.33333,
            "duration": 0.05729,
            "velocity": 0.7086614173228346
        },
        {
            "name": "G#5",
            "midi": 80,
            "time": 109.5,
            "duration": 0.16667,
            "velocity": 0.7007874015748031
        },
        {
            "name": "C#2",
            "midi": 37,
            "time": 109.5,
            "duration": 0.50521,
            "velocity": 0.7244094488188977
        },
        {
            "name": "G#2",
            "midi": 44,
            "time": 109.66667,
            "duration": 0.32812,
            "velocity": 0.7637795275590551
        },
        {
            "name": "G5",
            "midi": 79,
            "time": 109.83333,
            "duration": 0.16667,
            "velocity": 0.7007874015748031
        },
        {
            "name": "C#3",
            "midi": 49,
            "time": 109.83333,
            "duration": 0.17188,
            "velocity": 0.7559055118110236
        },
        {
            "name": "F5",
            "midi": 77,
            "time": 110.0,
            "duration": 0.16667,
            "velocity": 0.7007874015748031
        },
        {
            "name": "F3",
            "midi": 53,
            "time": 110.0,
            "duration": 0.15625,
            "velocity": 0.7007874015748031
        },
        {
            "name": "C#3",
            "midi": 49,
            "time": 110.16667,
            "duration": 0.10938,
            "velocity": 0.6220472440944882
        },
        {
            "name": "G5",
            "midi": 79,
            "time": 110.33333,
            "duration": 0.16667,
            "velocity": 0.7007874015748031
        },
        {
            "name": "G#2",
            "midi": 44,
            "time": 110.33333,
            "duration": 0.05729,
            "velocity": 0.7086614173228346
        },
        {
            "name": "C5",
            "midi": 72,
            "time": 110.5,
            "duration": 0.16667,
            "velocity": 0.7007874015748031
        },
        {
            "name": "G#2",
            "midi": 44,
            "time": 110.5,
            "duration": 0.50521,
            "velocity": 0.7244094488188977
        },
        {
            "name": "D#3",
            "midi": 51,
            "time": 110.66667,
            "duration": 0.32812,
            "velocity": 0.7244094488188977
        },
        {
            "name": "G#3",
            "midi": 56,
            "time": 110.83333,
            "duration": 0.17188,
            "velocity": 0.7559055118110236
        },
        {
            "name": "C4",
            "midi": 60,
            "time": 111.0,
            "duration": 0.15625,
            "velocity": 0.7007874015748031
        },
        {
            "name": "G#3",
            "midi": 56,
            "time": 111.16667,
            "duration": 0.10938,
            "velocity": 0.6220472440944882
        },
        {
            "name": "D#3",
            "midi": 51,
            "time": 111.33333,
            "duration": 0.05729,
            "velocity": 0.7086614173228346
        },
        {
            "name": "D#5",
            "midi": 75,
            "time": 111.5,
            "duration": 0.16667,
            "velocity": 0.7007874015748031
        },
        {
            "name": "D#2",
            "midi": 39,
            "time": 111.5,
            "duration": 0.50521,
            "velocity": 0.7244094488188977
        },
        {
            "name": "A#2",
            "midi": 46,
            "time": 111.66667,
            "duration": 0.32812,
            "velocity": 0.6850393700787402
        },
        {
            "name": "C#5",
            "midi": 73,
            "time": 111.83333,
            "duration": 0.16667,
            "velocity": 0.7007874015748031
        },
        {
            "name": "D#3",
            "midi": 51,
            "time": 111.83333,
            "duration": 0.17188,
            "velocity": 0.7559055118110236
        },
        {
            "name": "C5",
            "midi": 72,
            "time": 112.0,
            "duration": 0.16667,
            "velocity": 0.7007874015748031
        },
        {
            "name": "G3",
            "midi": 55,
            "time": 112.0,
            "duration": 0.15625,
            "velocity": 0.7007874015748031
        },
        {
            "name": "D#3",
            "midi": 51,
            "time": 112.16667,
            "duration": 0.10938,
            "velocity": 0.6220472440944882
        },
        {
            "name": "A#4",
            "midi": 70,
            "time": 112.33333,
            "duration": 0.16667,
            "velocity": 0.7007874015748031
        },
        {
            "name": "A#2",
            "midi": 46,
            "time": 112.33333,
            "duration": 0.05729,
            "velocity": 0.7086614173228346
        },
        {
            "name": "G#4",
            "midi": 68,
            "time": 112.5,
            "duration": 0.16667,
            "velocity": 0.7007874015748031
        },
        {
            "name": "F2",
            "midi": 41,
            "time": 112.5,
            "duration": 0.50521,
            "velocity": 0.7244094488188977
        },
        {
            "name": "C3",
            "midi": 48,
            "time": 112.66667,
            "duration": 0.32812,
            "velocity": 0.7322834645669292
        },
        {
            "name": "F3",
            "midi": 53,
            "time": 112.83333,
            "duration": 0.17188,
            "velocity": 0.7559055118110236
        },
        {
            "name": "G#3",
            "midi": 56,
            "time": 113.0,
            "duration": 0.15625,
            "velocity": 0.7007874015748031
        },
        {
            "name": "F3",
            "midi": 53,
            "time": 113.16667,
            "duration": 0.10938,
            "velocity": 0.6220472440944882
        },
        {
            "name": "C3",
            "midi": 48,
            "time": 113.33333,
            "duration": 0.05729,
            "velocity": 0.7086614173228346
        },
        {
            "name": "G#5",
            "midi": 80,
            "time": 113.5,
            "duration": 0.16667,
            "velocity": 0.7007874015748031
        },
        {
            "name": "C#2",
            "midi": 37,
            "time": 113.5,
            "duration": 0.50521,
            "velocity": 0.7244094488188977
        },
        {
            "name": "G#2",
            "midi": 44,
            "time": 113.66667,
            "duration": 0.32812,
            "velocity": 0.7086614173228346
        },
        {
            "name": "G5",
            "midi": 79,
            "time": 113.83333,
            "duration": 0.16667,
            "velocity": 0.7007874015748031
        },
        {
            "name": "C#3",
            "midi": 49,
            "time": 113.83333,
            "duration": 0.17188,
            "velocity": 0.7559055118110236
        },
        {
            "name": "F5",
            "midi": 77,
            "time": 114.0,
            "duration": 0.16667,
            "velocity": 0.7007874015748031
        },
        {
            "name": "F3",
            "midi": 53,
            "time": 114.0,
            "duration": 0.15625,
            "velocity": 0.7007874015748031
        },
        {
            "name": "C#3",
            "midi": 49,
            "time": 114.16667,
            "duration": 0.10938,
            "velocity": 0.6220472440944882
        },
        {
            "name": "G#4",
            "midi": 68,
            "time": 114.33333,
            "duration": 0.16667,
            "velocity": 0.7007874015748031
        },
        {
            "name": "G#2",
            "midi": 44,
            "time": 114.33333,
            "duration": 0.05729,
            "velocity": 0.7086614173228346
        },
        {
            "name": "C5",
            "midi": 72,
            "time": 114.5,
            "duration": 0.16667,
            "velocity": 0.7007874015748031
        },
        {
            "name": "G#2",
            "midi": 44,
            "time": 114.5,
            "duration": 0.50521,
            "velocity": 0.7244094488188977
        },
        {
            "name": "D#3",
            "midi": 51,
            "time": 114.66667,
            "duration": 0.32812,
            "velocity": 0.7244094488188977
        },
        {
            "name": "G#3",
            "midi": 56,
            "time": 114.83333,
            "duration": 0.17188,
            "velocity": 0.7559055118110236
        },
        {
            "name": "C4",
            "midi": 60,
            "time": 115.0,
            "duration": 0.15625,
            "velocity": 0.7007874015748031
        },
        {
            "name": "G#3",
            "midi": 56,
            "time": 115.16667,
            "duration": 0.10938,
            "velocity": 0.6220472440944882
        },
        {
            "name": "D#3",
            "midi": 51,
            "time": 115.33333,
            "duration": 0.05729,
            "velocity": 0.7086614173228346
        },
        {
            "name": "D#5",
            "midi": 75,
            "time": 115.5,
            "duration": 0.16667,
            "velocity": 0.7007874015748031
        },
        {
            "name": "D#2",
            "midi": 39,
            "time": 115.5,
            "duration": 0.50521,
            "velocity": 0.7244094488188977
        },
        {
            "name": "D#5",
            "midi": 75,
            "time": 115.66667,
            "duration": 0.16667,
            "velocity": 0.7007874015748031
        },
        {
            "name": "A#2",
            "midi": 46,
            "time": 115.66667,
            "duration": 0.32812,
            "velocity": 0.7165354330708661
        },
        {
            "name": "D#3",
            "midi": 51,
            "time": 115.83333,
            "duration": 0.17188,
            "velocity": 0.7559055118110236
        },
        {
            "name": "D#5",
            "midi": 75,
            "time": 116.0,
            "duration": 0.16667,
            "velocity": 0.7007874015748031
        },
        {
            "name": "G3",
            "midi": 55,
            "time": 116.0,
            "duration": 0.15625,
            "velocity": 0.7007874015748031
        },
        {
            "name": "F5",
            "midi": 77,
            "time": 116.16667,
            "duration": 0.16667,
            "velocity": 0.7007874015748031
        },
        {
            "name": "D#3",
            "midi": 51,
            "time": 116.16667,
            "duration": 0.10938,
            "velocity": 0.6220472440944882
        },
        {
            "name": "A#2",
            "midi": 46,
            "time": 116.33333,
            "duration": 0.05729,
            "velocity": 0.7086614173228346
        },
        {
            "name": "C5",
            "midi": 72,
            "time": 116.5,
            "duration": 0.16667,
            "velocity": 0.7007874015748031
        },
        {
            "name": "F2",
            "midi": 41,
            "time": 116.5,
            "duration": 0.50521,
            "velocity": 0.7244094488188977
        },
        {
            "name": "A#4",
            "midi": 70,
            "time": 116.66667,
            "duration": 0.16667,
            "velocity": 0.7007874015748031
        },
        {
            "name": "C3",
            "midi": 48,
            "time": 116.66667,
            "duration": 0.32812,
            "velocity": 0.7480314960629921
        },
        {
            "name": "G#4",
            "midi": 68,
            "time": 116.83333,
            "duration": 0.16667,
            "velocity": 0.7007874015748031
        },
        {
            "name": "F3",
            "midi": 53,
            "time": 116.83333,
            "duration": 0.17188,
            "velocity": 0.7559055118110236
        },
        {
            "name": "G#3",
            "midi": 56,
            "time": 117.0,
            "duration": 0.15625,
            "velocity": 0.7007874015748031
        },
        {
            "name": "C5",
            "midi": 72,
            "time": 117.16667,
            "duration": 0.16667,
            "velocity": 0.7007874015748031
        },
        {
            "name": "F3",
            "midi": 53,
            "time": 117.16667,
            "duration": 0.10938,
            "velocity": 0.6220472440944882
        },
        {
            "name": "D#5",
            "midi": 75,
            "time": 117.33333,
            "duration": 0.16667,
            "velocity": 0.7007874015748031
        },
        {
            "name": "C3",
            "midi": 48,
            "time": 117.33333,
            "duration": 0.05729,
            "velocity": 0.7086614173228346
        },
        {
            "name": "F5",
            "midi": 77,
            "time": 117.5,
            "duration": 0.16667,
            "velocity": 0.7007874015748031
        },
        {
            "name": "C#2",
            "midi": 37,
            "time": 117.5,
            "duration": 0.50521,
            "velocity": 0.7244094488188977
        },
        {
            "name": "G#2",
            "midi": 44,
            "time": 117.66667,
            "duration": 0.32812,
            "velocity": 0.7244094488188977
        },
        {
            "name": "F5",
            "midi": 77,
            "time": 117.83333,
            "duration": 0.16667,
            "velocity": 0.7007874015748031
        },
        {
            "name": "C#3",
            "midi": 49,
            "time": 117.83333,
            "duration": 0.17188,
            "velocity": 0.7559055118110236
        },
        {
            "name": "F5",
            "midi": 77,
            "time": 118.0,
            "duration": 0.16667,
            "velocity": 0.7007874015748031
        },
        {
            "name": "F3",
            "midi": 53,
            "time": 118.0,
            "duration": 0.15625,
            "velocity": 0.7007874015748031
        },
        {
            "name": "C#3",
            "midi": 49,
            "time": 118.16667,
            "duration": 0.10938,
            "velocity": 0.6220472440944882
        },
        {
            "name": "D#5",
            "midi": 75,
            "time": 118.33333,
            "duration": 0.16667,
            "velocity": 0.7007874015748031
        },
        {
            "name": "G#2",
            "midi": 44,
            "time": 118.33333,
            "duration": 0.05729,
            "velocity": 0.7086614173228346
        },
        {
            "name": "C5",
            "midi": 72,
            "time": 118.5,
            "duration": 0.16667,
            "velocity": 0.7007874015748031
        },
        {
            "name": "G#2",
            "midi": 44,
            "time": 118.5,
            "duration": 0.50521,
            "velocity": 0.7244094488188977
        },
        {
            "name": "D#3",
            "midi": 51,
            "time": 118.66667,
            "duration": 0.32812,
            "velocity": 0.6929133858267716
        },
        {
            "name": "G#3",
            "midi": 56,
            "time": 118.83333,
            "duration": 0.17188,
            "velocity": 0.7559055118110236
        },
        {
            "name": "G#4",
            "midi": 68,
            "time": 119.0,
            "duration": 0.16667,
            "velocity": 0.7007874015748031
        },
        {
            "name": "C4",
            "midi": 60,
            "time": 119.0,
            "duration": 0.15625,
            "velocity": 0.7007874015748031
        },
        {
            "name": "A#4",
            "midi": 70,
            "time": 119.16667,
            "duration": 0.16667,
            "velocity": 0.7007874015748031
        },
        {
            "name": "G#3",
            "midi": 56,
            "time": 119.16667,
            "duration": 0.10938,
            "velocity": 0.6220472440944882
        },
        {
            "name": "C5",
            "midi": 72,
            "time": 119.33333,
            "duration": 0.16667,
            "velocity": 0.7007874015748031
        },
        {
            "name": "D#3",
            "midi": 51,
            "time": 119.33333,
            "duration": 0.05729,
            "velocity": 0.7086614173228346
        },
        {
            "name": "D#5",
            "midi": 75,
            "time": 119.5,
            "duration": 0.16667,
            "velocity": 0.7007874015748031
        },
        {
            "name": "D#2",
            "midi": 39,
            "time": 119.5,
            "duration": 0.50521,
            "velocity": 0.7244094488188977
        },
        {
            "name": "A#2",
            "midi": 46,
            "time": 119.66667,
            "duration": 0.32812,
            "velocity": 0.7165354330708661
        },
        {
            "name": "C#5",
            "midi": 73,
            "time": 119.83333,
            "duration": 0.16667,
            "velocity": 0.7007874015748031
        },
        {
            "name": "D#3",
            "midi": 51,
            "time": 119.83333,
            "duration": 0.17188,
            "velocity": 0.7559055118110236
        },
        {
            "name": "C5",
            "midi": 72,
            "time": 120.0,
            "duration": 0.16667,
            "velocity": 0.7007874015748031
        },
        {
            "name": "G3",
            "midi": 55,
            "time": 120.0,
            "duration": 0.15625,
            "velocity": 0.7007874015748031
        }
    ]
}