{
    "tempo_bpm": 183.0,
    "total_time": 119.99,
    "notes": [
        {
            "name": "B4",
            "midi": 71,
            "time": 0.0,
            "duration": 0.16393,
            "velocity": 0.3858267716535433
        },
        {
            "name": "C#5",
            "midi": 73,
            "time": 0.16393,
            "duration": 0.16393,
            "velocity": 0.3464566929133858
        },
        {
            "name": "F#5",
            "midi": 78,
            "time": 0.32787,
            "duration": 0.16393,
            "velocity": 0.36220472440944884
        },
        {
            "name": "B4",
            "midi": 71,
            "time": 0.4918,
            "duration": 0.16393,
            "velocity": 0.3543307086614173
        },
        {
            "name": "C#5",
            "midi": 73,
            "time": 0.65574,
            "duration": 0.16393,
            "velocity": 0.33070866141732286
        },
        {
            "name": "F#5",
            "midi": 78,
            "time": 0.81967,
            "duration": 0.16393,
            "velocity": 0.3858267716535433
        },
        {
            "name": "B4",
            "midi": 71,
            "time": 0.98361,
            "duration": 0.16393,
            "velocity": 0.33070866141732286
        },
        {
            "name": "C#5",
            "midi": 73,
            "time": 1.14754,
            "duration": 0.16393,
            "velocity": 0.3228346456692913
        },
        {
            "name": "F#5",
            "midi": 78,
            "time": 1.31148,
            "duration": 0.16393,
            "velocity": 0.3937007874015748
        },
        {
            "name": "B4",
            "midi": 71,
            "time": 1.47541,
            "duration": 0.16393,
            "velocity": 0.3228346456692913
        },
        {
            "name": "C#5",
            "midi": 73,
            "time": 1.63934,
            "duration": 0.16393,
            "velocity": 0.3228346456692913
        },
        {
            "name": "F#5",
            "midi": 78,
            "time": 1.80328,
            "duration": 0.16393,
            "velocity": 0.3937007874015748
        },
        {
            "name": "B4",
            "midi": 71,
            "time": 1.96721,
            "duration": 0.16393,
            "velocity": 0.3228346456692913
        },
        {
            "name": "C#5",
            "midi": 73,
            "time": 2.13115,
            "duration": 0.16393,
            "velocity": 0.31496062992125984
        },
        {
            "name": "F#5",
            "midi": 78,
            "time": 2.29508,
            "duration": 0.16393,
            "velocity": 0.3937007874015748
        },
        {
            "name": "B4",
            "midi": 71,
            "time": 2.45902,
            "duration": 0.16393,
            "velocity": 0.3228346456692913
        },
        {
            "name": "C#5",
            "midi": 73,
            "time": 2.62295,
            "duration": 0.16393,
            "velocity": 0.31496062992125984
        },
        {
            "name": "F#5",
            "midi": 78,
            "time": 2.78689,
            "duration": 0.16393,
            "velocity": 0.3937007874015748
        },
        {
            "name": "B4",
            "midi": 71,
            "time": 2.95082,
            "duration": 0.16393,
            "velocity": 0.3228346456692913
        },
        {
            "name": "C#5",
            "midi": 73,
            "time": 3.11476,
            "duration": 0.16393,
            "velocity": 0.31496062992125984
        },
        {
            "name": "F#5",
            "midi": 78,
            "time": 3.27869,
            "duration": 0.16393,
            "velocity": 0.3937007874015748
        },
        {
            "name": "B4",
            "midi": 71,
            "time": 3.44262,
            "duration": 0.16393,
            "velocity": 0.3228346456692913
        },
        {
            "name": "C#5",
            "midi": 73,
            "time": 3.60656,
            "duration": 0.16393,
            "velocity": 0.31496062992125984
        },
        {
            "name": "F#5",
            "midi": 78,
            "time": 3.77049,
            "duration": 0.16393,
            "velocity": 0.3937007874015748
        },
        {
            "name": "B4",
            "midi": 71,
            "time": 3.93443,
            "duration": 0.16393,
            "velocity": 0.3228346456692913
        },
        {
            "name": "D#3",
            "midi": 51,
            "time": 3.93443,
            "duration": 1.00273,
            "velocity": 0.4015748031496063
        },
        {
            "name": "C#5",
            "midi": 73,
            "time": 4.09836,
            "duration": 0.16393,
            "velocity": 0.31496062992125984
        },
        {
            "name": "F#5",
            "midi": 78,
            "time": 4.2623,
            "duration": 0.16393,
            "velocity": 0.3937007874015748
        },
        {
            "name": "B4",
            "midi": 71,
            "time": 4.42623,
            "duration": 0.16393,
            "velocity": 0.3228346456692913
        },
        {
            "name": "C#5",
            "midi": 73,
            "time": 4.59017,
            "duration": 0.16393,
            "velocity": 0.31496062992125984
        },
        {
            "name": "F#5",
            "midi": 78,
            "time": 4.7541,
            "duration": 0.16393,
            "velocity": 0.3937007874015748
        },
        {
            "name": "B4",
            "midi": 71,
            "time": 4.91804,
            "duration": 0.16393,
            "velocity": 0.3228346456692913
        },
        {
            "name": "D#4",
            "midi": 63,
            "time": 4.91804,
            "duration": 0.93374,
            "velocity": 0.4251968503937008
        },
        {
            "name": "C#5",
            "midi": 73,
            "time": 5.08197,
            "duration": 0.16393,
            "velocity": 0.31496062992125984
        },
        {
            "name": "F#5",
            "midi": 78,
            "time": 5.2459,
            "duration": 0.16393,
            "velocity": 0.3937007874015748
        },
        {
            "name": "B4",
            "midi": 71,
            "time": 5.40984,
            "duration": 0.16393,
            "velocity": 0.3228346456692913
        },
        {
            "name": "C#5",
            "midi": 73,
            "time": 5.57377,
            "duration": 0.16393,
            "velocity": 0.31496062992125984
        },
        {
            "name": "F#5",
            "midi": 78,
            "time": 5.73771,
            "duration": 0.16393,
            "velocity": 0.3937007874015748
        },
        {
            "name": "B4",
            "midi": 71,
            "time": 5.90164,
            "duration": 0.16393,
            "velocity": 0.3228346456692913
        },
        {
            "name": "E3",
            "midi": 52,
            "time": 5.90164,
            "duration": 1.00273,
            "velocity": 0.3858267716535433
        },
        {
            "name": "C#5",
            "midi": 73,
            "time": 6.06558,
            "duration": 0.16393,
            "velocity": 0.31496062992125984
        },
        {
            "name": "F#5",
            "midi": 78,
            "time": 6.22951,
            "duration": 0.16393,
            "velocity": 0.3937007874015748
        },
        {
            "name": "B4",
            "midi": 71,
            "time": 6.39345,
            "duration": 0.16393,
            "velocity": 0.3228346456692913
        },
        {
            "name": "C#5",
            "midi": 73,
            "time": 6.55738,
            "duration": 0.16393,
            "velocity": 0.31496062992125984
        },
        {
            "name": "F#5",
            "midi": 78,
            "time": 6.72131,
            "duration": 0.16393,
            "velocity": 0.3937007874015748
        },
        {
            "name": "B4",
            "midi": 71,
            "time": 6.88525,
            "duration": 0.16393,
            "velocity": 0.3228346456692913
        },
        {
            "name": "E4",
            "midi": 64,
            "time": 6.88525,
            "duration": 0.93374,
            "velocity": 0.4251968503937008
        },
        {
            "name": "C#5",
            "midi": 73,
            "time": 7.04918,
            "duration": 0.16393,
            "velocity": 0.31496062992125984
        },
        {
            "name": "F#5",
            "midi": 78,
            "time": 7.21312,
            "duration": 0.16393,
            "velocity": 0.3937007874015748
        },
        {
            "name": "B4",
            "midi": 71,
            "time": 7.37705,
            "duration": 0.16393,
            "velocity": 0.3228346456692913
        },
        {
            "name": "C#5",
            "midi": 73,
            "time": 7.54099,
            "duration": 0.16393,
            "velocity": 0.31496062992125984
        },
        {
            "name": "F#5",
            "midi": 78,
            "time": 7.70492,
            "duration": 0.16393,
            "velocity": 0.3937007874015748
        },
        {
            "name": "B4",
            "midi": 71,
            "time": 7.86886,
            "duration": 0.16393,
            "velocity": 0.3228346456692913
        },
        {
            "name": "F#3",
            "midi": 54,
            "time": 7.86886,
            "duration": 1.00273,
            "velocity": 0.3858267716535433
        },
        {
            "name": "C#5",
            "midi": 73,
            "time": 8.03279,
            "duration": 0.16393,
            "velocity": 0.31496062992125984
        },
        {
            "name": "F#5",
            "midi": 78,
            "time": 8.19672,
            "duration": 0.16393,
            "velocity": 0.3937007874015748
        },
        {
            "name": "B4",
            "midi": 71,
            "time": 8.36066,
            "duration": 0.16393,
            "velocity": 0.3228346456692913
        },
        {
            "name": "C#5",
            "midi": 73,
            "time": 8.52459,
            "duration": 0.16393,
            "velocity": 0.31496062992125984
        },
        {
            "name": "F#5",
            "midi": 78,
            "time": 8.68853,
            "duration": 0.16393,
            "velocity": 0.3937007874015748
        },
        {
            "name": "B4",
            "midi": 71,
            "time": 8.85246,
            "duration": 0.16393,
            "velocity": 0.3228346456692913
        },
        {
            "name": "F#4",
            "midi": 66,
            "time": 8.85246,
            "duration": 0.98361,
            "velocity": 0.4251968503937008
        },
        {
            "name": "C#5",
            "midi": 73,
            "time": 9.0164,
            "duration": 0.16393,
            "velocity": 0.31496062992125984
        },
        {
            "name": "F#5",
            "midi": 78,
            "time": 9.18033,
            "duration": 0.16393,
            "velocity": 0.3937007874015748
        },
        {
            "name": "B4",
            "midi": 71,
            "time": 9.34427,
            "duration": 0.16393,
            "velocity": 0.3228346456692913
        },
        {
            "name": "C#5",
            "midi": 73,
            "time": 9.5082,
            "duration": 0.16393,
            "velocity": 0.31496062992125984
        },
        {
            "name": "F#5",
            "midi": 78,
            "time": 9.67214,
            "duration": 0.16393,
            "velocity": 0.3937007874015748
        },
        {
            "name": "B4",
            "midi": 71,
            "time": 9.83607,
            "duration": 0.16393,
            "velocity": 0.3228346456692913
        },
        {
            "name": "F#4",
            "midi": 66,
            "time": 9.83607,
            "duration": 0.98361,
            "velocity": 0.4094488188976378
        },
        {
            "name": "C#5",
            "midi": 73,
            "time": 10.0,
            "duration": 0.16393,
            "velocity": 0.31496062992125984
        },
        {
            "name": "F#5",
            "midi": 78,
            "time": 10.16394,
            "duration": 0.16393,
            "velocity": 0.3937007874015748
        },
        {
            "name": "B4",
            "midi": 71,
            "time": 10.32787,
            "duration": 0.16393,
            "velocity": 0.3228346456692913
        },
        {
            "name": "C#5",
            "midi": 73,
            "time": 10.49181,
            "duration": 0.16393,
            "velocity": 0.31496062992125984
        },
        {
            "name": "F#5",
            "midi": 78,
            "time": 10.65574,
            "duration": 0.16393,
            "velocity": 0.3937007874015748
        },
        {
            "name": "B4",
            "midi": 71,
            "time": 10.81968,
            "duration": 0.16393,
            "velocity": 0.3228346456692913
        },
        {
            "name": "F#4",
            "midi": 66,
            "time": 10.81968,
            "duration": 0.46619,
            "velocity": 0.4015748031496063
        },
        {
            "name": "C#5",
            "midi": 73,
            "time": 10.98361,
            "duration": 0.16393,
            "velocity": 0.31496062992125984
        },
        {
            "name": "F#5",
            "midi": 78,
            "time": 11.14755,
            "duration": 0.16393,
            "velocity": 0.3937007874015748
        },
        {
            "name": "B4",
            "midi": 71,
            "time": 11.31148,
            "duration": 0.16393,
            "velocity": 0.3228346456692913
        },
        {
            "name": "E3",
            "midi": 52,
            "time": 11.31148,
            "duration": 0.4918,
            "velocity": 0.3543307086614173
        },
        {
            "name": "C#5",
            "midi": 73,
            "time": 11.47542,
            "duration": 0.16393,
            "velocity": 0.31496062992125984
        },
        {
            "name": "F#5",
            "midi": 78,
            "time": 11.63935,
            "duration": 0.16393,
            "velocity": 0.3937007874015748
        },
        {
            "name": "B4",
            "midi": 71,
            "time": 11.80328,
            "duration": 0.16393,
            "velocity": 0.3228346456692913
        },
        {
            "name": "D#3",
            "midi": 51,
            "time": 11.80328,
            "duration": 1.00273,
            "velocity": 0.3779527559055118
        },
        {
            "name": "C#5",
            "midi": 73,
            "time": 11.96722,
            "duration": 0.16393,
            "velocity": 0.31496062992125984
        },
        {
            "name": "F#5",
            "midi": 78,
            "time": 12.13115,
            "duration": 0.16393,
            "velocity": 0.3937007874015748
        },
        {
            "name": "B4",
            "midi": 71,
            "time": 12.29509,
            "duration": 0.16393,
            "velocity": 0.3228346456692913
        },
        {
            "name": "C#5",
            "midi": 73,
            "time": 12.45902,
            "duration": 0.16393,
            "velocity": 0.31496062992125984
        },
        {
            "name": "F#5",
            "midi": 78,
            "time": 12.62296,
            "duration": 0.16393,
            "velocity": 0.3937007874015748
        },
        {
            "name": "B4",
            "midi": 71,
            "time": 12.78689,
            "duration": 0.16393,
            "velocity": 0.3228346456692913
        },
        {
            "name": "D#4",
            "midi": 63,
            "time": 12.78689,
            "duration": 0.93374,
            "velocity": 0.4330708661417323
        },
        {
            "name": "C#5",
            "midi": 73,
            "time": 12.95083,
            "duration": 0.16393,
            "velocity": 0.31496062992125984
        },
        {
            "name": "F#5",
            "midi": 78,
            "time": 13.11476,
            "duration": 0.16393,
            "velocity": 0.3937007874015748
        },
        {
            "name": "B4",
            "midi": 71,
            "time": 13.27869,
            "duration": 0.16393,
            "velocity": 0.3228346456692913
        },
        {
            "name": "C#5",
            "midi": 73,
            "time": 13.44263,
            "duration": 0.16393,
            "velocity": 0.31496062992125984
        },
        {
            "name": "F#5",
            "midi": 78,
            "time": 13.60656,
            "duration": 0.16393,
            "velocity": 0.3937007874015748
        },
        {
            "name": "B4",
            "midi": 71,
            "time": 13.7705,
            "duration": 0.16393,
            "velocity": 0.3228346456692913
        },
        {
            "name": "E3",
            "midi": 52,
            "time": 13.7705,
            "duration": 1.00273,
            "velocity": 0.3858267716535433
        },
        {
            "name": "C#5",
            "midi": 73,
            "time": 13.93443,
            "duration": 0.16393,
            "velocity": 0.31496062992125984
        },
        {
            "name": "F#5",
            "midi": 78,
            "time": 14.09837,
            "duration": 0.16393,
            "velocity": 0.3937007874015748
        },
        {
            "name": "B4",
            "midi": 71,
            "time": 14.2623,
            "duration": 0.16393,
            "velocity": 0.3228346456692913
        },
        {
            "name": "C#5",
            "midi": 73,
            "time": 14.42624,
            "duration": 0.16393,
            "velocity": 0.31496062992125984
        },
        {
            "name": "F#5",
            "midi": 78,
            "time": 14.59017,
            "duration": 0.16393,
            "velocity": 0.3937007874015748
        },
        {
            "name": "B4",
            "midi": 71,
            "time": 14.7541,
            "duration": 0.16393,
            "velocity": 0.3228346456692913
        },
        {
            "name": "E4",
            "midi": 64,
            "time": 14.7541,
            "duration": 0.93374,
            "velocity": 0.4251968503937008
        },
        {
            "name": "C#5",
            "midi": 73,
            "time": 14.91804,
            "duration": 0.16393,
            "velocity": 0.31496062992125984
        },
        {
            "name": "F#5",
            "midi": 78,
            "time": 15.08197,
            "duration": 0.16393,
            "velocity": 0.3937007874015748
        },
        {
            "name": "B4",
            "midi": 71,
            "time": 15.24591,
            "duration": 0.16393,
            "velocity": 0.3228346456692913
        },
        {
            "name": "C#5",
            "midi": 73,
            "time": 15.40984,
            "duration": 0.16393,
            "velocity": 0.31496062992125984
        },
        {
            "name": "F#5",
            "midi": 78,
            "time": 15.57378,
            "duration": 0.16393,
            "velocity": 0.3937007874015748
        },
        {
            "name": "B4",
            "midi": 71,
            "time": 15.73771,
            "duration": 0.16393,
            "velocity": 0.3228346456692913
        },
        {
            "name": "F#3",
            "midi": 54,
            "time": 15.73771,
            "duration": 1.00273,
            "velocity": 0.3858267716535433
        },
        {
            "name": "C#5",
            "midi": 73,
            "time": 15.90165,
            "duration": 0.16393,
            "velocity": 0.31496062992125984
        },
        {
            "name": "F#5",
            "midi": 78,
            "time": 16.06558,
            "duration": 0.16393,
            "velocity": 0.3937007874015748
        },
        {
            "name": "B4",
            "midi": 71,
            "time": 16.22952,
            "duration": 0.16393,
            "velocity": 0.3228346456692913
        },
        {
            "name": "C#5",
            "midi": 73,
            "time": 16.39345,
            "duration": 0.16393,
            "velocity": 0.31496062992125984
        },
        {
            "name": "F#5",
            "midi": 78,
            "time": 16.55738,
            "duration": 0.16393,
            "velocity": 0.3937007874015748
        },
        {
            "name": "B4",
            "midi": 71,
            "time": 16.72132,
            "duration": 0.16393,
            "velocity": 0.3228346456692913
        },
        {
            "name": "F#4",
            "midi": 66,
            "time": 16.72132,
            "duration": 0.98361,
            "velocity": 0.4251968503937008
        },
        {
            "name": "C#5",
            "midi": 73,
            "time": 16.88525,
            "duration": 0.16393,
            "velocity": 0.31496062992125984
        },
        {
            "name": "F#5",
            "midi": 78,
            "time": 17.04919,
            "duration": 0.16393,
            "velocity": 0.3937007874015748
        },
        {
            "name": "B4",
            "midi": 71,
            "time": 17.21312,
            "duration": 0.16393,
            "velocity": 0.3228346456692913
        },
        {
            "name": "C#5",
            "midi": 73,
            "time": 17.37706,
            "duration": 0.16393,
            "velocity": 0.31496062992125984
        },
        {
            "name": "F#5",
            "midi": 78,
            "time": 17.54099,
            "duration": 0.16393,
            "velocity": 0.3937007874015748
        },
        {
            "name": "B4",
            "midi": 71,
            "time": 17.70493,
            "duration": 0.16393,
            "velocity": 0.3228346456692913
        },
        {
            "name": "F#4",
            "midi": 66,
            "time": 17.70493,
            "duration": 0.98361,
            "velocity": 0.4094488188976378
        },
        {
            "name": "C#5",
            "midi": 73,
            "time": 17.86886,
            "duration": 0.16393,
            "velocity": 0.31496062992125984
        },
        {
            "name": "F#5",
            "midi": 78,
            "time": 18.0328,
            "duration": 0.16393,
            "velocity": 0.4015748031496063
        },
        {
            "name": "B4",
            "midi": 71,
            "time": 18.19673,
            "duration": 0.16393,
            "velocity": 0.33070866141732286
        },
        {
            "name": "C#5",
            "midi": 73,
            "time": 18.36066,
            "duration": 0.16393,
            "velocity": 0.3228346456692913
        },
        {
            "name": "F#5",
            "midi": 78,
            "time": 18.5246,
            "duration": 0.16393,
            "velocity": 0.4015748031496063
        },
        {
            "name": "B4",
            "midi": 71,
            "time": 18.68853,
            "duration": 0.16393,
            "velocity": 0.3543307086614173
        },
        {
            "name": "F#4",
            "midi": 66,
            "time": 18.68853,
            "duration": 0.46619,
            "velocity": 0.4015748031496063
        },
        {
            "name": "C#5",
            "midi": 73,
            "time": 18.85247,
            "duration": 0.16393,
            "velocity": 0.36220472440944884
        },
        {
            "name": "F#5",
            "midi": 78,
            "time": 19.0164,
            "duration": 0.16393,
            "velocity": 0.4409448818897638
        },
        {
            "name": "B4",
            "midi": 71,
            "time": 19.18034,
            "duration": 0.16393,
            "velocity": 0.4015748031496063
        },
        {
            "name": "E3",
            "midi": 52,
            "time": 19.18034,
            "duration": 0.4918,
            "velocity": 0.3543307086614173
        },
        {
            "name": "C#5",
            "midi": 73,
            "time": 19.34427,
            "duration": 0.16393,
            "velocity": 0.3937007874015748
        },
        {
            "name": "F#5",
            "midi": 78,
            "time": 19.50821,
            "duration": 0.16393,
            "velocity": 0.47244094488188976
        },
        {
            "name": "B4",
            "midi": 71,
            "time": 19.67214,
            "duration": 0.16393,
            "velocity": 0.3858267716535433
        },
        {
            "name": "F#3",
            "midi": 54,
            "time": 19.67214,
            "duration": 0.98361,
            "velocity": 0.41732283464566927
        },
        {
            "name": "B2",
            "midi": 47,
            "time": 19.67214,
            "duration": 0.98361,
            "velocity": 0.41732283464566927
        },
        {
            "name": "D#2",
            "midi": 39,
            "time": 19.67214,
            "duration": 0.98361,
            "velocity": 0.41732283464566927
        },
        {
            "name": "C#5",
            "midi": 73,
            "time": 19.83607,
            "duration": 0.16393,
            "velocity": 0.3937007874015748
        },
        {
            "name": "F#5",
            "midi": 78,
            "time": 20.00001,
            "duration": 0.16393,
            "velocity": 0.4881889763779528
        },
        {
            "name": "B4",
            "midi": 71,
            "time": 20.16394,
            "duration": 0.16393,
            "velocity": 0.3858267716535433
        },
        {
            "name": "C#5",
            "midi": 73,
            "time": 20.32788,
            "duration": 0.16393,
            "velocity": 0.3937007874015748
        },
        {
            "name": "F#5",
            "midi": 78,
            "time": 20.49181,
            "duration": 0.16393,
            "velocity": 0.4881889763779528
        },
        {
            "name": "B4",
            "midi": 71,
            "time": 20.65575,
            "duration": 0.16393,
            "velocity": 0.3858267716535433
        },
        {
            "name": "D#4",
            "midi": 63,
            "time": 20.65575,
            "duration": 0.98361,
            "velocity": 0.4645669291338583
        },
        {
            "name": "B3",
            "midi": 59,
            "time": 20.65575,
            "duration": 0.98361,
            "velocity": 0.4645669291338583
        },
        {
            "name": "D#3",
            "midi": 51,
            "time": 20.65575,
            "duration": 0.98361,
            "velocity": 0.4645669291338583
        },
        {
            "name": "C#5",
            "midi": 73,
            "time": 20.81968,
            "duration": 0.16393,
            "velocity": 0.3937007874015748
        },
        {
            "name": "F#5",
            "midi": 78,
            "time": 20.98362,
            "duration": 0.16393,
            "velocity": 0.4881889763779528
        },
        {
            "name": "B4",
            "midi": 71,
            "time": 21.14755,
            "duration": 0.16393,
            "velocity": 0.3858267716535433
        },
        {
            "name": "C#5",
            "midi": 73,
            "time": 21.31148,
            "duration": 0.16393,
            "velocity": 0.3937007874015748
        },
        {
            "name": "F#5",
            "midi": 78,
            "time": 21.47542,
            "duration": 0.16393,
            "velocity": 0.4881889763779528
        },
        {
            "name": "B4",
            "midi": 71,
            "time": 21.63935,
            "duration": 0.16393,
            "velocity": 0.3858267716535433
        },
        {
            "name": "E3",
            "midi": 52,
            "time": 21.63935,
            "duration": 0.98361,
            "velocity": 0.41732283464566927
        },
        {
            "name": "E2",
            "midi": 40,
            "time": 21.63935,
            "duration": 0.98361,
            "velocity": 0.41732283464566927
        },
        {
            "name": "C#5",
            "midi": 73,
            "time": 21.80329,
            "duration": 0.16393,
            "velocity": 0.3937007874015748
        },
        {
            "name": "F#5",
            "midi": 78,
            "time": 21.96722,
            "duration": 0.16393,
            "velocity": 0.4881889763779528
        },
        {
            "name": "B4",
            "midi": 71,
            "time": 22.13116,
            "duration": 0.16393,
            "velocity": 0.3858267716535433
        },
        {
            "name": "C#5",
            "midi": 73,
            "time": 22.29509,
            "duration": 0.16393,
            "velocity": 0.3937007874015748
        },
        {
            "name": "F#5",
            "midi": 78,
            "time": 22.45903,
            "duration": 0.16393,
            "velocity": 0.4881889763779528
        },
        {
            "name": "B4",
            "midi": 71,
            "time": 22.62296,
            "duration": 0.16393,
            "velocity": 0.3858267716535433
        },
        {
            "name": "E4",
            "midi": 64,
            "time": 22.62296,
            "duration": 0.98361,
            "velocity": 0.4645669291338583
        },
        {
            "name": "G#3",
            "midi": 56,
            "time": 22.62296,
            "duration": 0.98361,
            "velocity": 0.4645669291338583
        },
        {
            "name": "C#5",
            "midi": 73,
            "time": 22.7869,
            "duration": 0.16393,
            "velocity": 0.3937007874015748
        },
        {
            "name": "F#5",
            "midi": 78,
            "time": 22.95083,
            "duration": 0.16393,
            "velocity": 0.4881889763779528
        },
        {
            "name": "B4",
            "midi": 71,
            "time": 23.11476,
            "duration": 0.16393,
            "velocity": 0.3858267716535433
        },
        {
            "name": "C#5",
            "midi": 73,
            "time": 23.2787,
            "duration": 0.16393,
            "velocity": 0.3937007874015748
        },
        {
            "name": "F#5",
            "midi": 78,
            "time": 23.44263,
            "duration": 0.16393,
            "velocity": 0.4881889763779528
        },
        {
            "name": "B4",
            "midi": 71,
            "time": 23.60657,
            "duration": 0.16393,
            "velocity": 0.3858267716535433
        },
        {
            "name": "F#3",
            "midi": 54,
            "time": 23.60657,
            "duration": 0.98361,
            "velocity": 0.49606299212598426
        },
        {
            "name": "F#2",
            "midi": 42,
            "time": 23.60657,
            "duration": 0.98361,
            "velocity": 0.49606299212598426
        },
        {
            "name": "C#5",
            "midi": 73,
            "time": 23.7705,
            "duration": 0.16393,
            "velocity": 0.3937007874015748
        },
        {
            "name": "F#5",
            "midi": 78,
            "time": 23.93444,
            "duration": 0.16393,
            "velocity": 0.4881889763779528
        },
        {
            "name": "B4",
            "midi": 71,
            "time": 24.09837,
            "duration": 0.16393,
            "velocity": 0.3858267716535433
        },
        {
            "name": "C#5",
            "midi": 73,
            "time": 24.26231,
            "duration": 0.16393,
            "velocity": 0.3937007874015748
        },
        {
            "name": "F#5",
            "midi": 78,
            "time": 24.42624,
            "duration": 0.16393,
            "velocity": 0.4881889763779528
        },
        {
            "name": "B4",
            "midi": 71,
            "time": 24.59018,
            "duration": 0.16393,
            "velocity": 0.3858267716535433
        },
        {
            "name": "F#4",
            "midi": 66,
            "time": 24.59018,
            "duration": 0.98361,
            "velocity": 0.4645669291338583
        },
        {
            "name": "B3",
            "midi": 59,
            "time": 24.59018,
            "duration": 0.98361,
            "velocity": 0.4645669291338583
        },
        {
            "name": "C#5",
            "midi": 73,
            "time": 24.75411,
            "duration": 0.16393,
            "velocity": 0.3937007874015748
        },
        {
            "name": "F#5",
            "midi": 78,
            "time": 24.91804,
            "duration": 0.16393,
            "velocity": 0.4881889763779528
        },
        {
            "name": "B4",
            "midi": 71,
            "time": 25.08198,
            "duration": 0.16393,
            "velocity": 0.3858267716535433
        },
        {
            "name": "C#5",
            "midi": 73,
            "time": 25.24591,
            "duration": 0.16393,
            "velocity": 0.3937007874015748
        },
        {
            "name": "F#5",
            "midi": 78,
            "time": 25.40985,
            "duration": 0.16393,
            "velocity": 0.4881889763779528
        },
        {
            "name": "B4",
            "midi": 71,
            "time": 25.57378,
            "duration": 0.16393,
            "velocity": 0.3858267716535433
        },
        {
            "name": "G#2",
            "midi": 44,
            "time": 25.57378,
            "duration": 0.98361,
            "velocity": 0.5118110236220472
        },
        {
            "name": "G#3",
            "midi": 56,
            "time": 25.57378,
            "duration": 0.98361,
            "velocity": 0.5118110236220472
        },
        {
            "name": "C#5",
            "midi": 73,
            "time": 25.73772,
            "duration": 0.16393,
            "velocity": 0.3937007874015748
        },
        {
            "name": "F#5",
            "midi": 78,
            "time": 25.90165,
            "duration": 0.16393,
            "velocity": 0.4881889763779528
        },
        {
            "name": "B4",
            "midi": 71,
            "time": 26.06559,
            "duration": 0.16393,
            "velocity": 0.3858267716535433
        },
        {
            "name": "C#5",
            "midi": 73,
            "time": 26.22952,
            "duration": 0.16393,
            "velocity": 0.3937007874015748
        },
        {
            "name": "F#5",
            "midi": 78,
            "time": 26.39345,
            "duration": 0.16393,
            "velocity": 0.4881889763779528
        },
        {
            "name": "G#3",
            "midi": 56,
            "time": 26.39585,
            "duration": 0.16154,
            "velocity": 0.5039370078740157
        },
        {
            "name": "D#4",
            "midi": 63,
            "time": 26.47542,
            "duration": 0.58163,
            "velocity": 0.5039370078740157
        },
        {
            "name": "A#4",
            "midi": 70,
            "time": 26.55466,
            "duration": 0.50102,
            "velocity": 0.5590551181102362
        },
        {
            "name": "B4",
            "midi": 71,
            "time": 26.55739,
            "duration": 0.16393,
            "velocity": 0.3858267716535433
        },
        {
            "name": "C#5",
            "midi": 73,
            "time": 26.72132,
            "duration": 0.16393,
            "velocity": 0.3937007874015748
        },
        {
            "name": "F#5",
            "midi": 78,
            "time": 26.88526,
            "duration": 0.16393,
            "velocity": 0.4881889763779528
        },
        {
            "name": "B4",
            "midi": 71,
            "time": 27.04919,
            "duration": 0.16393,
            "velocity": 0.3937007874015748
        },
        {
            "name": "C#5",
            "midi": 73,
            "time": 27.21313,
            "duration": 0.16393,
            "velocity": 0.3937007874015748
        },
        {
            "name": "F#5",
            "midi": 78,
            "time": 27.37706,
            "duration": 0.16393,
            "velocity": 0.4881889763779528
        },
        {
            "name": "B4",
            "midi": 71,
            "time": 27.541,
            "duration": 0.16393,
            "velocity": 0.3858267716535433
        },
        {
            "name": "F#3",
            "midi": 54,
            "time": 27.541,
            "duration": 0.98361,
            "velocity": 0.3937007874015748
        },
        {
            "name": "B2",
            "midi": 47,
            "time": 27.541,
            "duration": 0.98361,
            "velocity": 0.3937007874015748
        },
        {
            "name": "D#2",
            "midi": 39,
            "time": 27.541,
            "duration": 0.98361,
            "velocity": 0.3937007874015748
        },
        {
            "name": "C#5",
            "midi": 73,
            "time": 27.70493,
            "duration": 0.16393,
            "velocity": 0.3937007874015748
        },
        {
            "name": "F#5",
            "midi": 78,
            "time": 27.86886,
            "duration": 0.16393,
            "velocity": 0.4881889763779528
        },
        {
            "name": "B4",
            "midi": 71,
            "time": 28.0328,
            "duration": 0.16393,
            "velocity": 0.3858267716535433
        },
        {
            "name": "C#5",
            "midi": 73,
            "time": 28.19673,
            "duration": 0.16393,
            "velocity": 0.3937007874015748
        },
        {
            "name": "F#5",
            "midi": 78,
            "time": 28.36067,
            "duration": 0.16393,
            "velocity": 0.4881889763779528
        },
        {
            "name": "B4",
            "midi": 71,
            "time": 28.5246,
            "duration": 0.16393,
            "velocity": 0.3858267716535433
        },
        {
            "name": "D#3",
            "midi": 51,
            "time": 28.5246,
            "duration": 0.98361,
            "velocity": 0.4094488188976378
        },
        {
            "name": "B3",
            "midi": 59,
            "time": 28.5246,
            "duration": 0.98361,
            "velocity": 0.4094488188976378
        },
        {
            "name": "D#4",
            "midi": 63,
            "time": 28.5246,
            "duration": 0.98361,
            "velocity": 0.4094488188976378
        },
        {
            "name": "C#5",
            "midi": 73,
            "time": 28.68854,
            "duration": 0.16393,
            "velocity": 0.3937007874015748
        },
        {
            "name": "F#5",
            "midi": 78,
            "time": 28.85247,
            "duration": 0.16393,
            "velocity": 0.4881889763779528
        },
        {
            "name": "B4",
            "midi": 71,
            "time": 29.01641,
            "duration": 0.16393,
            "velocity": 0.3858267716535433
        },
        {
            "name": "C#5",
            "midi": 73,
            "time": 29.18034,
            "duration": 0.16393,
            "velocity": 0.3937007874015748
        },
        {
            "name": "F#5",
            "midi": 78,
            "time": 29.34428,
            "duration": 0.16393,
            "velocity": 0.4881889763779528
        },
        {
            "name": "B4",
            "midi": 71,
            "time": 29.50821,
            "duration": 0.16393,
            "velocity": 0.3858267716535433
        },
        {
            "name": "E3",
            "midi": 52,
            "time": 29.50821,
            "duration": 0.98361,
            "velocity": 0.4330708661417323
        },
        {
            "name": "E2",
            "midi": 40,
            "time": 29.50821,
            "duration": 0.98361,
            "velocity": 0.4330708661417323
        },
        {
            "name": "C#5",
            "midi": 73,
            "time": 29.67214,
            "duration": 0.16393,
            "velocity": 0.3937007874015748
        },
        {
            "name": "F#5",
            "midi": 78,
            "time": 29.83608,
            "duration": 0.16393,
            "velocity": 0.4881889763779528
        },
        {
            "name": "B4",
            "midi": 71,
            "time": 30.00001,
            "duration": 0.16393,
            "velocity": 0.3858267716535433
        },
        {
            "name": "C#5",
            "midi": 73,
            "time": 30.16395,
            "duration": 0.16393,
            "velocity": 0.3937007874015748
        },
        {
            "name": "F#5",
            "midi": 78,
            "time": 30.32788,
            "duration": 0.16393,
            "velocity": 0.4881889763779528
        },
        {
            "name": "B4",
            "midi": 71,
            "time": 30.49182,
            "duration": 0.16393,
            "velocity": 0.3858267716535433
        },
        {
            "name": "E3",
            "midi": 52,
            "time": 30.49182,
            "duration": 0.98361,
            "velocity": 0.4330708661417323
        },
        {
            "name": "B3",
            "midi": 59,
            "time": 30.49182,
            "duration": 0.98361,
            "velocity": 0.4330708661417323
        },
        {
            "name": "E4",
            "midi": 64,
            "time": 30.49182,
            "duration": 0.98361,
            "velocity": 0.4330708661417323
        },
        {
            "name": "C#5",
            "midi": 73,
            "time": 30.65575,
            "duration": 0.16393,
            "velocity": 0.3937007874015748
        },
        {
            "name": "F#5",
            "midi": 78,
            "time": 30.81969,
            "duration": 0.16393,
            "velocity": 0.4881889763779528
        },
        {
            "name": "B4",
            "midi": 71,
            "time": 30.98362,
            "duration": 0.16393,
            "velocity": 0.3858267716535433
        },
        {
            "name": "C#5",
            "midi": 73,
            "time": 31.14756,
            "duration": 0.16393,
            "velocity": 0.3937007874015748
        },
        {
            "name": "F#5",
            "midi": 78,
            "time": 31.31149,
            "duration": 0.16393,
            "velocity": 0.4881889763779528
        },
        {
            "name": "B4",
            "midi": 71,
            "time": 31.47542,
            "duration": 0.16393,
            "velocity": 0.3858267716535433
        },
        {
            "name": "F#3",
            "midi": 54,
            "time": 31.47542,
            "duration": 0.98361,
            "velocity": 0.4881889763779528
        },
        {
            "name": "F#2",
            "midi": 42,
            "time": 31.47542,
            "duration": 0.98361,
            "velocity": 0.4881889763779528
        },
        {
            "name": "C#5",
            "midi": 73,
            "time": 31.63936,
            "duration": 0.16393,
            "velocity": 0.3937007874015748
        },
        {
            "name": "F#5",
            "midi": 78,
            "time": 31.80329,
            "duration": 0.16393,
            "velocity": 0.4881889763779528
        },
        {
            "name": "B4",
            "midi": 71,
            "time": 31.96723,
            "duration": 0.16393,
            "velocity": 0.3858267716535433
        },
        {
            "name": "C#5",
            "midi": 73,
            "time": 32.13116,
            "duration": 0.16393,
            "velocity": 0.3937007874015748
        },
        {
            "name": "F#5",
            "midi": 78,
            "time": 32.2951,
            "duration": 0.16393,
            "velocity": 0.4881889763779528
        },
        {
            "name": "B4",
            "midi": 71,
            "time": 32.45903,
            "duration": 0.16393,
            "velocity": 0.3858267716535433
        },
        {
            "name": "F#4",
            "midi": 66,
            "time": 32.45903,
            "duration": 0.98361,
            "velocity": 0.4645669291338583
        },
        {
            "name": "B3",
            "midi": 59,
            "time": 32.45903,
            "duration": 0.98361,
            "velocity": 0.4645669291338583
        },
        {
            "name": "C#5",
            "midi": 73,
            "time": 32.62297,
            "duration": 0.16393,
            "velocity": 0.3937007874015748
        },
        {
            "name": "F#5",
            "midi": 78,
            "time": 32.7869,
            "duration": 0.16393,
            "velocity": 0.4881889763779528
        },
        {
            "name": "B4",
            "midi": 71,
            "time": 32.95083,
            "duration": 0.16393,
            "velocity": 0.3858267716535433
        },
        {
            "name": "C#5",
            "midi": 73,
            "time": 33.11477,
            "duration": 0.16393,
            "velocity": 0.3937007874015748
        },
        {
            "name": "F#5",
            "midi": 78,
            "time": 33.2787,
            "duration": 0.16393,
            "velocity": 0.4881889763779528
        },
        {
            "name": "B4",
            "midi": 71,
            "time": 33.44264,
            "duration": 0.16393,
            "velocity": 0.3779527559055118
        },
        {
            "name": "C#5",
            "midi": 73,
            "time": 33.60657,
            "duration": 0.16393,
            "velocity": 0.3858267716535433
        },
        {
            "name": "F#5",
            "midi": 78,
            "time": 33.77051,
            "duration": 0.16393,
            "velocity": 0.48031496062992124
        },
        {
            "name": "B4",
            "midi": 71,
            "time": 33.93444,
            "duration": 0.16393,
            "velocity": 0.3779527559055118
        },
        {
            "name": "B2",
            "midi": 47,
            "time": 33.93444,
            "duration": 0.50068,
            "velocity": 0.44881889763779526
        },
        {
            "name": "C#5",
            "midi": 73,
            "time": 34.09838,
            "duration": 0.16393,
            "velocity": 0.3858267716535433
        },
        {
            "name": "F#5",
            "midi": 78,
            "time": 34.26231,
            "duration": 0.16393,
            "velocity": 0.48031496062992124
        },
        {
            "name": "B4",
            "midi": 71,
            "time": 34.42624,
            "duration": 0.16393,
            "velocity": 0.3937007874015748
        },
        {
            "name": "F#3",
            "midi": 54,
            "time": 34.42624,
            "duration": 0.50068,
            "velocity": 0.5748031496062992
        },
        {
            "name": "C#5",
            "midi": 73,
            "time": 34.59018,
            "duration": 0.16393,
            "velocity": 0.4015748031496063
        },
        {
            "name": "F#5",
            "midi": 78,
            "time": 34.75411,
            "duration": 0.16393,
            "velocity": 0.49606299212598426
        },
        {
            "name": "B4",
            "midi": 71,
            "time": 34.91805,
            "duration": 0.16393,
            "velocity": 0.41732283464566927
        },
        {
            "name": "B3",
            "midi": 59,
            "time": 34.91805,
            "duration": 0.46619,
            "velocity": 0.6062992125984252
        },
        {
            "name": "C#5",
            "midi": 73,
            "time": 35.08198,
            "duration": 0.16393,
            "velocity": 0.4251968503937008
        },
        {
            "name": "F#5",
            "midi": 78,
            "time": 35.24592,
            "duration": 0.16393,
            "velocity": 0.5118110236220472
        },
        {
            "name": "D#2",
            "midi": 39,
            "time": 35.25616,
            "duration": 2.1209,
            "velocity": 0.5511811023622047
        },
        {
            "name": "B2",
            "midi": 47,
            "time": 35.33574,
            "duration": 2.04133,
            "velocity": 0.5511811023622047
        },
        {
            "name": "B4",
            "midi": 71,
            "time": 35.40985,
            "duration": 0.16393,
            "velocity": 0.4094488188976378
        },
        {
            "name": "F#3",
            "midi": 54,
            "time": 35.41497,
            "duration": 0.65335,
            "velocity": 0.5511811023622047
        },
        {
            "name": "C#5",
            "midi": 73,
            "time": 35.57379,
            "duration": 0.16393,
            "velocity": 0.41732283464566927
        },
        {
            "name": "F#5",
            "midi": 78,
            "time": 35.73772,
            "duration": 0.16393,
            "velocity": 0.5118110236220472
        },
        {
            "name": "B4",
            "midi": 71,
            "time": 35.90166,
            "duration": 0.16393,
            "velocity": 0.4094488188976378
        },
        {
            "name": "D#4",
            "midi": 63,
            "time": 35.90166,
            "duration": 0.16393,
            "velocity": 0.6141732283464567
        },
        {
            "name": "F#3",
            "midi": 54,
            "time": 35.90166,
            "duration": 0.16667,
            "velocity": 0.5590551181102362
        },
        {
            "name": "B3",
            "midi": 59,
            "time": 35.90166,
            "duration": 0.16667,
            "velocity": 0.5590551181102362
        },
        {
            "name": "D#4",
            "midi": 63,
            "time": 36.06559,
            "duration": 0.16393,
            "velocity": 0.5590551181102362
        },
        {
            "name": "C#5",
            "midi": 73,
            "time": 36.06559,
            "duration": 0.16393,
            "velocity": 0.41732283464566927
        },
        {
            "name": "F#5",
            "midi": 78,
            "time": 36.22952,
            "duration": 0.16393,
            "velocity": 0.5118110236220472
        },
        {
            "name": "D#4",
            "midi": 63,
            "time": 36.22952,
            "duration": 0.16393,
            "velocity": 0.5590551181102362
        },
        {
            "name": "F#3",
            "midi": 54,
            "time": 36.22952,
            "duration": 0.16667,
            "velocity": 0.5039370078740157
        },
        {
            "name": "B4",
            "midi": 71,
            "time": 36.39346,
            "duration": 0.16393,
            "velocity": 0.4094488188976378
        },
        {
            "name": "D#4",
            "midi": 63,
            "time": 36.39346,
            "duration": 0.33436,
            "velocity": 0.6614173228346457
        },
        {
            "name": "C#5",
            "midi": 73,
            "time": 36.55739,
            "duration": 0.16393,
            "velocity": 0.41732283464566927
        },
        {
            "name": "C#4",
            "midi": 61,
            "time": 36.72133,
            "duration": 0.16393,
            "velocity": 0.5748031496062992
        },
        {
            "name": "F#5",
            "midi": 78,
            "time": 36.72133,
            "duration": 0.16393,
            "velocity": 0.5118110236220472
        },
        {
            "name": "B4",
            "midi": 71,
            "time": 36.88526,
            "duration": 0.16393,
            "velocity": 0.4094488188976378
        },
        {
            "name": "C#4",
            "midi": 61,
            "time": 36.88526,
            "duration": 0.33436,
            "velocity": 0.6141732283464567
        },
        {
            "name": "C#5",
            "midi": 73,
            "time": 37.0492,
            "duration": 0.16393,
            "velocity": 0.41732283464566927
        },
        {
            "name": "F#5",
            "midi": 78,
            "time": 37.21313,
            "duration": 0.16393,
            "velocity": 0.5118110236220472
        },
        {
            "name": "B3",
            "midi": 59,
            "time": 37.21313,
            "duration": 0.16393,
            "velocity": 0.5511811023622047
        },
        {
            "name": "B4",
            "midi": 71,
            "time": 37.37707,
            "duration": 0.16393,
            "velocity": 0.4094488188976378
        },
        {
            "name": "E3",
            "midi": 52,
            "time": 37.37707,
            "duration": 0.93374,
            "velocity": 0.47244094488188976
        },
        {
            "name": "B3",
            "midi": 59,
            "time": 37.37707,
            "duration": 1.86851,
            "velocity": 0.5905511811023622
        },
        {
            "name": "C#5",
            "midi": 73,
            "time": 37.541,
            "duration": 0.16393,
            "velocity": 0.41732283464566927
        },
        {
            "name": "F#5",
            "midi": 78,
            "time": 37.70494,
            "duration": 0.16393,
            "velocity": 0.5118110236220472
        },
        {
            "name": "B4",
            "midi": 71,
            "time": 37.86887,
            "duration": 0.16393,
            "velocity": 0.4094488188976378
        },
        {
            "name": "C#5",
            "midi": 73,
            "time": 38.0328,
            "duration": 0.16393,
            "velocity": 0.41732283464566927
        },
        {
            "name": "F#5",
            "midi": 78,
            "time": 38.19674,
            "duration": 0.16393,
            "velocity": 0.5118110236220472
        },
        {
            "name": "B4",
            "midi": 71,
            "time": 38.36067,
            "duration": 0.16393,
            "velocity": 0.4094488188976378
        },
        {
            "name": "E2",
            "midi": 40,
            "time": 38.36067,
            "duration": 0.98361,
            "velocity": 0.4645669291338583
        },
        {
            "name": "C#5",
            "midi": 73,
            "time": 38.52461,
            "duration": 0.16393,
            "velocity": 0.41732283464566927
        },
        {
            "name": "F#5",
            "midi": 78,
            "time": 38.68854,
            "duration": 0.16393,
            "velocity": 0.5118110236220472
        },
        {
            "name": "B4",
            "midi": 71,
            "time": 38.85248,
            "duration": 0.16393,
            "velocity": 0.4094488188976378
        },
        {
            "name": "C#5",
            "midi": 73,
            "time": 39.01641,
            "duration": 0.16393,
            "velocity": 0.41732283464566927
        },
        {
            "name": "F#5",
            "midi": 78,
            "time": 39.18035,
            "duration": 0.16393,
            "velocity": 0.5118110236220472
        },
        {
            "name": "B4",
            "midi": 71,
            "time": 39.34428,
            "duration": 0.16393,
            "velocity": 0.4094488188976378
        },
        {
            "name": "F#3",
            "midi": 54,
            "time": 39.34428,
            "duration": 0.65574,
            "velocity": 0.49606299212598426
        },
        {
            "name": "F#2",
            "midi": 42,
            "time": 39.34428,
            "duration": 1.96721,
            "velocity": 0.49606299212598426
        },
        {
            "name": "C#5",
            "midi": 73,
            "time": 39.50821,
            "duration": 0.16393,
            "velocity": 0.41732283464566927
        },
        {
            "name": "F#5",
            "midi": 78,
            "time": 39.67215,
            "duration": 0.16393,
            "velocity": 0.5118110236220472
        },
        {
            "name": "B3",
            "midi": 59,
            "time": 39.83608,
            "duration": 0.16393,
            "velocity": 0.5590551181102362
        },
        {
            "name": "F#3",
            "midi": 54,
            "time": 39.83608,
            "duration": 0.16393,
            "velocity": 0.5590551181102362
        },
        {
            "name": "D#4",
            "midi": 63,
            "time": 39.83608,
            "duration": 0.16393,
            "velocity": 0.6141732283464567
        },
        {
            "name": "B4",
            "midi": 71,
            "time": 39.83608,
            "duration": 0.16393,
            "velocity": 0.4094488188976378
        },
        {
            "name": "C#5",
            "midi": 73,
            "time": 40.00002,
            "duration": 0.16393,
            "velocity": 0.41732283464566927
        },
        {
            "name": "F#3",
            "midi": 54,
            "time": 40.00002,
            "duration": 0.16393,
            "velocity": 0.5039370078740157
        },
        {
            "name": "B3",
            "midi": 59,
            "time": 40.00002,
            "duration": 0.16393,
            "velocity": 0.5039370078740157
        },
        {
            "name": "D#4",
            "midi": 63,
            "time": 40.00002,
            "duration": 0.16393,
            "velocity": 0.5590551181102362
        },
        {
            "name": "F#5",
            "midi": 78,
            "time": 40.16395,
            "duration": 0.16393,
            "velocity": 0.5118110236220472
        },
        {
            "name": "F#3",
            "midi": 54,
            "time": 40.16395,
            "duration": 0.16393,
            "velocity": 0.5039370078740157
        },
        {
            "name": "B3",
            "midi": 59,
            "time": 40.16395,
            "duration": 0.16393,
            "velocity": 0.5039370078740157
        },
        {
            "name": "D#4",
            "midi": 63,
            "time": 40.16395,
            "duration": 0.16393,
            "velocity": 0.5590551181102362
        },
        {
            "name": "B4",
            "midi": 71,
            "time": 40.32789,
            "duration": 0.16393,
            "velocity": 0.4094488188976378
        },
        {
            "name": "B3",
            "midi": 59,
            "time": 40.32789,
            "duration": 0.33436,
            "velocity": 0.5590551181102362
        },
        {
            "name": "D#4",
            "midi": 63,
            "time": 40.32789,
            "duration": 0.33436,
            "velocity": 0.6141732283464567
        },
        {
            "name": "F#3",
            "midi": 54,
            "time": 40.32789,
            "duration": 0.33436,
            "velocity": 0.5590551181102362
        },
        {
            "name": "C#5",
            "midi": 73,
            "time": 40.49182,
            "duration": 0.16393,
            "velocity": 0.41732283464566927
        },
        {
            "name": "F#5",
            "midi": 78,
            "time": 40.65576,
            "duration": 0.16393,
            "velocity": 0.5118110236220472
        },
        {
            "name": "C#4",
            "midi": 61,
            "time": 40.65576,
            "duration": 0.16393,
            "velocity": 0.5748031496062992
        },
        {
            "name": "B4",
            "midi": 71,
            "time": 40.81969,
            "duration": 0.16393,
            "velocity": 0.4094488188976378
        },
        {
            "name": "C#4",
            "midi": 61,
            "time": 40.81969,
            "duration": 0.33436,
            "velocity": 0.6141732283464567
        },
        {
            "name": "C#5",
            "midi": 73,
            "time": 40.98362,
            "duration": 0.16393,
            "velocity": 0.41732283464566927
        },
        {
            "name": "B3",
            "midi": 59,
            "time": 41.14756,
            "duration": 0.16393,
            "velocity": 0.5511811023622047
        },
        {
            "name": "F#5",
            "midi": 78,
            "time": 41.14756,
            "duration": 0.16393,
            "velocity": 0.5118110236220472
        },
        {
            "name": "B4",
            "midi": 71,
            "time": 41.31149,
            "duration": 0.16393,
            "velocity": 0.4094488188976378
        },
        {
            "name": "D#4",
            "midi": 63,
            "time": 41.31149,
            "duration": 0.4918,
            "velocity": 0.6692913385826772
        },
        {
            "name": "B3",
            "midi": 59,
            "time": 41.31149,
            "duration": 0.50068,
            "velocity": 0.6141732283464567
        },
        {
            "name": "G#3",
            "midi": 56,
            "time": 41.31149,
            "duration": 1.86851,
            "velocity": 0.48031496062992124
        },
        {
            "name": "C#5",
            "midi": 73,
            "time": 41.47543,
            "duration": 0.16393,
            "velocity": 0.41732283464566927
        },
        {
            "name": "F#5",
            "midi": 78,
            "time": 41.63936,
            "duration": 0.16393,
            "velocity": 0.5118110236220472
        },
        {
            "name": "B4",
            "midi": 71,
            "time": 41.8033,
            "duration": 0.16393,
            "velocity": 0.4094488188976378
        },
        {
            "name": "D#4",
            "midi": 63,
            "time": 41.8033,
            "duration": 0.33436,
            "velocity": 0.6377952755905512
        },
        {
            "name": "C#5",
            "midi": 73,
            "time": 41.96723,
            "duration": 0.16393,
            "velocity": 0.41732283464566927
        },
        {
            "name": "F#5",
            "midi": 78,
            "time": 42.13117,
            "duration": 0.16393,
            "velocity": 0.5118110236220472
        },
        {
            "name": "F#4",
            "midi": 66,
            "time": 42.13117,
            "duration": 0.16667,
            "velocity": 0.5984251968503937
        },
        {
            "name": "B4",
            "midi": 71,
            "time": 42.2951,
            "duration": 0.16393,
            "velocity": 0.4094488188976378
        },
        {
            "name": "C#4",
            "midi": 61,
            "time": 42.2951,
            "duration": 0.50068,
            "velocity": 0.5984251968503937
        },
        {
            "name": "C#5",
            "midi": 73,
            "time": 42.45904,
            "duration": 0.16393,
            "velocity": 0.41732283464566927
        },
        {
            "name": "F#5",
            "midi": 78,
            "time": 42.62297,
            "duration": 0.16393,
            "velocity": 0.5118110236220472
        },
        {
            "name": "B4",
            "midi": 71,
            "time": 42.7869,
            "duration": 0.16393,
            "velocity": 0.4094488188976378
        },
        {
            "name": "B3",
            "midi": 59,
            "time": 42.7869,
            "duration": 0.46619,
            "velocity": 0.5669291338582677
        },
        {
            "name": "C#5",
            "midi": 73,
            "time": 42.95084,
            "duration": 0.16393,
            "velocity": 0.41732283464566927
        },
        {
            "name": "F#5",
            "midi": 78,
            "time": 43.11477,
            "duration": 0.16393,
            "velocity": 0.5118110236220472
        },
        {
            "name": "D#2",
            "midi": 39,
            "time": 43.12502,
            "duration": 2.1209,
            "velocity": 0.47244094488188976
        },
        {
            "name": "B2",
            "midi": 47,
            "time": 43.2046,
            "duration": 2.04133,
            "velocity": 0.47244094488188976
        },
        {
            "name": "B4",
            "midi": 71,
            "time": 43.27871,
            "duration": 0.16393,
            "velocity": 0.4094488188976378
        },
        {
            "name": "F#3",
            "midi": 54,
            "time": 43.28383,
            "duration": 0.65062,
            "velocity": 0.47244094488188976
        },
        {
            "name": "C#5",
            "midi": 73,
            "time": 43.44264,
            "duration": 0.16393,
            "velocity": 0.41732283464566927
        },
        {
            "name": "F#5",
            "midi": 78,
            "time": 43.60658,
            "duration": 0.16393,
            "velocity": 0.5118110236220472
        },
        {
            "name": "B4",
            "midi": 71,
            "time": 43.77051,
            "duration": 0.16393,
            "velocity": 0.4094488188976378
        },
        {
            "name": "D#4",
            "midi": 63,
            "time": 43.77051,
            "duration": 0.16393,
            "velocity": 0.6220472440944882
        },
        {
            "name": "F#3",
            "midi": 54,
            "time": 43.77051,
            "duration": 0.16393,
            "velocity": 0.5669291338582677
        },
        {
            "name": "C#5",
            "midi": 73,
            "time": 43.93445,
            "duration": 0.16393,
            "velocity": 0.41732283464566927
        },
        {
            "name": "B3",
            "midi": 59,
            "time": 43.93445,
            "duration": 0.16393,
            "velocity": 0.5118110236220472
        },
        {
            "name": "F#3",
            "midi": 54,
            "time": 43.93445,
            "duration": 0.16393,
            "velocity": 0.5118110236220472
        },
        {
            "name": "D#4",
            "midi": 63,
            "time": 43.93445,
            "duration": 0.16393,
            "velocity": 0.5669291338582677
        },
        {
            "name": "F#5",
            "midi": 78,
            "time": 44.09838,
            "duration": 0.16393,
            "velocity": 0.5118110236220472
        },
        {
            "name": "B3",
            "midi": 59,
            "time": 44.09838,
            "duration": 0.16393,
            "velocity": 0.5118110236220472
        },
        {
            "name": "F#3",
            "midi": 54,
            "time": 44.09838,
            "duration": 0.16393,
            "velocity": 0.5118110236220472
        },
        {
            "name": "D#4",
            "midi": 63,
            "time": 44.09838,
            "duration": 0.16393,
            "velocity": 0.5669291338582677
        },
        {
            "name": "B4",
            "midi": 71,
            "time": 44.26232,
            "duration": 0.16393,
            "velocity": 0.4094488188976378
        },
        {
            "name": "B3",
            "midi": 59,
            "time": 44.26232,
            "duration": 0.33436,
            "velocity": 0.5669291338582677
        },
        {
            "name": "F#3",
            "midi": 54,
            "time": 44.26232,
            "duration": 0.33436,
            "velocity": 0.5669291338582677
        },
        {
            "name": "D#4",
            "midi": 63,
            "time": 44.26232,
            "duration": 0.33436,
            "velocity": 0.6220472440944882
        },
        {
            "name": "C#5",
            "midi": 73,
            "time": 44.42625,
            "duration": 0.16393,
            "velocity": 0.41732283464566927
        },
        {
            "name": "F#5",
            "midi": 78,
            "time": 44.59018,
            "duration": 0.16393,
            "velocity": 0.5118110236220472
        },
        {
            "name": "C#4",
            "midi": 61,
            "time": 44.59018,
            "duration": 0.16393,
            "velocity": 0.5748031496062992
        },
        {
            "name": "B4",
            "midi": 71,
            "time": 44.75412,
            "duration": 0.16393,
            "velocity": 0.4094488188976378
        },
        {
            "name": "C#4",
            "midi": 61,
            "time": 44.75412,
            "duration": 0.33436,
            "velocity": 0.6141732283464567
        },
        {
            "name": "C#5",
            "midi": 73,
            "time": 44.91805,
            "duration": 0.16393,
            "velocity": 0.41732283464566927
        },
        {
            "name": "F#5",
            "midi": 78,
            "time": 45.08199,
            "duration": 0.16393,
            "velocity": 0.5118110236220472
        },
        {
            "name": "B3",
            "midi": 59,
            "time": 45.08199,
            "duration": 0.16393,
            "velocity": 0.5511811023622047
        },
        {
            "name": "B4",
            "midi": 71,
            "time": 45.24592,
            "duration": 0.16393,
            "velocity": 0.4094488188976378
        },
        {
            "name": "E3",
            "midi": 52,
            "time": 45.24592,
            "duration": 0.93374,
            "velocity": 0.47244094488188976
        },
        {
            "name": "B3",
            "midi": 59,
            "time": 45.24592,
            "duration": 1.86851,
            "velocity": 0.5905511811023622
        },
        {
            "name": "C#5",
            "midi": 73,
            "time": 45.40986,
            "duration": 0.16393,
            "velocity": 0.41732283464566927
        },
        {
            "name": "F#5",
            "midi": 78,
            "time": 45.57379,
            "duration": 0.16393,
            "velocity": 0.5118110236220472
        },
        {
            "name": "B4",
            "midi": 71,
            "time": 45.73773,
            "duration": 0.16393,
            "velocity": 0.4094488188976378
        },
        {
            "name": "C#5",
            "midi": 73,
            "time": 45.90166,
            "duration": 0.16393,
            "velocity": 0.41732283464566927
        },
        {
            "name": "F#5",
            "midi": 78,
            "time": 46.06559,
            "duration": 0.16393,
            "velocity": 0.5118110236220472
        },
        {
            "name": "B4",
            "midi": 71,
            "time": 46.22953,
            "duration": 0.16393,
            "velocity": 0.4094488188976378
        },
        {
            "name": "E2",
            "midi": 40,
            "time": 46.22953,
            "duration": 0.98361,
            "velocity": 0.4645669291338583
        },
        {
            "name": "C#5",
            "midi": 73,
            "time": 46.39346,
            "duration": 0.16393,
            "velocity": 0.41732283464566927
        },
        {
            "name": "F#5",
            "midi": 78,
            "time": 46.5574,
            "duration": 0.16393,
            "velocity": 0.5118110236220472
        },
        {
            "name": "B4",
            "midi": 71,
            "time": 46.72133,
            "duration": 0.16393,
            "velocity": 0.4094488188976378
        },
        {
            "name": "C#5",
            "midi": 73,
            "time": 46.88527,
            "duration": 0.16393,
            "velocity": 0.41732283464566927
        },
        {
            "name": "F#5",
            "midi": 78,
            "time": 47.0492,
            "duration": 0.16393,
            "velocity": 0.5118110236220472
        },
        {
            "name": "B4",
            "midi": 71,
            "time": 47.21314,
            "duration": 0.16393,
            "velocity": 0.4094488188976378
        },
        {
            "name": "F#3",
            "midi": 54,
            "time": 47.21314,
            "duration": 0.65574,
            "velocity": 0.49606299212598426
        },
        {
            "name": "F#2",
            "midi": 42,
            "time": 47.21314,
            "duration": 1.96721,
            "velocity": 0.49606299212598426
        },
        {
            "name": "C#5",
            "midi": 73,
            "time": 47.37707,
            "duration": 0.16393,
            "velocity": 0.41732283464566927
        },
        {
            "name": "F#5",
            "midi": 78,
            "time": 47.541,
            "duration": 0.16393,
            "velocity": 0.5118110236220472
        },
        {
            "name": "B4",
            "midi": 71,
            "time": 47.70494,
            "duration": 0.16393,
            "velocity": 0.4094488188976378
        },
        {
            "name": "F#3",
            "midi": 54,
            "time": 47.70494,
            "duration": 0.16393,
            "velocity": 0.4881889763779528
        },
        {
            "name": "C#4",
            "midi": 61,
            "time": 47.70494,
            "duration": 0.16393,
            "velocity": 0.5433070866141733
        },
        {
            "name": "C#5",
            "midi": 73,
            "time": 47.86887,
            "duration": 0.16393,
            "velocity": 0.41732283464566927
        },
        {
            "name": "C#4",
            "midi": 61,
            "time": 47.86887,
            "duration": 0.16393,
            "velocity": 0.49606299212598426
        },
        {
            "name": "F#3",
            "midi": 54,
            "time": 47.86887,
            "duration": 0.16393,
            "velocity": 0.4409448818897638
        },
        {
            "name": "F#5",
            "midi": 78,
            "time": 48.03281,
            "duration": 0.16393,
            "velocity": 0.5118110236220472
        },
        {
            "name": "C#4",
            "midi": 61,
            "time": 48.03281,
            "duration": 0.16393,
            "velocity": 0.49606299212598426
        },
        {
            "name": "F#3",
            "midi": 54,
            "time": 48.03281,
            "duration": 0.16393,
            "velocity": 0.4409448818897638
        },
        {
            "name": "B4",
            "midi": 71,
            "time": 48.19674,
            "duration": 0.16393,
            "velocity": 0.4094488188976378
        },
        {
            "name": "F#3",
            "midi": 54,
            "time": 48.19674,
            "duration": 0.32787,
            "velocity": 0.5590551181102362
        },
        {
            "name": "C#4",
            "midi": 61,
            "time": 48.19674,
            "duration": 0.33436,
            "velocity": 0.6141732283464567
        },
        {
            "name": "C#5",
            "midi": 73,
            "time": 48.36068,
            "duration": 0.16393,
            "velocity": 0.41732283464566927
        },
        {
            "name": "F#5",
            "midi": 78,
            "time": 48.52461,
            "duration": 0.16393,
            "velocity": 0.5118110236220472
        },
        {
            "name": "F#3",
            "midi": 54,
            "time": 48.52461,
            "duration": 0.16667,
            "velocity": 0.5511811023622047
        },
        {
            "name": "D#4",
            "midi": 63,
            "time": 48.52461,
            "duration": 0.16667,
            "velocity": 0.5669291338582677
        },
        {
            "name": "B4",
            "midi": 71,
            "time": 48.68855,
            "duration": 0.16393,
            "velocity": 0.4094488188976378
        },
        {
            "name": "C#4",
            "midi": 61,
            "time": 48.68855,
            "duration": 0.33436,
            "velocity": 0.5669291338582677
        },
        {
            "name": "C#5",
            "midi": 73,
            "time": 48.85248,
            "duration": 0.16393,
            "velocity": 0.41732283464566927
        },
        {
            "name": "B3",
            "midi": 59,
            "time": 49.01642,
            "duration": 0.16393,
            "velocity": 0.5669291338582677
        },
        {
            "name": "F#5",
            "midi": 78,
            "time": 49.01642,
            "duration": 0.16393,
            "velocity": 0.5118110236220472
        },
        {
            "name": "B4",
            "midi": 71,
            "time": 49.18035,
            "duration": 0.16393,
            "velocity": 0.4094488188976378
        },
        {
            "name": "B2",
            "midi": 47,
            "time": 49.18035,
            "duration": 0.93374,
            "velocity": 0.47244094488188976
        },
        {
            "name": "B3",
            "midi": 59,
            "time": 49.18035,
            "duration": 1.86851,
            "velocity": 0.5984251968503937
        },
        {
            "name": "C#5",
            "midi": 73,
            "time": 49.34428,
            "duration": 0.16393,
            "velocity": 0.41732283464566927
        },
        {
            "name": "F#5",
            "midi": 78,
            "time": 49.50822,
            "duration": 0.16393,
            "velocity": 0.5118110236220472
        },
        {
            "name": "B4",
            "midi": 71,
            "time": 49.67215,
            "duration": 0.16393,
            "velocity": 0.4094488188976378
        },
        {
            "name": "C#5",
            "midi": 73,
            "time": 49.83609,
            "duration": 0.16393,
            "velocity": 0.41732283464566927
        },
        {
            "name": "F#5",
            "midi": 78,
            "time": 50.00002,
            "duration": 0.16393,
            "velocity": 0.5118110236220472
        },
        {
            "name": "B4",
            "midi": 71,
            "time": 50.16396,
            "duration": 0.16393,
            "velocity": 0.4094488188976378
        },
        {
            "name": "B1",
            "midi": 35,
            "time": 50.16396,
            "duration": 0.4918,
            "velocity": 0.4645669291338583
        },
        {
            "name": "C#5",
            "midi": 73,
            "time": 50.32789,
            "duration": 0.16393,
            "velocity": 0.41732283464566927
        },
        {
            "name": "F#5",
            "midi": 78,
            "time": 50.49183,
            "duration": 0.16393,
            "velocity": 0.5118110236220472
        },
        {
            "name": "B4",
            "midi": 71,
            "time": 50.65576,
            "duration": 0.16393,
            "velocity": 0.4094488188976378
        },
        {
            "name": "B3",
            "midi": 59,
            "time": 50.65576,
            "duration": 0.3931,
            "velocity": 0.5275590551181102
        },
        {
            "name": "D#3",
            "midi": 51,
            "time": 50.65576,
            "duration": 0.4918,
            "velocity": 0.5275590551181102
        },
        {
            "name": "C#5",
            "midi": 73,
            "time": 50.8197,
            "duration": 0.16393,
            "velocity": 0.41732283464566927
        },
        {
            "name": "F#5",
            "midi": 78,
            "time": 50.98363,
            "duration": 0.16393,
            "velocity": 0.5118110236220472
        },
        {
            "name": "D#2",
            "midi": 39,
            "time": 50.99388,
            "duration": 2.1209,
            "velocity": 0.4881889763779528
        },
        {
            "name": "B2",
            "midi": 47,
            "time": 51.07345,
            "duration": 2.04133,
            "velocity": 0.4881889763779528
        },
        {
            "name": "B4",
            "midi": 71,
            "time": 51.14756,
            "duration": 0.16393,
            "velocity": 0.4094488188976378
        },
        {
            "name": "F#3",
            "midi": 54,
            "time": 51.15269,
            "duration": 0.65062,
            "velocity": 0.4881889763779528
        },
        {
            "name": "C#5",
            "midi": 73,
            "time": 51.3115,
            "duration": 0.16393,
            "velocity": 0.41732283464566927
        },
        {
            "name": "F#5",
            "midi": 78,
            "time": 51.47543,
            "duration": 0.16393,
            "velocity": 0.5118110236220472
        },
        {
            "name": "B3",
            "midi": 59,
            "time": 51.63937,
            "duration": 0.16393,
            "velocity": 0.5590551181102362
        },
        {
            "name": "D#4",
            "midi": 63,
            "time": 51.63937,
            "duration": 0.16393,
            "velocity": 0.6141732283464567
        },
        {
            "name": "F#3",
            "midi": 54,
            "time": 51.63937,
            "duration": 0.16393,
            "velocity": 0.5590551181102362
        },
        {
            "name": "B4",
            "midi": 71,
            "time": 51.63937,
            "duration": 0.16393,
            "velocity": 0.4094488188976378
        },
        {
            "name": "C#5",
            "midi": 73,
            "time": 51.8033,
            "duration": 0.16393,
            "velocity": 0.41732283464566927
        },
        {
            "name": "B3",
            "midi": 59,
            "time": 51.8033,
            "duration": 0.16393,
            "velocity": 0.5039370078740157
        },
        {
            "name": "F#3",
            "midi": 54,
            "time": 51.8033,
            "duration": 0.16393,
            "velocity": 0.5039370078740157
        },
        {
            "name": "D#4",
            "midi": 63,
            "time": 51.8033,
            "duration": 0.16393,
            "velocity": 0.5590551181102362
        },
        {
            "name": "F#5",
            "midi": 78,
            "time": 51.96724,
            "duration": 0.16393,
            "velocity": 0.5118110236220472
        },
        {
            "name": "B3",
            "midi": 59,
            "time": 51.96724,
            "duration": 0.16393,
            "velocity": 0.5039370078740157
        },
        {
            "name": "F#3",
            "midi": 54,
            "time": 51.96724,
            "duration": 0.16393,
            "velocity": 0.5039370078740157
        },
        {
            "name": "D#4",
            "midi": 63,
            "time": 51.96724,
            "duration": 0.16393,
            "velocity": 0.5590551181102362
        },
        {
            "name": "B4",
            "midi": 71,
            "time": 52.13117,
            "duration": 0.16393,
            "velocity": 0.4094488188976378
        },
        {
            "name": "B3",
            "midi": 59,
            "time": 52.13117,
            "duration": 0.33436,
            "velocity": 0.5590551181102362
        },
        {
            "name": "F#3",
            "midi": 54,
            "time": 52.13117,
            "duration": 0.33436,
            "velocity": 0.5590551181102362
        },
        {
            "name": "D#4",
            "midi": 63,
            "time": 52.13117,
            "duration": 0.33436,
            "velocity": 0.6141732283464567
        },
        {
            "name": "C#5",
            "midi": 73,
            "time": 52.29511,
            "duration": 0.16393,
            "velocity": 0.41732283464566927
        },
        {
            "name": "F#5",
            "midi": 78,
            "time": 52.45904,
            "duration": 0.16393,
            "velocity": 0.5118110236220472
        },
        {
            "name": "E4",
            "midi": 64,
            "time": 52.45904,
            "duration": 0.16667,
            "velocity": 0.5748031496062992
        },
        {
            "name": "B4",
            "midi": 71,
            "time": 52.62297,
            "duration": 0.16393,
            "velocity": 0.4094488188976378
        },
        {
            "name": "B3",
            "midi": 59,
            "time": 52.62297,
            "duration": 0.33436,
            "velocity": 0.5748031496062992
        },
        {
            "name": "D#4",
            "midi": 63,
            "time": 52.62297,
            "duration": 0.33436,
            "velocity": 0.6299212598425197
        },
        {
            "name": "C#5",
            "midi": 73,
            "time": 52.78691,
            "duration": 0.16393,
            "velocity": 0.41732283464566927
        },
        {
            "name": "F#5",
            "midi": 78,
            "time": 52.95084,
            "duration": 0.16393,
            "velocity": 0.5118110236220472
        },
        {
            "name": "C#4",
            "midi": 61,
            "time": 52.95084,
            "duration": 0.16667,
            "velocity": 0.5590551181102362
        },
        {
            "name": "B4",
            "midi": 71,
            "time": 53.11478,
            "duration": 0.16393,
            "velocity": 0.4094488188976378
        },
        {
            "name": "E3",
            "midi": 52,
            "time": 53.11478,
            "duration": 0.93374,
            "velocity": 0.47244094488188976
        },
        {
            "name": "B3",
            "midi": 59,
            "time": 53.11478,
            "duration": 1.86851,
            "velocity": 0.5669291338582677
        },
        {
            "name": "C#5",
            "midi": 73,
            "time": 53.27871,
            "duration": 0.16393,
            "velocity": 0.41732283464566927
        },
        {
            "name": "F#5",
            "midi": 78,
            "time": 53.44265,
            "duration": 0.16393,
            "velocity": 0.5118110236220472
        },
        {
            "name": "B4",
            "midi": 71,
            "time": 53.60658,
            "duration": 0.16393,
            "velocity": 0.4094488188976378
        },
        {
            "name": "C#5",
            "midi": 73,
            "time": 53.77052,
            "duration": 0.16393,
            "velocity": 0.41732283464566927
        },
        {
            "name": "F#5",
            "midi": 78,
            "time": 53.93445,
            "duration": 0.16393,
            "velocity": 0.5118110236220472
        },
        {
            "name": "B4",
            "midi": 71,
            "time": 54.09838,
            "duration": 0.16393,
            "velocity": 0.4094488188976378
        },
        {
            "name": "E2",
            "midi": 40,
            "time": 54.09838,
            "duration": 0.98361,
            "velocity": 0.4645669291338583
        },
        {
            "name": "C#5",
            "midi": 73,
            "time": 54.26232,
            "duration": 0.16393,
            "velocity": 0.41732283464566927
        },
        {
            "name": "F#5",
            "midi": 78,
            "time": 54.42625,
            "duration": 0.16393,
            "velocity": 0.5118110236220472
        },
        {
            "name": "B4",
            "midi": 71,
            "time": 54.59019,
            "duration": 0.16393,
            "velocity": 0.4094488188976378
        },
        {
            "name": "C#5",
            "midi": 73,
            "time": 54.75412,
            "duration": 0.16393,
            "velocity": 0.41732283464566927
        },
        {
            "name": "F#5",
            "midi": 78,
            "time": 54.91806,
            "duration": 0.16393,
            "velocity": 0.5118110236220472
        },
        {
            "name": "B4",
            "midi": 71,
            "time": 55.08199,
            "duration": 0.16393,
            "velocity": 0.4094488188976378
        },
        {
            "name": "F#3",
            "midi": 54,
            "time": 55.08199,
            "duration": 0.65574,
            "velocity": 0.49606299212598426
        },
        {
            "name": "F#2",
            "midi": 42,
            "time": 55.08199,
            "duration": 1.96721,
            "velocity": 0.49606299212598426
        },
        {
            "name": "C#5",
            "midi": 73,
            "time": 55.24593,
            "duration": 0.16393,
            "velocity": 0.41732283464566927
        },
        {
            "name": "F#5",
            "midi": 78,
            "time": 55.40986,
            "duration": 0.16393,
            "velocity": 0.5118110236220472
        },
        {
            "name": "B3",
            "midi": 59,
            "time": 55.5738,
            "duration": 0.16393,
            "velocity": 0.5590551181102362
        },
        {
            "name": "F#3",
            "midi": 54,
            "time": 55.5738,
            "duration": 0.16393,
            "velocity": 0.5590551181102362
        },
        {
            "name": "D#4",
            "midi": 63,
            "time": 55.5738,
            "duration": 0.16393,
            "velocity": 0.6141732283464567
        },
        {
            "name": "B4",
            "midi": 71,
            "time": 55.5738,
            "duration": 0.16393,
            "velocity": 0.4094488188976378
        },
        {
            "name": "C#5",
            "midi": 73,
            "time": 55.73773,
            "duration": 0.16393,
            "velocity": 0.41732283464566927
        },
        {
            "name": "F#3",
            "midi": 54,
            "time": 55.73773,
            "duration": 0.16393,
            "velocity": 0.5039370078740157
        },
        {
            "name": "B3",
            "midi": 59,
            "time": 55.73773,
            "duration": 0.16393,
            "velocity": 0.5039370078740157
        },
        {
            "name": "D#4",
            "midi": 63,
            "time": 55.73773,
            "duration": 0.16393,
            "velocity": 0.5590551181102362
        },
        {
            "name": "F#5",
            "midi": 78,
            "time": 55.90166,
            "duration": 0.16393,
            "velocity": 0.5118110236220472
        },
        {
            "name": "F#3",
            "midi": 54,
            "time": 55.90166,
            "duration": 0.16393,
            "velocity": 0.5039370078740157
        },
        {
            "name": "B3",
            "midi": 59,
            "time": 55.90166,
            "duration": 0.16393,
            "velocity": 0.5039370078740157
        },
        {
            "name": "D#4",
            "midi": 63,
            "time": 55.90166,
            "duration": 0.16393,
            "velocity": 0.5590551181102362
        },
        {
            "name": "B4",
            "midi": 71,
            "time": 56.0656,
            "duration": 0.16393,
            "velocity": 0.4094488188976378
        },
        {
            "name": "B3",
            "midi": 59,
            "time": 56.0656,
            "duration": 0.33436,
            "velocity": 0.5590551181102362
        },
        {
            "name": "D#4",
            "midi": 63,
            "time": 56.0656,
            "duration": 0.33436,
            "velocity": 0.6141732283464567
        },
        {
            "name": "F#3",
            "midi": 54,
            "time": 56.0656,
            "duration": 0.33436,
            "velocity": 0.5590551181102362
        },
        {
            "name": "C#5",
            "midi": 73,
            "time": 56.22953,
            "duration": 0.16393,
            "velocity": 0.41732283464566927
        },
        {
            "name": "F#5",
            "midi": 78,
            "time": 56.39347,
            "duration": 0.16393,
            "velocity": 0.5118110236220472
        },
        {
            "name": "C#4",
            "midi": 61,
            "time": 56.39347,
            "duration": 0.16393,
            "velocity": 0.5748031496062992
        },
        {
            "name": "B4",
            "midi": 71,
            "time": 56.5574,
            "duration": 0.16393,
            "velocity": 0.4094488188976378
        },
        {
            "name": "C#4",
            "midi": 61,
            "time": 56.5574,
            "duration": 0.33436,
            "velocity": 0.6141732283464567
        },
        {
            "name": "C#5",
            "midi": 73,
            "time": 56.72134,
            "duration": 0.16393,
            "velocity": 0.41732283464566927
        },
        {
            "name": "B3",
            "midi": 59,
            "time": 56.88527,
            "duration": 0.16393,
            "velocity": 0.5511811023622047
        },
        {
            "name": "F#5",
            "midi": 78,
            "time": 56.88527,
            "duration": 0.16393,
            "velocity": 0.5118110236220472
        },
        {
            "name": "B4",
            "midi": 71,
            "time": 57.04921,
            "duration": 0.16393,
            "velocity": 0.4094488188976378
        },
        {
            "name": "D#4",
            "midi": 63,
            "time": 57.04921,
            "duration": 0.4918,
            "velocity": 0.6692913385826772
        },
        {
            "name": "B3",
            "midi": 59,
            "time": 57.04921,
            "duration": 0.50068,
            "velocity": 0.6141732283464567
        },
        {
            "name": "G#3",
            "midi": 56,
            "time": 57.04921,
            "duration": 1.86851,
            "velocity": 0.48031496062992124
        },
        {
            "name": "C#5",
            "midi": 73,
            "time": 57.21314,
            "duration": 0.16393,
            "velocity": 0.41732283464566927
        },
        {
            "name": "F#5",
            "midi": 78,
            "time": 57.37708,
            "duration": 0.16393,
            "velocity": 0.5118110236220472
        },
        {
            "name": "B4",
            "midi": 71,
            "time": 57.54101,
            "duration": 0.16393,
            "velocity": 0.4094488188976378
        },
        {
            "name": "D#4",
            "midi": 63,
            "time": 57.54101,
            "duration": 0.33436,
            "velocity": 0.6377952755905512
        },
        {
            "name": "C#5",
            "midi": 73,
            "time": 57.70494,
            "duration": 0.16393,
            "velocity": 0.41732283464566927
        },
        {
            "name": "F#5",
            "midi": 78,
            "time": 57.86888,
            "duration": 0.16393,
            "velocity": 0.5118110236220472
        },
        {
            "name": "F#4",
            "midi": 66,
            "time": 57.86888,
            "duration": 0.16667,
            "velocity": 0.5984251968503937
        },
        {
            "name": "B4",
            "midi": 71,
            "time": 58.03281,
            "duration": 0.16393,
            "velocity": 0.4094488188976378
        },
        {
            "name": "C#4",
            "midi": 61,
            "time": 58.03281,
            "duration": 0.50068,
            "velocity": 0.5984251968503937
        },
        {
            "name": "C#5",
            "midi": 73,
            "time": 58.19675,
            "duration": 0.16393,
            "velocity": 0.41732283464566927
        },
        {
            "name": "F#5",
            "midi": 78,
            "time": 58.36068,
            "duration": 0.16393,
            "velocity": 0.5118110236220472
        },
        {
            "name": "B4",
            "midi": 71,
            "time": 58.52462,
            "duration": 0.16393,
            "velocity": 0.4094488188976378
        },
        {
            "name": "B3",
            "midi": 59,
            "time": 58.52462,
            "duration": 0.46619,
            "velocity": 0.5669291338582677
        },
        {
            "name": "C#5",
            "midi": 73,
            "time": 58.68855,
            "duration": 0.16393,
            "velocity": 0.41732283464566927
        },
        {
            "name": "F#5",
            "midi": 78,
            "time": 58.85249,
            "duration": 0.16393,
            "velocity": 0.5118110236220472
        },
        {
            "name": "D#2",
            "midi": 39,
            "time": 58.86273,
            "duration": 2.1209,
            "velocity": 0.47244094488188976
        },
        {
            "name": "B2",
            "midi": 47,
            "time": 58.94231,
            "duration": 2.04133,
            "velocity": 0.47244094488188976
        },
        {
            "name": "B4",
            "midi": 71,
            "time": 59.01642,
            "duration": 0.16393,
            "velocity": 0.4094488188976378
        },
        {
            "name": "F#3",
            "midi": 54,
            "time": 59.02154,
            "duration": 0.65062,
            "velocity": 0.47244094488188976
        },
        {
            "name": "C#5",
            "midi": 73,
            "time": 59.18035,
            "duration": 0.16393,
            "velocity": 0.41732283464566927
        },
        {
            "name": "F#5",
            "midi": 78,
            "time": 59.34429,
            "duration": 0.16393,
            "velocity": 0.5118110236220472
        },
        {
            "name": "B4",
            "midi": 71,
            "time": 59.50822,
            "duration": 0.16393,
            "velocity": 0.4094488188976378
        },
        {
            "name": "D#4",
            "midi": 63,
            "time": 59.50822,
            "duration": 0.16393,
            "velocity": 0.6220472440944882
        },
        {
            "name": "F#3",
            "midi": 54,
            "time": 59.50822,
            "duration": 0.16393,
            "velocity": 0.5669291338582677
        },
        {
            "name": "C#5",
            "midi": 73,
            "time": 59.67216,
            "duration": 0.16393,
            "velocity": 0.41732283464566927
        },
        {
            "name": "B3",
            "midi": 59,
            "time": 59.67216,
            "duration": 0.16393,
            "velocity": 0.5118110236220472
        },
        {
            "name": "F#3",
            "midi": 54,
            "time": 59.67216,
            "duration": 0.16393,
            "velocity": 0.5118110236220472
        },
        {
            "name": "D#4",
            "midi": 63,
            "time": 59.67216,
            "duration": 0.16393,
            "velocity": 0.5669291338582677
        },
        {
            "name": "F#5",
            "midi": 78,
            "time": 59.83609,
            "duration": 0.16393,
            "velocity": 0.5118110236220472
        },
        {
            "name": "B3",
            "midi": 59,
            "time": 59.83609,
            "duration": 0.16393,
            "velocity": 0.5118110236220472
        },
        {
            "name": "F#3",
            "midi": 54,
            "time": 59.83609,
            "duration": 0.16393,
            "velocity": 0.5118110236220472
        },
        {
            "name": "D#4",
            "midi": 63,
            "time": 59.83609,
            "duration": 0.16393,
            "velocity": 0.5669291338582677
        },
        {
            "name": "B4",
            "midi": 71,
            "time": 60.00003,
            "duration": 0.16393,
            "velocity": 0.4094488188976378
        },
        {
            "name": "B3",
            "midi": 59,
            "time": 60.00003,
            "duration": 0.33436,
            "velocity": 0.5669291338582677
        },
        {
            "name": "F#3",
            "midi": 54,
            "time": 60.00003,
            "duration": 0.33436,
            "velocity": 0.5669291338582677
        },
        {
            "name": "D#4",
            "midi": 63,
            "time": 60.00003,
            "duration": 0.33436,
            "velocity": 0.6220472440944882
        },
        {
            "name": "C#5",
            "midi": 73,
            "time": 60.16396,
            "duration": 0.16393,
            "velocity": 0.41732283464566927
        },
        {
            "name": "F#5",
            "midi": 78,
            "time": 60.3279,
            "duration": 0.16393,
            "velocity": 0.5118110236220472
        },
        {
            "name": "C#4",
            "midi": 61,
            "time": 60.3279,
            "duration": 0.16393,
            "velocity": 0.5669291338582677
        },
        {
            "name": "B4",
            "midi": 71,
            "time": 60.49183,
            "duration": 0.16393,
            "velocity": 0.4094488188976378
        },
        {
            "name": "C#4",
            "midi": 61,
            "time": 60.49183,
            "duration": 0.33436,
            "velocity": 0.6141732283464567
        },
        {
            "name": "C#5",
            "midi": 73,
            "time": 60.65576,
            "duration": 0.16393,
            "velocity": 0.41732283464566927
        },
        {
            "name": "F#5",
            "midi": 78,
            "time": 60.8197,
            "duration": 0.16393,
            "velocity": 0.5118110236220472
        },
        {
            "name": "B3",
            "midi": 59,
            "time": 60.8197,
            "duration": 0.16393,
            "velocity": 0.6062992125984252
        },
        {
            "name": "B4",
            "midi": 71,
            "time": 60.98363,
            "duration": 0.16393,
            "velocity": 0.4094488188976378
        },
        {
            "name": "E3",
            "midi": 52,
            "time": 60.98363,
            "duration": 0.93374,
            "velocity": 0.47244094488188976
        },
        {
            "name": "B3",
            "midi": 59,
            "time": 60.98363,
            "duration": 1.86851,
            "velocity": 0.5905511811023622
        },
        {
            "name": "C#5",
            "midi": 73,
            "time": 61.14757,
            "duration": 0.16393,
            "velocity": 0.41732283464566927
        },
        {
            "name": "F#5",
            "midi": 78,
            "time": 61.3115,
            "duration": 0.16393,
            "velocity": 0.5118110236220472
        },
        {
            "name": "B4",
            "midi": 71,
            "time": 61.47544,
            "duration": 0.16393,
            "velocity": 0.4094488188976378
        },
        {
            "name": "C#5",
            "midi": 73,
            "time": 61.63937,
            "duration": 0.16393,
            "velocity": 0.41732283464566927
        },
        {
            "name": "F#5",
            "midi": 78,
            "time": 61.80331,
            "duration": 0.16393,
            "velocity": 0.5118110236220472
        },
        {
            "name": "B4",
            "midi": 71,
            "time": 61.96724,
            "duration": 0.16393,
            "velocity": 0.4094488188976378
        },
        {
            "name": "E2",
            "midi": 40,
            "time": 61.96724,
            "duration": 0.98361,
            "velocity": 0.4645669291338583
        },
        {
            "name": "C#5",
            "midi": 73,
            "time": 62.13118,
            "duration": 0.16393,
            "velocity": 0.41732283464566927
        },
        {
            "name": "F#5",
            "midi": 78,
            "time": 62.29511,
            "duration": 0.16393,
            "velocity": 0.5118110236220472
        },
        {
            "name": "B4",
            "midi": 71,
            "time": 62.45904,
            "duration": 0.16393,
            "velocity": 0.4094488188976378
        },
        {
            "name": "C#5",
            "midi": 73,
            "time": 62.62298,
            "duration": 0.16393,
            "velocity": 0.41732283464566927
        },
        {
            "name": "F#5",
            "midi": 78,
            "time": 62.78691,
            "duration": 0.16393,
            "velocity": 0.5118110236220472
        },
        {
            "name": "B4",
            "midi": 71,
            "time": 62.95085,
            "duration": 0.16393,
            "velocity": 0.4094488188976378
        },
        {
            "name": "F#3",
            "midi": 54,
            "time": 62.95085,
            "duration": 0.65574,
            "velocity": 0.49606299212598426
        },
        {
            "name": "F#2",
            "midi": 42,
            "time": 62.95085,
            "duration": 1.96721,
            "velocity": 0.49606299212598426
        },
        {
            "name": "C#5",
            "midi": 73,
            "time": 63.11478,
            "duration": 0.16393,
            "velocity": 0.41732283464566927
        },
        {
            "name": "F#5",
            "midi": 78,
            "time": 63.27872,
            "duration": 0.16393,
            "velocity": 0.5118110236220472
        },
        {
            "name": "B4",
            "midi": 71,
            "time": 63.44265,
            "duration": 0.16393,
            "velocity": 0.4094488188976378
        },
        {
            "name": "F#3",
            "midi": 54,
            "time": 63.44265,
            "duration": 0.16393,
            "velocity": 0.5590551181102362
        },
        {
            "name": "C#4",
            "midi": 61,
            "time": 63.44265,
            "duration": 0.16393,
            "velocity": 0.6141732283464567
        },
        {
            "name": "C#5",
            "midi": 73,
            "time": 63.60659,
            "duration": 0.16393,
            "velocity": 0.41732283464566927
        },
        {
            "name": "C#4",
            "midi": 61,
            "time": 63.60659,
            "duration": 0.16393,
            "velocity": 0.4881889763779528
        },
        {
            "name": "F#3",
            "midi": 54,
            "time": 63.60659,
            "duration": 0.16393,
            "velocity": 0.4330708661417323
        },
        {
            "name": "F#5",
            "midi": 78,
            "time": 63.77052,
            "duration": 0.16393,
            "velocity": 0.5118110236220472
        },
        {
            "name": "C#4",
            "midi": 61,
            "time": 63.77052,
            "duration": 0.16393,
            "velocity": 0.4881889763779528
        },
        {
            "name": "F#3",
            "midi": 54,
            "time": 63.77052,
            "duration": 0.16393,
            "velocity": 0.4330708661417323
        },
        {
            "name": "B4",
            "midi": 71,
            "time": 63.93446,
            "duration": 0.16393,
            "velocity": 0.4094488188976378
        },
        {
            "name": "F#3",
            "midi": 54,
            "time": 63.93446,
            "duration": 0.32787,
            "velocity": 0.5590551181102362
        },
        {
            "name": "C#4",
            "midi": 61,
            "time": 63.93446,
            "duration": 0.33436,
            "velocity": 0.6141732283464567
        },
        {
            "name": "C#5",
            "midi": 73,
            "time": 64.09839,
            "duration": 0.16393,
            "velocity": 0.41732283464566927
        },
        {
            "name": "F#5",
            "midi": 78,
            "time": 64.26232,
            "duration": 0.16393,
            "velocity": 0.5118110236220472
        },
        {
            "name": "D#4",
            "midi": 63,
            "time": 64.26232,
            "duration": 0.16667,
            "velocity": 0.5196850393700787
        },
        {
            "name": "F#3",
            "midi": 54,
            "time": 64.26232,
            "duration": 0.16667,
            "velocity": 0.5590551181102362
        },
        {
            "name": "B4",
            "midi": 71,
            "time": 64.42626,
            "duration": 0.16393,
            "velocity": 0.4094488188976378
        },
        {
            "name": "C#4",
            "midi": 61,
            "time": 64.42626,
            "duration": 0.33436,
            "velocity": 0.5511811023622047
        },
        {
            "name": "C#5",
            "midi": 73,
            "time": 64.59019,
            "duration": 0.16393,
            "velocity": 0.41732283464566927
        },
        {
            "name": "B3",
            "midi": 59,
            "time": 64.75413,
            "duration": 0.16393,
            "velocity": 0.5590551181102362
        },
        {
            "name": "F#5",
            "midi": 78,
            "time": 64.75413,
            "duration": 0.16393,
            "velocity": 0.5118110236220472
        },
        {
            "name": "B4",
            "midi": 71,
            "time": 64.91806,
            "duration": 0.16393,
            "velocity": 0.4094488188976378
        },
        {
            "name": "B2",
            "midi": 47,
            "time": 64.91806,
            "duration": 0.93374,
            "velocity": 0.47244094488188976
        },
        {
            "name": "B3",
            "midi": 59,
            "time": 64.91806,
            "duration": 1.86851,
            "velocity": 0.5984251968503937
        },
        {
            "name": "C#5",
            "midi": 73,
            "time": 65.082,
            "duration": 0.16393,
            "velocity": 0.41732283464566927
        },
        {
            "name": "F#5",
            "midi": 78,
            "time": 65.24593,
            "duration": 0.16393,
            "velocity": 0.5118110236220472
        },
        {
            "name": "B4",
            "midi": 71,
            "time": 65.40987,
            "duration": 0.16393,
            "velocity": 0.4094488188976378
        },
        {
            "name": "C#5",
            "midi": 73,
            "time": 65.5738,
            "duration": 0.16393,
            "velocity": 0.41732283464566927
        },
        {
            "name": "F#5",
            "midi": 78,
            "time": 65.73773,
            "duration": 0.16393,
            "velocity": 0.5118110236220472
        },
        {
            "name": "B4",
            "midi": 71,
            "time": 65.90167,
            "duration": 0.16393,
            "velocity": 0.4094488188976378
        },
        {
            "name": "B1",
            "midi": 35,
            "time": 65.90167,
            "duration": 0.4918,
            "velocity": 0.4645669291338583
        },
        {
            "name": "C#5",
            "midi": 73,
            "time": 66.0656,
            "duration": 0.16393,
            "velocity": 0.41732283464566927
        },
        {
            "name": "F#5",
            "midi": 78,
            "time": 66.22954,
            "duration": 0.16393,
            "velocity": 0.5118110236220472
        },
        {
            "name": "B4",
            "midi": 71,
            "time": 66.39347,
            "duration": 0.16393,
            "velocity": 0.4094488188976378
        },
        {
            "name": "B3",
            "midi": 59,
            "time": 66.39347,
            "duration": 0.3931,
            "velocity": 0.5275590551181102
        },
        {
            "name": "D#3",
            "midi": 51,
            "time": 66.39347,
            "duration": 0.4918,
            "velocity": 0.5275590551181102
        },
        {
            "name": "C#5",
            "midi": 73,
            "time": 66.55741,
            "duration": 0.16393,
            "velocity": 0.41732283464566927
        },
        {
            "name": "F#5",
            "midi": 78,
            "time": 66.72134,
            "duration": 0.16393,
            "velocity": 0.5118110236220472
        },
        {
            "name": "D#2",
            "midi": 39,
            "time": 66.73159,
            "duration": 2.1209,
            "velocity": 0.4881889763779528
        },
        {
            "name": "B2",
            "midi": 47,
            "time": 66.81116,
            "duration": 2.04133,
            "velocity": 0.4881889763779528
        },
        {
            "name": "B4",
            "midi": 71,
            "time": 66.88528,
            "duration": 0.16393,
            "velocity": 0.4094488188976378
        },
        {
            "name": "F#3",
            "midi": 54,
            "time": 66.8904,
            "duration": 1.96209,
            "velocity": 0.4881889763779528
        },
        {
            "name": "C#5",
            "midi": 73,
            "time": 67.04921,
            "duration": 0.16393,
            "velocity": 0.41732283464566927
        },
        {
            "name": "F#5",
            "midi": 78,
            "time": 67.21314,
            "duration": 0.16393,
            "velocity": 0.5118110236220472
        },
        {
            "name": "B4",
            "midi": 71,
            "time": 67.37708,
            "duration": 0.16393,
            "velocity": 0.4094488188976378
        },
        {
            "name": "C#5",
            "midi": 73,
            "time": 67.54101,
            "duration": 0.16393,
            "velocity": 0.41732283464566927
        },
        {
            "name": "F#5",
            "midi": 78,
            "time": 67.70495,
            "duration": 0.16393,
            "velocity": 0.5118110236220472
        },
        {
            "name": "B4",
            "midi": 71,
            "time": 67.86888,
            "duration": 0.16393,
            "velocity": 0.4094488188976378
        },
        {
            "name": "C#4",
            "midi": 61,
            "time": 67.86888,
            "duration": 0.33436,
            "velocity": 0.6141732283464567
        },
        {
            "name": "C#5",
            "midi": 73,
            "time": 68.03282,
            "duration": 0.16393,
            "velocity": 0.41732283464566927
        },
        {
            "name": "F#5",
            "midi": 78,
            "time": 68.19675,
            "duration": 0.16393,
            "velocity": 0.5118110236220472
        },
        {
            "name": "B3",
            "midi": 59,
            "time": 68.19675,
            "duration": 0.33436,
            "velocity": 0.6062992125984252
        },
        {
            "name": "B4",
            "midi": 71,
            "time": 68.36069,
            "duration": 0.16393,
            "velocity": 0.4094488188976378
        },
        {
            "name": "C#5",
            "midi": 73,
            "time": 68.52462,
            "duration": 0.16393,
            "velocity": 0.41732283464566927
        },
        {
            "name": "F#3",
            "midi": 54,
            "time": 68.52462,
            "duration": 0.32787,
            "velocity": 0.5748031496062992
        },
        {
            "name": "F#5",
            "midi": 78,
            "time": 68.68856,
            "duration": 0.16393,
            "velocity": 0.5118110236220472
        },
        {
            "name": "B4",
            "midi": 71,
            "time": 68.85249,
            "duration": 0.16393,
            "velocity": 0.4094488188976378
        },
        {
            "name": "E2",
            "midi": 40,
            "time": 68.85249,
            "duration": 0.93374,
            "velocity": 0.47244094488188976
        },
        {
            "name": "E3",
            "midi": 52,
            "time": 68.85249,
            "duration": 1.86851,
            "velocity": 0.5748031496062992
        },
        {
            "name": "C#5",
            "midi": 73,
            "time": 69.01642,
            "duration": 0.16393,
            "velocity": 0.41732283464566927
        },
        {
            "name": "F#5",
            "midi": 78,
            "time": 69.18036,
            "duration": 0.16393,
            "velocity": 0.5118110236220472
        },
        {
            "name": "B4",
            "midi": 71,
            "time": 69.34429,
            "duration": 0.16393,
            "velocity": 0.4094488188976378
        },
        {
            "name": "C#5",
            "midi": 73,
            "time": 69.50823,
            "duration": 0.16393,
            "velocity": 0.41732283464566927
        },
        {
            "name": "F#5",
            "midi": 78,
            "time": 69.67216,
            "duration": 0.16393,
            "velocity": 0.5118110236220472
        },
        {
            "name": "E3",
            "midi": 52,
            "time": 69.71315,
            "duration": 1.00786,
            "velocity": 0.44881889763779526
        },
        {
            "name": "G#3",
            "midi": 56,
            "time": 69.77462,
            "duration": 1.04508,
            "velocity": 0.44881889763779526
        },
        {
            "name": "B3",
            "midi": 59,
            "time": 69.79511,
            "duration": 1.02459,
            "velocity": 0.44881889763779526
        },
        {
            "name": "B4",
            "midi": 71,
            "time": 69.8361,
            "duration": 0.16393,
            "velocity": 0.4094488188976378
        },
        {
            "name": "D#4",
            "midi": 63,
            "time": 69.8361,
            "duration": 0.98361,
            "velocity": 0.44881889763779526
        },
        {
            "name": "C#5",
            "midi": 73,
            "time": 70.00003,
            "duration": 0.16393,
            "velocity": 0.41732283464566927
        },
        {
            "name": "F#5",
            "midi": 78,
            "time": 70.16397,
            "duration": 0.16393,
            "velocity": 0.5118110236220472
        },
        {
            "name": "B4",
            "midi": 71,
            "time": 70.3279,
            "duration": 0.16393,
            "velocity": 0.4094488188976378
        },
        {
            "name": "C#5",
            "midi": 73,
            "time": 70.49183,
            "duration": 0.16393,
            "velocity": 0.41732283464566927
        },
        {
            "name": "F#5",
            "midi": 78,
            "time": 70.65577,
            "duration": 0.16393,
            "velocity": 0.5118110236220472
        },
        {
            "name": "B4",
            "midi": 71,
            "time": 70.8197,
            "duration": 0.16393,
            "velocity": 0.4094488188976378
        },
        {
            "name": "F#3",
            "midi": 54,
            "time": 70.8197,
            "duration": 0.98361,
            "velocity": 0.4645669291338583
        },
        {
            "name": "F#2",
            "midi": 42,
            "time": 70.8197,
            "duration": 0.98361,
            "velocity": 0.4645669291338583
        },
        {
            "name": "C#5",
            "midi": 73,
            "time": 70.98364,
            "duration": 0.16393,
            "velocity": 0.41732283464566927
        },
        {
            "name": "F#5",
            "midi": 78,
            "time": 71.14757,
            "duration": 0.16393,
            "velocity": 0.5118110236220472
        },
        {
            "name": "B4",
            "midi": 71,
            "time": 71.31151,
            "duration": 0.16393,
            "velocity": 0.4094488188976378
        },
        {
            "name": "C#5",
            "midi": 73,
            "time": 71.47544,
            "duration": 0.16393,
            "velocity": 0.41732283464566927
        },
        {
            "name": "F#5",
            "midi": 78,
            "time": 71.63938,
            "duration": 0.16393,
            "velocity": 0.5118110236220472
        },
        {
            "name": "B4",
            "midi": 71,
            "time": 71.80331,
            "duration": 0.16393,
            "velocity": 0.4094488188976378
        },
        {
            "name": "B3",
            "midi": 59,
            "time": 71.80331,
            "duration": 0.98361,
            "velocity": 0.4409448818897638
        },
        {
            "name": "D#4",
            "midi": 63,
            "time": 71.80331,
            "duration": 0.98361,
            "velocity": 0.4409448818897638
        },
        {
            "name": "F#4",
            "midi": 66,
            "time": 71.80331,
            "duration": 0.98361,
            "velocity": 0.4409448818897638
        },
        {
            "name": "C#5",
            "midi": 73,
            "time": 71.96725,
            "duration": 0.16393,
            "velocity": 0.41732283464566927
        },
        {
            "name": "F#5",
            "midi": 78,
            "time": 72.13118,
            "duration": 0.16393,
            "velocity": 0.5118110236220472
        },
        {
            "name": "B4",
            "midi": 71,
            "time": 72.29511,
            "duration": 0.16393,
            "velocity": 0.4094488188976378
        },
        {
            "name": "C#5",
            "midi": 73,
            "time": 72.45905,
            "duration": 0.16393,
            "velocity": 0.41732283464566927
        },
        {
            "name": "F#5",
            "midi": 78,
            "time": 72.62298,
            "duration": 0.16393,
            "velocity": 0.5118110236220472
        },
        {
            "name": "A#4",
            "midi": 70,
            "time": 72.78692,
            "duration": 0.16393,
            "velocity": 0.4015748031496063
        },
        {
            "name": "F#3",
            "midi": 54,
            "time": 72.78692,
            "duration": 0.98361,
            "velocity": 0.4566929133858268
        },
        {
            "name": "F#2",
            "midi": 42,
            "time": 72.78692,
            "duration": 0.98361,
            "velocity": 0.4566929133858268
        },
        {
            "name": "C#5",
            "midi": 73,
            "time": 72.95085,
            "duration": 0.16393,
            "velocity": 0.4251968503937008
        },
        {
            "name": "F#5",
            "midi": 78,
            "time": 73.11479,
            "duration": 0.16393,
            "velocity": 0.5118110236220472
        },
        {
            "name": "A#4",
            "midi": 70,
            "time": 73.27872,
            "duration": 0.16393,
            "velocity": 0.4015748031496063
        },
        {
            "name": "C#5",
            "midi": 73,
            "time": 73.44266,
            "duration": 0.16393,
            "velocity": 0.4251968503937008
        },
        {
            "name": "F#5",
            "midi": 78,
            "time": 73.60659,
            "duration": 0.16393,
            "velocity": 0.5118110236220472
        },
        {
            "name": "A#4",
            "midi": 70,
            "time": 73.77052,
            "duration": 0.16393,
            "velocity": 0.4015748031496063
        },
        {
            "name": "F#4",
            "midi": 66,
            "time": 73.77052,
            "duration": 0.4918,
            "velocity": 0.4330708661417323
        },
        {
            "name": "C#4",
            "midi": 61,
            "time": 73.77052,
            "duration": 0.4918,
            "velocity": 0.4330708661417323
        },
        {
            "name": "A#3",
            "midi": 58,
            "time": 73.77052,
            "duration": 0.4918,
            "velocity": 0.4330708661417323
        },
        {
            "name": "C#5",
            "midi": 73,
            "time": 73.93446,
            "duration": 0.16393,
            "velocity": 0.4251968503937008
        },
        {
            "name": "F#5",
            "midi": 78,
            "time": 74.09839,
            "duration": 0.16393,
            "velocity": 0.5118110236220472
        },
        {
            "name": "A#4",
            "midi": 70,
            "time": 74.26233,
            "duration": 0.16393,
            "velocity": 0.4015748031496063
        },
        {
            "name": "E2",
            "midi": 40,
            "time": 74.26233,
            "duration": 0.4918,
            "velocity": 0.44881889763779526
        },
        {
            "name": "C#5",
            "midi": 73,
            "time": 74.42626,
            "duration": 0.16393,
            "velocity": 0.4251968503937008
        },
        {
            "name": "F#5",
            "midi": 78,
            "time": 74.5902,
            "duration": 0.16393,
            "velocity": 0.5118110236220472
        },
        {
            "name": "D#2",
            "midi": 39,
            "time": 74.60044,
            "duration": 2.1209,
            "velocity": 0.4881889763779528
        },
        {
            "name": "B2",
            "midi": 47,
            "time": 74.68002,
            "duration": 2.04133,
            "velocity": 0.4881889763779528
        },
        {
            "name": "B4",
            "midi": 71,
            "time": 74.75413,
            "duration": 0.16393,
            "velocity": 0.41732283464566927
        },
        {
            "name": "F#3",
            "midi": 54,
            "time": 74.75925,
            "duration": 1.96209,
            "velocity": 0.4881889763779528
        },
        {
            "name": "C#5",
            "midi": 73,
            "time": 74.91807,
            "duration": 0.16393,
            "velocity": 0.4251968503937008
        },
        {
            "name": "F#5",
            "midi": 78,
            "time": 75.082,
            "duration": 0.16393,
            "velocity": 0.5118110236220472
        },
        {
            "name": "B4",
            "midi": 71,
            "time": 75.24594,
            "duration": 0.16393,
            "velocity": 0.41732283464566927
        },
        {
            "name": "C#5",
            "midi": 73,
            "time": 75.40987,
            "duration": 0.16393,
            "velocity": 0.41732283464566927
        },
        {
            "name": "F#5",
            "midi": 78,
            "time": 75.5738,
            "duration": 0.16393,
            "velocity": 0.5118110236220472
        },
        {
            "name": "B4",
            "midi": 71,
            "time": 75.73774,
            "duration": 0.16393,
            "velocity": 0.41732283464566927
        },
        {
            "name": "C#4",
            "midi": 61,
            "time": 75.73774,
            "duration": 0.33436,
            "velocity": 0.6141732283464567
        },
        {
            "name": "C#5",
            "midi": 73,
            "time": 75.90167,
            "duration": 0.16393,
            "velocity": 0.41732283464566927
        },
        {
            "name": "F#5",
            "midi": 78,
            "time": 76.06561,
            "duration": 0.16393,
            "velocity": 0.5118110236220472
        },
        {
            "name": "B3",
            "midi": 59,
            "time": 76.06561,
            "duration": 0.33436,
            "velocity": 0.6062992125984252
        },
        {
            "name": "B4",
            "midi": 71,
            "time": 76.22954,
            "duration": 0.16393,
            "velocity": 0.41732283464566927
        },
        {
            "name": "C#5",
            "midi": 73,
            "time": 76.39348,
            "duration": 0.16393,
            "velocity": 0.41732283464566927
        },
        {
            "name": "F#3",
            "midi": 54,
            "time": 76.39348,
            "duration": 0.32787,
            "velocity": 0.5748031496062992
        },
        {
            "name": "F#5",
            "midi": 78,
            "time": 76.55741,
            "duration": 0.16393,
            "velocity": 0.5118110236220472
        },
        {
            "name": "B4",
            "midi": 71,
            "time": 76.72135,
            "duration": 0.16393,
            "velocity": 0.4094488188976378
        },
        {
            "name": "E2",
            "midi": 40,
            "time": 76.72135,
            "duration": 0.93374,
            "velocity": 0.47244094488188976
        },
        {
            "name": "E3",
            "midi": 52,
            "time": 76.72784,
            "duration": 1.86202,
            "velocity": 0.5748031496062992
        },
        {
            "name": "C#5",
            "midi": 73,
            "time": 76.88528,
            "duration": 0.16393,
            "velocity": 0.41732283464566927
        },
        {
            "name": "F#5",
            "midi": 78,
            "time": 77.04922,
            "duration": 0.16393,
            "velocity": 0.5118110236220472
        },
        {
            "name": "B4",
            "midi": 71,
            "time": 77.21315,
            "duration": 0.16393,
            "velocity": 0.4094488188976378
        },
        {
            "name": "C#5",
            "midi": 73,
            "time": 77.37708,
            "duration": 0.16393,
            "velocity": 0.41732283464566927
        },
        {
            "name": "F#5",
            "midi": 78,
            "time": 77.54102,
            "duration": 0.16393,
            "velocity": 0.5118110236220472
        },
        {
            "name": "E3",
            "midi": 52,
            "time": 77.61274,
            "duration": 0.97712,
            "velocity": 0.44881889763779526
        },
        {
            "name": "G#3",
            "midi": 56,
            "time": 77.63323,
            "duration": 1.05533,
            "velocity": 0.44881889763779526
        },
        {
            "name": "B3",
            "midi": 59,
            "time": 77.66397,
            "duration": 1.02459,
            "velocity": 0.44881889763779526
        },
        {
            "name": "B4",
            "midi": 71,
            "time": 77.70495,
            "duration": 0.16393,
            "velocity": 0.4094488188976378
        },
        {
            "name": "D#4",
            "midi": 63,
            "time": 77.71008,
            "duration": 0.97848,
            "velocity": 0.44881889763779526
        },
        {
            "name": "C#5",
            "midi": 73,
            "time": 77.86889,
            "duration": 0.16393,
            "velocity": 0.41732283464566927
        },
        {
            "name": "F#5",
            "midi": 78,
            "time": 78.03282,
            "duration": 0.16393,
            "velocity": 0.5118110236220472
        },
        {
            "name": "B4",
            "midi": 71,
            "time": 78.19676,
            "duration": 0.16393,
            "velocity": 0.4094488188976378
        },
        {
            "name": "C#5",
            "midi": 73,
            "time": 78.36069,
            "duration": 0.16393,
            "velocity": 0.41732283464566927
        },
        {
            "name": "F#5",
            "midi": 78,
            "time": 78.52463,
            "duration": 0.16393,
            "velocity": 0.5118110236220472
        },
        {
            "name": "B4",
            "midi": 71,
            "time": 78.68856,
            "duration": 0.16393,
            "velocity": 0.4094488188976378
        },
        {
            "name": "F#3",
            "midi": 54,
            "time": 78.68856,
            "duration": 0.98361,
            "velocity": 0.4645669291338583
        },
        {
            "name": "F#2",
            "midi": 42,
            "time": 78.68856,
            "duration": 0.98361,
            "velocity": 0.4645669291338583
        },
        {
            "name": "C#5",
            "midi": 73,
            "time": 78.85249,
            "duration": 0.16393,
            "velocity": 0.41732283464566927
        },
        {
            "name": "F#5",
            "midi": 78,
            "time": 79.01643,
            "duration": 0.16393,
            "velocity": 0.5118110236220472
        },
        {
            "name": "B4",
            "midi": 71,
            "time": 79.18036,
            "duration": 0.16393,
            "velocity": 0.4094488188976378
        },
        {
            "name": "C#5",
            "midi": 73,
            "time": 79.3443,
            "duration": 0.16393,
            "velocity": 0.41732283464566927
        },
        {
            "name": "F#5",
            "midi": 78,
            "time": 79.50823,
            "duration": 0.16393,
            "velocity": 0.5118110236220472
        },
        {
            "name": "B4",
            "midi": 71,
            "time": 79.67217,
            "duration": 0.16393,
            "velocity": 0.4094488188976378
        },
        {
            "name": "B3",
            "midi": 59,
            "time": 79.67217,
            "duration": 0.98361,
            "velocity": 0.4409448818897638
        },
        {
            "name": "C#4",
            "midi": 61,
            "time": 79.67217,
            "duration": 0.98361,
            "velocity": 0.4409448818897638
        },
        {
            "name": "F#4",
            "midi": 66,
            "time": 79.67217,
            "duration": 0.98361,
            "velocity": 0.4409448818897638
        },
        {
            "name": "C#5",
            "midi": 73,
            "time": 79.8361,
            "duration": 0.16393,
            "velocity": 0.41732283464566927
        },
        {
            "name": "F#5",
            "midi": 78,
            "time": 80.00004,
            "duration": 0.16393,
            "velocity": 0.5118110236220472
        },
        {
            "name": "B4",
            "midi": 71,
            "time": 80.16397,
            "duration": 0.16393,
            "velocity": 0.4094488188976378
        },
        {
            "name": "C#5",
            "midi": 73,
            "time": 80.3279,
            "duration": 0.16393,
            "velocity": 0.41732283464566927
        },
        {
            "name": "F#5",
            "midi": 78,
            "time": 80.49184,
            "duration": 0.16393,
            "velocity": 0.5118110236220472
        },
        {
            "name": "A#4",
            "midi": 70,
            "time": 80.65577,
            "duration": 0.16393,
            "velocity": 0.4015748031496063
        },
        {
            "name": "F#2",
            "midi": 42,
            "time": 80.65577,
            "duration": 0.98361,
            "velocity": 0.5196850393700787
        },
        {
            "name": "F#3",
            "midi": 54,
            "time": 80.65577,
            "duration": 0.98361,
            "velocity": 0.5196850393700787
        },
        {
            "name": "C#5",
            "midi": 73,
            "time": 80.81971,
            "duration": 0.16393,
            "velocity": 0.4251968503937008
        },
        {
            "name": "F#5",
            "midi": 78,
            "time": 80.98364,
            "duration": 0.16393,
            "velocity": 0.5118110236220472
        },
        {
            "name": "A#4",
            "midi": 70,
            "time": 81.14758,
            "duration": 0.16393,
            "velocity": 0.4015748031496063
        },
        {
            "name": "C#5",
            "midi": 73,
            "time": 81.31151,
            "duration": 0.16393,
            "velocity": 0.4251968503937008
        },
        {
            "name": "F#5",
            "midi": 78,
            "time": 81.47545,
            "duration": 0.16393,
            "velocity": 0.5118110236220472
        },
        {
            "name": "A#4",
            "midi": 70,
            "time": 81.63938,
            "duration": 0.16393,
            "velocity": 0.4015748031496063
        },
        {
            "name": "F#2",
            "midi": 42,
            "time": 81.63938,
            "duration": 0.4918,
            "velocity": 0.5354330708661418
        },
        {
            "name": "F#3",
            "midi": 54,
            "time": 81.63938,
            "duration": 0.4918,
            "velocity": 0.5354330708661418
        },
        {
            "name": "C#5",
            "midi": 73,
            "time": 81.80332,
            "duration": 0.16393,
            "velocity": 0.4251968503937008
        },
        {
            "name": "F#5",
            "midi": 78,
            "time": 81.96725,
            "duration": 0.16393,
            "velocity": 0.5118110236220472
        },
        {
            "name": "A#4",
            "midi": 70,
            "time": 82.13118,
            "duration": 0.16393,
            "velocity": 0.4015748031496063
        },
        {
            "name": "E3",
            "midi": 52,
            "time": 82.13118,
            "duration": 0.4918,
            "velocity": 0.5669291338582677
        },
        {
            "name": "E2",
            "midi": 40,
            "time": 82.13118,
            "duration": 0.4918,
            "velocity": 0.5669291338582677
        },
        {
            "name": "C#5",
            "midi": 73,
            "time": 82.29512,
            "duration": 0.16393,
            "velocity": 0.4251968503937008
        },
        {
            "name": "F#5",
            "midi": 78,
            "time": 82.45905,
            "duration": 0.16393,
            "velocity": 0.4645669291338583
        },
        {
            "name": "D#2",
            "midi": 39,
            "time": 82.62299,
            "duration": 0.16906,
            "velocity": 0.6220472440944882
        },
        {
            "name": "B3",
            "midi": 59,
            "time": 82.62299,
            "duration": 0.16906,
            "velocity": 0.5039370078740157
        },
        {
            "name": "C#4",
            "midi": 61,
            "time": 82.78692,
            "duration": 0.16906,
            "velocity": 0.5118110236220472
        },
        {
            "name": "B2",
            "midi": 47,
            "time": 82.78692,
            "duration": 0.16906,
            "velocity": 0.5590551181102362
        },
        {
            "name": "F#4",
            "midi": 66,
            "time": 82.95086,
            "duration": 0.16906,
            "velocity": 0.4330708661417323
        },
        {
            "name": "D#3",
            "midi": 51,
            "time": 82.95086,
            "duration": 1.47917,
            "velocity": 0.6141732283464567
        },
        {
            "name": "D#5",
            "midi": 75,
            "time": 83.11479,
            "duration": 0.16393,
            "velocity": 0.7244094488188977
        },
        {
            "name": "B3",
            "midi": 59,
            "time": 83.11479,
            "duration": 0.16906,
            "velocity": 0.4566929133858268
        },
        {
            "name": "D#5",
            "midi": 75,
            "time": 83.27873,
            "duration": 0.16393,
            "velocity": 0.6220472440944882
        },
        {
            "name": "C#4",
            "midi": 61,
            "time": 83.27873,
            "duration": 0.16906,
            "velocity": 0.49606299212598426
        },
        {
            "name": "D#5",
            "midi": 75,
            "time": 83.44266,
            "duration": 0.16393,
            "velocity": 0.6220472440944882
        },
        {
            "name": "F#4",
            "midi": 66,
            "time": 83.44266,
            "duration": 0.16906,
            "velocity": 0.4566929133858268
        },
        {
            "name": "B3",
            "midi": 59,
            "time": 83.6066,
            "duration": 0.15745,
            "velocity": 0.4330708661417323
        },
        {
            "name": "D#5",
            "midi": 75,
            "time": 83.6066,
            "duration": 0.33436,
            "velocity": 0.7165354330708661
        },
        {
            "name": "C#4",
            "midi": 61,
            "time": 83.77053,
            "duration": 0.16667,
            "velocity": 0.4881889763779528
        },
        {
            "name": "C#5",
            "midi": 73,
            "time": 83.93446,
            "duration": 0.16393,
            "velocity": 0.6220472440944882
        },
        {
            "name": "F#4",
            "midi": 66,
            "time": 83.93446,
            "duration": 0.16667,
            "velocity": 0.47244094488188976
        },
        {
            "name": "B3",
            "midi": 59,
            "time": 84.0984,
            "duration": 0.16667,
            "velocity": 0.41732283464566927
        },
        {
            "name": "C#5",
            "midi": 73,
            "time": 84.0984,
            "duration": 0.33436,
            "velocity": 0.7007874015748031
        },
        {
            "name": "C#4",
            "midi": 61,
            "time": 84.26233,
            "duration": 0.16667,
            "velocity": 0.48031496062992124
        },
        {
            "name": "F#4",
            "midi": 66,
            "time": 84.42627,
            "duration": 0.15505,
            "velocity": 0.47244094488188976
        },
        {
            "name": "B4",
            "midi": 71,
            "time": 84.42627,
            "duration": 0.16393,
            "velocity": 0.5905511811023622
        },
        {
            "name": "E2",
            "midi": 40,
            "time": 84.5902,
            "duration": 0.16393,
            "velocity": 0.5669291338582677
        },
        {
            "name": "B4",
            "midi": 71,
            "time": 84.5902,
            "duration": 1.86851,
            "velocity": 0.6771653543307087
        },
        {
            "name": "B2",
            "midi": 47,
            "time": 84.75414,
            "duration": 0.16393,
            "velocity": 0.4409448818897638
        },
        {
            "name": "E3",
            "midi": 52,
            "time": 84.91807,
            "duration": 1.14754,
            "velocity": 0.4881889763779528
        },
        {
            "name": "B3",
            "midi": 59,
            "time": 85.08201,
            "duration": 0.16667,
            "velocity": 0.47244094488188976
        },
        {
            "name": "C#4",
            "midi": 61,
            "time": 85.24594,
            "duration": 0.16667,
            "velocity": 0.48031496062992124
        },
        {
            "name": "F#4",
            "midi": 66,
            "time": 85.40987,
            "duration": 0.16667,
            "velocity": 0.4330708661417323
        },
        {
            "name": "B3",
            "midi": 59,
            "time": 85.57381,
            "duration": 0.16667,
            "velocity": 0.4094488188976378
        },
        {
            "name": "C#4",
            "midi": 61,
            "time": 85.73774,
            "duration": 0.16667,
            "velocity": 0.44881889763779526
        },
        {
            "name": "F#4",
            "midi": 66,
            "time": 85.90168,
            "duration": 0.16667,
            "velocity": 0.4566929133858268
        },
        {
            "name": "B3",
            "midi": 59,
            "time": 86.06561,
            "duration": 0.16667,
            "velocity": 0.4330708661417323
        },
        {
            "name": "E3",
            "midi": 52,
            "time": 86.06561,
            "duration": 0.16667,
            "velocity": 0.4645669291338583
        },
        {
            "name": "C#4",
            "midi": 61,
            "time": 86.22955,
            "duration": 0.16667,
            "velocity": 0.4881889763779528
        },
        {
            "name": "B2",
            "midi": 47,
            "time": 86.22955,
            "duration": 0.16667,
            "velocity": 0.4251968503937008
        },
        {
            "name": "F#4",
            "midi": 66,
            "time": 86.39348,
            "duration": 0.15505,
            "velocity": 0.47244094488188976
        },
        {
            "name": "E2",
            "midi": 40,
            "time": 86.39348,
            "duration": 0.15505,
            "velocity": 0.4330708661417323
        },
        {
            "name": "F#2",
            "midi": 42,
            "time": 86.55742,
            "duration": 0.16667,
            "velocity": 0.6062992125984252
        },
        {
            "name": "B3",
            "midi": 59,
            "time": 86.55742,
            "duration": 0.16667,
            "velocity": 0.49606299212598426
        },
        {
            "name": "C#4",
            "midi": 61,
            "time": 86.72135,
            "duration": 0.16667,
            "velocity": 0.5118110236220472
        },
        {
            "name": "C#3",
            "midi": 49,
            "time": 86.72135,
            "duration": 0.16667,
            "velocity": 0.47244094488188976
        },
        {
            "name": "F#4",
            "midi": 66,
            "time": 86.88528,
            "duration": 0.16667,
            "velocity": 0.4330708661417323
        },
        {
            "name": "F#3",
            "midi": 54,
            "time": 86.88528,
            "duration": 1.55738,
            "velocity": 0.5118110236220472
        },
        {
            "name": "D#5",
            "midi": 75,
            "time": 87.04922,
            "duration": 0.16393,
            "velocity": 0.7086614173228346
        },
        {
            "name": "B3",
            "midi": 59,
            "time": 87.04922,
            "duration": 0.16667,
            "velocity": 0.4566929133858268
        },
        {
            "name": "D#5",
            "midi": 75,
            "time": 87.21315,
            "duration": 0.16393,
            "velocity": 0.6141732283464567
        },
        {
            "name": "C#4",
            "midi": 61,
            "time": 87.21315,
            "duration": 0.16667,
            "velocity": 0.49606299212598426
        },
        {
            "name": "D#5",
            "midi": 75,
            "time": 87.37709,
            "duration": 0.16393,
            "velocity": 0.6141732283464567
        },
        {
            "name": "F#4",
            "midi": 66,
            "time": 87.37709,
            "duration": 0.16667,
            "velocity": 0.4566929133858268
        },
        {
            "name": "B3",
            "midi": 59,
            "time": 87.54102,
            "duration": 0.16667,
            "velocity": 0.4330708661417323
        },
        {
            "name": "D#5",
            "midi": 75,
            "time": 87.54102,
            "duration": 0.33436,
            "velocity": 0.7086614173228346
        },
        {
            "name": "C#4",
            "midi": 61,
            "time": 87.70496,
            "duration": 0.16667,
            "velocity": 0.4881889763779528
        },
        {
            "name": "C#5",
            "midi": 73,
            "time": 87.86889,
            "duration": 0.16393,
            "velocity": 0.6299212598425197
        },
        {
            "name": "F#4",
            "midi": 66,
            "time": 87.86889,
            "duration": 0.16667,
            "velocity": 0.47244094488188976
        },
        {
            "name": "B3",
            "midi": 59,
            "time": 88.03283,
            "duration": 0.16667,
            "velocity": 0.41732283464566927
        },
        {
            "name": "C#5",
            "midi": 73,
            "time": 88.03283,
            "duration": 0.33436,
            "velocity": 0.7007874015748031
        },
        {
            "name": "C#4",
            "midi": 61,
            "time": 88.19676,
            "duration": 0.16667,
            "velocity": 0.48031496062992124
        },
        {
            "name": "F#4",
            "midi": 66,
            "time": 88.3607,
            "duration": 0.15505,
            "velocity": 0.47244094488188976
        },
        {
            "name": "B4",
            "midi": 71,
            "time": 88.3607,
            "duration": 0.16393,
            "velocity": 0.5039370078740157
        },
        {
            "name": "G#2",
            "midi": 44,
            "time": 88.52463,
            "duration": 0.16667,
            "velocity": 0.5748031496062992
        },
        {
            "name": "D#5",
            "midi": 75,
            "time": 88.52463,
            "duration": 0.4918,
            "velocity": 0.7716535433070866
        },
        {
            "name": "B4",
            "midi": 71,
            "time": 88.52463,
            "duration": 0.4918,
            "velocity": 0.6771653543307087
        },
        {
            "name": "D#3",
            "midi": 51,
            "time": 88.68856,
            "duration": 0.16667,
            "velocity": 0.4566929133858268
        },
        {
            "name": "G#3",
            "midi": 56,
            "time": 88.8525,
            "duration": 1.55738,
            "velocity": 0.49606299212598426
        },
        {
            "name": "B3",
            "midi": 59,
            "time": 89.01643,
            "duration": 0.16906,
            "velocity": 0.4015748031496063
        },
        {
            "name": "B4",
            "midi": 71,
            "time": 89.01643,
            "duration": 0.32787,
            "velocity": 0.6614173228346457
        },
        {
            "name": "D#5",
            "midi": 75,
            "time": 89.01643,
            "duration": 0.33436,
            "velocity": 0.7559055118110236
        },
        {
            "name": "C#4",
            "midi": 61,
            "time": 89.18037,
            "duration": 0.16906,
            "velocity": 0.4566929133858268
        },
        {
            "name": "F#5",
            "midi": 78,
            "time": 89.3443,
            "duration": 0.16667,
            "velocity": 0.6220472440944882
        },
        {
            "name": "B4",
            "midi": 71,
            "time": 89.3443,
            "duration": 0.16667,
            "velocity": 0.5275590551181102
        },
        {
            "name": "F#4",
            "midi": 66,
            "time": 89.3443,
            "duration": 0.16906,
            "velocity": 0.4566929133858268
        },
        {
            "name": "B3",
            "midi": 59,
            "time": 89.50824,
            "duration": 0.15745,
            "velocity": 0.4251968503937008
        },
        {
            "name": "C#5",
            "midi": 73,
            "time": 89.50824,
            "duration": 0.50068,
            "velocity": 0.7165354330708661
        },
        {
            "name": "C#4",
            "midi": 61,
            "time": 89.67217,
            "duration": 0.16667,
            "velocity": 0.4881889763779528
        },
        {
            "name": "F#4",
            "midi": 66,
            "time": 89.83611,
            "duration": 0.16667,
            "velocity": 0.4645669291338583
        },
        {
            "name": "B3",
            "midi": 59,
            "time": 90.00004,
            "duration": 0.16667,
            "velocity": 0.4251968503937008
        },
        {
            "name": "B4",
            "midi": 71,
            "time": 90.00004,
            "duration": 0.46619,
            "velocity": 0.6771653543307087
        },
        {
            "name": "C#4",
            "midi": 61,
            "time": 90.16398,
            "duration": 0.16667,
            "velocity": 0.48031496062992124
        },
        {
            "name": "F#4",
            "midi": 66,
            "time": 90.32791,
            "duration": 0.15505,
            "velocity": 0.47244094488188976
        },
        {
            "name": "D#2",
            "midi": 39,
            "time": 90.49184,
            "duration": 0.16906,
            "velocity": 0.5669291338582677
        },
        {
            "name": "B3",
            "midi": 59,
            "time": 90.49184,
            "duration": 0.16906,
            "velocity": 0.41732283464566927
        },
        {
            "name": "C#4",
            "midi": 61,
            "time": 90.65578,
            "duration": 0.16906,
            "velocity": 0.48031496062992124
        },
        {
            "name": "B2",
            "midi": 47,
            "time": 90.65578,
            "duration": 0.16906,
            "velocity": 0.4409448818897638
        },
        {
            "name": "F#4",
            "midi": 66,
            "time": 90.81971,
            "duration": 0.16906,
            "velocity": 0.47244094488188976
        },
        {
            "name": "D#3",
            "midi": 51,
            "time": 90.81971,
            "duration": 1.47917,
            "velocity": 0.48031496062992124
        },
        {
            "name": "D#5",
            "midi": 75,
            "time": 90.98365,
            "duration": 0.16393,
            "velocity": 0.7165354330708661
        },
        {
            "name": "B3",
            "midi": 59,
            "time": 90.98365,
            "duration": 0.16906,
            "velocity": 0.41732283464566927
        },
        {
            "name": "D#5",
            "midi": 75,
            "time": 91.14758,
            "duration": 0.16393,
            "velocity": 0.6220472440944882
        },
        {
            "name": "C#4",
            "midi": 61,
            "time": 91.14758,
            "duration": 0.16906,
            "velocity": 0.47244094488188976
        },
        {
            "name": "D#5",
            "midi": 75,
            "time": 91.31152,
            "duration": 0.16393,
            "velocity": 0.6220472440944882
        },
        {
            "name": "F#4",
            "midi": 66,
            "time": 91.31152,
            "duration": 0.16906,
            "velocity": 0.47244094488188976
        },
        {
            "name": "B3",
            "midi": 59,
            "time": 91.47545,
            "duration": 0.15745,
            "velocity": 0.4094488188976378
        },
        {
            "name": "D#5",
            "midi": 75,
            "time": 91.47545,
            "duration": 0.33436,
            "velocity": 0.7165354330708661
        },
        {
            "name": "C#4",
            "midi": 61,
            "time": 91.63939,
            "duration": 0.16667,
            "velocity": 0.47244094488188976
        },
        {
            "name": "C#5",
            "midi": 73,
            "time": 91.80332,
            "duration": 0.16393,
            "velocity": 0.6299212598425197
        },
        {
            "name": "F#4",
            "midi": 66,
            "time": 91.80332,
            "duration": 0.16667,
            "velocity": 0.47244094488188976
        },
        {
            "name": "B3",
            "midi": 59,
            "time": 91.96725,
            "duration": 0.16667,
            "velocity": 0.4094488188976378
        },
        {
            "name": "C#5",
            "midi": 73,
            "time": 91.96725,
            "duration": 0.33436,
            "velocity": 0.7007874015748031
        },
        {
            "name": "C#4",
            "midi": 61,
            "time": 92.13119,
            "duration": 0.16667,
            "velocity": 0.47244094488188976
        },
        {
            "name": "F#4",
            "midi": 66,
            "time": 92.29512,
            "duration": 0.15505,
            "velocity": 0.47244094488188976
        },
        {
            "name": "B4",
            "midi": 71,
            "time": 92.29512,
            "duration": 0.16393,
            "velocity": 0.5984251968503937
        },
        {
            "name": "E2",
            "midi": 40,
            "time": 92.45906,
            "duration": 0.16667,
            "velocity": 0.5748031496062992
        },
        {
            "name": "B4",
            "midi": 71,
            "time": 92.45906,
            "duration": 1.86851,
            "velocity": 0.6771653543307087
        },
        {
            "name": "B2",
            "midi": 47,
            "time": 92.62299,
            "duration": 0.16667,
            "velocity": 0.4409448818897638
        },
        {
            "name": "E3",
            "midi": 52,
            "time": 92.78693,
            "duration": 1.08982,
            "velocity": 0.4881889763779528
        },
        {
            "name": "B3",
            "midi": 59,
            "time": 92.95086,
            "duration": 0.16667,
            "velocity": 0.47244094488188976
        },
        {
            "name": "C#4",
            "midi": 61,
            "time": 93.1148,
            "duration": 0.16667,
            "velocity": 0.48031496062992124
        },
        {
            "name": "F#4",
            "midi": 66,
            "time": 93.27873,
            "duration": 0.16667,
            "velocity": 0.4330708661417323
        },
        {
            "name": "B3",
            "midi": 59,
            "time": 93.44266,
            "duration": 0.16667,
            "velocity": 0.41732283464566927
        },
        {
            "name": "C#4",
            "midi": 61,
            "time": 93.6066,
            "duration": 0.16667,
            "velocity": 0.4566929133858268
        },
        {
            "name": "F#4",
            "midi": 66,
            "time": 93.77053,
            "duration": 0.16667,
            "velocity": 0.4566929133858268
        },
        {
            "name": "B3",
            "midi": 59,
            "time": 93.93447,
            "duration": 0.16667,
            "velocity": 0.4330708661417323
        },
        {
            "name": "E3",
            "midi": 52,
            "time": 93.93447,
            "duration": 0.16667,
            "velocity": 0.4645669291338583
        },
        {
            "name": "C#4",
            "midi": 61,
            "time": 94.0984,
            "duration": 0.16667,
            "velocity": 0.4881889763779528
        },
        {
            "name": "B2",
            "midi": 47,
            "time": 94.0984,
            "duration": 0.16667,
            "velocity": 0.4251968503937008
        },
        {
            "name": "F#4",
            "midi": 66,
            "time": 94.26234,
            "duration": 0.15505,
            "velocity": 0.47244094488188976
        },
        {
            "name": "E2",
            "midi": 40,
            "time": 94.26234,
            "duration": 0.15505,
            "velocity": 0.3779527559055118
        },
        {
            "name": "B3",
            "midi": 59,
            "time": 94.42627,
            "duration": 0.16906,
            "velocity": 0.4645669291338583
        },
        {
            "name": "F#2",
            "midi": 42,
            "time": 94.42627,
            "duration": 0.16906,
            "velocity": 0.6299212598425197
        },
        {
            "name": "C#4",
            "midi": 61,
            "time": 94.59021,
            "duration": 0.16906,
            "velocity": 0.48031496062992124
        },
        {
            "name": "C#3",
            "midi": 49,
            "time": 94.59021,
            "duration": 0.16906,
            "velocity": 0.47244094488188976
        },
        {
            "name": "F#4",
            "midi": 66,
            "time": 94.75414,
            "duration": 0.16906,
            "velocity": 0.4330708661417323
        },
        {
            "name": "F#3",
            "midi": 54,
            "time": 94.75414,
            "duration": 1.47917,
            "velocity": 0.5118110236220472
        },
        {
            "name": "C#5",
            "midi": 73,
            "time": 94.91808,
            "duration": 0.16393,
            "velocity": 0.7086614173228346
        },
        {
            "name": "B3",
            "midi": 59,
            "time": 94.91808,
            "duration": 0.16906,
            "velocity": 0.4566929133858268
        },
        {
            "name": "C#5",
            "midi": 73,
            "time": 95.08201,
            "duration": 0.16393,
            "velocity": 0.6141732283464567
        },
        {
            "name": "C#4",
            "midi": 61,
            "time": 95.08201,
            "duration": 0.16906,
            "velocity": 0.49606299212598426
        },
        {
            "name": "C#5",
            "midi": 73,
            "time": 95.24594,
            "duration": 0.16393,
            "velocity": 0.6141732283464567
        },
        {
            "name": "F#4",
            "midi": 66,
            "time": 95.24594,
            "duration": 0.16906,
            "velocity": 0.4566929133858268
        },
        {
            "name": "B3",
            "midi": 59,
            "time": 95.40988,
            "duration": 0.15745,
            "velocity": 0.4330708661417323
        },
        {
            "name": "C#5",
            "midi": 73,
            "time": 95.40988,
            "duration": 0.33436,
            "velocity": 0.7086614173228346
        },
        {
            "name": "C#4",
            "midi": 61,
            "time": 95.57381,
            "duration": 0.16667,
            "velocity": 0.4881889763779528
        },
        {
            "name": "F#4",
            "midi": 66,
            "time": 95.73775,
            "duration": 0.16667,
            "velocity": 0.47244094488188976
        },
        {
            "name": "D#5",
            "midi": 75,
            "time": 95.73775,
            "duration": 0.16667,
            "velocity": 0.6850393700787402
        },
        {
            "name": "B3",
            "midi": 59,
            "time": 95.90168,
            "duration": 0.16667,
            "velocity": 0.41732283464566927
        },
        {
            "name": "C#5",
            "midi": 73,
            "time": 95.90168,
            "duration": 0.33436,
            "velocity": 0.7244094488188977
        },
        {
            "name": "C#4",
            "midi": 61,
            "time": 96.06562,
            "duration": 0.16667,
            "velocity": 0.48031496062992124
        },
        {
            "name": "F#4",
            "midi": 66,
            "time": 96.22955,
            "duration": 0.15505,
            "velocity": 0.47244094488188976
        },
        {
            "name": "B4",
            "midi": 71,
            "time": 96.22955,
            "duration": 0.16393,
            "velocity": 0.6141732283464567
        },
        {
            "name": "B2",
            "midi": 47,
            "time": 96.39349,
            "duration": 0.16667,
            "velocity": 0.4881889763779528
        },
        {
            "name": "B4",
            "midi": 71,
            "time": 96.39349,
            "duration": 1.86851,
            "velocity": 0.6062992125984252
        },
        {
            "name": "F#3",
            "midi": 54,
            "time": 96.55742,
            "duration": 0.16667,
            "velocity": 0.3779527559055118
        },
        {
            "name": "B3",
            "midi": 59,
            "time": 96.72136,
            "duration": 0.3306,
            "velocity": 0.44881889763779526
        },
        {
            "name": "B3",
            "midi": 59,
            "time": 96.88529,
            "duration": 0.16667,
            "velocity": 0.4409448818897638
        },
        {
            "name": "C#4",
            "midi": 61,
            "time": 97.04922,
            "duration": 0.16667,
            "velocity": 0.44881889763779526
        },
        {
            "name": "F#4",
            "midi": 66,
            "time": 97.21316,
            "duration": 0.16667,
            "velocity": 0.3700787401574803
        },
        {
            "name": "B3",
            "midi": 59,
            "time": 97.37709,
            "duration": 0.16667,
            "velocity": 0.3937007874015748
        },
        {
            "name": "C#4",
            "midi": 61,
            "time": 97.54103,
            "duration": 0.16667,
            "velocity": 0.4330708661417323
        },
        {
            "name": "F#4",
            "midi": 66,
            "time": 97.70496,
            "duration": 0.16667,
            "velocity": 0.3937007874015748
        },
        {
            "name": "B3",
            "midi": 59,
            "time": 97.8689,
            "duration": 0.16667,
            "velocity": 0.4251968503937008
        },
        {
            "name": "B2",
            "midi": 47,
            "time": 97.8689,
            "duration": 0.4918,
            "velocity": 0.5590551181102362
        },
        {
            "name": "B1",
            "midi": 35,
            "time": 97.8689,
            "duration": 0.4918,
            "velocity": 0.5590551181102362
        },
        {
            "name": "C#4",
            "midi": 61,
            "time": 98.03283,
            "duration": 0.16667,
            "velocity": 0.48031496062992124
        },
        {
            "name": "F#4",
            "midi": 66,
            "time": 98.19677,
            "duration": 0.15505,
            "velocity": 0.4645669291338583
        },
        {
            "name": "B3",
            "midi": 59,
            "time": 98.3607,
            "duration": 0.16906,
            "velocity": 0.48031496062992124
        },
        {
            "name": "D#2",
            "midi": 39,
            "time": 98.3607,
            "duration": 0.16906,
            "velocity": 0.6456692913385826
        },
        {
            "name": "C#4",
            "midi": 61,
            "time": 98.52463,
            "duration": 0.16906,
            "velocity": 0.49606299212598426
        },
        {
            "name": "B2",
            "midi": 47,
            "time": 98.52463,
            "duration": 0.16906,
            "velocity": 0.48031496062992124
        },
        {
            "name": "F#4",
            "midi": 66,
            "time": 98.68857,
            "duration": 0.16906,
            "velocity": 0.41732283464566927
        },
        {
            "name": "D#3",
            "midi": 51,
            "time": 98.68857,
            "duration": 1.47917,
            "velocity": 0.5275590551181102
        },
        {
            "name": "D#5",
            "midi": 75,
            "time": 98.8525,
            "duration": 0.16393,
            "velocity": 0.7559055118110236
        },
        {
            "name": "B3",
            "midi": 59,
            "time": 98.8525,
            "duration": 0.16906,
            "velocity": 0.4409448818897638
        },
        {
            "name": "D#5",
            "midi": 75,
            "time": 99.01644,
            "duration": 0.16393,
            "velocity": 0.6614173228346457
        },
        {
            "name": "C#4",
            "midi": 61,
            "time": 99.01644,
            "duration": 0.16906,
            "velocity": 0.48031496062992124
        },
        {
            "name": "D#5",
            "midi": 75,
            "time": 99.18037,
            "duration": 0.16393,
            "velocity": 0.6614173228346457
        },
        {
            "name": "F#4",
            "midi": 66,
            "time": 99.18037,
            "duration": 0.16906,
            "velocity": 0.4409448818897638
        },
        {
            "name": "B3",
            "midi": 59,
            "time": 99.34431,
            "duration": 0.15745,
            "velocity": 0.41732283464566927
        },
        {
            "name": "D#5",
            "midi": 75,
            "time": 99.34431,
            "duration": 0.33436,
            "velocity": 0.7559055118110236
        },
        {
            "name": "C#4",
            "midi": 61,
            "time": 99.50824,
            "duration": 0.16667,
            "velocity": 0.47244094488188976
        },
        {
            "name": "E5",
            "midi": 76,
            "time": 99.67218,
            "duration": 0.16667,
            "velocity": 0.7244094488188977
        },
        {
            "name": "F#4",
            "midi": 66,
            "time": 99.67218,
            "duration": 0.16667,
            "velocity": 0.4566929133858268
        },
        {
            "name": "B3",
            "midi": 59,
            "time": 99.83611,
            "duration": 0.16667,
            "velocity": 0.4015748031496063
        },
        {
            "name": "D#5",
            "midi": 75,
            "time": 99.83611,
            "duration": 0.33436,
            "velocity": 0.7716535433070866
        },
        {
            "name": "C#4",
            "midi": 61,
            "time": 100.00004,
            "duration": 0.16667,
            "velocity": 0.4645669291338583
        },
        {
            "name": "F#4",
            "midi": 66,
            "time": 100.16398,
            "duration": 0.15505,
            "velocity": 0.4566929133858268
        },
        {
            "name": "C#5",
            "midi": 73,
            "time": 100.16398,
            "duration": 0.16667,
            "velocity": 0.6614173228346457
        },
        {
            "name": "E2",
            "midi": 40,
            "time": 100.32791,
            "duration": 0.16667,
            "velocity": 0.6220472440944882
        },
        {
            "name": "B4",
            "midi": 71,
            "time": 100.32791,
            "duration": 1.86851,
            "velocity": 0.7007874015748031
        },
        {
            "name": "B2",
            "midi": 47,
            "time": 100.49185,
            "duration": 0.16667,
            "velocity": 0.4881889763779528
        },
        {
            "name": "E3",
            "midi": 52,
            "time": 100.65578,
            "duration": 1.08982,
            "velocity": 0.5354330708661418
        },
        {
            "name": "B3",
            "midi": 59,
            "time": 100.81972,
            "duration": 0.16667,
            "velocity": 0.5196850393700787
        },
        {
            "name": "C#4",
            "midi": 61,
            "time": 100.98365,
            "duration": 0.16667,
            "velocity": 0.5275590551181102
        },
        {
            "name": "F#4",
            "midi": 66,
            "time": 101.14759,
            "duration": 0.16667,
            "velocity": 0.44881889763779526
        },
        {
            "name": "B3",
            "midi": 59,
            "time": 101.31152,
            "duration": 0.16667,
            "velocity": 0.47244094488188976
        },
        {
            "name": "C#4",
            "midi": 61,
            "time": 101.47546,
            "duration": 0.16667,
            "velocity": 0.5118110236220472
        },
        {
            "name": "F#4",
            "midi": 66,
            "time": 101.63939,
            "duration": 0.16667,
            "velocity": 0.47244094488188976
        },
        {
            "name": "E3",
            "midi": 52,
            "time": 101.80332,
            "duration": 0.16667,
            "velocity": 0.5118110236220472
        },
        {
            "name": "B3",
            "midi": 59,
            "time": 101.80332,
            "duration": 0.16667,
            "velocity": 0.44881889763779526
        },
        {
            "name": "B2",
            "midi": 47,
            "time": 101.96726,
            "duration": 0.16667,
            "velocity": 0.4645669291338583
        },
        {
            "name": "C#4",
            "midi": 61,
            "time": 101.96726,
            "duration": 0.16667,
            "velocity": 0.5039370078740157
        },
        {
            "name": "E2",
            "midi": 40,
            "time": 102.13119,
            "duration": 0.15505,
            "velocity": 0.4251968503937008
        },
        {
            "name": "F#4",
            "midi": 66,
            "time": 102.13119,
            "duration": 0.15505,
            "velocity": 0.4881889763779528
        },
        {
            "name": "F#2",
            "midi": 42,
            "time": 102.29513,
            "duration": 0.16906,
            "velocity": 0.5905511811023622
        },
        {
            "name": "B3",
            "midi": 59,
            "time": 102.29513,
            "duration": 0.16906,
            "velocity": 0.5118110236220472
        },
        {
            "name": "C#4",
            "midi": 61,
            "time": 102.45906,
            "duration": 0.16906,
            "velocity": 0.5275590551181102
        },
        {
            "name": "C#3",
            "midi": 49,
            "time": 102.45906,
            "duration": 0.16906,
            "velocity": 0.5196850393700787
        },
        {
            "name": "F#4",
            "midi": 66,
            "time": 102.623,
            "duration": 0.16906,
            "velocity": 0.44881889763779526
        },
        {
            "name": "F#3",
            "midi": 54,
            "time": 102.623,
            "duration": 1.47917,
            "velocity": 0.5590551181102362
        },
        {
            "name": "D#5",
            "midi": 75,
            "time": 102.78693,
            "duration": 0.16393,
            "velocity": 0.7559055118110236
        },
        {
            "name": "B3",
            "midi": 59,
            "time": 102.78693,
            "duration": 0.16906,
            "velocity": 0.47244094488188976
        },
        {
            "name": "D#5",
            "midi": 75,
            "time": 102.95087,
            "duration": 0.16393,
            "velocity": 0.6614173228346457
        },
        {
            "name": "C#4",
            "midi": 61,
            "time": 102.95087,
            "duration": 0.16906,
            "velocity": 0.5118110236220472
        },
        {
            "name": "D#5",
            "midi": 75,
            "time": 103.1148,
            "duration": 0.16393,
            "velocity": 0.6614173228346457
        },
        {
            "name": "F#4",
            "midi": 66,
            "time": 103.1148,
            "duration": 0.16906,
            "velocity": 0.47244094488188976
        },
        {
            "name": "B3",
            "midi": 59,
            "time": 103.27874,
            "duration": 0.15745,
            "velocity": 0.44881889763779526
        },
        {
            "name": "D#5",
            "midi": 75,
            "time": 103.27874,
            "duration": 0.33436,
            "velocity": 0.7559055118110236
        },
        {
            "name": "C#4",
            "midi": 61,
            "time": 103.44267,
            "duration": 0.16667,
            "velocity": 0.5039370078740157
        },
        {
            "name": "C#5",
            "midi": 73,
            "time": 103.6066,
            "duration": 0.16393,
            "velocity": 0.6771653543307087
        },
        {
            "name": "F#4",
            "midi": 66,
            "time": 103.6066,
            "duration": 0.16667,
            "velocity": 0.4881889763779528
        },
        {
            "name": "B3",
            "midi": 59,
            "time": 103.77054,
            "duration": 0.16667,
            "velocity": 0.4330708661417323
        },
        {
            "name": "C#5",
            "midi": 73,
            "time": 103.77054,
            "duration": 0.33436,
            "velocity": 0.7480314960629921
        },
        {
            "name": "C#4",
            "midi": 61,
            "time": 103.93447,
            "duration": 0.16667,
            "velocity": 0.49606299212598426
        },
        {
            "name": "F#4",
            "midi": 66,
            "time": 104.09841,
            "duration": 0.15505,
            "velocity": 0.4881889763779528
        },
        {
            "name": "B4",
            "midi": 71,
            "time": 104.09841,
            "duration": 0.16393,
            "velocity": 0.5511811023622047
        },
        {
            "name": "G#2",
            "midi": 44,
            "time": 104.26234,
            "duration": 0.16667,
            "velocity": 0.6220472440944882
        },
        {
            "name": "D#5",
            "midi": 75,
            "time": 104.26234,
            "duration": 0.4918,
            "velocity": 0.8188976377952756
        },
        {
            "name": "B4",
            "midi": 71,
            "time": 104.26234,
            "duration": 0.4918,
            "velocity": 0.7244094488188977
        },
        {
            "name": "D#3",
            "midi": 51,
            "time": 104.42628,
            "duration": 0.16667,
            "velocity": 0.5039370078740157
        },
        {
            "name": "G#3",
            "midi": 56,
            "time": 104.59021,
            "duration": 1.55738,
            "velocity": 0.5433070866141733
        },
        {
            "name": "B3",
            "midi": 59,
            "time": 104.75415,
            "duration": 0.16906,
            "velocity": 0.44881889763779526
        },
        {
            "name": "B4",
            "midi": 71,
            "time": 104.75415,
            "duration": 0.32787,
            "velocity": 0.6850393700787402
        },
        {
            "name": "D#5",
            "midi": 75,
            "time": 104.75415,
            "duration": 0.33436,
            "velocity": 0.7795275590551181
        },
        {
            "name": "C#4",
            "midi": 61,
            "time": 104.91808,
            "duration": 0.16906,
            "velocity": 0.5039370078740157
        },
        {
            "name": "B4",
            "midi": 71,
            "time": 105.08201,
            "duration": 0.16393,
            "velocity": 0.5748031496062992
        },
        {
            "name": "F#5",
            "midi": 78,
            "time": 105.08201,
            "duration": 0.16667,
            "velocity": 0.6692913385826772
        },
        {
            "name": "F#4",
            "midi": 66,
            "time": 105.08201,
            "duration": 0.16906,
            "velocity": 0.48031496062992124
        },
        {
            "name": "B3",
            "midi": 59,
            "time": 105.24595,
            "duration": 0.15745,
            "velocity": 0.4409448818897638
        },
        {
            "name": "B4",
            "midi": 71,
            "time": 105.24595,
            "duration": 0.4918,
            "velocity": 0.6456692913385826
        },
        {
            "name": "C#5",
            "midi": 73,
            "time": 105.24595,
            "duration": 0.50068,
            "velocity": 0.7401574803149606
        },
        {
            "name": "C#4",
            "midi": 61,
            "time": 105.40988,
            "duration": 0.16667,
            "velocity": 0.5039370078740157
        },
        {
            "name": "F#4",
            "midi": 66,
            "time": 105.57382,
            "duration": 0.16667,
            "velocity": 0.48031496062992124
        },
        {
            "name": "B3",
            "midi": 59,
            "time": 105.73775,
            "duration": 0.16667,
            "velocity": 0.4409448818897638
        },
        {
            "name": "B4",
            "midi": 71,
            "time": 105.73775,
            "duration": 0.46619,
            "velocity": 0.7007874015748031
        },
        {
            "name": "C#4",
            "midi": 61,
            "time": 105.90169,
            "duration": 0.16667,
            "velocity": 0.49606299212598426
        },
        {
            "name": "F#4",
            "midi": 66,
            "time": 106.06562,
            "duration": 0.15505,
            "velocity": 0.4881889763779528
        },
        {
            "name": "D#2",
            "midi": 39,
            "time": 106.22956,
            "duration": 0.16906,
            "velocity": 0.6141732283464567
        },
        {
            "name": "B3",
            "midi": 59,
            "time": 106.22956,
            "duration": 0.16906,
            "velocity": 0.4330708661417323
        },
        {
            "name": "C#4",
            "midi": 61,
            "time": 106.39349,
            "duration": 0.16906,
            "velocity": 0.49606299212598426
        },
        {
            "name": "B2",
            "midi": 47,
            "time": 106.39349,
            "duration": 0.16906,
            "velocity": 0.4881889763779528
        },
        {
            "name": "F#4",
            "midi": 66,
            "time": 106.55742,
            "duration": 0.16906,
            "velocity": 0.4881889763779528
        },
        {
            "name": "D#3",
            "midi": 51,
            "time": 106.55742,
            "duration": 1.47917,
            "velocity": 0.5275590551181102
        },
        {
            "name": "D#5",
            "midi": 75,
            "time": 106.72136,
            "duration": 0.16393,
            "velocity": 0.7637795275590551
        },
        {
            "name": "B3",
            "midi": 59,
            "time": 106.72136,
            "duration": 0.16906,
            "velocity": 0.4330708661417323
        },
        {
            "name": "D#5",
            "midi": 75,
            "time": 106.88529,
            "duration": 0.16393,
            "velocity": 0.6692913385826772
        },
        {
            "name": "C#4",
            "midi": 61,
            "time": 106.88529,
            "duration": 0.16906,
            "velocity": 0.4881889763779528
        },
        {
            "name": "D#5",
            "midi": 75,
            "time": 107.04923,
            "duration": 0.16393,
            "velocity": 0.6692913385826772
        },
        {
            "name": "F#4",
            "midi": 66,
            "time": 107.04923,
            "duration": 0.16906,
            "velocity": 0.4881889763779528
        },
        {
            "name": "B3",
            "midi": 59,
            "time": 107.21316,
            "duration": 0.15745,
            "velocity": 0.4251968503937008
        },
        {
            "name": "D#5",
            "midi": 75,
            "time": 107.21316,
            "duration": 0.33436,
            "velocity": 0.7637795275590551
        },
        {
            "name": "C#4",
            "midi": 61,
            "time": 107.3771,
            "duration": 0.16667,
            "velocity": 0.4881889763779528
        },
        {
            "name": "C#5",
            "midi": 73,
            "time": 107.54103,
            "duration": 0.16393,
            "velocity": 0.6771653543307087
        },
        {
            "name": "F#4",
            "midi": 66,
            "time": 107.54103,
            "duration": 0.16667,
            "velocity": 0.4881889763779528
        },
        {
            "name": "B3",
            "midi": 59,
            "time": 107.70497,
            "duration": 0.16667,
            "velocity": 0.4251968503937008
        },
        {
            "name": "C#5",
            "midi": 73,
            "time": 107.70497,
            "duration": 0.33436,
            "velocity": 0.7480314960629921
        },
        {
            "name": "C#4",
            "midi": 61,
            "time": 107.8689,
            "duration": 0.16667,
            "velocity": 0.4881889763779528
        },
        {
            "name": "F#4",
            "midi": 66,
            "time": 108.03284,
            "duration": 0.15505,
            "velocity": 0.4881889763779528
        },
        {
            "name": "B4",
            "midi": 71,
            "time": 108.03284,
            "duration": 0.16393,
            "velocity": 0.6456692913385826
        },
        {
            "name": "E2",
            "midi": 40,
            "time": 108.19677,
            "duration": 0.16667,
            "velocity": 0.6220472440944882
        },
        {
            "name": "B4",
            "midi": 71,
            "time": 108.19677,
            "duration": 1.86851,
            "velocity": 0.7244094488188977
        },
        {
            "name": "B2",
            "midi": 47,
            "time": 108.3607,
            "duration": 0.16667,
            "velocity": 0.4881889763779528
        },
        {
            "name": "E3",
            "midi": 52,
            "time": 108.52464,
            "duration": 1.08982,
            "velocity": 0.5354330708661418
        },
        {
            "name": "B3",
            "midi": 59,
            "time": 108.68857,
            "duration": 0.16667,
            "velocity": 0.5196850393700787
        },
        {
            "name": "C#4",
            "midi": 61,
            "time": 108.85251,
            "duration": 0.16667,
            "velocity": 0.5275590551181102
        },
        {
            "name": "F#4",
            "midi": 66,
            "time": 109.01644,
            "duration": 0.16667,
            "velocity": 0.44881889763779526
        },
        {
            "name": "B3",
            "midi": 59,
            "time": 109.18038,
            "duration": 0.16667,
            "velocity": 0.47244094488188976
        },
        {
            "name": "C#4",
            "midi": 61,
            "time": 109.34431,
            "duration": 0.16667,
            "velocity": 0.5118110236220472
        },
        {
            "name": "F#4",
            "midi": 66,
            "time": 109.50825,
            "duration": 0.16667,
            "velocity": 0.47244094488188976
        },
        {
            "name": "E3",
            "midi": 52,
            "time": 109.67218,
            "duration": 0.16667,
            "velocity": 0.5118110236220472
        },
        {
            "name": "B3",
            "midi": 59,
            "time": 109.67218,
            "duration": 0.16667,
            "velocity": 0.44881889763779526
        },
        {
            "name": "B2",
            "midi": 47,
            "time": 109.83612,
            "duration": 0.16667,
            "velocity": 0.47244094488188976
        },
        {
            "name": "C#4",
            "midi": 61,
            "time": 109.83612,
            "duration": 0.16667,
            "velocity": 0.5039370078740157
        },
        {
            "name": "E2",
            "midi": 40,
            "time": 110.00005,
            "duration": 0.15505,
            "velocity": 0.4251968503937008
        },
        {
            "name": "F#4",
            "midi": 66,
            "time": 110.00005,
            "duration": 0.15505,
            "velocity": 0.4881889763779528
        },
        {
            "name": "F#2",
            "midi": 42,
            "time": 110.16398,
            "duration": 0.16906,
            "velocity": 0.5905511811023622
        },
        {
            "name": "B3",
            "midi": 59,
            "time": 110.16398,
            "duration": 0.16906,
            "velocity": 0.5118110236220472
        },
        {
            "name": "C#4",
            "midi": 61,
            "time": 110.32792,
            "duration": 0.16906,
            "velocity": 0.5275590551181102
        },
        {
            "name": "C#3",
            "midi": 49,
            "time": 110.32792,
            "duration": 0.16906,
            "velocity": 0.5196850393700787
        },
        {
            "name": "F#4",
            "midi": 66,
            "time": 110.49185,
            "duration": 0.16906,
            "velocity": 0.44881889763779526
        },
        {
            "name": "F#3",
            "midi": 54,
            "time": 110.49185,
            "duration": 1.47917,
            "velocity": 0.5590551181102362
        },
        {
            "name": "C#5",
            "midi": 73,
            "time": 110.65579,
            "duration": 0.16393,
            "velocity": 0.7559055118110236
        },
        {
            "name": "B3",
            "midi": 59,
            "time": 110.65579,
            "duration": 0.16906,
            "velocity": 0.47244094488188976
        },
        {
            "name": "C#5",
            "midi": 73,
            "time": 110.81972,
            "duration": 0.16393,
            "velocity": 0.6614173228346457
        },
        {
            "name": "C#4",
            "midi": 61,
            "time": 110.81972,
            "duration": 0.16906,
            "velocity": 0.5118110236220472
        },
        {
            "name": "C#5",
            "midi": 73,
            "time": 110.98366,
            "duration": 0.16393,
            "velocity": 0.6614173228346457
        },
        {
            "name": "F#4",
            "midi": 66,
            "time": 110.98366,
            "duration": 0.16906,
            "velocity": 0.47244094488188976
        },
        {
            "name": "B3",
            "midi": 59,
            "time": 111.14759,
            "duration": 0.15745,
            "velocity": 0.44881889763779526
        },
        {
            "name": "C#5",
            "midi": 73,
            "time": 111.14759,
            "duration": 0.33436,
            "velocity": 0.7559055118110236
        },
        {
            "name": "C#4",
            "midi": 61,
            "time": 111.31153,
            "duration": 0.16667,
            "velocity": 0.5039370078740157
        },
        {
            "name": "D#5",
            "midi": 75,
            "time": 111.47546,
            "duration": 0.16667,
            "velocity": 0.7322834645669292
        },
        {
            "name": "F#4",
            "midi": 66,
            "time": 111.47546,
            "duration": 0.16667,
            "velocity": 0.4881889763779528
        },
        {
            "name": "B3",
            "midi": 59,
            "time": 111.63939,
            "duration": 0.16667,
            "velocity": 0.4330708661417323
        },
        {
            "name": "C#5",
            "midi": 73,
            "time": 111.63939,
            "duration": 0.33436,
            "velocity": 0.7716535433070866
        },
        {
            "name": "C#4",
            "midi": 61,
            "time": 111.80333,
            "duration": 0.16667,
            "velocity": 0.49606299212598426
        },
        {
            "name": "F#4",
            "midi": 66,
            "time": 111.96726,
            "duration": 0.15505,
            "velocity": 0.4881889763779528
        },
        {
            "name": "B4",
            "midi": 71,
            "time": 111.96726,
            "duration": 0.16393,
            "velocity": 0.6614173228346457
        },
        {
            "name": "B2",
            "midi": 47,
            "time": 112.1312,
            "duration": 0.16667,
            "velocity": 0.6220472440944882
        },
        {
            "name": "B4",
            "midi": 71,
            "time": 112.1312,
            "duration": 1.86851,
            "velocity": 0.7401574803149606
        },
        {
            "name": "F#3",
            "midi": 54,
            "time": 112.29513,
            "duration": 0.16667,
            "velocity": 0.5590551181102362
        },
        {
            "name": "B3",
            "midi": 59,
            "time": 112.45907,
            "duration": 0.3306,
            "velocity": 0.5354330708661418
        },
        {
            "name": "B3",
            "midi": 59,
            "time": 112.623,
            "duration": 0.16667,
            "velocity": 0.4409448818897638
        },
        {
            "name": "C#4",
            "midi": 61,
            "time": 112.78694,
            "duration": 0.16667,
            "velocity": 0.44881889763779526
        },
        {
            "name": "F#4",
            "midi": 66,
            "time": 112.95087,
            "duration": 0.16667,
            "velocity": 0.44881889763779526
        },
        {
            "name": "B3",
            "midi": 59,
            "time": 113.1148,
            "duration": 0.16667,
            "velocity": 0.41732283464566927
        },
        {
            "name": "C#4",
            "midi": 61,
            "time": 113.27874,
            "duration": 0.16667,
            "velocity": 0.4566929133858268
        },
        {
            "name": "F#4",
            "midi": 66,
            "time": 113.44267,
            "duration": 0.16667,
            "velocity": 0.47244094488188976
        },
        {
            "name": "B3",
            "midi": 59,
            "time": 113.60661,
            "duration": 0.16667,
            "velocity": 0.44881889763779526
        },
        {
            "name": "B1",
            "midi": 35,
            "time": 113.60661,
            "duration": 0.4918,
            "velocity": 0.6220472440944882
        },
        {
            "name": "C#4",
            "midi": 61,
            "time": 113.77054,
            "duration": 0.16667,
            "velocity": 0.5039370078740157
        },
        {
            "name": "F#4",
            "midi": 66,
            "time": 113.93448,
            "duration": 0.15505,
            "velocity": 0.4881889763779528
        },
        {
            "name": "D#2",
            "midi": 39,
            "time": 113.94985,
            "duration": 2.01708,
            "velocity": 0.6377952755905512
        },
        {
            "name": "B2",
            "midi": 47,
            "time": 114.02942,
            "duration": 1.9416,
            "velocity": 0.6377952755905512
        },
        {
            "name": "B3",
            "midi": 59,
            "time": 114.09841,
            "duration": 0.16667,
            "velocity": 0.5118110236220472
        },
        {
            "name": "F#3",
            "midi": 54,
            "time": 114.10866,
            "duration": 1.86612,
            "velocity": 0.6614173228346457
        },
        {
            "name": "C#4",
            "midi": 61,
            "time": 114.26235,
            "duration": 0.16667,
            "velocity": 0.5275590551181102
        },
        {
            "name": "F#4",
            "midi": 66,
            "time": 114.42628,
            "duration": 0.16667,
            "velocity": 0.44881889763779526
        },
        {
            "name": "B3",
            "midi": 59,
            "time": 114.59022,
            "duration": 0.16667,
            "velocity": 0.47244094488188976
        },
        {
            "name": "C#4",
            "midi": 61,
            "time": 114.75415,
            "duration": 0.16667,
            "velocity": 0.5118110236220472
        },
        {
            "name": "F#4",
            "midi": 66,
            "time": 114.91808,
            "duration": 0.16667,
            "velocity": 0.47244094488188976
        },
        {
            "name": "B3",
            "midi": 59,
            "time": 115.08202,
            "duration": 0.16667,
            "velocity": 0.44881889763779526
        },
        {
            "name": "C#6",
            "midi": 85,
            "time": 115.08202,
            "duration": 0.33436,
            "velocity": 0.7559055118110236
        },
        {
            "name": "C#4",
            "midi": 61,
            "time": 115.24595,
            "duration": 0.16667,
            "velocity": 0.5039370078740157
        },
        {
            "name": "F#4",
            "midi": 66,
            "time": 115.40989,
            "duration": 0.16667,
            "velocity": 0.4881889763779528
        },
        {
            "name": "B5",
            "midi": 83,
            "time": 115.40989,
            "duration": 0.33436,
            "velocity": 0.7480314960629921
        },
        {
            "name": "B3",
            "midi": 59,
            "time": 115.57382,
            "duration": 0.16667,
            "velocity": 0.4330708661417323
        },
        {
            "name": "C#4",
            "midi": 61,
            "time": 115.73776,
            "duration": 0.16667,
            "velocity": 0.49606299212598426
        },
        {
            "name": "F#5",
            "midi": 78,
            "time": 115.73776,
            "duration": 0.33436,
            "velocity": 0.7086614173228346
        },
        {
            "name": "F#4",
            "midi": 66,
            "time": 115.90169,
            "duration": 0.15505,
            "velocity": 0.4881889763779528
        },
        {
            "name": "E2",
            "midi": 40,
            "time": 116.06563,
            "duration": 0.16667,
            "velocity": 0.5984251968503937
        },
        {
            "name": "E5",
            "midi": 76,
            "time": 116.06563,
            "duration": 1.86851,
            "velocity": 0.6929133858267716
        },
        {
            "name": "E4",
            "midi": 64,
            "time": 116.06563,
            "duration": 1.86851,
            "velocity": 0.4881889763779528
        },
        {
            "name": "G#4",
            "midi": 68,
            "time": 116.06563,
            "duration": 1.86851,
            "velocity": 0.41732283464566927
        },
        {
            "name": "B4",
            "midi": 71,
            "time": 116.06563,
            "duration": 1.86851,
            "velocity": 0.5984251968503937
        },
        {
            "name": "B2",
            "midi": 47,
            "time": 116.22956,
            "duration": 0.16667,
            "velocity": 0.49606299212598426
        },
        {
            "name": "E3",
            "midi": 52,
            "time": 116.3935,
            "duration": 1.08982,
            "velocity": 0.5433070866141733
        },
        {
            "name": "B3",
            "midi": 59,
            "time": 116.55743,
            "duration": 0.16667,
            "velocity": 0.5511811023622047
        },
        {
            "name": "C#4",
            "midi": 61,
            "time": 116.72136,
            "duration": 0.16667,
            "velocity": 0.5590551181102362
        },
        {
            "name": "F#4",
            "midi": 66,
            "time": 116.8853,
            "duration": 0.16667,
            "velocity": 0.48031496062992124
        },
        {
            "name": "B3",
            "midi": 59,
            "time": 117.04923,
            "duration": 0.16667,
            "velocity": 0.5039370078740157
        },
        {
            "name": "C#4",
            "midi": 61,
            "time": 117.21317,
            "duration": 0.16667,
            "velocity": 0.5433070866141733
        },
        {
            "name": "F#4",
            "midi": 66,
            "time": 117.3771,
            "duration": 0.16667,
            "velocity": 0.5039370078740157
        },
        {
            "name": "E3",
            "midi": 52,
            "time": 117.54104,
            "duration": 0.16667,
            "velocity": 0.5984251968503937
        },
        {
            "name": "B3",
            "midi": 59,
            "time": 117.54104,
            "duration": 0.16667,
            "velocity": 0.48031496062992124
        },
        {
            "name": "C#4",
            "midi": 61,
            "time": 117.70497,
            "duration": 0.16667,
            "velocity": 0.5354330708661418
        },
        {
            "name": "B2",
            "midi": 47,
            "time": 117.70497,
            "duration": 0.16667,
            "velocity": 0.5590551181102362
        },
        {
            "name": "E2",
            "midi": 40,
            "time": 117.86891,
            "duration": 0.15505,
            "velocity": 0.5118110236220472
        },
        {
            "name": "F#4",
            "midi": 66,
            "time": 117.86891,
            "duration": 0.15505,
            "velocity": 0.5196850393700787
        },
        {
            "name": "F#2",
            "midi": 42,
            "time": 118.03284,
            "duration": 0.16667,
            "velocity": 0.6929133858267716
        },
        {
            "name": "B3",
            "midi": 59,
            "time": 118.03284,
            "duration": 0.16667,
            "velocity": 0.5669291338582677
        },
        {
            "name": "C#3",
            "midi": 49,
            "time": 118.19677,
            "duration": 0.16667,
            "velocity": 0.6377952755905512
        },
        {
            "name": "C#4",
            "midi": 61,
            "time": 118.19677,
            "duration": 0.16667,
            "velocity": 0.5196850393700787
        },
        {
            "name": "F#3",
            "midi": 54,
            "time": 118.36071,
            "duration": 0.16667,
            "velocity": 0.6771653543307087
        },
        {
            "name": "F#4",
            "midi": 66,
            "time": 118.36071,
            "duration": 0.16667,
            "velocity": 0.44881889763779526
        },
        {
            "name": "B4",
            "midi": 71,
            "time": 118.52464,
            "duration": 0.16667,
            "velocity": 0.7874015748031497
        },
        {
            "name": "B3",
            "midi": 59,
            "time": 118.52464,
            "duration": 0.16667,
            "velocity": 0.6456692913385826
        },
        {
            "name": "C#5",
            "midi": 73,
            "time": 118.68858,
            "duration": 0.16667,
            "velocity": 0.7244094488188977
        },
        {
            "name": "C#4",
            "midi": 61,
            "time": 118.68858,
            "duration": 0.16667,
            "velocity": 0.6456692913385826
        },
        {
            "name": "F#5",
            "midi": 78,
            "time": 118.85251,
            "duration": 0.16667,
            "velocity": 0.7244094488188977
        },
        {
            "name": "F#4",
            "midi": 66,
            "time": 118.85251,
            "duration": 0.16667,
            "velocity": 0.5196850393700787
        },
        {
            "name": "B5",
            "midi": 83,
            "time": 119.01645,
            "duration": 0.16667,
            "velocity": 0.7874015748031497
        },
        {
            "name": "B4",
            "midi": 71,
            "time": 119.01645,
            "duration": 0.16667,
            "velocity": 0.7559055118110236
        },
        {
            "name": "C#6",
            "midi": 85,
            "time": 119.18038,
            "duration": 0.16667,
            "velocity": 0.7244094488188977
        },
        {
            "name": "C#5",
            "midi": 73,
            "time": 119.18038,
            "duration": 0.16667,
            "velocity": 0.7559055118110236
        },
        {
            "name": "F#6",
            "midi": 90,
            "time": 119.34432,
            "duration": 0.16667,
            "velocity": 0.7244094488188977
        },
        {
            "name": "F#5",
            "midi": 78,
            "time": 119.34432,
            "duration": 0.16667,
            "velocity": 0.7559055118110236
        },
        {
            "name": "B6",
            "midi": 95,
            "time": 119.50825,
            "duration": 0.16667,
            "velocity": 0.7874015748031497
        },
        {
            "name": "B5",
            "midi": 83,
            "time": 119.50825,
            "duration": 0.16667,
            "velocity": 0.7559055118110236
        },
        {
            "name": "C#7",
            "midi": 97,
            "time": 119.67218,
            "duration": 0.16667,
            "velocity": 0.7244094488188977
        },
        {
            "name": "C#6",
            "midi": 85,
            "time": 119.67218,
            "duration": 0.16667,
            "velocity": 0.7559055118110236
        },
        {
            "name": "F#7",
            "midi": 102,
            "time": 119.83612,
            "duration": 0.15505,
            "velocity": 0.7244094488188977
        },
        {
            "name": "F#6",
            "midi": 90,
            "time": 119.83612,
            "duration": 0.15505,
            "velocity": 0.7559055118110236
        }
    ]
}