[
    {
        "name": "G#4",
        "midi": 68,
        "time": 0.01136,
        "duration": 0.77727,
        "velocity": 73
    },
    {
        "name": "A3",
        "midi": 57,
        "time": 0.01136,
        "duration": 1.55682,
        "velocity": 76
    },
    {
        "name": "D4",
        "midi": 62,
        "time": 0.01136,
        "duration": 1.55682,
        "velocity": 71
    },
    {
        "name": "A4",
        "midi": 69,
        "time": 0.92955,
        "duration": 0.63864,
        "velocity": 77
    },
    {
        "name": "D2",
        "midi": 38,
        "time": 1.56818,
        "duration": 0.26591,
        "velocity": 40
    },
    {
        "name": "F#4",
        "midi": 66,
        "time": 1.56818,
        "duration": 0.88182,
        "velocity": 85
    },
    {
        "name": "A4",
        "midi": 69,
        "time": 1.57955,
        "duration": 0.51136,
        "velocity": 51
    },
    {
        "name": "A3",
        "midi": 57,
        "time": 1.57955,
        "duration": 0.54545,
        "velocity": 39
    },
    {
        "name": "D3",
        "midi": 50,
        "time": 1.57955,
        "duration": 0.87045,
        "velocity": 70
    },
    {
        "name": "D4",
        "midi": 62,
        "time": 1.57955,
        "duration": 0.88409,
        "velocity": 68
    },
    {
        "name": "C4",
        "midi": 60,
        "time": 1.64773,
        "duration": 0.26818,
        "velocity": 43
    },
    {
        "name": "D2",
        "midi": 38,
        "time": 2.06818,
        "duration": 0.30227,
        "velocity": 58
    },
    {
        "name": "C4",
        "midi": 60,
        "time": 2.45,
        "duration": 0.675,
        "velocity": 47
    },
    {
        "name": "F#4",
        "midi": 66,
        "time": 2.45,
        "duration": 0.87273,
        "velocity": 76
    },
    {
        "name": "A4",
        "midi": 69,
        "time": 2.45,
        "duration": 0.92955,
        "velocity": 49
    },
    {
        "name": "D3",
        "midi": 50,
        "time": 2.45,
        "duration": 0.94091,
        "velocity": 49
    },
    {
        "name": "D4",
        "midi": 62,
        "time": 2.46364,
        "duration": 1.03182,
        "velocity": 72
    },
    {
        "name": "B4",
        "midi": 71,
        "time": 3.48409,
        "duration": 0.175,
        "velocity": 58
    },
    {
        "name": "A4",
        "midi": 69,
        "time": 3.49545,
        "duration": 0.23182,
        "velocity": 50
    },
    {
        "name": "G4",
        "midi": 67,
        "time": 3.49545,
        "duration": 0.70909,
        "velocity": 55
    },
    {
        "name": "D4",
        "midi": 62,
        "time": 3.49545,
        "duration": 0.88409,
        "velocity": 62
    },
    {
        "name": "A3",
        "midi": 57,
        "time": 3.50682,
        "duration": 0.79091,
        "velocity": 64
    },
    {
        "name": "E4",
        "midi": 64,
        "time": 3.53182,
        "duration": 0.65,
        "velocity": 46
    },
    {
        "name": "B4",
        "midi": 71,
        "time": 4.125,
        "duration": 0.16136,
        "velocity": 51
    },
    {
        "name": "A3",
        "midi": 57,
        "time": 4.29773,
        "duration": 0.675,
        "velocity": 41
    },
    {
        "name": "C#5",
        "midi": 73,
        "time": 4.29773,
        "duration": 0.70909,
        "velocity": 71
    },
    {
        "name": "D4",
        "midi": 62,
        "time": 4.6,
        "duration": 0.51136,
        "velocity": 62
    },
    {
        "name": "B4",
        "midi": 71,
        "time": 4.61136,
        "duration": 0.48864,
        "velocity": 72
    },
    {
        "name": "A3",
        "midi": 57,
        "time": 5.12273,
        "duration": 0.48636,
        "velocity": 44
    },
    {
        "name": "D4",
        "midi": 62,
        "time": 5.12273,
        "duration": 0.57955,
        "velocity": 65
    },
    {
        "name": "A4",
        "midi": 69,
        "time": 5.12273,
        "duration": 0.57955,
        "velocity": 78
    },
    {
        "name": "B4",
        "midi": 71,
        "time": 5.29773,
        "duration": 0.33636,
        "velocity": 51
    },
    {
        "name": "D4",
        "midi": 62,
        "time": 5.70227,
        "duration": 0.15227,
        "velocity": 53
    },
    {
        "name": "A4",
        "midi": 69,
        "time": 5.70227,
        "duration": 0.23409,
        "velocity": 61
    },
    {
        "name": "G3",
        "midi": 55,
        "time": 5.70227,
        "duration": 0.53636,
        "velocity": 70
    },
    {
        "name": "G4",
        "midi": 67,
        "time": 5.71364,
        "duration": 0.51364,
        "velocity": 56
    },
    {
        "name": "E4",
        "midi": 64,
        "time": 5.75,
        "duration": 0.61591,
        "velocity": 59
    },
    {
        "name": "G2",
        "midi": 43,
        "time": 5.76136,
        "duration": 0.25682,
        "velocity": 44
    },
    {
        "name": "D5",
        "midi": 74,
        "time": 6.22727,
        "duration": 0.29091,
        "velocity": 69
    },
    {
        "name": "D4",
        "midi": 62,
        "time": 6.23864,
        "duration": 0.25455,
        "velocity": 49
    },
    {
        "name": "G3",
        "midi": 55,
        "time": 6.23864,
        "duration": 0.29091,
        "velocity": 65
    },
    {
        "name": "E5",
        "midi": 76,
        "time": 6.51818,
        "duration": 0.17273,
        "velocity": 65
    },
    {
        "name": "E4",
        "midi": 64,
        "time": 6.51818,
        "duration": 0.24318,
        "velocity": 59
    },
    {
        "name": "C#5",
        "midi": 73,
        "time": 6.51818,
        "duration": 0.26591,
        "velocity": 69
    },
    {
        "name": "G4",
        "midi": 67,
        "time": 6.52955,
        "duration": 0.27727,
        "velocity": 55
    },
    {
        "name": "G3",
        "midi": 55,
        "time": 6.52955,
        "duration": 0.8,
        "velocity": 60
    },
    {
        "name": "D4",
        "midi": 62,
        "time": 6.78409,
        "duration": 0.25455,
        "velocity": 50
    },
    {
        "name": "D5",
        "midi": 74,
        "time": 6.78409,
        "duration": 0.29091,
        "velocity": 64
    },
    {
        "name": "C#5",
        "midi": 73,
        "time": 7.075,
        "duration": 0.24318,
        "velocity": 75
    },
    {
        "name": "D4",
        "midi": 62,
        "time": 7.31818,
        "duration": 0.13864,
        "velocity": 44
    },
    {
        "name": "G3",
        "midi": 55,
        "time": 7.32955,
        "duration": 0.52273,
        "velocity": 66
    },
    {
        "name": "D5",
        "midi": 74,
        "time": 7.32955,
        "duration": 0.61591,
        "velocity": 72
    }
]