{
    "tempo_bpm": 120.0,
    "total_time": 120.19,
    "notes": [
        {
            "name": "G1",
            "midi": 31,
            "time": 0.54545,
            "duration": 0.56818,
            "velocity": 0.5905511811023622
        },
        {
            "name": "G1",
            "midi": 31,
            "time": 1.12727,
            "duration": 0.52045,
            "velocity": 0.4881889763779528
        },
        {
            "name": "G1",
            "midi": 31,
            "time": 2.37045,
            "duration": 0.34773,
            "velocity": 0.3858267716535433
        },
        {
            "name": "G1",
            "midi": 31,
            "time": 3.11364,
            "duration": 0.15,
            "velocity": 0.4251968503937008
        },
        {
            "name": "A#6",
            "midi": 94,
            "time": 3.40227,
            "duration": 0.39545,
            "velocity": 0.3858267716535433
        },
        {
            "name": "C7",
            "midi": 96,
            "time": 3.63409,
            "duration": 0.49091,
            "velocity": 0.6377952755905512
        },
        {
            "name": "G5",
            "midi": 79,
            "time": 3.65909,
            "duration": 0.39545,
            "velocity": 0.4251968503937008
        },
        {
            "name": "A#6",
            "midi": 94,
            "time": 4.1,
            "duration": 0.29091,
            "velocity": 0.5748031496062992
        },
        {
            "name": "A#6",
            "midi": 94,
            "time": 4.39091,
            "duration": 0.15227,
            "velocity": 0.6141732283464567
        },
        {
            "name": "A6",
            "midi": 93,
            "time": 4.54318,
            "duration": 0.23182,
            "velocity": 0.6220472440944882
        },
        {
            "name": "G6",
            "midi": 91,
            "time": 4.78636,
            "duration": 0.44091,
            "velocity": 0.5826771653543307
        },
        {
            "name": "G5",
            "midi": 79,
            "time": 4.80909,
            "duration": 0.34773,
            "velocity": 0.4015748031496063
        },
        {
            "name": "A#5",
            "midi": 82,
            "time": 4.99545,
            "duration": 0.20909,
            "velocity": 0.5669291338582677
        },
        {
            "name": "C7",
            "midi": 96,
            "time": 5.22727,
            "duration": 0.44091,
            "velocity": 0.5433070866141733
        },
        {
            "name": "D#4",
            "midi": 63,
            "time": 5.44773,
            "duration": 0.18636,
            "velocity": 0.5039370078740157
        },
        {
            "name": "D#5",
            "midi": 75,
            "time": 5.44773,
            "duration": 1.01136,
            "velocity": 0.4015748031496063
        },
        {
            "name": "A#6",
            "midi": 94,
            "time": 5.66818,
            "duration": 0.43182,
            "velocity": 0.4566929133858268
        },
        {
            "name": "D#4",
            "midi": 63,
            "time": 5.78409,
            "duration": 0.13864,
            "velocity": 0.4015748031496063
        },
        {
            "name": "A6",
            "midi": 93,
            "time": 6.12273,
            "duration": 0.475,
            "velocity": 0.4881889763779528
        },
        {
            "name": "G6",
            "midi": 91,
            "time": 6.58636,
            "duration": 0.44091,
            "velocity": 0.6614173228346457
        },
        {
            "name": "D#5",
            "midi": 75,
            "time": 6.69091,
            "duration": 0.25682,
            "velocity": 0.4094488188976378
        },
        {
            "name": "B2",
            "midi": 47,
            "time": 6.70227,
            "duration": 0.25682,
            "velocity": 0.31496062992125984
        },
        {
            "name": "G5",
            "midi": 79,
            "time": 6.80682,
            "duration": 0.41818,
            "velocity": 0.5748031496062992
        },
        {
            "name": "G6",
            "midi": 91,
            "time": 7.02727,
            "duration": 0.22045,
            "velocity": 0.7795275590551181
        },
        {
            "name": "G6",
            "midi": 91,
            "time": 7.24773,
            "duration": 0.60455,
            "velocity": 0.5669291338582677
        },
        {
            "name": "D#2",
            "midi": 39,
            "time": 7.25909,
            "duration": 0.25682,
            "velocity": 0.3858267716535433
        },
        {
            "name": "F6",
            "midi": 89,
            "time": 7.25909,
            "duration": 0.26818,
            "velocity": 0.5826771653543307
        },
        {
            "name": "F5",
            "midi": 77,
            "time": 7.27273,
            "duration": 0.60227,
            "velocity": 0.5039370078740157
        },
        {
            "name": "F6",
            "midi": 89,
            "time": 7.52727,
            "duration": 0.22045,
            "velocity": 0.3937007874015748
        },
        {
            "name": "D#6",
            "midi": 87,
            "time": 7.93409,
            "duration": 0.35,
            "velocity": 0.7795275590551181
        },
        {
            "name": "D#6",
            "midi": 87,
            "time": 8.28409,
            "duration": 0.56818,
            "velocity": 0.6220472440944882
        },
        {
            "name": "F6",
            "midi": 89,
            "time": 8.52727,
            "duration": 0.24318,
            "velocity": 0.7480314960629921
        },
        {
            "name": "A5",
            "midi": 81,
            "time": 8.64318,
            "duration": 0.26591,
            "velocity": 0.31496062992125984
        },
        {
            "name": "F6",
            "midi": 89,
            "time": 8.77045,
            "duration": 0.18636,
            "velocity": 0.5748031496062992
        },
        {
            "name": "D6",
            "midi": 86,
            "time": 8.875,
            "duration": 0.975,
            "velocity": 0.7007874015748031
        },
        {
            "name": "F5",
            "midi": 77,
            "time": 8.88636,
            "duration": 0.19773,
            "velocity": 0.41732283464566927
        },
        {
            "name": "G5",
            "midi": 79,
            "time": 9.12955,
            "duration": 0.69773,
            "velocity": 0.5354330708661418
        },
        {
            "name": "D6",
            "midi": 86,
            "time": 10.94318,
            "duration": 0.24318,
            "velocity": 0.47244094488188976
        },
        {
            "name": "D5",
            "midi": 74,
            "time": 10.95455,
            "duration": 0.24318,
            "velocity": 0.6850393700787402
        },
        {
            "name": "D6",
            "midi": 86,
            "time": 11.18636,
            "duration": 0.44091,
            "velocity": 0.33858267716535434
        },
        {
            "name": "D5",
            "midi": 74,
            "time": 11.19773,
            "duration": 0.42955,
            "velocity": 0.6299212598425197
        },
        {
            "name": "D#3",
            "midi": 51,
            "time": 11.19773,
            "duration": 0.66136,
            "velocity": 0.6456692913385826
        },
        {
            "name": "A#5",
            "midi": 82,
            "time": 11.19773,
            "duration": 0.80227,
            "velocity": 0.4251968503937008
        },
        {
            "name": "A#3",
            "midi": 58,
            "time": 11.39545,
            "duration": 0.39545,
            "velocity": 0.4881889763779528
        },
        {
            "name": "G4",
            "midi": 67,
            "time": 11.62727,
            "duration": 0.23182,
            "velocity": 0.5433070866141733
        },
        {
            "name": "D6",
            "midi": 86,
            "time": 11.62727,
            "duration": 0.23182,
            "velocity": 0.3700787401574803
        },
        {
            "name": "D5",
            "midi": 74,
            "time": 11.62727,
            "duration": 0.24545,
            "velocity": 0.6141732283464567
        },
        {
            "name": "D#2",
            "midi": 39,
            "time": 11.66364,
            "duration": 0.27955,
            "velocity": 0.3700787401574803
        },
        {
            "name": "D6",
            "midi": 86,
            "time": 11.85909,
            "duration": 0.22273,
            "velocity": 0.4881889763779528
        },
        {
            "name": "G4",
            "midi": 67,
            "time": 11.85909,
            "duration": 0.38636,
            "velocity": 0.4409448818897638
        },
        {
            "name": "D#3",
            "midi": 51,
            "time": 11.85909,
            "duration": 1.30227,
            "velocity": 0.5511811023622047
        },
        {
            "name": "D5",
            "midi": 74,
            "time": 11.87273,
            "duration": 0.44091,
            "velocity": 0.6141732283464567
        },
        {
            "name": "A#3",
            "midi": 58,
            "time": 12.05909,
            "duration": 0.45227,
            "velocity": 0.5196850393700787
        },
        {
            "name": "D6",
            "midi": 86,
            "time": 12.08182,
            "duration": 0.29091,
            "velocity": 0.33070866141732286
        },
        {
            "name": "D#2",
            "midi": 39,
            "time": 12.12955,
            "duration": 0.34773,
            "velocity": 0.3464566929133858
        },
        {
            "name": "A#5",
            "midi": 82,
            "time": 12.14091,
            "duration": 0.27727,
            "velocity": 0.3543307086614173
        },
        {
            "name": "A#2",
            "midi": 46,
            "time": 12.25682,
            "duration": 0.73182,
            "velocity": 0.3858267716535433
        },
        {
            "name": "F4",
            "midi": 65,
            "time": 12.27955,
            "duration": 0.22045,
            "velocity": 0.3937007874015748
        },
        {
            "name": "D5",
            "midi": 74,
            "time": 12.31364,
            "duration": 0.42955,
            "velocity": 0.4645669291338583
        },
        {
            "name": "A#4",
            "midi": 70,
            "time": 12.5,
            "duration": 0.52273,
            "velocity": 0.4566929133858268
        },
        {
            "name": "A#3",
            "midi": 58,
            "time": 12.51136,
            "duration": 0.61591,
            "velocity": 0.4566929133858268
        },
        {
            "name": "D6",
            "midi": 86,
            "time": 12.53409,
            "duration": 0.26818,
            "velocity": 0.3858267716535433
        },
        {
            "name": "D5",
            "midi": 74,
            "time": 12.74318,
            "duration": 0.65,
            "velocity": 0.5196850393700787
        },
        {
            "name": "A#5",
            "midi": 82,
            "time": 12.75455,
            "duration": 0.15227,
            "velocity": 0.4251968503937008
        },
        {
            "name": "D#2",
            "midi": 39,
            "time": 12.83636,
            "duration": 0.29091,
            "velocity": 0.33858267716535434
        },
        {
            "name": "G4",
            "midi": 67,
            "time": 12.94091,
            "duration": 0.18636,
            "velocity": 0.33070866141732286
        },
        {
            "name": "G3",
            "midi": 55,
            "time": 12.94091,
            "duration": 0.67273,
            "velocity": 0.6850393700787402
        },
        {
            "name": "D4",
            "midi": 62,
            "time": 13.18409,
            "duration": 0.22045,
            "velocity": 0.3779527559055118
        },
        {
            "name": "C5",
            "midi": 72,
            "time": 13.18409,
            "duration": 0.27955,
            "velocity": 0.5354330708661418
        },
        {
            "name": "D5",
            "midi": 74,
            "time": 13.39318,
            "duration": 0.36136,
            "velocity": 0.48031496062992124
        },
        {
            "name": "D4",
            "midi": 62,
            "time": 13.40455,
            "duration": 0.175,
            "velocity": 0.4251968503937008
        },
        {
            "name": "A#4",
            "midi": 70,
            "time": 13.40455,
            "duration": 0.45455,
            "velocity": 0.47244094488188976
        },
        {
            "name": "D#3",
            "midi": 51,
            "time": 13.42955,
            "duration": 0.325,
            "velocity": 0.36220472440944884
        },
        {
            "name": "G3",
            "midi": 55,
            "time": 13.61364,
            "duration": 0.42045,
            "velocity": 0.6456692913385826
        },
        {
            "name": "C5",
            "midi": 72,
            "time": 13.81136,
            "duration": 0.64091,
            "velocity": 0.5039370078740157
        },
        {
            "name": "D4",
            "midi": 62,
            "time": 13.84773,
            "duration": 0.15227,
            "velocity": 0.47244094488188976
        },
        {
            "name": "D4",
            "midi": 62,
            "time": 14.03409,
            "duration": 0.22045,
            "velocity": 0.29133858267716534
        },
        {
            "name": "D5",
            "midi": 74,
            "time": 14.03409,
            "duration": 0.37045,
            "velocity": 0.5433070866141733
        },
        {
            "name": "G3",
            "midi": 55,
            "time": 14.03409,
            "duration": 0.68409,
            "velocity": 0.5984251968503937
        },
        {
            "name": "A#4",
            "midi": 70,
            "time": 14.05682,
            "duration": 0.35909,
            "velocity": 0.3858267716535433
        },
        {
            "name": "G4",
            "midi": 67,
            "time": 14.26591,
            "duration": 0.16364,
            "velocity": 0.2755905511811024
        },
        {
            "name": "D#2",
            "midi": 39,
            "time": 14.49773,
            "duration": 0.175,
            "velocity": 0.4645669291338583
        },
        {
            "name": "D4",
            "midi": 62,
            "time": 14.49773,
            "duration": 0.40682,
            "velocity": 0.3700787401574803
        },
        {
            "name": "A#5",
            "midi": 82,
            "time": 14.52045,
            "duration": 0.14091,
            "velocity": 0.5905511811023622
        },
        {
            "name": "C6",
            "midi": 84,
            "time": 14.70682,
            "duration": 0.325,
            "velocity": 0.4094488188976378
        },
        {
            "name": "F3",
            "midi": 53,
            "time": 14.70682,
            "duration": 0.44091,
            "velocity": 0.5826771653543307
        },
        {
            "name": "A5",
            "midi": 81,
            "time": 14.70682,
            "duration": 0.44091,
            "velocity": 0.5275590551181102
        },
        {
            "name": "F4",
            "midi": 65,
            "time": 14.70682,
            "duration": 0.65,
            "velocity": 0.41732283464566927
        },
        {
            "name": "F5",
            "midi": 77,
            "time": 14.76591,
            "duration": 0.27727,
            "velocity": 0.3858267716535433
        },
        {
            "name": "C4",
            "midi": 60,
            "time": 14.92727,
            "duration": 0.22045,
            "velocity": 0.6850393700787402
        },
        {
            "name": "F3",
            "midi": 53,
            "time": 15.14773,
            "duration": 0.18636,
            "velocity": 0.5275590551181102
        },
        {
            "name": "C4",
            "midi": 60,
            "time": 15.14773,
            "duration": 0.18636,
            "velocity": 0.5590551181102362
        },
        {
            "name": "A5",
            "midi": 81,
            "time": 15.14773,
            "duration": 0.20909,
            "velocity": 0.5748031496062992
        },
        {
            "name": "A4",
            "midi": 69,
            "time": 15.14773,
            "duration": 0.22045,
            "velocity": 0.5748031496062992
        },
        {
            "name": "F3",
            "midi": 53,
            "time": 15.33409,
            "duration": 0.475,
            "velocity": 0.5748031496062992
        },
        {
            "name": "A6",
            "midi": 93,
            "time": 15.35682,
            "duration": 0.175,
            "velocity": 0.5354330708661418
        },
        {
            "name": "C4",
            "midi": 60,
            "time": 15.35682,
            "duration": 0.26818,
            "velocity": 0.4409448818897638
        },
        {
            "name": "F5",
            "midi": 77,
            "time": 15.35682,
            "duration": 0.325,
            "velocity": 0.4409448818897638
        },
        {
            "name": "C6",
            "midi": 84,
            "time": 15.35682,
            "duration": 0.34773,
            "velocity": 0.5433070866141733
        },
        {
            "name": "A5",
            "midi": 81,
            "time": 15.35682,
            "duration": 0.41818,
            "velocity": 0.5590551181102362
        },
        {
            "name": "F4",
            "midi": 65,
            "time": 15.35682,
            "duration": 0.44091,
            "velocity": 0.5590551181102362
        },
        {
            "name": "A4",
            "midi": 69,
            "time": 15.36818,
            "duration": 0.53636,
            "velocity": 0.4566929133858268
        },
        {
            "name": "C4",
            "midi": 60,
            "time": 15.625,
            "duration": 0.60455,
            "velocity": 0.5669291338582677
        },
        {
            "name": "F5",
            "midi": 77,
            "time": 15.79773,
            "duration": 0.32727,
            "velocity": 0.3464566929133858
        },
        {
            "name": "F4",
            "midi": 65,
            "time": 15.79773,
            "duration": 0.43182,
            "velocity": 0.48031496062992124
        },
        {
            "name": "F3",
            "midi": 53,
            "time": 15.80909,
            "duration": 0.12955,
            "velocity": 0.3858267716535433
        },
        {
            "name": "A#5",
            "midi": 82,
            "time": 15.80909,
            "duration": 0.17727,
            "velocity": 0.5590551181102362
        },
        {
            "name": "A#4",
            "midi": 70,
            "time": 16.00909,
            "duration": 0.67273,
            "velocity": 0.5905511811023622
        },
        {
            "name": "A#5",
            "midi": 82,
            "time": 16.02045,
            "duration": 0.18636,
            "velocity": 0.2992125984251969
        },
        {
            "name": "A#6",
            "midi": 94,
            "time": 16.13636,
            "duration": 0.30227,
            "velocity": 0.5590551181102362
        },
        {
            "name": "F3",
            "midi": 53,
            "time": 16.22955,
            "duration": 0.31364,
            "velocity": 0.44881889763779526
        },
        {
            "name": "F4",
            "midi": 65,
            "time": 16.22955,
            "duration": 0.40682,
            "velocity": 0.3858267716535433
        },
        {
            "name": "C5",
            "midi": 72,
            "time": 16.22955,
            "duration": 0.44091,
            "velocity": 0.4881889763779528
        },
        {
            "name": "C4",
            "midi": 60,
            "time": 16.22955,
            "duration": 0.55682,
            "velocity": 0.48031496062992124
        },
        {
            "name": "G3",
            "midi": 55,
            "time": 16.45,
            "duration": 0.44091,
            "velocity": 0.6614173228346457
        },
        {
            "name": "A#5",
            "midi": 82,
            "time": 16.48409,
            "duration": 0.16364,
            "velocity": 0.36220472440944884
        },
        {
            "name": "A4",
            "midi": 69,
            "time": 16.68182,
            "duration": 0.19773,
            "velocity": 0.4094488188976378
        },
        {
            "name": "D5",
            "midi": 74,
            "time": 16.69318,
            "duration": 0.40682,
            "velocity": 0.3700787401574803
        },
        {
            "name": "A#4",
            "midi": 70,
            "time": 16.87955,
            "duration": 0.41818,
            "velocity": 0.5511811023622047
        },
        {
            "name": "G3",
            "midi": 55,
            "time": 16.89091,
            "duration": 0.22045,
            "velocity": 0.6141732283464567
        },
        {
            "name": "G4",
            "midi": 67,
            "time": 16.89091,
            "duration": 0.29091,
            "velocity": 0.36220472440944884
        },
        {
            "name": "F3",
            "midi": 53,
            "time": 16.99545,
            "duration": 0.16364,
            "velocity": 0.3543307086614173
        },
        {
            "name": "F4",
            "midi": 65,
            "time": 17.11136,
            "duration": 0.175,
            "velocity": 0.31496062992125984
        },
        {
            "name": "D5",
            "midi": 74,
            "time": 17.11136,
            "duration": 0.22045,
            "velocity": 0.30708661417322836
        },
        {
            "name": "G3",
            "midi": 55,
            "time": 17.11136,
            "duration": 0.44091,
            "velocity": 0.5748031496062992
        },
        {
            "name": "C4",
            "midi": 60,
            "time": 17.12273,
            "duration": 0.27955,
            "velocity": 0.4094488188976378
        },
        {
            "name": "A4",
            "midi": 69,
            "time": 17.32045,
            "duration": 0.19773,
            "velocity": 0.3858267716535433
        },
        {
            "name": "D4",
            "midi": 62,
            "time": 17.33182,
            "duration": 0.16364,
            "velocity": 0.3464566929133858
        },
        {
            "name": "D5",
            "midi": 74,
            "time": 17.33182,
            "duration": 0.42955,
            "velocity": 0.4015748031496063
        },
        {
            "name": "A#4",
            "midi": 70,
            "time": 17.54091,
            "duration": 0.45455,
            "velocity": 0.5590551181102362
        },
        {
            "name": "G3",
            "midi": 55,
            "time": 17.55227,
            "duration": 0.20909,
            "velocity": 0.5984251968503937
        },
        {
            "name": "G4",
            "midi": 67,
            "time": 17.55227,
            "duration": 0.20909,
            "velocity": 0.48031496062992124
        },
        {
            "name": "C4",
            "midi": 60,
            "time": 17.58864,
            "duration": 0.325,
            "velocity": 0.3700787401574803
        },
        {
            "name": "G4",
            "midi": 67,
            "time": 17.76136,
            "duration": 0.14091,
            "velocity": 0.33070866141732286
        },
        {
            "name": "D5",
            "midi": 74,
            "time": 17.76136,
            "duration": 0.14091,
            "velocity": 0.3700787401574803
        },
        {
            "name": "G3",
            "midi": 55,
            "time": 17.76136,
            "duration": 0.55909,
            "velocity": 0.5669291338582677
        },
        {
            "name": "A#6",
            "midi": 94,
            "time": 17.97273,
            "duration": 0.37045,
            "velocity": 0.4015748031496063
        },
        {
            "name": "D#2",
            "midi": 39,
            "time": 18.18182,
            "duration": 1.33409,
            "velocity": 0.4881889763779528
        },
        {
            "name": "C7",
            "midi": 96,
            "time": 18.20455,
            "duration": 0.35909,
            "velocity": 0.5354330708661418
        },
        {
            "name": "D#3",
            "midi": 51,
            "time": 18.20455,
            "duration": 0.44091,
            "velocity": 0.7322834645669292
        },
        {
            "name": "C6",
            "midi": 84,
            "time": 18.425,
            "duration": 0.19773,
            "velocity": 0.31496062992125984
        },
        {
            "name": "A#3",
            "midi": 58,
            "time": 18.43636,
            "duration": 0.20909,
            "velocity": 0.5511811023622047
        },
        {
            "name": "D#3",
            "midi": 51,
            "time": 18.64545,
            "duration": 0.19773,
            "velocity": 0.6377952755905512
        },
        {
            "name": "A#3",
            "midi": 58,
            "time": 18.64545,
            "duration": 0.19773,
            "velocity": 0.4566929133858268
        },
        {
            "name": "A#6",
            "midi": 94,
            "time": 18.64545,
            "duration": 0.53409,
            "velocity": 0.4330708661417323
        },
        {
            "name": "G4",
            "midi": 67,
            "time": 18.64545,
            "duration": 0.66136,
            "velocity": 0.4409448818897638
        },
        {
            "name": "A#3",
            "midi": 58,
            "time": 18.84318,
            "duration": 0.25455,
            "velocity": 0.4409448818897638
        },
        {
            "name": "D#3",
            "midi": 51,
            "time": 18.84318,
            "duration": 0.46364,
            "velocity": 0.6535433070866141
        },
        {
            "name": "A5",
            "midi": 81,
            "time": 19.08636,
            "duration": 0.18636,
            "velocity": 0.44881889763779526
        },
        {
            "name": "A#3",
            "midi": 58,
            "time": 19.09773,
            "duration": 0.20909,
            "velocity": 0.4094488188976378
        },
        {
            "name": "D#4",
            "midi": 63,
            "time": 19.29545,
            "duration": 0.13864,
            "velocity": 0.36220472440944884
        },
        {
            "name": "G6",
            "midi": 91,
            "time": 19.29545,
            "duration": 0.18636,
            "velocity": 0.4094488188976378
        },
        {
            "name": "G4",
            "midi": 67,
            "time": 19.30682,
            "duration": 0.19773,
            "velocity": 0.5826771653543307
        },
        {
            "name": "D#3",
            "midi": 51,
            "time": 19.30682,
            "duration": 0.20909,
            "velocity": 0.5748031496062992
        },
        {
            "name": "A#3",
            "midi": 58,
            "time": 19.30682,
            "duration": 0.26818,
            "velocity": 0.3464566929133858
        },
        {
            "name": "A#5",
            "midi": 82,
            "time": 19.30682,
            "duration": 0.36136,
            "velocity": 0.5433070866141733
        },
        {
            "name": "G5",
            "midi": 79,
            "time": 19.50455,
            "duration": 0.22045,
            "velocity": 0.5669291338582677
        },
        {
            "name": "G4",
            "midi": 67,
            "time": 19.50455,
            "duration": 0.37273,
            "velocity": 0.4409448818897638
        },
        {
            "name": "D#3",
            "midi": 51,
            "time": 19.51591,
            "duration": 0.51364,
            "velocity": 0.6220472440944882
        },
        {
            "name": "C7",
            "midi": 96,
            "time": 19.725,
            "duration": 0.39545,
            "velocity": 0.6062992125984252
        },
        {
            "name": "D#4",
            "midi": 63,
            "time": 19.73636,
            "duration": 0.16364,
            "velocity": 0.25984251968503935
        },
        {
            "name": "A#3",
            "midi": 58,
            "time": 19.73636,
            "duration": 0.27955,
            "velocity": 0.4566929133858268
        },
        {
            "name": "D#2",
            "midi": 39,
            "time": 19.78409,
            "duration": 0.38409,
            "velocity": 0.5590551181102362
        },
        {
            "name": "G3",
            "midi": 55,
            "time": 19.91136,
            "duration": 0.66364,
            "velocity": 0.6771653543307087
        },
        {
            "name": "C6",
            "midi": 84,
            "time": 20.04091,
            "duration": 0.13864,
            "velocity": 0.5118110236220472
        },
        {
            "name": "D4",
            "midi": 62,
            "time": 20.14545,
            "duration": 0.38182,
            "velocity": 0.33070866141732286
        },
        {
            "name": "A#6",
            "midi": 94,
            "time": 20.16818,
            "duration": 0.26591,
            "velocity": 0.49606299212598426
        },
        {
            "name": "A#4",
            "midi": 70,
            "time": 20.36591,
            "duration": 0.22045,
            "velocity": 0.5669291338582677
        },
        {
            "name": "A#6",
            "midi": 94,
            "time": 20.43409,
            "duration": 0.15227,
            "velocity": 0.4566929133858268
        },
        {
            "name": "G3",
            "midi": 55,
            "time": 20.575,
            "duration": 0.66136,
            "velocity": 0.6535433070866141
        },
        {
            "name": "A5",
            "midi": 81,
            "time": 20.58636,
            "duration": 0.20909,
            "velocity": 0.4015748031496063
        },
        {
            "name": "A#4",
            "midi": 70,
            "time": 20.58636,
            "duration": 0.24318,
            "velocity": 0.3464566929133858
        },
        {
            "name": "D4",
            "midi": 62,
            "time": 20.67955,
            "duration": 0.28864,
            "velocity": 0.3858267716535433
        },
        {
            "name": "A#5",
            "midi": 82,
            "time": 20.84091,
            "duration": 0.25455,
            "velocity": 0.3464566929133858
        },
        {
            "name": "G4",
            "midi": 67,
            "time": 20.88864,
            "duration": 0.26591,
            "velocity": 0.2992125984251969
        },
        {
            "name": "D4",
            "midi": 62,
            "time": 21.01591,
            "duration": 0.19773,
            "velocity": 0.33070866141732286
        },
        {
            "name": "A#4",
            "midi": 70,
            "time": 21.01591,
            "duration": 0.22045,
            "velocity": 0.44881889763779526
        },
        {
            "name": "G6",
            "midi": 91,
            "time": 21.01591,
            "duration": 0.28864,
            "velocity": 0.4645669291338583
        },
        {
            "name": "G5",
            "midi": 79,
            "time": 21.02727,
            "duration": 0.33636,
            "velocity": 0.5039370078740157
        },
        {
            "name": "A#4",
            "midi": 70,
            "time": 21.23636,
            "duration": 0.19773,
            "velocity": 0.4645669291338583
        },
        {
            "name": "A#5",
            "midi": 82,
            "time": 21.23636,
            "duration": 0.25455,
            "velocity": 0.4566929133858268
        },
        {
            "name": "G3",
            "midi": 55,
            "time": 21.23636,
            "duration": 0.52273,
            "velocity": 0.6141732283464567
        },
        {
            "name": "G6",
            "midi": 91,
            "time": 21.30455,
            "duration": 0.15227,
            "velocity": 0.6535433070866141
        },
        {
            "name": "G6",
            "midi": 91,
            "time": 21.45682,
            "duration": 0.47727,
            "velocity": 0.5275590551181102
        },
        {
            "name": "D4",
            "midi": 62,
            "time": 21.50227,
            "duration": 0.33636,
            "velocity": 0.3464566929133858
        },
        {
            "name": "F6",
            "midi": 89,
            "time": 21.67727,
            "duration": 0.42955,
            "velocity": 0.4330708661417323
        },
        {
            "name": "F4",
            "midi": 65,
            "time": 21.67727,
            "duration": 0.62727,
            "velocity": 0.3543307086614173
        },
        {
            "name": "A5",
            "midi": 81,
            "time": 21.68864,
            "duration": 0.19773,
            "velocity": 0.3937007874015748
        },
        {
            "name": "F3",
            "midi": 53,
            "time": 21.68864,
            "duration": 0.61591,
            "velocity": 0.5984251968503937
        },
        {
            "name": "A#5",
            "midi": 82,
            "time": 21.88636,
            "duration": 0.18636,
            "velocity": 0.5118110236220472
        },
        {
            "name": "C4",
            "midi": 60,
            "time": 21.88636,
            "duration": 0.55909,
            "velocity": 0.4881889763779528
        },
        {
            "name": "F5",
            "midi": 77,
            "time": 21.91136,
            "duration": 0.17273,
            "velocity": 0.2755905511811024
        },
        {
            "name": "A4",
            "midi": 69,
            "time": 22.08409,
            "duration": 0.31364,
            "velocity": 0.5118110236220472
        },
        {
            "name": "F5",
            "midi": 77,
            "time": 22.09545,
            "duration": 0.39545,
            "velocity": 0.5511811023622047
        },
        {
            "name": "F3",
            "midi": 53,
            "time": 22.30455,
            "duration": 0.22045,
            "velocity": 0.6850393700787402
        },
        {
            "name": "F4",
            "midi": 65,
            "time": 22.30455,
            "duration": 0.22045,
            "velocity": 0.47244094488188976
        },
        {
            "name": "D#6",
            "midi": 87,
            "time": 22.30455,
            "duration": 0.35,
            "velocity": 0.6220472440944882
        },
        {
            "name": "A#5",
            "midi": 82,
            "time": 22.31591,
            "duration": 0.30227,
            "velocity": 0.4251968503937008
        },
        {
            "name": "F3",
            "midi": 53,
            "time": 22.525,
            "duration": 0.47727,
            "velocity": 0.6456692913385826
        },
        {
            "name": "C4",
            "midi": 60,
            "time": 22.525,
            "duration": 0.675,
            "velocity": 0.4251968503937008
        },
        {
            "name": "D#6",
            "midi": 87,
            "time": 22.65455,
            "duration": 0.16136,
            "velocity": 0.5669291338582677
        },
        {
            "name": "A4",
            "midi": 69,
            "time": 22.72273,
            "duration": 0.45227,
            "velocity": 0.4645669291338583
        },
        {
            "name": "F2",
            "midi": 41,
            "time": 22.80455,
            "duration": 0.23182,
            "velocity": 0.41732283464566927
        },
        {
            "name": "D#6",
            "midi": 87,
            "time": 22.81591,
            "duration": 0.29091,
            "velocity": 0.36220472440944884
        },
        {
            "name": "F6",
            "midi": 89,
            "time": 22.86364,
            "duration": 0.3,
            "velocity": 0.5984251968503937
        },
        {
            "name": "A#5",
            "midi": 82,
            "time": 22.89773,
            "duration": 0.20909,
            "velocity": 0.5984251968503937
        },
        {
            "name": "F3",
            "midi": 53,
            "time": 23.00227,
            "duration": 0.24318,
            "velocity": 0.7007874015748031
        },
        {
            "name": "D6",
            "midi": 86,
            "time": 23.22273,
            "duration": 0.5,
            "velocity": 0.4881889763779528
        },
        {
            "name": "C4",
            "midi": 60,
            "time": 23.24545,
            "duration": 0.20909,
            "velocity": 0.4566929133858268
        },
        {
            "name": "F2",
            "midi": 41,
            "time": 23.24545,
            "duration": 0.23182,
            "velocity": 0.3858267716535433
        },
        {
            "name": "F3",
            "midi": 53,
            "time": 23.24545,
            "duration": 0.24318,
            "velocity": 0.5196850393700787
        },
        {
            "name": "F5",
            "midi": 77,
            "time": 23.24545,
            "duration": 0.56818,
            "velocity": 0.5984251968503937
        },
        {
            "name": "G4",
            "midi": 67,
            "time": 23.43182,
            "duration": 0.20909,
            "velocity": 0.3464566929133858
        },
        {
            "name": "D5",
            "midi": 74,
            "time": 23.43182,
            "duration": 0.20909,
            "velocity": 0.4409448818897638
        },
        {
            "name": "G3",
            "midi": 55,
            "time": 23.43182,
            "duration": 0.62727,
            "velocity": 0.6929133858267716
        },
        {
            "name": "D5",
            "midi": 74,
            "time": 23.64091,
            "duration": 0.41818,
            "velocity": 0.4094488188976378
        },
        {
            "name": "D4",
            "midi": 62,
            "time": 23.64091,
            "duration": 0.65,
            "velocity": 0.4645669291338583
        },
        {
            "name": "A#4",
            "midi": 70,
            "time": 23.85,
            "duration": 0.65,
            "velocity": 0.5511811023622047
        },
        {
            "name": "D5",
            "midi": 74,
            "time": 24.05909,
            "duration": 0.20909,
            "velocity": 0.4645669291338583
        },
        {
            "name": "G4",
            "midi": 67,
            "time": 24.05909,
            "duration": 0.35,
            "velocity": 0.3700787401574803
        },
        {
            "name": "G3",
            "midi": 55,
            "time": 24.05909,
            "duration": 0.675,
            "velocity": 0.6141732283464567
        },
        {
            "name": "D4",
            "midi": 62,
            "time": 24.29091,
            "duration": 0.66364,
            "velocity": 0.4094488188976378
        },
        {
            "name": "A#4",
            "midi": 70,
            "time": 24.5,
            "duration": 0.39545,
            "velocity": 0.6062992125984252
        },
        {
            "name": "G4",
            "midi": 67,
            "time": 24.73409,
            "duration": 0.17273,
            "velocity": 0.3228346456692913
        },
        {
            "name": "G3",
            "midi": 55,
            "time": 24.73409,
            "duration": 0.625,
            "velocity": 0.4881889763779528
        },
        {
            "name": "D6",
            "midi": 86,
            "time": 24.94091,
            "duration": 0.22273,
            "velocity": 0.29133858267716534
        },
        {
            "name": "D5",
            "midi": 74,
            "time": 24.94091,
            "duration": 0.23409,
            "velocity": 0.5905511811023622
        },
        {
            "name": "D4",
            "midi": 62,
            "time": 24.95455,
            "duration": 0.17273,
            "velocity": 0.4645669291338583
        },
        {
            "name": "D6",
            "midi": 86,
            "time": 25.16364,
            "duration": 0.44091,
            "velocity": 0.4330708661417323
        },
        {
            "name": "D5",
            "midi": 74,
            "time": 25.175,
            "duration": 0.44091,
            "velocity": 0.5433070866141733
        },
        {
            "name": "A#5",
            "midi": 82,
            "time": 25.18636,
            "duration": 0.15,
            "velocity": 0.44881889763779526
        },
        {
            "name": "D#3",
            "midi": 51,
            "time": 25.18636,
            "duration": 0.63864,
            "velocity": 0.6535433070866141
        },
        {
            "name": "D#2",
            "midi": 39,
            "time": 25.19773,
            "duration": 2.11364,
            "velocity": 0.4409448818897638
        },
        {
            "name": "A#3",
            "midi": 58,
            "time": 25.38409,
            "duration": 0.22045,
            "velocity": 0.49606299212598426
        },
        {
            "name": "G4",
            "midi": 67,
            "time": 25.59318,
            "duration": 0.23182,
            "velocity": 0.5590551181102362
        },
        {
            "name": "A#3",
            "midi": 58,
            "time": 25.60455,
            "duration": 0.16136,
            "velocity": 0.4094488188976378
        },
        {
            "name": "D6",
            "midi": 86,
            "time": 25.60455,
            "duration": 0.22045,
            "velocity": 0.33858267716535434
        },
        {
            "name": "D5",
            "midi": 74,
            "time": 25.61591,
            "duration": 0.20909,
            "velocity": 0.5748031496062992
        },
        {
            "name": "D6",
            "midi": 86,
            "time": 25.825,
            "duration": 0.12727,
            "velocity": 0.4566929133858268
        },
        {
            "name": "A#5",
            "midi": 82,
            "time": 25.825,
            "duration": 0.15227,
            "velocity": 0.3937007874015748
        },
        {
            "name": "D5",
            "midi": 74,
            "time": 25.825,
            "duration": 0.37273,
            "velocity": 0.47244094488188976
        },
        {
            "name": "G4",
            "midi": 67,
            "time": 25.825,
            "duration": 0.42955,
            "velocity": 0.4881889763779528
        },
        {
            "name": "D#3",
            "midi": 51,
            "time": 25.825,
            "duration": 0.66136,
            "velocity": 0.6850393700787402
        },
        {
            "name": "A#3",
            "midi": 58,
            "time": 26.01136,
            "duration": 0.70909,
            "velocity": 0.44881889763779526
        },
        {
            "name": "G4",
            "midi": 67,
            "time": 26.25455,
            "duration": 0.24545,
            "velocity": 0.48031496062992124
        },
        {
            "name": "D#3",
            "midi": 51,
            "time": 26.48636,
            "duration": 0.54773,
            "velocity": 0.6456692913385826
        },
        {
            "name": "G4",
            "midi": 67,
            "time": 26.5,
            "duration": 0.25455,
            "velocity": 0.3543307086614173
        },
        {
            "name": "A#3",
            "midi": 58,
            "time": 26.72045,
            "duration": 0.18409,
            "velocity": 0.5511811023622047
        },
        {
            "name": "A#3",
            "midi": 58,
            "time": 26.90455,
            "duration": 0.14091,
            "velocity": 0.5118110236220472
        },
        {
            "name": "F4",
            "midi": 65,
            "time": 26.90455,
            "duration": 0.675,
            "velocity": 0.5039370078740157
        },
        {
            "name": "D5",
            "midi": 74,
            "time": 26.91591,
            "duration": 0.22273,
            "velocity": 0.28346456692913385
        },
        {
            "name": "G3",
            "midi": 55,
            "time": 26.91591,
            "duration": 0.66364,
            "velocity": 0.6377952755905512
        },
        {
            "name": "D5",
            "midi": 74,
            "time": 27.13864,
            "duration": 0.20682,
            "velocity": 0.4645669291338583
        },
        {
            "name": "D4",
            "midi": 62,
            "time": 27.13864,
            "duration": 0.22045,
            "velocity": 0.30708661417322836
        },
        {
            "name": "C5",
            "midi": 72,
            "time": 27.17273,
            "duration": 0.18636,
            "velocity": 0.3858267716535433
        },
        {
            "name": "D5",
            "midi": 74,
            "time": 27.34545,
            "duration": 0.43182,
            "velocity": 0.6062992125984252
        },
        {
            "name": "D4",
            "midi": 62,
            "time": 27.35909,
            "duration": 0.15,
            "velocity": 0.4015748031496063
        },
        {
            "name": "A#4",
            "midi": 70,
            "time": 27.35909,
            "duration": 0.41818,
            "velocity": 0.4566929133858268
        },
        {
            "name": "F5",
            "midi": 77,
            "time": 27.57955,
            "duration": 0.13864,
            "velocity": 0.3543307086614173
        },
        {
            "name": "G3",
            "midi": 55,
            "time": 27.57955,
            "duration": 0.42955,
            "velocity": 0.6299212598425197
        },
        {
            "name": "F4",
            "midi": 65,
            "time": 27.57955,
            "duration": 0.675,
            "velocity": 0.5118110236220472
        },
        {
            "name": "C5",
            "midi": 72,
            "time": 27.78864,
            "duration": 0.325,
            "velocity": 0.6062992125984252
        },
        {
            "name": "G3",
            "midi": 55,
            "time": 28.00909,
            "duration": 0.24545,
            "velocity": 0.6535433070866141
        },
        {
            "name": "D5",
            "midi": 74,
            "time": 28.00909,
            "duration": 0.37273,
            "velocity": 0.5905511811023622
        },
        {
            "name": "A#4",
            "midi": 70,
            "time": 28.00909,
            "duration": 0.40682,
            "velocity": 0.48031496062992124
        },
        {
            "name": "G3",
            "midi": 55,
            "time": 28.25455,
            "duration": 0.41591,
            "velocity": 0.5275590551181102
        },
        {
            "name": "F4",
            "midi": 65,
            "time": 28.25455,
            "duration": 0.41591,
            "velocity": 0.5354330708661418
        },
        {
            "name": "A#5",
            "midi": 82,
            "time": 28.45,
            "duration": 0.175,
            "velocity": 0.5826771653543307
        },
        {
            "name": "F3",
            "midi": 53,
            "time": 28.67045,
            "duration": 0.65,
            "velocity": 0.5275590551181102
        },
        {
            "name": "F4",
            "midi": 65,
            "time": 28.67045,
            "duration": 0.65,
            "velocity": 0.3779527559055118
        },
        {
            "name": "A5",
            "midi": 81,
            "time": 28.68409,
            "duration": 0.40455,
            "velocity": 0.49606299212598426
        },
        {
            "name": "C4",
            "midi": 60,
            "time": 28.86818,
            "duration": 0.65,
            "velocity": 0.47244094488188976
        },
        {
            "name": "A5",
            "midi": 81,
            "time": 29.08864,
            "duration": 0.23182,
            "velocity": 0.6692913385826772
        },
        {
            "name": "A4",
            "midi": 69,
            "time": 29.1,
            "duration": 0.65,
            "velocity": 0.4566929133858268
        },
        {
            "name": "A6",
            "midi": 93,
            "time": 29.30909,
            "duration": 0.14091,
            "velocity": 0.47244094488188976
        },
        {
            "name": "F4",
            "midi": 65,
            "time": 29.32045,
            "duration": 0.14091,
            "velocity": 0.4330708661417323
        },
        {
            "name": "A5",
            "midi": 81,
            "time": 29.32045,
            "duration": 0.32727,
            "velocity": 0.5196850393700787
        },
        {
            "name": "F3",
            "midi": 53,
            "time": 29.32045,
            "duration": 0.62955,
            "velocity": 0.5118110236220472
        },
        {
            "name": "C6",
            "midi": 84,
            "time": 29.33409,
            "duration": 0.16136,
            "velocity": 0.2992125984251969
        },
        {
            "name": "F5",
            "midi": 77,
            "time": 29.33409,
            "duration": 0.27727,
            "velocity": 0.44881889763779526
        },
        {
            "name": "C4",
            "midi": 60,
            "time": 29.51818,
            "duration": 0.44318,
            "velocity": 0.5826771653543307
        },
        {
            "name": "F2",
            "midi": 41,
            "time": 29.64773,
            "duration": 0.25455,
            "velocity": 0.3228346456692913
        },
        {
            "name": "A4",
            "midi": 69,
            "time": 29.75,
            "duration": 0.40909,
            "velocity": 0.5433070866141733
        },
        {
            "name": "A#5",
            "midi": 82,
            "time": 29.76364,
            "duration": 0.325,
            "velocity": 0.36220472440944884
        },
        {
            "name": "F3",
            "midi": 53,
            "time": 29.95,
            "duration": 0.20909,
            "velocity": 0.5984251968503937
        },
        {
            "name": "F4",
            "midi": 65,
            "time": 29.96136,
            "duration": 0.20909,
            "velocity": 0.2992125984251969
        },
        {
            "name": "C4",
            "midi": 60,
            "time": 29.96136,
            "duration": 0.31364,
            "velocity": 0.3464566929133858
        },
        {
            "name": "F3",
            "midi": 53,
            "time": 30.15909,
            "duration": 0.23182,
            "velocity": 0.6062992125984252
        },
        {
            "name": "F4",
            "midi": 65,
            "time": 30.17045,
            "duration": 0.20909,
            "velocity": 0.5196850393700787
        },
        {
            "name": "D5",
            "midi": 74,
            "time": 30.39091,
            "duration": 0.13864,
            "velocity": 0.4094488188976378
        },
        {
            "name": "G3",
            "midi": 55,
            "time": 30.39091,
            "duration": 0.19773,
            "velocity": 0.6141732283464567
        },
        {
            "name": "G4",
            "midi": 67,
            "time": 30.39091,
            "duration": 0.41818,
            "velocity": 0.5590551181102362
        },
        {
            "name": "D4",
            "midi": 62,
            "time": 30.39091,
            "duration": 0.42955,
            "velocity": 0.4094488188976378
        },
        {
            "name": "G3",
            "midi": 55,
            "time": 30.58864,
            "duration": 0.23182,
            "velocity": 0.6692913385826772
        },
        {
            "name": "G4",
            "midi": 67,
            "time": 30.80909,
            "duration": 0.22045,
            "velocity": 0.5275590551181102
        },
        {
            "name": "G3",
            "midi": 55,
            "time": 30.82045,
            "duration": 0.20909,
            "velocity": 0.6220472440944882
        },
        {
            "name": "D4",
            "midi": 62,
            "time": 30.82045,
            "duration": 0.20909,
            "velocity": 0.4409448818897638
        },
        {
            "name": "G3",
            "midi": 55,
            "time": 31.02955,
            "duration": 0.23182,
            "velocity": 0.6377952755905512
        },
        {
            "name": "D4",
            "midi": 62,
            "time": 31.02955,
            "duration": 0.23182,
            "velocity": 0.4251968503937008
        },
        {
            "name": "G4",
            "midi": 67,
            "time": 31.02955,
            "duration": 0.23182,
            "velocity": 0.5039370078740157
        },
        {
            "name": "D5",
            "midi": 74,
            "time": 31.02955,
            "duration": 0.23182,
            "velocity": 0.3543307086614173
        },
        {
            "name": "D5",
            "midi": 74,
            "time": 31.26136,
            "duration": 0.16364,
            "velocity": 0.4566929133858268
        },
        {
            "name": "G3",
            "midi": 55,
            "time": 31.26136,
            "duration": 0.31364,
            "velocity": 0.5354330708661418
        },
        {
            "name": "G4",
            "midi": 67,
            "time": 31.26136,
            "duration": 0.44091,
            "velocity": 0.6299212598425197
        },
        {
            "name": "D4",
            "midi": 62,
            "time": 31.26136,
            "duration": 0.45227,
            "velocity": 0.5118110236220472
        },
        {
            "name": "G3",
            "midi": 55,
            "time": 31.575,
            "duration": 0.33864,
            "velocity": 0.5354330708661418
        },
        {
            "name": "G4",
            "midi": 67,
            "time": 31.70227,
            "duration": 0.21136,
            "velocity": 0.7559055118110236
        },
        {
            "name": "D4",
            "midi": 62,
            "time": 31.71364,
            "duration": 0.21136,
            "velocity": 0.44881889763779526
        },
        {
            "name": "G4",
            "midi": 67,
            "time": 31.91364,
            "duration": 0.33636,
            "velocity": 0.3779527559055118
        },
        {
            "name": "G3",
            "midi": 55,
            "time": 31.91364,
            "duration": 0.37045,
            "velocity": 0.6929133858267716
        },
        {
            "name": "D4",
            "midi": 62,
            "time": 31.925,
            "duration": 0.175,
            "velocity": 0.3700787401574803
        },
        {
            "name": "D5",
            "midi": 74,
            "time": 32.14545,
            "duration": 0.23182,
            "velocity": 0.4015748031496063
        },
        {
            "name": "A#4",
            "midi": 70,
            "time": 32.15682,
            "duration": 0.27955,
            "velocity": 0.5275590551181102
        },
        {
            "name": "G3",
            "midi": 55,
            "time": 32.28409,
            "duration": 0.31364,
            "velocity": 0.6929133858267716
        },
        {
            "name": "G3",
            "midi": 55,
            "time": 32.59773,
            "duration": 1.33636,
            "velocity": 0.5039370078740157
        },
        {
            "name": "D5",
            "midi": 74,
            "time": 32.60909,
            "duration": 0.33636,
            "velocity": 0.36220472440944884
        },
        {
            "name": "G5",
            "midi": 79,
            "time": 32.71364,
            "duration": 0.29091,
            "velocity": 0.48031496062992124
        },
        {
            "name": "A#4",
            "midi": 70,
            "time": 32.81818,
            "duration": 0.25682,
            "velocity": 0.4881889763779528
        },
        {
            "name": "D5",
            "midi": 74,
            "time": 32.94545,
            "duration": 0.22045,
            "velocity": 0.5590551181102362
        },
        {
            "name": "D6",
            "midi": 86,
            "time": 33.05,
            "duration": 0.175,
            "velocity": 0.3464566929133858
        },
        {
            "name": "A#4",
            "midi": 70,
            "time": 33.075,
            "duration": 0.65,
            "velocity": 0.5433070866141733
        },
        {
            "name": "G5",
            "midi": 79,
            "time": 33.13182,
            "duration": 0.48864,
            "velocity": 0.3858267716535433
        },
        {
            "name": "D5",
            "midi": 74,
            "time": 33.16591,
            "duration": 0.31364,
            "velocity": 0.5433070866141733
        },
        {
            "name": "G4",
            "midi": 67,
            "time": 33.19091,
            "duration": 0.17273,
            "velocity": 0.36220472440944884
        },
        {
            "name": "D5",
            "midi": 74,
            "time": 33.47955,
            "duration": 0.23409,
            "velocity": 0.5669291338582677
        },
        {
            "name": "G4",
            "midi": 67,
            "time": 33.51591,
            "duration": 0.20909,
            "velocity": 0.4251968503937008
        },
        {
            "name": "G5",
            "midi": 79,
            "time": 33.63182,
            "duration": 0.26818,
            "velocity": 0.5275590551181102
        },
        {
            "name": "A#4",
            "midi": 70,
            "time": 33.725,
            "duration": 0.19773,
            "velocity": 0.5196850393700787
        },
        {
            "name": "D5",
            "midi": 74,
            "time": 33.84091,
            "duration": 0.15227,
            "velocity": 0.33858267716535434
        },
        {
            "name": "G2",
            "midi": 43,
            "time": 33.93409,
            "duration": 0.15227,
            "velocity": 0.4566929133858268
        },
        {
            "name": "A3",
            "midi": 57,
            "time": 33.93409,
            "duration": 0.15227,
            "velocity": 0.44881889763779526
        },
        {
            "name": "G3",
            "midi": 55,
            "time": 33.93409,
            "duration": 0.175,
            "velocity": 0.4251968503937008
        },
        {
            "name": "G4",
            "midi": 67,
            "time": 33.93409,
            "duration": 0.31364,
            "velocity": 0.4566929133858268
        },
        {
            "name": "D3",
            "midi": 50,
            "time": 33.99318,
            "duration": 0.20909,
            "velocity": 0.3858267716535433
        },
        {
            "name": "G2",
            "midi": 43,
            "time": 34.08636,
            "duration": 0.16136,
            "velocity": 0.49606299212598426
        },
        {
            "name": "A#3",
            "midi": 58,
            "time": 34.08636,
            "duration": 0.18409,
            "velocity": 0.3228346456692913
        },
        {
            "name": "D3",
            "midi": 50,
            "time": 34.20227,
            "duration": 0.23182,
            "velocity": 0.30708661417322836
        },
        {
            "name": "G4",
            "midi": 67,
            "time": 34.24773,
            "duration": 0.33636,
            "velocity": 0.44881889763779526
        },
        {
            "name": "A3",
            "midi": 57,
            "time": 34.27045,
            "duration": 0.175,
            "velocity": 0.3858267716535433
        },
        {
            "name": "G3",
            "midi": 55,
            "time": 34.35227,
            "duration": 0.34773,
            "velocity": 0.41732283464566927
        },
        {
            "name": "D3",
            "midi": 50,
            "time": 34.43409,
            "duration": 0.38182,
            "velocity": 0.4015748031496063
        },
        {
            "name": "G4",
            "midi": 67,
            "time": 34.58409,
            "duration": 0.22045,
            "velocity": 0.5354330708661418
        },
        {
            "name": "A#3",
            "midi": 58,
            "time": 34.64318,
            "duration": 0.17273,
            "velocity": 0.2992125984251969
        },
        {
            "name": "G3",
            "midi": 55,
            "time": 34.7,
            "duration": 0.24545,
            "velocity": 0.3228346456692913
        },
        {
            "name": "G4",
            "midi": 67,
            "time": 34.80455,
            "duration": 0.42955,
            "velocity": 0.5039370078740157
        },
        {
            "name": "A#3",
            "midi": 58,
            "time": 34.81591,
            "duration": 0.16364,
            "velocity": 0.4881889763779528
        },
        {
            "name": "A#3",
            "midi": 58,
            "time": 34.97955,
            "duration": 0.25455,
            "velocity": 0.3779527559055118
        },
        {
            "name": "D3",
            "midi": 50,
            "time": 35.06136,
            "duration": 0.13864,
            "velocity": 0.4409448818897638
        },
        {
            "name": "G3",
            "midi": 55,
            "time": 35.12955,
            "duration": 0.23409,
            "velocity": 0.44881889763779526
        },
        {
            "name": "A3",
            "midi": 57,
            "time": 35.23409,
            "duration": 0.23409,
            "velocity": 0.49606299212598426
        },
        {
            "name": "G4",
            "midi": 67,
            "time": 35.23409,
            "duration": 0.31364,
            "velocity": 0.5275590551181102
        },
        {
            "name": "D5",
            "midi": 74,
            "time": 35.24545,
            "duration": 0.15227,
            "velocity": 0.36220472440944884
        },
        {
            "name": "G2",
            "midi": 43,
            "time": 35.28182,
            "duration": 0.18636,
            "velocity": 0.4094488188976378
        },
        {
            "name": "G3",
            "midi": 55,
            "time": 35.36364,
            "duration": 0.35909,
            "velocity": 0.48031496062992124
        },
        {
            "name": "D3",
            "midi": 50,
            "time": 35.45455,
            "duration": 0.35,
            "velocity": 0.44881889763779526
        },
        {
            "name": "G2",
            "midi": 43,
            "time": 35.46818,
            "duration": 0.22045,
            "velocity": 0.6220472440944882
        },
        {
            "name": "D5",
            "midi": 74,
            "time": 35.675,
            "duration": 0.14091,
            "velocity": 0.4645669291338583
        },
        {
            "name": "G2",
            "midi": 43,
            "time": 35.68864,
            "duration": 0.38409,
            "velocity": 0.6062992125984252
        },
        {
            "name": "G1",
            "midi": 31,
            "time": 35.68864,
            "duration": 0.80227,
            "velocity": 0.4566929133858268
        },
        {
            "name": "G3",
            "midi": 55,
            "time": 36.025,
            "duration": 0.22045,
            "velocity": 0.4094488188976378
        },
        {
            "name": "A#3",
            "midi": 58,
            "time": 36.025,
            "duration": 0.35,
            "velocity": 0.36220472440944884
        },
        {
            "name": "G2",
            "midi": 43,
            "time": 36.07273,
            "duration": 0.22045,
            "velocity": 0.6062992125984252
        },
        {
            "name": "A#5",
            "midi": 82,
            "time": 36.14091,
            "duration": 0.20909,
            "velocity": 0.3700787401574803
        },
        {
            "name": "G5",
            "midi": 79,
            "time": 36.15227,
            "duration": 0.31364,
            "velocity": 0.4881889763779528
        },
        {
            "name": "G2",
            "midi": 43,
            "time": 36.29318,
            "duration": 0.99773,
            "velocity": 0.4409448818897638
        },
        {
            "name": "A#5",
            "midi": 82,
            "time": 36.36136,
            "duration": 0.175,
            "velocity": 0.5039370078740157
        },
        {
            "name": "F2",
            "midi": 41,
            "time": 36.58182,
            "duration": 0.175,
            "velocity": 0.4881889763779528
        },
        {
            "name": "C4",
            "midi": 60,
            "time": 36.59545,
            "duration": 0.17273,
            "velocity": 0.29133858267716534
        },
        {
            "name": "F2",
            "midi": 41,
            "time": 36.75682,
            "duration": 0.58182,
            "velocity": 0.6062992125984252
        },
        {
            "name": "D5",
            "midi": 74,
            "time": 36.80455,
            "duration": 0.26591,
            "velocity": 0.48031496062992124
        },
        {
            "name": "A#4",
            "midi": 70,
            "time": 36.81591,
            "duration": 0.23182,
            "velocity": 0.33858267716535434
        },
        {
            "name": "F4",
            "midi": 65,
            "time": 36.90909,
            "duration": 0.23182,
            "velocity": 0.4015748031496063
        },
        {
            "name": "C4",
            "midi": 60,
            "time": 36.93182,
            "duration": 0.20909,
            "velocity": 0.36220472440944884
        },
        {
            "name": "C5",
            "midi": 72,
            "time": 37.025,
            "duration": 0.22045,
            "velocity": 0.3464566929133858
        },
        {
            "name": "A#4",
            "midi": 70,
            "time": 37.04773,
            "duration": 0.26591,
            "velocity": 0.3700787401574803
        },
        {
            "name": "F4",
            "midi": 65,
            "time": 37.14091,
            "duration": 0.23182,
            "velocity": 0.31496062992125984
        },
        {
            "name": "C4",
            "midi": 60,
            "time": 37.14091,
            "duration": 0.28864,
            "velocity": 0.4645669291338583
        },
        {
            "name": "D5",
            "midi": 74,
            "time": 37.24545,
            "duration": 0.27727,
            "velocity": 0.4330708661417323
        },
        {
            "name": "G2",
            "midi": 43,
            "time": 37.29091,
            "duration": 0.33636,
            "velocity": 0.31496062992125984
        },
        {
            "name": "G3",
            "midi": 55,
            "time": 37.325,
            "duration": 0.18636,
            "velocity": 0.2992125984251969
        },
        {
            "name": "F2",
            "midi": 41,
            "time": 37.33864,
            "duration": 0.15,
            "velocity": 0.4409448818897638
        },
        {
            "name": "D#2",
            "midi": 39,
            "time": 37.44318,
            "duration": 0.13864,
            "velocity": 0.5905511811023622
        },
        {
            "name": "D#3",
            "midi": 51,
            "time": 37.44318,
            "duration": 0.17273,
            "velocity": 0.4094488188976378
        },
        {
            "name": "D#2",
            "midi": 39,
            "time": 37.59318,
            "duration": 0.13864,
            "velocity": 0.7559055118110236
        },
        {
            "name": "D#3",
            "midi": 51,
            "time": 37.61591,
            "duration": 0.175,
            "velocity": 0.4566929133858268
        },
        {
            "name": "D#2",
            "midi": 39,
            "time": 37.73182,
            "duration": 0.37273,
            "velocity": 0.7244094488188977
        },
        {
            "name": "G4",
            "midi": 67,
            "time": 37.75682,
            "duration": 0.13864,
            "velocity": 0.4566929133858268
        },
        {
            "name": "G3",
            "midi": 55,
            "time": 37.77955,
            "duration": 0.46591,
            "velocity": 0.4645669291338583
        },
        {
            "name": "D#5",
            "midi": 75,
            "time": 37.79091,
            "duration": 0.29091,
            "velocity": 0.4566929133858268
        },
        {
            "name": "D#3",
            "midi": 51,
            "time": 37.79091,
            "duration": 0.325,
            "velocity": 0.4645669291338583
        },
        {
            "name": "A#5",
            "midi": 82,
            "time": 37.82727,
            "duration": 0.26591,
            "velocity": 0.4094488188976378
        },
        {
            "name": "G6",
            "midi": 91,
            "time": 37.89545,
            "duration": 0.15227,
            "velocity": 0.3937007874015748
        },
        {
            "name": "G4",
            "midi": 67,
            "time": 37.90682,
            "duration": 0.18636,
            "velocity": 0.41732283464566927
        },
        {
            "name": "G5",
            "midi": 79,
            "time": 37.90682,
            "duration": 0.38409,
            "velocity": 0.4566929133858268
        },
        {
            "name": "A#2",
            "midi": 46,
            "time": 37.96591,
            "duration": 0.38409,
            "velocity": 0.3858267716535433
        },
        {
            "name": "D#2",
            "midi": 39,
            "time": 38.10455,
            "duration": 0.175,
            "velocity": 0.7165354330708661
        },
        {
            "name": "D#2",
            "midi": 39,
            "time": 38.27955,
            "duration": 0.175,
            "velocity": 0.6062992125984252
        },
        {
            "name": "F#5",
            "midi": 78,
            "time": 38.33636,
            "duration": 0.23409,
            "velocity": 0.33070866141732286
        },
        {
            "name": "A#2",
            "midi": 46,
            "time": 38.36136,
            "duration": 0.13864,
            "velocity": 0.3779527559055118
        },
        {
            "name": "D3",
            "midi": 50,
            "time": 38.45455,
            "duration": 0.22045,
            "velocity": 0.3937007874015748
        },
        {
            "name": "D2",
            "midi": 38,
            "time": 38.45455,
            "duration": 0.25455,
            "velocity": 0.6456692913385826
        },
        {
            "name": "A#2",
            "midi": 46,
            "time": 38.5,
            "duration": 0.31364,
            "velocity": 0.3700787401574803
        },
        {
            "name": "D5",
            "midi": 74,
            "time": 38.55682,
            "duration": 0.22273,
            "velocity": 0.6377952755905512
        },
        {
            "name": "F#5",
            "midi": 78,
            "time": 38.57045,
            "duration": 0.13864,
            "velocity": 0.4015748031496063
        },
        {
            "name": "F#4",
            "midi": 66,
            "time": 38.57045,
            "duration": 0.50909,
            "velocity": 0.3228346456692913
        },
        {
            "name": "D3",
            "midi": 50,
            "time": 38.675,
            "duration": 0.3,
            "velocity": 0.44881889763779526
        },
        {
            "name": "D2",
            "midi": 38,
            "time": 38.70909,
            "duration": 0.48636,
            "velocity": 0.5196850393700787
        },
        {
            "name": "A#4",
            "midi": 70,
            "time": 38.77955,
            "duration": 0.20682,
            "velocity": 0.5039370078740157
        },
        {
            "name": "D5",
            "midi": 74,
            "time": 38.77955,
            "duration": 0.23182,
            "velocity": 0.5354330708661418
        },
        {
            "name": "A5",
            "midi": 81,
            "time": 39.0,
            "duration": 0.13864,
            "velocity": 0.3858267716535433
        },
        {
            "name": "D5",
            "midi": 74,
            "time": 39.01136,
            "duration": 0.19773,
            "velocity": 0.4566929133858268
        },
        {
            "name": "D5",
            "midi": 74,
            "time": 39.20909,
            "duration": 0.13864,
            "velocity": 0.3937007874015748
        },
        {
            "name": "G2",
            "midi": 43,
            "time": 39.22045,
            "duration": 0.66136,
            "velocity": 0.5039370078740157
        },
        {
            "name": "G1",
            "midi": 31,
            "time": 39.26591,
            "duration": 0.68636,
            "velocity": 0.3779527559055118
        },
        {
            "name": "G3",
            "midi": 55,
            "time": 39.55682,
            "duration": 0.16136,
            "velocity": 0.4015748031496063
        },
        {
            "name": "G4",
            "midi": 67,
            "time": 39.55682,
            "duration": 0.41818,
            "velocity": 0.48031496062992124
        },
        {
            "name": "A#5",
            "midi": 82,
            "time": 39.65,
            "duration": 0.18636,
            "velocity": 0.3779527559055118
        },
        {
            "name": "G6",
            "midi": 91,
            "time": 39.66136,
            "duration": 0.16364,
            "velocity": 0.2755905511811024
        },
        {
            "name": "G5",
            "midi": 79,
            "time": 39.67273,
            "duration": 0.175,
            "velocity": 0.3937007874015748
        },
        {
            "name": "A#3",
            "midi": 58,
            "time": 39.76591,
            "duration": 0.25682,
            "velocity": 0.33070866141732286
        },
        {
            "name": "G2",
            "midi": 43,
            "time": 39.88182,
            "duration": 0.23409,
            "velocity": 0.5039370078740157
        },
        {
            "name": "F2",
            "midi": 41,
            "time": 40.19545,
            "duration": 0.22045,
            "velocity": 0.6220472440944882
        },
        {
            "name": "D5",
            "midi": 74,
            "time": 40.3,
            "duration": 0.44091,
            "velocity": 0.5118110236220472
        },
        {
            "name": "A#4",
            "midi": 70,
            "time": 40.325,
            "duration": 0.44091,
            "velocity": 0.3700787401574803
        },
        {
            "name": "F4",
            "midi": 65,
            "time": 40.41591,
            "duration": 0.30227,
            "velocity": 0.4094488188976378
        },
        {
            "name": "F2",
            "midi": 41,
            "time": 40.41591,
            "duration": 0.51136,
            "velocity": 0.5590551181102362
        },
        {
            "name": "C4",
            "midi": 60,
            "time": 40.42727,
            "duration": 0.20909,
            "velocity": 0.3779527559055118
        },
        {
            "name": "C4",
            "midi": 60,
            "time": 40.63636,
            "duration": 0.27955,
            "velocity": 0.4881889763779528
        },
        {
            "name": "D5",
            "midi": 74,
            "time": 40.74091,
            "duration": 0.27955,
            "velocity": 0.4645669291338583
        },
        {
            "name": "A#4",
            "midi": 70,
            "time": 40.76591,
            "duration": 0.13864,
            "velocity": 0.4094488188976378
        },
        {
            "name": "G2",
            "midi": 43,
            "time": 40.77727,
            "duration": 0.13864,
            "velocity": 0.3228346456692913
        },
        {
            "name": "D#2",
            "midi": 39,
            "time": 40.89318,
            "duration": 0.17273,
            "velocity": 0.6299212598425197
        },
        {
            "name": "D#3",
            "midi": 51,
            "time": 40.96136,
            "duration": 0.15227,
            "velocity": 0.5511811023622047
        },
        {
            "name": "D#2",
            "midi": 39,
            "time": 41.07955,
            "duration": 0.13864,
            "velocity": 0.7874015748031497
        },
        {
            "name": "D#3",
            "midi": 51,
            "time": 41.11364,
            "duration": 0.19773,
            "velocity": 0.4881889763779528
        },
        {
            "name": "G3",
            "midi": 55,
            "time": 41.15909,
            "duration": 0.14091,
            "velocity": 0.5196850393700787
        },
        {
            "name": "D#2",
            "midi": 39,
            "time": 41.21818,
            "duration": 0.20909,
            "velocity": 0.7244094488188977
        },
        {
            "name": "D#5",
            "midi": 75,
            "time": 41.28864,
            "duration": 0.15,
            "velocity": 0.3858267716535433
        },
        {
            "name": "G4",
            "midi": 67,
            "time": 41.3,
            "duration": 0.325,
            "velocity": 0.3700787401574803
        },
        {
            "name": "D#3",
            "midi": 51,
            "time": 41.31136,
            "duration": 0.31364,
            "velocity": 0.4330708661417323
        },
        {
            "name": "G3",
            "midi": 55,
            "time": 41.31136,
            "duration": 0.47727,
            "velocity": 0.5275590551181102
        },
        {
            "name": "G6",
            "midi": 91,
            "time": 41.41591,
            "duration": 0.13864,
            "velocity": 0.33070866141732286
        },
        {
            "name": "A#5",
            "midi": 82,
            "time": 41.41591,
            "duration": 0.19773,
            "velocity": 0.4094488188976378
        },
        {
            "name": "D#2",
            "midi": 39,
            "time": 41.42727,
            "duration": 0.30227,
            "velocity": 0.7716535433070866
        },
        {
            "name": "D#5",
            "midi": 75,
            "time": 41.43864,
            "duration": 0.22045,
            "velocity": 0.49606299212598426
        },
        {
            "name": "G5",
            "midi": 79,
            "time": 41.43864,
            "duration": 0.36136,
            "velocity": 0.4409448818897638
        },
        {
            "name": "A#2",
            "midi": 46,
            "time": 41.71818,
            "duration": 0.175,
            "velocity": 0.5196850393700787
        },
        {
            "name": "D#2",
            "midi": 39,
            "time": 41.72955,
            "duration": 0.22045,
            "velocity": 0.7637795275590551
        },
        {
            "name": "A#2",
            "midi": 46,
            "time": 41.89318,
            "duration": 0.27727,
            "velocity": 0.3779527559055118
        },
        {
            "name": "D2",
            "midi": 38,
            "time": 41.95,
            "duration": 0.14091,
            "velocity": 0.6062992125984252
        },
        {
            "name": "F#5",
            "midi": 78,
            "time": 41.95,
            "duration": 0.26818,
            "velocity": 0.3858267716535433
        },
        {
            "name": "F#4",
            "midi": 66,
            "time": 42.06591,
            "duration": 0.31364,
            "velocity": 0.3779527559055118
        },
        {
            "name": "D2",
            "midi": 38,
            "time": 42.09091,
            "duration": 0.57955,
            "velocity": 0.6614173228346457
        },
        {
            "name": "D5",
            "midi": 74,
            "time": 42.15909,
            "duration": 0.14091,
            "velocity": 0.41732283464566927
        },
        {
            "name": "D3",
            "midi": 50,
            "time": 42.18182,
            "duration": 0.53409,
            "velocity": 0.4015748031496063
        },
        {
            "name": "A#4",
            "midi": 70,
            "time": 42.3,
            "duration": 0.15,
            "velocity": 0.3937007874015748
        },
        {
            "name": "D5",
            "midi": 74,
            "time": 42.3,
            "duration": 0.20682,
            "velocity": 0.4251968503937008
        },
        {
            "name": "A3",
            "midi": 57,
            "time": 42.37955,
            "duration": 0.15227,
            "velocity": 0.29133858267716534
        },
        {
            "name": "A5",
            "midi": 81,
            "time": 42.49545,
            "duration": 0.20909,
            "velocity": 0.33070866141732286
        },
        {
            "name": "D5",
            "midi": 74,
            "time": 42.50682,
            "duration": 0.39545,
            "velocity": 0.3779527559055118
        },
        {
            "name": "D2",
            "midi": 38,
            "time": 42.67045,
            "duration": 0.26591,
            "velocity": 0.6299212598425197
        },
        {
            "name": "A#4",
            "midi": 70,
            "time": 42.72955,
            "duration": 0.68409,
            "velocity": 0.5984251968503937
        },
        {
            "name": "G2",
            "midi": 43,
            "time": 42.79773,
            "duration": 0.13864,
            "velocity": 0.5984251968503937
        },
        {
            "name": "G4",
            "midi": 67,
            "time": 42.925,
            "duration": 0.18636,
            "velocity": 0.33858267716535434
        },
        {
            "name": "G3",
            "midi": 55,
            "time": 42.925,
            "duration": 0.40682,
            "velocity": 0.3700787401574803
        },
        {
            "name": "G2",
            "midi": 43,
            "time": 42.93636,
            "duration": 0.20909,
            "velocity": 0.4409448818897638
        },
        {
            "name": "D2",
            "midi": 38,
            "time": 42.93636,
            "duration": 0.23409,
            "velocity": 0.5196850393700787
        },
        {
            "name": "G4",
            "midi": 67,
            "time": 43.11136,
            "duration": 0.31364,
            "velocity": 0.5354330708661418
        },
        {
            "name": "C5",
            "midi": 72,
            "time": 43.44773,
            "duration": 0.20909,
            "velocity": 0.6535433070866141
        },
        {
            "name": "G3",
            "midi": 55,
            "time": 43.45909,
            "duration": 0.15227,
            "velocity": 0.3858267716535433
        },
        {
            "name": "D4",
            "midi": 62,
            "time": 43.45909,
            "duration": 0.31591,
            "velocity": 0.3700787401574803
        },
        {
            "name": "A#4",
            "midi": 70,
            "time": 43.67955,
            "duration": 0.675,
            "velocity": 0.5433070866141733
        },
        {
            "name": "D4",
            "midi": 62,
            "time": 43.775,
            "duration": 0.35909,
            "velocity": 0.4330708661417323
        },
        {
            "name": "G4",
            "midi": 67,
            "time": 43.79773,
            "duration": 0.23182,
            "velocity": 0.5511811023622047
        },
        {
            "name": "G4",
            "midi": 67,
            "time": 44.02955,
            "duration": 0.23182,
            "velocity": 0.6141732283464567
        },
        {
            "name": "G3",
            "midi": 55,
            "time": 44.13409,
            "duration": 0.20909,
            "velocity": 0.5196850393700787
        },
        {
            "name": "D4",
            "midi": 62,
            "time": 44.13409,
            "duration": 0.25682,
            "velocity": 0.5669291338582677
        },
        {
            "name": "C5",
            "midi": 72,
            "time": 44.37727,
            "duration": 0.20909,
            "velocity": 0.5826771653543307
        },
        {
            "name": "A5",
            "midi": 81,
            "time": 44.37727,
            "duration": 0.25682,
            "velocity": 0.4566929133858268
        },
        {
            "name": "G3",
            "midi": 55,
            "time": 44.39091,
            "duration": 0.18409,
            "velocity": 0.3858267716535433
        },
        {
            "name": "D4",
            "midi": 62,
            "time": 44.39091,
            "duration": 0.475,
            "velocity": 0.4566929133858268
        },
        {
            "name": "A#4",
            "midi": 70,
            "time": 44.50682,
            "duration": 0.22045,
            "velocity": 0.44881889763779526
        },
        {
            "name": "D5",
            "midi": 74,
            "time": 44.64545,
            "duration": 0.22045,
            "velocity": 0.3779527559055118
        },
        {
            "name": "A#5",
            "midi": 82,
            "time": 44.64545,
            "duration": 0.38409,
            "velocity": 0.5669291338582677
        },
        {
            "name": "G3",
            "midi": 55,
            "time": 44.64545,
            "duration": 1.78864,
            "velocity": 0.5433070866141733
        },
        {
            "name": "A4",
            "midi": 69,
            "time": 44.73864,
            "duration": 0.17273,
            "velocity": 0.33858267716535434
        },
        {
            "name": "A#4",
            "midi": 70,
            "time": 44.91136,
            "duration": 0.44318,
            "velocity": 0.49606299212598426
        },
        {
            "name": "A#5",
            "midi": 82,
            "time": 45.02955,
            "duration": 0.325,
            "velocity": 0.7795275590551181
        },
        {
            "name": "A#5",
            "midi": 82,
            "time": 45.35455,
            "duration": 0.65,
            "velocity": 0.7874015748031497
        },
        {
            "name": "D5",
            "midi": 74,
            "time": 45.36591,
            "duration": 0.62727,
            "velocity": 0.5905511811023622
        },
        {
            "name": "A#4",
            "midi": 70,
            "time": 45.36591,
            "duration": 0.63864,
            "velocity": 0.4566929133858268
        },
        {
            "name": "G4",
            "midi": 67,
            "time": 45.78409,
            "duration": 0.19773,
            "velocity": 0.4330708661417323
        },
        {
            "name": "D5",
            "midi": 74,
            "time": 45.99318,
            "duration": 0.22045,
            "velocity": 0.6377952755905512
        },
        {
            "name": "A#4",
            "midi": 70,
            "time": 46.00455,
            "duration": 0.38409,
            "velocity": 0.4881889763779528
        },
        {
            "name": "A#5",
            "midi": 82,
            "time": 46.00455,
            "duration": 0.46591,
            "velocity": 0.6377952755905512
        },
        {
            "name": "D6",
            "midi": 86,
            "time": 46.21364,
            "duration": 0.23182,
            "velocity": 0.6771653543307087
        },
        {
            "name": "D5",
            "midi": 74,
            "time": 46.21364,
            "duration": 0.26818,
            "velocity": 0.48031496062992124
        },
        {
            "name": "D6",
            "midi": 86,
            "time": 46.44545,
            "duration": 0.35,
            "velocity": 0.6220472440944882
        },
        {
            "name": "D#2",
            "midi": 39,
            "time": 46.45682,
            "duration": 0.72045,
            "velocity": 0.4409448818897638
        },
        {
            "name": "A#3",
            "midi": 58,
            "time": 46.47045,
            "duration": 0.63864,
            "velocity": 0.4566929133858268
        },
        {
            "name": "D#3",
            "midi": 51,
            "time": 46.47045,
            "duration": 0.68409,
            "velocity": 0.6771653543307087
        },
        {
            "name": "G5",
            "midi": 79,
            "time": 46.47045,
            "duration": 0.69545,
            "velocity": 0.44881889763779526
        },
        {
            "name": "D#5",
            "midi": 75,
            "time": 46.48182,
            "duration": 0.24318,
            "velocity": 0.3700787401574803
        },
        {
            "name": "A#2",
            "midi": 46,
            "time": 46.55,
            "duration": 1.03409,
            "velocity": 0.4566929133858268
        },
        {
            "name": "D#5",
            "midi": 75,
            "time": 46.725,
            "duration": 0.44091,
            "velocity": 0.4881889763779528
        },
        {
            "name": "C6",
            "midi": 84,
            "time": 46.79545,
            "duration": 0.33636,
            "velocity": 0.6771653543307087
        },
        {
            "name": "C6",
            "midi": 84,
            "time": 47.13182,
            "duration": 0.60455,
            "velocity": 0.6614173228346457
        },
        {
            "name": "D#3",
            "midi": 51,
            "time": 47.15455,
            "duration": 0.66364,
            "velocity": 0.6850393700787402
        },
        {
            "name": "D#5",
            "midi": 75,
            "time": 47.16591,
            "duration": 0.13864,
            "velocity": 0.7559055118110236
        },
        {
            "name": "G5",
            "midi": 79,
            "time": 47.16591,
            "duration": 0.70909,
            "velocity": 0.4881889763779528
        },
        {
            "name": "D5",
            "midi": 74,
            "time": 47.30455,
            "duration": 0.25682,
            "velocity": 0.5590551181102362
        },
        {
            "name": "D#5",
            "midi": 75,
            "time": 47.59545,
            "duration": 0.22273,
            "velocity": 0.4409448818897638
        },
        {
            "name": "A#3",
            "midi": 58,
            "time": 47.60682,
            "duration": 0.26818,
            "velocity": 0.3543307086614173
        },
        {
            "name": "D#2",
            "midi": 39,
            "time": 47.62955,
            "duration": 0.25682,
            "velocity": 0.2992125984251969
        },
        {
            "name": "A#4",
            "midi": 70,
            "time": 47.79318,
            "duration": 0.24545,
            "velocity": 0.6141732283464567
        },
        {
            "name": "G4",
            "midi": 67,
            "time": 47.81818,
            "duration": 0.22045,
            "velocity": 0.6929133858267716
        },
        {
            "name": "D#5",
            "midi": 75,
            "time": 47.81818,
            "duration": 0.26591,
            "velocity": 0.47244094488188976
        },
        {
            "name": "D#3",
            "midi": 51,
            "time": 47.81818,
            "duration": 0.40455,
            "velocity": 0.5748031496062992
        },
        {
            "name": "G4",
            "midi": 67,
            "time": 48.03864,
            "duration": 0.18409,
            "velocity": 0.5039370078740157
        },
        {
            "name": "A#5",
            "midi": 82,
            "time": 48.03864,
            "duration": 0.20909,
            "velocity": 0.6614173228346457
        },
        {
            "name": "A#4",
            "midi": 70,
            "time": 48.03864,
            "duration": 0.34773,
            "velocity": 0.3779527559055118
        },
        {
            "name": "C6",
            "midi": 84,
            "time": 48.25909,
            "duration": 0.34773,
            "velocity": 0.4251968503937008
        },
        {
            "name": "F4",
            "midi": 65,
            "time": 48.25909,
            "duration": 0.37045,
            "velocity": 0.3937007874015748
        },
        {
            "name": "F5",
            "midi": 77,
            "time": 48.27045,
            "duration": 0.33636,
            "velocity": 0.6377952755905512
        },
        {
            "name": "F3",
            "midi": 53,
            "time": 48.27045,
            "duration": 0.66136,
            "velocity": 0.5118110236220472
        },
        {
            "name": "C4",
            "midi": 60,
            "time": 48.27045,
            "duration": 0.66136,
            "velocity": 0.5196850393700787
        },
        {
            "name": "C5",
            "midi": 72,
            "time": 48.27045,
            "duration": 0.75455,
            "velocity": 0.5039370078740157
        },
        {
            "name": "A#5",
            "midi": 82,
            "time": 48.60682,
            "duration": 0.31364,
            "velocity": 0.6141732283464567
        },
        {
            "name": "F5",
            "midi": 77,
            "time": 48.60682,
            "duration": 0.34773,
            "velocity": 0.5905511811023622
        },
        {
            "name": "F3",
            "midi": 53,
            "time": 48.93182,
            "duration": 1.09318,
            "velocity": 0.5039370078740157
        },
        {
            "name": "A5",
            "midi": 81,
            "time": 48.94318,
            "duration": 0.61591,
            "velocity": 0.5039370078740157
        },
        {
            "name": "A#4",
            "midi": 70,
            "time": 48.95455,
            "duration": 0.41818,
            "velocity": 0.5354330708661418
        },
        {
            "name": "F5",
            "midi": 77,
            "time": 48.95455,
            "duration": 0.42955,
            "velocity": 0.47244094488188976
        },
        {
            "name": "F4",
            "midi": 65,
            "time": 49.38409,
            "duration": 0.47727,
            "velocity": 0.4251968503937008
        },
        {
            "name": "F5",
            "midi": 77,
            "time": 49.38409,
            "duration": 0.97727,
            "velocity": 0.5196850393700787
        },
        {
            "name": "C5",
            "midi": 72,
            "time": 49.59318,
            "duration": 0.175,
            "velocity": 0.4881889763779528
        },
        {
            "name": "A#4",
            "midi": 70,
            "time": 49.61591,
            "duration": 0.40909,
            "velocity": 0.5669291338582677
        },
        {
            "name": "D5",
            "midi": 74,
            "time": 49.82727,
            "duration": 0.91818,
            "velocity": 0.6850393700787402
        },
        {
            "name": "F4",
            "midi": 65,
            "time": 50.08182,
            "duration": 0.66364,
            "velocity": 0.47244094488188976
        },
        {
            "name": "A#3",
            "midi": 58,
            "time": 50.09545,
            "duration": 0.65,
            "velocity": 0.5511811023622047
        },
        {
            "name": "A#4",
            "midi": 70,
            "time": 50.175,
            "duration": 0.175,
            "velocity": 0.4645669291338583
        },
        {
            "name": "A#2",
            "midi": 46,
            "time": 50.24545,
            "duration": 0.40682,
            "velocity": 0.33858267716535434
        },
        {
            "name": "A4",
            "midi": 69,
            "time": 50.35,
            "duration": 0.325,
            "velocity": 0.3543307086614173
        },
        {
            "name": "F5",
            "midi": 77,
            "time": 50.74545,
            "duration": 0.23182,
            "velocity": 0.3779527559055118
        },
        {
            "name": "F4",
            "midi": 65,
            "time": 50.74545,
            "duration": 0.66136,
            "velocity": 0.5354330708661418
        },
        {
            "name": "A#3",
            "midi": 58,
            "time": 50.74545,
            "duration": 0.67273,
            "velocity": 0.48031496062992124
        },
        {
            "name": "D5",
            "midi": 74,
            "time": 50.74545,
            "duration": 1.15,
            "velocity": 0.5433070866141733
        },
        {
            "name": "A#4",
            "midi": 70,
            "time": 50.75682,
            "duration": 0.59091,
            "velocity": 0.5118110236220472
        },
        {
            "name": "A3",
            "midi": 57,
            "time": 51.45227,
            "duration": 0.43182,
            "velocity": 0.6771653543307087
        },
        {
            "name": "A5",
            "midi": 81,
            "time": 51.675,
            "duration": 0.20909,
            "velocity": 0.7322834645669292
        },
        {
            "name": "G4",
            "midi": 67,
            "time": 51.89545,
            "duration": 0.17273,
            "velocity": 0.28346456692913385
        },
        {
            "name": "G3",
            "midi": 55,
            "time": 51.89545,
            "duration": 0.66136,
            "velocity": 0.5748031496062992
        },
        {
            "name": "D5",
            "midi": 74,
            "time": 51.89545,
            "duration": 0.66136,
            "velocity": 0.4566929133858268
        },
        {
            "name": "A#4",
            "midi": 70,
            "time": 51.90682,
            "duration": 0.27955,
            "velocity": 0.4645669291338583
        },
        {
            "name": "A#5",
            "midi": 82,
            "time": 51.90682,
            "duration": 0.325,
            "velocity": 0.6062992125984252
        },
        {
            "name": "A#5",
            "midi": 82,
            "time": 52.23182,
            "duration": 0.18636,
            "velocity": 0.7007874015748031
        },
        {
            "name": "A#5",
            "midi": 82,
            "time": 52.41818,
            "duration": 0.60227,
            "velocity": 0.6535433070866141
        },
        {
            "name": "A#4",
            "midi": 70,
            "time": 52.54545,
            "duration": 0.475,
            "velocity": 0.5354330708661418
        },
        {
            "name": "D5",
            "midi": 74,
            "time": 52.55682,
            "duration": 0.40682,
            "velocity": 0.5748031496062992
        },
        {
            "name": "G3",
            "midi": 55,
            "time": 52.55682,
            "duration": 0.80227,
            "velocity": 0.5196850393700787
        },
        {
            "name": "D4",
            "midi": 62,
            "time": 52.78864,
            "duration": 0.175,
            "velocity": 0.3937007874015748
        },
        {
            "name": "A#5",
            "midi": 82,
            "time": 53.02045,
            "duration": 0.23409,
            "velocity": 0.6850393700787402
        },
        {
            "name": "G4",
            "midi": 67,
            "time": 53.04545,
            "duration": 0.20909,
            "velocity": 0.4881889763779528
        },
        {
            "name": "D5",
            "midi": 74,
            "time": 53.24091,
            "duration": 0.23409,
            "velocity": 0.6614173228346457
        },
        {
            "name": "A#4",
            "midi": 70,
            "time": 53.24091,
            "duration": 0.43182,
            "velocity": 0.6377952755905512
        },
        {
            "name": "A#5",
            "midi": 82,
            "time": 53.25455,
            "duration": 0.39545,
            "velocity": 0.33858267716535434
        },
        {
            "name": "D5",
            "midi": 74,
            "time": 53.475,
            "duration": 0.29091,
            "velocity": 0.47244094488188976
        },
        {
            "name": "D6",
            "midi": 86,
            "time": 53.475,
            "duration": 0.30227,
            "velocity": 0.5669291338582677
        },
        {
            "name": "G3",
            "midi": 55,
            "time": 53.49773,
            "duration": 0.15227,
            "velocity": 0.4015748031496063
        },
        {
            "name": "D#2",
            "midi": 39,
            "time": 53.68409,
            "duration": 0.65,
            "velocity": 0.41732283464566927
        },
        {
            "name": "G5",
            "midi": 79,
            "time": 53.69545,
            "duration": 0.60455,
            "velocity": 0.47244094488188976
        },
        {
            "name": "D#3",
            "midi": 51,
            "time": 53.69545,
            "duration": 0.68636,
            "velocity": 0.6850393700787402
        },
        {
            "name": "D#5",
            "midi": 75,
            "time": 53.76591,
            "duration": 0.26591,
            "velocity": 0.47244094488188976
        },
        {
            "name": "A#3",
            "midi": 58,
            "time": 53.8,
            "duration": 0.55682,
            "velocity": 0.41732283464566927
        },
        {
            "name": "A#2",
            "midi": 46,
            "time": 53.81136,
            "duration": 0.94091,
            "velocity": 0.44881889763779526
        },
        {
            "name": "C6",
            "midi": 84,
            "time": 54.02045,
            "duration": 0.35,
            "velocity": 0.6692913385826772
        },
        {
            "name": "D#5",
            "midi": 75,
            "time": 54.03182,
            "duration": 0.37273,
            "velocity": 0.5275590551181102
        },
        {
            "name": "C6",
            "midi": 84,
            "time": 54.37045,
            "duration": 0.475,
            "velocity": 0.6614173228346457
        },
        {
            "name": "G5",
            "midi": 79,
            "time": 54.37045,
            "duration": 0.61364,
            "velocity": 0.44881889763779526
        },
        {
            "name": "D#3",
            "midi": 51,
            "time": 54.38182,
            "duration": 0.67273,
            "velocity": 0.6535433070866141
        },
        {
            "name": "A#4",
            "midi": 70,
            "time": 54.39318,
            "duration": 0.16136,
            "velocity": 0.33070866141732286
        },
        {
            "name": "D5",
            "midi": 74,
            "time": 54.40455,
            "duration": 0.38182,
            "velocity": 0.44881889763779526
        },
        {
            "name": "A#5",
            "midi": 82,
            "time": 54.8,
            "duration": 0.20682,
            "velocity": 0.49606299212598426
        },
        {
            "name": "D#5",
            "midi": 75,
            "time": 54.81136,
            "duration": 0.60227,
            "velocity": 0.4094488188976378
        },
        {
            "name": "A#4",
            "midi": 70,
            "time": 55.03182,
            "duration": 0.41818,
            "velocity": 0.6062992125984252
        },
        {
            "name": "G4",
            "midi": 67,
            "time": 55.05455,
            "duration": 0.39545,
            "velocity": 0.5984251968503937
        },
        {
            "name": "D#3",
            "midi": 51,
            "time": 55.05455,
            "duration": 0.40682,
            "velocity": 0.5984251968503937
        },
        {
            "name": "A#3",
            "midi": 58,
            "time": 55.07727,
            "duration": 0.19773,
            "velocity": 0.3700787401574803
        },
        {
            "name": "D#4",
            "midi": 63,
            "time": 55.125,
            "duration": 0.3,
            "velocity": 0.33070866141732286
        },
        {
            "name": "A#5",
            "midi": 82,
            "time": 55.18182,
            "duration": 0.30227,
            "velocity": 0.4330708661417323
        },
        {
            "name": "D#2",
            "midi": 39,
            "time": 55.28636,
            "duration": 0.13864,
            "velocity": 0.4645669291338583
        },
        {
            "name": "D6",
            "midi": 86,
            "time": 55.48409,
            "duration": 0.36136,
            "velocity": 0.6535433070866141
        },
        {
            "name": "F4",
            "midi": 65,
            "time": 55.49545,
            "duration": 0.40682,
            "velocity": 0.3543307086614173
        },
        {
            "name": "F5",
            "midi": 77,
            "time": 55.49545,
            "duration": 0.40682,
            "velocity": 0.6062992125984252
        },
        {
            "name": "A#5",
            "midi": 82,
            "time": 55.49545,
            "duration": 0.55909,
            "velocity": 0.5433070866141733
        },
        {
            "name": "D5",
            "midi": 74,
            "time": 55.49545,
            "duration": 0.66364,
            "velocity": 0.5118110236220472
        },
        {
            "name": "C4",
            "midi": 60,
            "time": 55.50682,
            "duration": 0.61591,
            "velocity": 0.4330708661417323
        },
        {
            "name": "A#2",
            "midi": 46,
            "time": 55.56591,
            "duration": 0.22045,
            "velocity": 0.3858267716535433
        },
        {
            "name": "F3",
            "midi": 53,
            "time": 55.69318,
            "duration": 0.39545,
            "velocity": 0.36220472440944884
        },
        {
            "name": "A#4",
            "midi": 70,
            "time": 55.79773,
            "duration": 0.25682,
            "velocity": 0.31496062992125984
        },
        {
            "name": "F4",
            "midi": 65,
            "time": 55.90227,
            "duration": 0.26818,
            "velocity": 0.47244094488188976
        },
        {
            "name": "C6",
            "midi": 84,
            "time": 55.99545,
            "duration": 0.15227,
            "velocity": 0.6141732283464567
        },
        {
            "name": "C5",
            "midi": 72,
            "time": 56.13636,
            "duration": 0.44091,
            "velocity": 0.4094488188976378
        },
        {
            "name": "C6",
            "midi": 84,
            "time": 56.14773,
            "duration": 0.56818,
            "velocity": 0.6535433070866141
        },
        {
            "name": "F5",
            "midi": 77,
            "time": 56.15909,
            "duration": 0.475,
            "velocity": 0.48031496062992124
        },
        {
            "name": "D5",
            "midi": 74,
            "time": 56.15909,
            "duration": 0.60227,
            "velocity": 0.4881889763779528
        },
        {
            "name": "A4",
            "midi": 69,
            "time": 56.15909,
            "duration": 0.67273,
            "velocity": 0.3937007874015748
        },
        {
            "name": "F4",
            "midi": 65,
            "time": 56.17045,
            "duration": 0.42955,
            "velocity": 0.41732283464566927
        },
        {
            "name": "F3",
            "midi": 53,
            "time": 56.22727,
            "duration": 0.51136,
            "velocity": 0.3779527559055118
        },
        {
            "name": "C4",
            "midi": 60,
            "time": 56.54091,
            "duration": 0.14091,
            "velocity": 0.2755905511811024
        },
        {
            "name": "F4",
            "midi": 65,
            "time": 56.6,
            "duration": 0.20909,
            "velocity": 0.5826771653543307
        },
        {
            "name": "F3",
            "midi": 53,
            "time": 56.80909,
            "duration": 0.39545,
            "velocity": 0.4566929133858268
        },
        {
            "name": "A5",
            "midi": 81,
            "time": 56.82045,
            "duration": 0.22045,
            "velocity": 0.7401574803149606
        },
        {
            "name": "C5",
            "midi": 72,
            "time": 56.82045,
            "duration": 0.23182,
            "velocity": 0.5748031496062992
        },
        {
            "name": "A4",
            "midi": 69,
            "time": 56.83182,
            "duration": 0.38409,
            "velocity": 0.5196850393700787
        },
        {
            "name": "A#5",
            "midi": 82,
            "time": 57.04091,
            "duration": 0.88409,
            "velocity": 0.6535433070866141
        },
        {
            "name": "C5",
            "midi": 72,
            "time": 57.05227,
            "duration": 0.175,
            "velocity": 0.4645669291338583
        },
        {
            "name": "F5",
            "midi": 77,
            "time": 57.075,
            "duration": 0.24545,
            "velocity": 0.3700787401574803
        },
        {
            "name": "A#3",
            "midi": 58,
            "time": 57.26136,
            "duration": 0.66364,
            "velocity": 0.6062992125984252
        },
        {
            "name": "D5",
            "midi": 74,
            "time": 57.26136,
            "duration": 0.66364,
            "velocity": 0.6771653543307087
        },
        {
            "name": "F4",
            "midi": 65,
            "time": 57.26136,
            "duration": 0.675,
            "velocity": 0.49606299212598426
        },
        {
            "name": "A#2",
            "midi": 46,
            "time": 57.29545,
            "duration": 0.54773,
            "velocity": 0.4251968503937008
        },
        {
            "name": "A#4",
            "midi": 70,
            "time": 57.34318,
            "duration": 0.13864,
            "velocity": 0.3858267716535433
        },
        {
            "name": "A#4",
            "midi": 70,
            "time": 57.61136,
            "duration": 0.16136,
            "velocity": 0.4015748031496063
        },
        {
            "name": "D6",
            "midi": 86,
            "time": 57.925,
            "duration": 0.17273,
            "velocity": 0.29133858267716534
        },
        {
            "name": "A#3",
            "midi": 58,
            "time": 57.925,
            "duration": 0.26591,
            "velocity": 0.5275590551181102
        },
        {
            "name": "F#6",
            "midi": 90,
            "time": 57.925,
            "duration": 0.26591,
            "velocity": 0.4094488188976378
        },
        {
            "name": "D4",
            "midi": 62,
            "time": 57.925,
            "duration": 0.54545,
            "velocity": 0.47244094488188976
        },
        {
            "name": "D5",
            "midi": 74,
            "time": 57.925,
            "duration": 1.3,
            "velocity": 0.4015748031496063
        },
        {
            "name": "F4",
            "midi": 65,
            "time": 57.93636,
            "duration": 0.59091,
            "velocity": 0.3543307086614173
        },
        {
            "name": "C4",
            "midi": 60,
            "time": 58.15682,
            "duration": 0.62727,
            "velocity": 0.6062992125984252
        },
        {
            "name": "D4",
            "midi": 62,
            "time": 58.60909,
            "duration": 0.18636,
            "velocity": 0.3700787401574803
        },
        {
            "name": "A3",
            "midi": 57,
            "time": 58.62045,
            "duration": 0.52273,
            "velocity": 0.6456692913385826
        },
        {
            "name": "F5",
            "midi": 77,
            "time": 58.84091,
            "duration": 0.20909,
            "velocity": 0.41732283464566927
        },
        {
            "name": "F4",
            "midi": 65,
            "time": 58.84091,
            "duration": 0.24545,
            "velocity": 0.7007874015748031
        },
        {
            "name": "F4",
            "midi": 65,
            "time": 59.08636,
            "duration": 0.23182,
            "velocity": 0.6456692913385826
        },
        {
            "name": "G2",
            "midi": 43,
            "time": 59.08636,
            "duration": 0.325,
            "velocity": 0.5905511811023622
        },
        {
            "name": "G3",
            "midi": 55,
            "time": 59.16591,
            "duration": 0.24545,
            "velocity": 0.4881889763779528
        },
        {
            "name": "D4",
            "midi": 62,
            "time": 59.30682,
            "duration": 0.17273,
            "velocity": 0.28346456692913385
        },
        {
            "name": "F4",
            "midi": 65,
            "time": 59.31818,
            "duration": 0.22045,
            "velocity": 0.4330708661417323
        },
        {
            "name": "G2",
            "midi": 43,
            "time": 59.41136,
            "duration": 0.18636,
            "velocity": 0.4566929133858268
        },
        {
            "name": "D5",
            "midi": 74,
            "time": 59.41136,
            "duration": 0.19773,
            "velocity": 0.3228346456692913
        },
        {
            "name": "G3",
            "midi": 55,
            "time": 59.41136,
            "duration": 0.33636,
            "velocity": 0.5275590551181102
        },
        {
            "name": "D3",
            "midi": 50,
            "time": 59.57273,
            "duration": 0.175,
            "velocity": 0.5984251968503937
        },
        {
            "name": "D3",
            "midi": 50,
            "time": 59.74773,
            "duration": 0.15227,
            "velocity": 0.47244094488188976
        },
        {
            "name": "D5",
            "midi": 74,
            "time": 59.74773,
            "duration": 0.15227,
            "velocity": 0.3464566929133858
        },
        {
            "name": "G3",
            "midi": 55,
            "time": 59.74773,
            "duration": 0.175,
            "velocity": 0.5511811023622047
        },
        {
            "name": "A4",
            "midi": 69,
            "time": 59.74773,
            "duration": 0.20909,
            "velocity": 0.5984251968503937
        },
        {
            "name": "A#4",
            "midi": 70,
            "time": 59.95682,
            "duration": 0.22045,
            "velocity": 0.5905511811023622
        },
        {
            "name": "A#3",
            "midi": 58,
            "time": 59.96818,
            "duration": 0.27955,
            "velocity": 0.5275590551181102
        },
        {
            "name": "C4",
            "midi": 60,
            "time": 59.98182,
            "duration": 0.16136,
            "velocity": 0.5826771653543307
        },
        {
            "name": "D5",
            "midi": 74,
            "time": 60.08636,
            "duration": 0.3,
            "velocity": 0.30708661417322836
        },
        {
            "name": "G3",
            "midi": 55,
            "time": 60.09773,
            "duration": 0.20909,
            "velocity": 0.3543307086614173
        },
        {
            "name": "A4",
            "midi": 69,
            "time": 60.29318,
            "duration": 0.16364,
            "velocity": 0.5590551181102362
        },
        {
            "name": "G3",
            "midi": 55,
            "time": 60.30682,
            "duration": 0.20909,
            "velocity": 0.4330708661417323
        },
        {
            "name": "D3",
            "midi": 50,
            "time": 60.34091,
            "duration": 0.175,
            "velocity": 0.6614173228346457
        },
        {
            "name": "G3",
            "midi": 55,
            "time": 60.51591,
            "duration": 0.34773,
            "velocity": 0.48031496062992124
        },
        {
            "name": "D3",
            "midi": 50,
            "time": 60.52727,
            "duration": 0.13864,
            "velocity": 0.5275590551181102
        },
        {
            "name": "F4",
            "midi": 65,
            "time": 60.62045,
            "duration": 0.24318,
            "velocity": 0.6299212598425197
        },
        {
            "name": "G3",
            "midi": 55,
            "time": 60.86364,
            "duration": 0.13864,
            "velocity": 0.36220472440944884
        },
        {
            "name": "G2",
            "midi": 43,
            "time": 60.86364,
            "duration": 0.19773,
            "velocity": 0.5118110236220472
        },
        {
            "name": "F4",
            "midi": 65,
            "time": 60.86364,
            "duration": 0.23182,
            "velocity": 0.6377952755905512
        },
        {
            "name": "G4",
            "midi": 67,
            "time": 60.94545,
            "duration": 0.23182,
            "velocity": 0.2992125984251969
        },
        {
            "name": "D4",
            "midi": 62,
            "time": 61.08409,
            "duration": 0.20909,
            "velocity": 0.4330708661417323
        },
        {
            "name": "F4",
            "midi": 65,
            "time": 61.09545,
            "duration": 0.18636,
            "velocity": 0.4094488188976378
        },
        {
            "name": "G4",
            "midi": 67,
            "time": 61.17727,
            "duration": 0.13864,
            "velocity": 0.4566929133858268
        },
        {
            "name": "G3",
            "midi": 55,
            "time": 61.17727,
            "duration": 0.38182,
            "velocity": 0.5433070866141733
        },
        {
            "name": "D3",
            "midi": 50,
            "time": 61.30455,
            "duration": 0.26591,
            "velocity": 0.6377952755905512
        },
        {
            "name": "D5",
            "midi": 74,
            "time": 61.55909,
            "duration": 0.15227,
            "velocity": 0.3937007874015748
        },
        {
            "name": "G3",
            "midi": 55,
            "time": 61.55909,
            "duration": 0.32727,
            "velocity": 0.4881889763779528
        },
        {
            "name": "D3",
            "midi": 50,
            "time": 61.57045,
            "duration": 0.14091,
            "velocity": 0.47244094488188976
        },
        {
            "name": "A4",
            "midi": 69,
            "time": 61.57045,
            "duration": 0.2,
            "velocity": 0.5905511811023622
        },
        {
            "name": "A#4",
            "midi": 70,
            "time": 61.77045,
            "duration": 0.19773,
            "velocity": 0.5511811023622047
        },
        {
            "name": "C4",
            "midi": 60,
            "time": 61.78182,
            "duration": 0.175,
            "velocity": 0.5669291338582677
        },
        {
            "name": "A#3",
            "midi": 58,
            "time": 61.85227,
            "duration": 0.22045,
            "velocity": 0.5511811023622047
        },
        {
            "name": "G3",
            "midi": 55,
            "time": 61.88636,
            "duration": 0.22045,
            "velocity": 0.3543307086614173
        },
        {
            "name": "D6",
            "midi": 86,
            "time": 61.99091,
            "duration": 0.15,
            "velocity": 0.28346456692913385
        },
        {
            "name": "D4",
            "midi": 62,
            "time": 61.99091,
            "duration": 0.18636,
            "velocity": 0.29133858267716534
        },
        {
            "name": "A4",
            "midi": 69,
            "time": 62.10682,
            "duration": 0.19773,
            "velocity": 0.47244094488188976
        },
        {
            "name": "D5",
            "midi": 74,
            "time": 62.10682,
            "duration": 0.22045,
            "velocity": 0.3700787401574803
        },
        {
            "name": "G3",
            "midi": 55,
            "time": 62.10682,
            "duration": 0.31364,
            "velocity": 0.49606299212598426
        },
        {
            "name": "D3",
            "midi": 50,
            "time": 62.22273,
            "duration": 0.26818,
            "velocity": 0.5748031496062992
        },
        {
            "name": "F4",
            "midi": 65,
            "time": 62.43182,
            "duration": 0.20909,
            "velocity": 0.36220472440944884
        },
        {
            "name": "F4",
            "midi": 65,
            "time": 62.64091,
            "duration": 0.24318,
            "velocity": 0.5669291338582677
        },
        {
            "name": "G2",
            "midi": 43,
            "time": 62.65227,
            "duration": 0.18636,
            "velocity": 0.3543307086614173
        },
        {
            "name": "G3",
            "midi": 55,
            "time": 62.65227,
            "duration": 0.30227,
            "velocity": 0.2992125984251969
        },
        {
            "name": "G3",
            "midi": 55,
            "time": 62.95455,
            "duration": 0.24318,
            "velocity": 0.5196850393700787
        },
        {
            "name": "D3",
            "midi": 50,
            "time": 63.08182,
            "duration": 0.22045,
            "velocity": 0.5511811023622047
        },
        {
            "name": "G3",
            "midi": 55,
            "time": 63.31364,
            "duration": 0.16364,
            "velocity": 0.4330708661417323
        },
        {
            "name": "D5",
            "midi": 74,
            "time": 63.325,
            "duration": 0.19773,
            "velocity": 0.5905511811023622
        },
        {
            "name": "F4",
            "midi": 65,
            "time": 63.35,
            "duration": 0.20909,
            "velocity": 0.4409448818897638
        },
        {
            "name": "A4",
            "midi": 69,
            "time": 63.41818,
            "duration": 0.14091,
            "velocity": 0.18110236220472442
        },
        {
            "name": "C5",
            "midi": 72,
            "time": 63.54545,
            "duration": 0.26818,
            "velocity": 0.41732283464566927
        },
        {
            "name": "F4",
            "midi": 65,
            "time": 63.55909,
            "duration": 0.12727,
            "velocity": 0.4566929133858268
        },
        {
            "name": "F5",
            "midi": 77,
            "time": 63.55909,
            "duration": 0.18636,
            "velocity": 0.4409448818897638
        },
        {
            "name": "A4",
            "midi": 69,
            "time": 63.55909,
            "duration": 0.26818,
            "velocity": 0.47244094488188976
        },
        {
            "name": "A#3",
            "midi": 58,
            "time": 63.55909,
            "duration": 0.27955,
            "velocity": 0.49606299212598426
        },
        {
            "name": "C4",
            "midi": 60,
            "time": 63.61818,
            "duration": 0.23182,
            "velocity": 0.5039370078740157
        },
        {
            "name": "G2",
            "midi": 43,
            "time": 63.88409,
            "duration": 0.15227,
            "velocity": 0.3543307086614173
        },
        {
            "name": "G3",
            "midi": 55,
            "time": 63.88409,
            "duration": 0.20909,
            "velocity": 0.3228346456692913
        },
        {
            "name": "D5",
            "midi": 74,
            "time": 63.88409,
            "duration": 0.34773,
            "velocity": 0.5590551181102362
        },
        {
            "name": "A#4",
            "midi": 70,
            "time": 63.89545,
            "duration": 0.34773,
            "velocity": 0.4015748031496063
        },
        {
            "name": "D5",
            "midi": 74,
            "time": 64.23182,
            "duration": 0.39545,
            "velocity": 0.5039370078740157
        },
        {
            "name": "G2",
            "midi": 43,
            "time": 64.23182,
            "duration": 0.73182,
            "velocity": 0.5433070866141733
        },
        {
            "name": "G4",
            "midi": 67,
            "time": 64.24318,
            "duration": 0.14091,
            "velocity": 0.33070866141732286
        },
        {
            "name": "D4",
            "midi": 62,
            "time": 64.24318,
            "duration": 0.18636,
            "velocity": 0.29133858267716534
        },
        {
            "name": "G3",
            "midi": 55,
            "time": 64.24318,
            "duration": 0.47727,
            "velocity": 0.3858267716535433
        },
        {
            "name": "A#4",
            "midi": 70,
            "time": 64.24318,
            "duration": 0.54773,
            "velocity": 0.44881889763779526
        },
        {
            "name": "F4",
            "midi": 65,
            "time": 64.24318,
            "duration": 0.62727,
            "velocity": 0.44881889763779526
        },
        {
            "name": "G3",
            "midi": 55,
            "time": 64.87045,
            "duration": 0.22045,
            "velocity": 0.3937007874015748
        },
        {
            "name": "G3",
            "midi": 55,
            "time": 65.10227,
            "duration": 0.15227,
            "velocity": 0.48031496062992124
        },
        {
            "name": "F4",
            "midi": 65,
            "time": 65.22045,
            "duration": 0.41818,
            "velocity": 0.5118110236220472
        },
        {
            "name": "D5",
            "midi": 74,
            "time": 65.25455,
            "duration": 0.30227,
            "velocity": 0.6929133858267716
        },
        {
            "name": "D6",
            "midi": 86,
            "time": 65.25455,
            "duration": 0.35,
            "velocity": 0.4881889763779528
        },
        {
            "name": "G3",
            "midi": 55,
            "time": 65.25455,
            "duration": 0.41818,
            "velocity": 0.4881889763779528
        },
        {
            "name": "A#4",
            "midi": 70,
            "time": 65.25455,
            "duration": 0.42955,
            "velocity": 0.6299212598425197
        },
        {
            "name": "F5",
            "midi": 77,
            "time": 65.25455,
            "duration": 0.45455,
            "velocity": 0.5905511811023622
        },
        {
            "name": "A#5",
            "midi": 82,
            "time": 65.26591,
            "duration": 0.26818,
            "velocity": 0.28346456692913385
        },
        {
            "name": "D5",
            "midi": 74,
            "time": 65.55682,
            "duration": 0.12727,
            "velocity": 0.5511811023622047
        },
        {
            "name": "F2",
            "midi": 41,
            "time": 65.69773,
            "duration": 0.41591,
            "velocity": 0.5354330708661418
        },
        {
            "name": "F5",
            "midi": 77,
            "time": 65.70909,
            "duration": 0.325,
            "velocity": 0.4881889763779528
        },
        {
            "name": "D5",
            "midi": 74,
            "time": 66.15,
            "duration": 0.29091,
            "velocity": 0.47244094488188976
        },
        {
            "name": "D#2",
            "midi": 39,
            "time": 66.24318,
            "duration": 0.30227,
            "velocity": 0.4566929133858268
        },
        {
            "name": "D#5",
            "midi": 75,
            "time": 66.48636,
            "duration": 0.13864,
            "velocity": 0.4566929133858268
        },
        {
            "name": "D#2",
            "midi": 39,
            "time": 66.54545,
            "duration": 0.15,
            "velocity": 0.5511811023622047
        },
        {
            "name": "A#2",
            "midi": 46,
            "time": 66.66136,
            "duration": 0.88182,
            "velocity": 0.3700787401574803
        },
        {
            "name": "D#2",
            "midi": 39,
            "time": 66.69545,
            "duration": 0.20909,
            "velocity": 0.5905511811023622
        },
        {
            "name": "D#3",
            "midi": 51,
            "time": 66.83409,
            "duration": 0.20909,
            "velocity": 0.41732283464566927
        },
        {
            "name": "D#5",
            "midi": 75,
            "time": 66.83409,
            "duration": 0.20909,
            "velocity": 0.33070866141732286
        },
        {
            "name": "D#2",
            "midi": 39,
            "time": 66.90455,
            "duration": 0.475,
            "velocity": 0.5118110236220472
        },
        {
            "name": "D#5",
            "midi": 75,
            "time": 67.04318,
            "duration": 0.33636,
            "velocity": 0.6456692913385826
        },
        {
            "name": "D#3",
            "midi": 51,
            "time": 67.04318,
            "duration": 0.34773,
            "velocity": 0.4251968503937008
        },
        {
            "name": "C5",
            "midi": 72,
            "time": 67.04318,
            "duration": 0.37273,
            "velocity": 0.4015748031496063
        },
        {
            "name": "G3",
            "midi": 55,
            "time": 67.22955,
            "duration": 0.48864,
            "velocity": 0.4645669291338583
        },
        {
            "name": "A#4",
            "midi": 70,
            "time": 67.37955,
            "duration": 0.15227,
            "velocity": 0.3937007874015748
        },
        {
            "name": "D#2",
            "midi": 39,
            "time": 67.37955,
            "duration": 0.22273,
            "velocity": 0.6062992125984252
        },
        {
            "name": "D#5",
            "midi": 75,
            "time": 67.37955,
            "duration": 0.42045,
            "velocity": 0.3937007874015748
        },
        {
            "name": "D#3",
            "midi": 51,
            "time": 67.39091,
            "duration": 0.32727,
            "velocity": 0.49606299212598426
        },
        {
            "name": "D#2",
            "midi": 39,
            "time": 67.60227,
            "duration": 0.13864,
            "velocity": 0.6929133858267716
        },
        {
            "name": "C5",
            "midi": 72,
            "time": 67.74091,
            "duration": 0.15227,
            "velocity": 0.4566929133858268
        },
        {
            "name": "F5",
            "midi": 77,
            "time": 67.74091,
            "duration": 0.15227,
            "velocity": 0.49606299212598426
        },
        {
            "name": "A4",
            "midi": 69,
            "time": 67.74091,
            "duration": 0.175,
            "velocity": 0.44881889763779526
        },
        {
            "name": "D#2",
            "midi": 39,
            "time": 67.74091,
            "duration": 0.18636,
            "velocity": 0.5511811023622047
        },
        {
            "name": "A5",
            "midi": 81,
            "time": 67.74091,
            "duration": 0.18636,
            "velocity": 0.4566929133858268
        },
        {
            "name": "F3",
            "midi": 53,
            "time": 67.84545,
            "duration": 0.14091,
            "velocity": 0.41732283464566927
        },
        {
            "name": "C3",
            "midi": 48,
            "time": 67.95,
            "duration": 0.25682,
            "velocity": 0.4251968503937008
        },
        {
            "name": "A#4",
            "midi": 70,
            "time": 68.20682,
            "duration": 0.20909,
            "velocity": 0.29133858267716534
        },
        {
            "name": "C3",
            "midi": 48,
            "time": 68.35682,
            "duration": 0.15,
            "velocity": 0.4330708661417323
        },
        {
            "name": "F2",
            "midi": 41,
            "time": 68.48409,
            "duration": 0.13864,
            "velocity": 0.41732283464566927
        },
        {
            "name": "C3",
            "midi": 48,
            "time": 68.50682,
            "duration": 0.18636,
            "velocity": 0.5433070866141733
        },
        {
            "name": "A5",
            "midi": 81,
            "time": 68.62273,
            "duration": 0.19773,
            "velocity": 0.3937007874015748
        },
        {
            "name": "F3",
            "midi": 53,
            "time": 68.63636,
            "duration": 0.22045,
            "velocity": 0.30708661417322836
        },
        {
            "name": "A4",
            "midi": 69,
            "time": 68.63636,
            "duration": 0.23182,
            "velocity": 0.4330708661417323
        },
        {
            "name": "F2",
            "midi": 41,
            "time": 68.63636,
            "duration": 0.77727,
            "velocity": 0.5748031496062992
        },
        {
            "name": "C3",
            "midi": 48,
            "time": 68.69318,
            "duration": 0.38409,
            "velocity": 0.5984251968503937
        },
        {
            "name": "C5",
            "midi": 72,
            "time": 68.70455,
            "duration": 0.15227,
            "velocity": 0.2992125984251969
        },
        {
            "name": "F5",
            "midi": 77,
            "time": 68.84545,
            "duration": 0.3,
            "velocity": 0.48031496062992124
        },
        {
            "name": "F4",
            "midi": 65,
            "time": 68.84545,
            "duration": 0.31136,
            "velocity": 0.4881889763779528
        },
        {
            "name": "A3",
            "midi": 57,
            "time": 69.06591,
            "duration": 0.61591,
            "velocity": 0.4330708661417323
        },
        {
            "name": "C3",
            "midi": 48,
            "time": 69.07727,
            "duration": 0.18409,
            "velocity": 0.5590551181102362
        },
        {
            "name": "F3",
            "midi": 53,
            "time": 69.07727,
            "duration": 0.20909,
            "velocity": 0.31496062992125984
        },
        {
            "name": "F5",
            "midi": 77,
            "time": 69.14545,
            "duration": 0.325,
            "velocity": 0.5354330708661418
        },
        {
            "name": "C3",
            "midi": 48,
            "time": 69.26136,
            "duration": 0.16364,
            "velocity": 0.5826771653543307
        },
        {
            "name": "F4",
            "midi": 65,
            "time": 69.35455,
            "duration": 0.21136,
            "velocity": 0.3228346456692913
        },
        {
            "name": "F2",
            "midi": 41,
            "time": 69.41364,
            "duration": 0.5,
            "velocity": 0.5354330708661418
        },
        {
            "name": "C3",
            "midi": 48,
            "time": 69.425,
            "duration": 1.0,
            "velocity": 0.3779527559055118
        },
        {
            "name": "D5",
            "midi": 74,
            "time": 69.72727,
            "duration": 0.24545,
            "velocity": 0.4330708661417323
        },
        {
            "name": "G5",
            "midi": 79,
            "time": 69.73864,
            "duration": 0.27955,
            "velocity": 0.41732283464566927
        },
        {
            "name": "G3",
            "midi": 55,
            "time": 69.73864,
            "duration": 0.31364,
            "velocity": 0.3779527559055118
        },
        {
            "name": "G2",
            "midi": 43,
            "time": 69.86818,
            "duration": 0.39318,
            "velocity": 0.44881889763779526
        },
        {
            "name": "C5",
            "midi": 72,
            "time": 70.06364,
            "duration": 0.35,
            "velocity": 0.44881889763779526
        },
        {
            "name": "F5",
            "midi": 77,
            "time": 70.06364,
            "duration": 0.35,
            "velocity": 0.4645669291338583
        },
        {
            "name": "D3",
            "midi": 50,
            "time": 70.06364,
            "duration": 0.88409,
            "velocity": 0.41732283464566927
        },
        {
            "name": "G2",
            "midi": 43,
            "time": 70.27273,
            "duration": 0.97727,
            "velocity": 0.4881889763779528
        },
        {
            "name": "G1",
            "midi": 31,
            "time": 70.28636,
            "duration": 0.23182,
            "velocity": 0.3779527559055118
        },
        {
            "name": "G3",
            "midi": 55,
            "time": 70.30909,
            "duration": 0.30227,
            "velocity": 0.3543307086614173
        },
        {
            "name": "F5",
            "midi": 77,
            "time": 70.41364,
            "duration": 0.325,
            "velocity": 0.48031496062992124
        },
        {
            "name": "C5",
            "midi": 72,
            "time": 70.41364,
            "duration": 0.38182,
            "velocity": 0.5669291338582677
        },
        {
            "name": "A5",
            "midi": 81,
            "time": 70.425,
            "duration": 0.15,
            "velocity": 0.3937007874015748
        },
        {
            "name": "C3",
            "midi": 48,
            "time": 70.425,
            "duration": 0.325,
            "velocity": 0.3464566929133858
        },
        {
            "name": "G1",
            "midi": 31,
            "time": 70.52955,
            "duration": 0.54545,
            "velocity": 0.44881889763779526
        },
        {
            "name": "G4",
            "midi": 67,
            "time": 70.62273,
            "duration": 0.18409,
            "velocity": 0.48031496062992124
        },
        {
            "name": "G3",
            "midi": 55,
            "time": 70.62273,
            "duration": 0.25455,
            "velocity": 0.5118110236220472
        },
        {
            "name": "G3",
            "midi": 55,
            "time": 70.87727,
            "duration": 0.39545,
            "velocity": 0.4251968503937008
        },
        {
            "name": "A#3",
            "midi": 58,
            "time": 70.87727,
            "duration": 0.42955,
            "velocity": 0.4409448818897638
        },
        {
            "name": "A#4",
            "midi": 70,
            "time": 70.87727,
            "duration": 0.56818,
            "velocity": 0.3700787401574803
        },
        {
            "name": "D5",
            "midi": 74,
            "time": 70.88864,
            "duration": 0.23182,
            "velocity": 0.4094488188976378
        },
        {
            "name": "G5",
            "midi": 79,
            "time": 70.91136,
            "duration": 0.14091,
            "velocity": 0.41732283464566927
        },
        {
            "name": "D3",
            "midi": 50,
            "time": 70.94773,
            "duration": 0.17273,
            "velocity": 0.5039370078740157
        },
        {
            "name": "A#5",
            "midi": 82,
            "time": 71.12045,
            "duration": 0.30227,
            "velocity": 0.31496062992125984
        },
        {
            "name": "D3",
            "midi": 50,
            "time": 71.12045,
            "duration": 0.47727,
            "velocity": 0.4251968503937008
        },
        {
            "name": "C3",
            "midi": 48,
            "time": 71.17955,
            "duration": 0.18636,
            "velocity": 0.2992125984251969
        },
        {
            "name": "G2",
            "midi": 43,
            "time": 71.25,
            "duration": 0.35909,
            "velocity": 0.49606299212598426
        },
        {
            "name": "G1",
            "midi": 31,
            "time": 71.27273,
            "duration": 0.20909,
            "velocity": 0.33858267716535434
        },
        {
            "name": "A#3",
            "midi": 58,
            "time": 71.30682,
            "duration": 0.22273,
            "velocity": 0.41732283464566927
        },
        {
            "name": "A5",
            "midi": 81,
            "time": 71.51818,
            "duration": 0.24318,
            "velocity": 0.4409448818897638
        },
        {
            "name": "A4",
            "midi": 69,
            "time": 71.51818,
            "duration": 0.26591,
            "velocity": 0.47244094488188976
        },
        {
            "name": "D5",
            "midi": 74,
            "time": 71.51818,
            "duration": 0.325,
            "velocity": 0.4015748031496063
        },
        {
            "name": "D2",
            "midi": 38,
            "time": 71.59773,
            "duration": 0.18636,
            "velocity": 0.3937007874015748
        },
        {
            "name": "D3",
            "midi": 50,
            "time": 71.59773,
            "duration": 0.62727,
            "velocity": 0.44881889763779526
        },
        {
            "name": "D2",
            "midi": 38,
            "time": 71.78409,
            "duration": 0.77727,
            "velocity": 0.47244094488188976
        },
        {
            "name": "A#4",
            "midi": 70,
            "time": 71.85455,
            "duration": 0.16136,
            "velocity": 0.3858267716535433
        },
        {
            "name": "A2",
            "midi": 45,
            "time": 71.86591,
            "duration": 0.88182,
            "velocity": 0.4645669291338583
        },
        {
            "name": "F5",
            "midi": 77,
            "time": 72.225,
            "duration": 0.36136,
            "velocity": 0.44881889763779526
        },
        {
            "name": "D5",
            "midi": 74,
            "time": 72.225,
            "duration": 0.42955,
            "velocity": 0.4015748031496063
        },
        {
            "name": "D3",
            "midi": 50,
            "time": 72.225,
            "duration": 0.51136,
            "velocity": 0.3858267716535433
        },
        {
            "name": "D5",
            "midi": 74,
            "time": 72.65455,
            "duration": 0.23182,
            "velocity": 0.5196850393700787
        },
        {
            "name": "A5",
            "midi": 81,
            "time": 72.66591,
            "duration": 0.38409,
            "velocity": 0.3700787401574803
        },
        {
            "name": "D3",
            "midi": 50,
            "time": 72.73636,
            "duration": 0.40682,
            "velocity": 0.5118110236220472
        },
        {
            "name": "A2",
            "midi": 45,
            "time": 72.74773,
            "duration": 0.325,
            "velocity": 0.4251968503937008
        },
        {
            "name": "D2",
            "midi": 38,
            "time": 72.91136,
            "duration": 0.38182,
            "velocity": 0.4645669291338583
        },
        {
            "name": "A2",
            "midi": 45,
            "time": 73.07273,
            "duration": 0.15227,
            "velocity": 0.3700787401574803
        },
        {
            "name": "A#4",
            "midi": 70,
            "time": 73.09545,
            "duration": 0.16364,
            "velocity": 0.3779527559055118
        },
        {
            "name": "A#5",
            "midi": 82,
            "time": 73.31591,
            "duration": 0.15227,
            "velocity": 0.3779527559055118
        },
        {
            "name": "G5",
            "midi": 79,
            "time": 73.31591,
            "duration": 0.2,
            "velocity": 0.4094488188976378
        },
        {
            "name": "D#2",
            "midi": 39,
            "time": 73.40909,
            "duration": 0.12955,
            "velocity": 0.5039370078740157
        },
        {
            "name": "D#2",
            "midi": 39,
            "time": 73.55,
            "duration": 0.15227,
            "velocity": 0.6456692913385826
        },
        {
            "name": "F5",
            "midi": 77,
            "time": 73.63182,
            "duration": 0.37045,
            "velocity": 0.4566929133858268
        },
        {
            "name": "A#3",
            "midi": 58,
            "time": 73.65455,
            "duration": 0.22045,
            "velocity": 0.33858267716535434
        },
        {
            "name": "D#2",
            "midi": 39,
            "time": 73.70227,
            "duration": 0.28864,
            "velocity": 0.6614173228346457
        },
        {
            "name": "A#5",
            "midi": 82,
            "time": 73.75909,
            "duration": 0.15,
            "velocity": 0.31496062992125984
        },
        {
            "name": "A#2",
            "midi": 46,
            "time": 73.97955,
            "duration": 0.29091,
            "velocity": 0.4094488188976378
        },
        {
            "name": "D5",
            "midi": 74,
            "time": 73.99091,
            "duration": 0.20909,
            "velocity": 0.5196850393700787
        },
        {
            "name": "D#2",
            "midi": 39,
            "time": 73.99091,
            "duration": 0.40682,
            "velocity": 0.5748031496062992
        },
        {
            "name": "F5",
            "midi": 77,
            "time": 74.00227,
            "duration": 0.23409,
            "velocity": 0.47244094488188976
        },
        {
            "name": "G5",
            "midi": 79,
            "time": 74.18864,
            "duration": 0.15,
            "velocity": 0.31496062992125984
        },
        {
            "name": "D#5",
            "midi": 75,
            "time": 74.2,
            "duration": 0.16364,
            "velocity": 0.4015748031496063
        },
        {
            "name": "A#2",
            "midi": 46,
            "time": 74.27045,
            "duration": 0.45227,
            "velocity": 0.5196850393700787
        },
        {
            "name": "A#3",
            "midi": 58,
            "time": 74.29318,
            "duration": 0.15,
            "velocity": 0.3543307086614173
        },
        {
            "name": "D#2",
            "midi": 39,
            "time": 74.39773,
            "duration": 0.72045,
            "velocity": 0.6850393700787402
        },
        {
            "name": "A#4",
            "midi": 70,
            "time": 74.43182,
            "duration": 0.15227,
            "velocity": 0.5039370078740157
        },
        {
            "name": "D5",
            "midi": 74,
            "time": 74.43182,
            "duration": 0.24545,
            "velocity": 0.31496062992125984
        },
        {
            "name": "A#3",
            "midi": 58,
            "time": 74.44318,
            "duration": 0.33864,
            "velocity": 0.41732283464566927
        },
        {
            "name": "G3",
            "midi": 55,
            "time": 74.45682,
            "duration": 0.59091,
            "velocity": 0.5118110236220472
        },
        {
            "name": "F5",
            "midi": 77,
            "time": 74.60682,
            "duration": 0.175,
            "velocity": 0.33070866141732286
        },
        {
            "name": "A#2",
            "midi": 46,
            "time": 74.72273,
            "duration": 0.40682,
            "velocity": 0.48031496062992124
        },
        {
            "name": "A#4",
            "midi": 70,
            "time": 74.90909,
            "duration": 0.20909,
            "velocity": 0.4330708661417323
        },
        {
            "name": "F5",
            "midi": 77,
            "time": 75.11818,
            "duration": 0.15,
            "velocity": 0.44881889763779526
        },
        {
            "name": "A#4",
            "midi": 70,
            "time": 75.11818,
            "duration": 0.42955,
            "velocity": 0.4251968503937008
        },
        {
            "name": "C3",
            "midi": 48,
            "time": 75.11818,
            "duration": 0.45455,
            "velocity": 0.3858267716535433
        },
        {
            "name": "F2",
            "midi": 41,
            "time": 75.11818,
            "duration": 0.66136,
            "velocity": 0.3543307086614173
        },
        {
            "name": "F5",
            "midi": 77,
            "time": 75.26818,
            "duration": 0.16364,
            "velocity": 0.4094488188976378
        },
        {
            "name": "A5",
            "midi": 81,
            "time": 75.55909,
            "duration": 0.16364,
            "velocity": 0.4251968503937008
        },
        {
            "name": "A4",
            "midi": 69,
            "time": 75.57273,
            "duration": 0.23182,
            "velocity": 0.5039370078740157
        },
        {
            "name": "C3",
            "midi": 48,
            "time": 75.57273,
            "duration": 0.24318,
            "velocity": 0.5590551181102362
        },
        {
            "name": "F2",
            "midi": 41,
            "time": 75.77955,
            "duration": 0.84773,
            "velocity": 0.4330708661417323
        },
        {
            "name": "C5",
            "midi": 72,
            "time": 75.80455,
            "duration": 0.34773,
            "velocity": 0.4566929133858268
        },
        {
            "name": "F5",
            "midi": 77,
            "time": 75.81591,
            "duration": 0.18636,
            "velocity": 0.4094488188976378
        },
        {
            "name": "G4",
            "midi": 67,
            "time": 75.81591,
            "duration": 0.25455,
            "velocity": 0.4094488188976378
        },
        {
            "name": "C3",
            "midi": 48,
            "time": 75.81591,
            "duration": 0.57955,
            "velocity": 0.6220472440944882
        },
        {
            "name": "F5",
            "midi": 77,
            "time": 76.00227,
            "duration": 0.22045,
            "velocity": 0.4409448818897638
        },
        {
            "name": "F4",
            "midi": 65,
            "time": 76.01364,
            "duration": 0.33636,
            "velocity": 0.4881889763779528
        },
        {
            "name": "A4",
            "midi": 69,
            "time": 76.08182,
            "duration": 0.14091,
            "velocity": 0.31496062992125984
        },
        {
            "name": "A3",
            "midi": 57,
            "time": 76.18636,
            "duration": 0.44091,
            "velocity": 0.4881889763779528
        },
        {
            "name": "A5",
            "midi": 81,
            "time": 76.23409,
            "duration": 0.20909,
            "velocity": 0.4645669291338583
        },
        {
            "name": "A4",
            "midi": 69,
            "time": 76.23409,
            "duration": 0.23182,
            "velocity": 0.3937007874015748
        },
        {
            "name": "C3",
            "midi": 48,
            "time": 76.39545,
            "duration": 0.24545,
            "velocity": 0.6299212598425197
        },
        {
            "name": "F2",
            "midi": 41,
            "time": 76.62727,
            "duration": 0.26818,
            "velocity": 0.44881889763779526
        },
        {
            "name": "C3",
            "midi": 48,
            "time": 76.64091,
            "duration": 0.25455,
            "velocity": 0.47244094488188976
        },
        {
            "name": "D5",
            "midi": 74,
            "time": 76.70909,
            "duration": 0.18636,
            "velocity": 0.41732283464566927
        },
        {
            "name": "G5",
            "midi": 79,
            "time": 76.70909,
            "duration": 0.18636,
            "velocity": 0.49606299212598426
        },
        {
            "name": "A#4",
            "midi": 70,
            "time": 76.70909,
            "duration": 0.36136,
            "velocity": 0.5433070866141733
        },
        {
            "name": "G2",
            "midi": 43,
            "time": 76.89545,
            "duration": 0.25455,
            "velocity": 0.3543307086614173
        },
        {
            "name": "G1",
            "midi": 31,
            "time": 76.97727,
            "duration": 1.65,
            "velocity": 0.4015748031496063
        },
        {
            "name": "G2",
            "midi": 43,
            "time": 77.15,
            "duration": 0.42045,
            "velocity": 0.4251968503937008
        },
        {
            "name": "G3",
            "midi": 55,
            "time": 77.26591,
            "duration": 0.28182,
            "velocity": 0.3858267716535433
        },
        {
            "name": "D3",
            "midi": 50,
            "time": 77.29091,
            "duration": 0.19773,
            "velocity": 0.30708661417322836
        },
        {
            "name": "G2",
            "midi": 43,
            "time": 77.57045,
            "duration": 0.83636,
            "velocity": 0.44881889763779526
        },
        {
            "name": "G3",
            "midi": 55,
            "time": 77.58182,
            "duration": 0.20909,
            "velocity": 0.3700787401574803
        },
        {
            "name": "G4",
            "midi": 67,
            "time": 77.79091,
            "duration": 0.325,
            "velocity": 0.5275590551181102
        },
        {
            "name": "G3",
            "midi": 55,
            "time": 77.79091,
            "duration": 0.40682,
            "velocity": 0.48031496062992124
        },
        {
            "name": "D3",
            "midi": 50,
            "time": 77.81364,
            "duration": 0.19773,
            "velocity": 0.3858267716535433
        },
        {
            "name": "A#3",
            "midi": 58,
            "time": 78.08182,
            "duration": 0.33636,
            "velocity": 0.4881889763779528
        },
        {
            "name": "D5",
            "midi": 74,
            "time": 78.09318,
            "duration": 0.19545,
            "velocity": 0.2677165354330709
        },
        {
            "name": "D3",
            "midi": 50,
            "time": 78.09318,
            "duration": 0.60227,
            "velocity": 0.3543307086614173
        },
        {
            "name": "G3",
            "midi": 55,
            "time": 78.19773,
            "duration": 0.38182,
            "velocity": 0.5039370078740157
        },
        {
            "name": "G2",
            "midi": 43,
            "time": 78.40682,
            "duration": 0.40455,
            "velocity": 0.5118110236220472
        },
        {
            "name": "A#4",
            "midi": 70,
            "time": 78.475,
            "duration": 0.19773,
            "velocity": 0.5984251968503937
        },
        {
            "name": "A#3",
            "midi": 58,
            "time": 78.48636,
            "duration": 0.16364,
            "velocity": 0.36220472440944884
        },
        {
            "name": "D2",
            "midi": 38,
            "time": 78.55682,
            "duration": 0.23182,
            "velocity": 0.4881889763779528
        },
        {
            "name": "D3",
            "midi": 50,
            "time": 78.69545,
            "duration": 0.26818,
            "velocity": 0.3779527559055118
        },
        {
            "name": "A4",
            "midi": 69,
            "time": 78.69545,
            "duration": 0.29091,
            "velocity": 0.5118110236220472
        },
        {
            "name": "D2",
            "midi": 38,
            "time": 78.8,
            "duration": 0.16364,
            "velocity": 0.6614173228346457
        },
        {
            "name": "G1",
            "midi": 31,
            "time": 78.81136,
            "duration": 0.98864,
            "velocity": 0.4094488188976378
        },
        {
            "name": "F4",
            "midi": 65,
            "time": 78.82273,
            "duration": 0.325,
            "velocity": 0.3937007874015748
        },
        {
            "name": "D3",
            "midi": 50,
            "time": 78.96364,
            "duration": 0.41818,
            "velocity": 0.4094488188976378
        },
        {
            "name": "D2",
            "midi": 38,
            "time": 78.96364,
            "duration": 0.54545,
            "velocity": 0.5590551181102362
        },
        {
            "name": "A#4",
            "midi": 70,
            "time": 79.04545,
            "duration": 0.31136,
            "velocity": 0.5275590551181102
        },
        {
            "name": "F4",
            "midi": 65,
            "time": 79.14773,
            "duration": 0.14091,
            "velocity": 0.3779527559055118
        },
        {
            "name": "D5",
            "midi": 74,
            "time": 79.24091,
            "duration": 0.57045,
            "velocity": 0.4409448818897638
        },
        {
            "name": "A4",
            "midi": 69,
            "time": 79.37045,
            "duration": 0.25682,
            "velocity": 0.48031496062992124
        },
        {
            "name": "D3",
            "midi": 50,
            "time": 79.38182,
            "duration": 0.31364,
            "velocity": 0.4881889763779528
        },
        {
            "name": "F4",
            "midi": 65,
            "time": 79.475,
            "duration": 0.31364,
            "velocity": 0.47244094488188976
        },
        {
            "name": "D2",
            "midi": 38,
            "time": 79.50909,
            "duration": 0.16364,
            "velocity": 0.5511811023622047
        },
        {
            "name": "D2",
            "midi": 38,
            "time": 79.67273,
            "duration": 0.59091,
            "velocity": 0.5590551181102362
        },
        {
            "name": "D3",
            "midi": 50,
            "time": 79.69545,
            "duration": 0.24318,
            "velocity": 0.36220472440944884
        },
        {
            "name": "A3",
            "midi": 57,
            "time": 79.70682,
            "duration": 0.38409,
            "velocity": 0.3464566929133858
        },
        {
            "name": "F4",
            "midi": 65,
            "time": 79.78864,
            "duration": 0.23182,
            "velocity": 0.48031496062992124
        },
        {
            "name": "D3",
            "midi": 50,
            "time": 79.93864,
            "duration": 0.46591,
            "velocity": 0.48031496062992124
        },
        {
            "name": "A2",
            "midi": 45,
            "time": 80.03182,
            "duration": 0.36136,
            "velocity": 0.4566929133858268
        },
        {
            "name": "F2",
            "midi": 41,
            "time": 80.11364,
            "duration": 0.33636,
            "velocity": 0.4330708661417323
        },
        {
            "name": "D5",
            "midi": 74,
            "time": 80.24091,
            "duration": 0.23182,
            "velocity": 0.6377952755905512
        },
        {
            "name": "D2",
            "midi": 38,
            "time": 80.26364,
            "duration": 0.27955,
            "velocity": 0.5433070866141733
        },
        {
            "name": "D5",
            "midi": 74,
            "time": 80.47273,
            "duration": 0.31364,
            "velocity": 0.47244094488188976
        },
        {
            "name": "G5",
            "midi": 79,
            "time": 80.47273,
            "duration": 0.40682,
            "velocity": 0.4015748031496063
        },
        {
            "name": "D#3",
            "midi": 51,
            "time": 80.55455,
            "duration": 0.15227,
            "velocity": 0.4566929133858268
        },
        {
            "name": "D#2",
            "midi": 39,
            "time": 80.57727,
            "duration": 0.15227,
            "velocity": 0.7401574803149606
        },
        {
            "name": "A#2",
            "midi": 46,
            "time": 80.60227,
            "duration": 0.27727,
            "velocity": 0.3858267716535433
        },
        {
            "name": "C6",
            "midi": 84,
            "time": 80.69318,
            "duration": 0.15227,
            "velocity": 0.25196850393700787
        },
        {
            "name": "C5",
            "midi": 72,
            "time": 80.70682,
            "duration": 0.18409,
            "velocity": 0.4094488188976378
        },
        {
            "name": "D#3",
            "midi": 51,
            "time": 80.70682,
            "duration": 0.19545,
            "velocity": 0.4015748031496063
        },
        {
            "name": "D#2",
            "midi": 39,
            "time": 80.72955,
            "duration": 0.27727,
            "velocity": 0.6377952755905512
        },
        {
            "name": "D#5",
            "midi": 75,
            "time": 80.82273,
            "duration": 0.18409,
            "velocity": 0.5039370078740157
        },
        {
            "name": "A#2",
            "midi": 46,
            "time": 80.89091,
            "duration": 0.36136,
            "velocity": 0.41732283464566927
        },
        {
            "name": "D#2",
            "midi": 39,
            "time": 81.00682,
            "duration": 0.24545,
            "velocity": 0.6377952755905512
        },
        {
            "name": "C5",
            "midi": 72,
            "time": 81.15909,
            "duration": 0.22045,
            "velocity": 0.41732283464566927
        },
        {
            "name": "D#2",
            "midi": 39,
            "time": 81.25227,
            "duration": 0.13864,
            "velocity": 0.5984251968503937
        },
        {
            "name": "A#2",
            "midi": 46,
            "time": 81.25227,
            "duration": 0.17273,
            "velocity": 0.4409448818897638
        },
        {
            "name": "C5",
            "midi": 72,
            "time": 81.37955,
            "duration": 0.19773,
            "velocity": 0.4566929133858268
        },
        {
            "name": "D#5",
            "midi": 75,
            "time": 81.37955,
            "duration": 0.31364,
            "velocity": 0.4409448818897638
        },
        {
            "name": "D#2",
            "midi": 39,
            "time": 81.39091,
            "duration": 0.30227,
            "velocity": 0.7086614173228346
        },
        {
            "name": "A#4",
            "midi": 70,
            "time": 81.57727,
            "duration": 0.19773,
            "velocity": 0.31496062992125984
        },
        {
            "name": "A#2",
            "midi": 46,
            "time": 81.63636,
            "duration": 0.40682,
            "velocity": 0.4645669291338583
        },
        {
            "name": "D#2",
            "midi": 39,
            "time": 81.69318,
            "duration": 0.175,
            "velocity": 0.7322834645669292
        },
        {
            "name": "A#5",
            "midi": 82,
            "time": 81.69318,
            "duration": 0.35,
            "velocity": 0.33858267716535434
        },
        {
            "name": "D#5",
            "midi": 75,
            "time": 81.69318,
            "duration": 0.5,
            "velocity": 0.44881889763779526
        },
        {
            "name": "D#2",
            "midi": 39,
            "time": 81.86818,
            "duration": 0.31364,
            "velocity": 0.6929133858267716
        },
        {
            "name": "A#5",
            "midi": 82,
            "time": 82.04318,
            "duration": 0.13864,
            "velocity": 0.3700787401574803
        },
        {
            "name": "D#3",
            "midi": 51,
            "time": 82.06591,
            "duration": 0.18636,
            "velocity": 0.41732283464566927
        },
        {
            "name": "D#2",
            "midi": 39,
            "time": 82.18182,
            "duration": 0.15,
            "velocity": 0.4330708661417323
        },
        {
            "name": "A5",
            "midi": 81,
            "time": 82.26364,
            "duration": 0.16136,
            "velocity": 0.29133858267716534
        },
        {
            "name": "F3",
            "midi": 53,
            "time": 82.275,
            "duration": 0.15,
            "velocity": 0.28346456692913385
        },
        {
            "name": "A4",
            "midi": 69,
            "time": 82.275,
            "duration": 0.25455,
            "velocity": 0.41732283464566927
        },
        {
            "name": "C5",
            "midi": 72,
            "time": 82.275,
            "duration": 0.325,
            "velocity": 0.3543307086614173
        },
        {
            "name": "F2",
            "midi": 41,
            "time": 82.275,
            "duration": 0.46364,
            "velocity": 0.49606299212598426
        },
        {
            "name": "C3",
            "midi": 48,
            "time": 82.44773,
            "duration": 0.25682,
            "velocity": 0.6062992125984252
        },
        {
            "name": "A#4",
            "midi": 70,
            "time": 82.63409,
            "duration": 0.24318,
            "velocity": 0.4251968503937008
        },
        {
            "name": "C3",
            "midi": 48,
            "time": 82.70455,
            "duration": 0.46364,
            "velocity": 0.5669291338582677
        },
        {
            "name": "F2",
            "midi": 41,
            "time": 82.73864,
            "duration": 0.42955,
            "velocity": 0.4881889763779528
        },
        {
            "name": "F1",
            "midi": 29,
            "time": 82.80909,
            "duration": 0.26591,
            "velocity": 0.3543307086614173
        },
        {
            "name": "A5",
            "midi": 81,
            "time": 82.95909,
            "duration": 0.25682,
            "velocity": 0.36220472440944884
        },
        {
            "name": "A4",
            "midi": 69,
            "time": 82.97045,
            "duration": 0.50227,
            "velocity": 0.3700787401574803
        },
        {
            "name": "C3",
            "midi": 48,
            "time": 83.16818,
            "duration": 0.175,
            "velocity": 0.44881889763779526
        },
        {
            "name": "F2",
            "midi": 41,
            "time": 83.16818,
            "duration": 0.53636,
            "velocity": 0.5275590551181102
        },
        {
            "name": "F4",
            "midi": 65,
            "time": 83.23864,
            "duration": 0.18636,
            "velocity": 0.29133858267716534
        },
        {
            "name": "C3",
            "midi": 48,
            "time": 83.34318,
            "duration": 0.23182,
            "velocity": 0.5118110236220472
        },
        {
            "name": "F5",
            "midi": 77,
            "time": 83.41136,
            "duration": 0.45455,
            "velocity": 0.5118110236220472
        },
        {
            "name": "F4",
            "midi": 65,
            "time": 83.425,
            "duration": 0.55682,
            "velocity": 0.4330708661417323
        },
        {
            "name": "C3",
            "midi": 48,
            "time": 83.575,
            "duration": 0.25682,
            "velocity": 0.5590551181102362
        },
        {
            "name": "D5",
            "midi": 74,
            "time": 83.82045,
            "duration": 0.23182,
            "velocity": 0.6062992125984252
        },
        {
            "name": "C3",
            "midi": 48,
            "time": 83.83182,
            "duration": 0.33636,
            "velocity": 0.41732283464566927
        },
        {
            "name": "G2",
            "midi": 43,
            "time": 84.05227,
            "duration": 0.20909,
            "velocity": 0.4645669291338583
        },
        {
            "name": "D5",
            "midi": 74,
            "time": 84.05227,
            "duration": 0.38409,
            "velocity": 0.41732283464566927
        },
        {
            "name": "G3",
            "midi": 55,
            "time": 84.06364,
            "duration": 0.42955,
            "velocity": 0.4645669291338583
        },
        {
            "name": "G2",
            "midi": 43,
            "time": 84.26136,
            "duration": 0.30227,
            "velocity": 0.3779527559055118
        },
        {
            "name": "D3",
            "midi": 50,
            "time": 84.28409,
            "duration": 0.53409,
            "velocity": 0.47244094488188976
        },
        {
            "name": "C5",
            "midi": 72,
            "time": 84.36591,
            "duration": 0.15,
            "velocity": 0.4645669291338583
        },
        {
            "name": "F5",
            "midi": 77,
            "time": 84.36591,
            "duration": 0.40682,
            "velocity": 0.3700787401574803
        },
        {
            "name": "C3",
            "midi": 48,
            "time": 84.38864,
            "duration": 0.18636,
            "velocity": 0.3779527559055118
        },
        {
            "name": "G1",
            "midi": 31,
            "time": 84.50455,
            "duration": 0.54545,
            "velocity": 0.3779527559055118
        },
        {
            "name": "G2",
            "midi": 43,
            "time": 84.56364,
            "duration": 0.26591,
            "velocity": 0.4330708661417323
        },
        {
            "name": "C5",
            "midi": 72,
            "time": 84.725,
            "duration": 0.20909,
            "velocity": 0.4645669291338583
        },
        {
            "name": "G2",
            "midi": 43,
            "time": 84.82955,
            "duration": 0.175,
            "velocity": 0.5039370078740157
        },
        {
            "name": "C5",
            "midi": 72,
            "time": 84.93409,
            "duration": 0.29091,
            "velocity": 0.5590551181102362
        },
        {
            "name": "F5",
            "midi": 77,
            "time": 84.94545,
            "duration": 0.29091,
            "velocity": 0.41732283464566927
        },
        {
            "name": "G2",
            "midi": 43,
            "time": 85.00455,
            "duration": 0.29091,
            "velocity": 0.5196850393700787
        },
        {
            "name": "D3",
            "midi": 50,
            "time": 85.15455,
            "duration": 0.66364,
            "velocity": 0.4094488188976378
        },
        {
            "name": "A#4",
            "midi": 70,
            "time": 85.25909,
            "duration": 0.35,
            "velocity": 0.5354330708661418
        },
        {
            "name": "D5",
            "midi": 74,
            "time": 85.27045,
            "duration": 0.17727,
            "velocity": 0.3858267716535433
        },
        {
            "name": "G5",
            "midi": 79,
            "time": 85.29545,
            "duration": 0.29091,
            "velocity": 0.4409448818897638
        },
        {
            "name": "G2",
            "midi": 43,
            "time": 85.29545,
            "duration": 0.39545,
            "velocity": 0.4881889763779528
        },
        {
            "name": "G1",
            "midi": 31,
            "time": 85.58636,
            "duration": 0.13864,
            "velocity": 0.33070866141732286
        },
        {
            "name": "A#4",
            "midi": 70,
            "time": 85.60909,
            "duration": 0.19773,
            "velocity": 0.5118110236220472
        },
        {
            "name": "G2",
            "midi": 43,
            "time": 85.69091,
            "duration": 0.33636,
            "velocity": 0.47244094488188976
        },
        {
            "name": "A5",
            "midi": 81,
            "time": 85.81818,
            "duration": 0.20909,
            "velocity": 0.5039370078740157
        },
        {
            "name": "D3",
            "midi": 50,
            "time": 85.81818,
            "duration": 0.475,
            "velocity": 0.5039370078740157
        },
        {
            "name": "D2",
            "midi": 38,
            "time": 85.82955,
            "duration": 0.13864,
            "velocity": 0.6692913385826772
        },
        {
            "name": "D5",
            "midi": 74,
            "time": 85.82955,
            "duration": 0.175,
            "velocity": 0.5275590551181102
        },
        {
            "name": "F5",
            "midi": 77,
            "time": 85.82955,
            "duration": 0.31364,
            "velocity": 0.33858267716535434
        },
        {
            "name": "A4",
            "midi": 69,
            "time": 85.9,
            "duration": 0.13864,
            "velocity": 0.4409448818897638
        },
        {
            "name": "D2",
            "midi": 38,
            "time": 85.96818,
            "duration": 0.175,
            "velocity": 0.6456692913385826
        },
        {
            "name": "A2",
            "midi": 45,
            "time": 85.97955,
            "duration": 0.22273,
            "velocity": 0.5118110236220472
        },
        {
            "name": "D2",
            "midi": 38,
            "time": 86.14318,
            "duration": 0.175,
            "velocity": 0.6456692913385826
        },
        {
            "name": "A2",
            "midi": 45,
            "time": 86.20227,
            "duration": 0.31136,
            "velocity": 0.3937007874015748
        },
        {
            "name": "D2",
            "midi": 38,
            "time": 86.31818,
            "duration": 0.23182,
            "velocity": 0.5826771653543307
        },
        {
            "name": "A5",
            "midi": 81,
            "time": 86.52727,
            "duration": 0.19545,
            "velocity": 0.28346456692913385
        },
        {
            "name": "F5",
            "midi": 77,
            "time": 86.52727,
            "duration": 0.40455,
            "velocity": 0.5826771653543307
        },
        {
            "name": "D2",
            "midi": 38,
            "time": 86.55,
            "duration": 0.18636,
            "velocity": 0.5984251968503937
        },
        {
            "name": "D3",
            "midi": 50,
            "time": 86.73636,
            "duration": 0.24318,
            "velocity": 0.3228346456692913
        },
        {
            "name": "D2",
            "midi": 38,
            "time": 86.73636,
            "duration": 0.41591,
            "velocity": 0.5748031496062992
        },
        {
            "name": "A2",
            "midi": 45,
            "time": 86.75909,
            "duration": 0.15,
            "velocity": 0.3779527559055118
        },
        {
            "name": "A2",
            "midi": 45,
            "time": 86.90909,
            "duration": 0.89545,
            "velocity": 0.44881889763779526
        },
        {
            "name": "A5",
            "midi": 81,
            "time": 86.97955,
            "duration": 0.17273,
            "velocity": 0.4015748031496063
        },
        {
            "name": "D3",
            "midi": 50,
            "time": 86.97955,
            "duration": 0.39318,
            "velocity": 0.3858267716535433
        },
        {
            "name": "D2",
            "midi": 38,
            "time": 87.15227,
            "duration": 0.76818,
            "velocity": 0.4251968503937008
        },
        {
            "name": "A#4",
            "midi": 70,
            "time": 87.42045,
            "duration": 0.16364,
            "velocity": 0.4251968503937008
        },
        {
            "name": "C3",
            "midi": 48,
            "time": 87.42045,
            "duration": 0.19773,
            "velocity": 0.3464566929133858
        },
        {
            "name": "A#5",
            "midi": 82,
            "time": 87.62955,
            "duration": 0.16364,
            "velocity": 0.41732283464566927
        },
        {
            "name": "G5",
            "midi": 79,
            "time": 87.62955,
            "duration": 0.24545,
            "velocity": 0.44881889763779526
        },
        {
            "name": "D#2",
            "midi": 39,
            "time": 88.03636,
            "duration": 0.20909,
            "velocity": 0.5905511811023622
        },
        {
            "name": "F5",
            "midi": 77,
            "time": 88.04773,
            "duration": 0.26818,
            "velocity": 0.44881889763779526
        },
        {
            "name": "D#2",
            "midi": 39,
            "time": 88.24545,
            "duration": 0.24318,
            "velocity": 0.5826771653543307
        },
        {
            "name": "D6",
            "midi": 86,
            "time": 88.28182,
            "duration": 0.13864,
            "velocity": 0.2755905511811024
        },
        {
            "name": "D5",
            "midi": 74,
            "time": 88.29318,
            "duration": 0.22045,
            "velocity": 0.41732283464566927
        },
        {
            "name": "A#3",
            "midi": 58,
            "time": 88.37273,
            "duration": 0.20909,
            "velocity": 0.2992125984251969
        },
        {
            "name": "D#2",
            "midi": 39,
            "time": 88.48864,
            "duration": 0.23409,
            "velocity": 0.6141732283464567
        },
        {
            "name": "G3",
            "midi": 55,
            "time": 88.48864,
            "duration": 0.44318,
            "velocity": 0.3779527559055118
        },
        {
            "name": "A#4",
            "midi": 70,
            "time": 88.51364,
            "duration": 0.26591,
            "velocity": 0.4566929133858268
        },
        {
            "name": "D5",
            "midi": 74,
            "time": 88.51364,
            "duration": 0.28864,
            "velocity": 0.4645669291338583
        },
        {
            "name": "A#3",
            "midi": 58,
            "time": 88.58182,
            "duration": 0.16364,
            "velocity": 0.5433070866141733
        },
        {
            "name": "A#2",
            "midi": 46,
            "time": 88.61818,
            "duration": 0.71818,
            "velocity": 0.3700787401574803
        },
        {
            "name": "D#2",
            "midi": 39,
            "time": 88.72273,
            "duration": 0.22045,
            "velocity": 0.6456692913385826
        },
        {
            "name": "D#3",
            "midi": 51,
            "time": 88.73409,
            "duration": 0.22045,
            "velocity": 0.4015748031496063
        },
        {
            "name": "A#3",
            "midi": 58,
            "time": 88.74545,
            "duration": 0.62727,
            "velocity": 0.4330708661417323
        },
        {
            "name": "D#2",
            "midi": 39,
            "time": 88.94318,
            "duration": 0.13864,
            "velocity": 0.7795275590551181
        },
        {
            "name": "D#2",
            "midi": 39,
            "time": 89.08182,
            "duration": 0.38409,
            "velocity": 0.6692913385826772
        },
        {
            "name": "A#4",
            "midi": 70,
            "time": 89.19773,
            "duration": 0.675,
            "velocity": 0.41732283464566927
        },
        {
            "name": "C3",
            "midi": 48,
            "time": 89.43182,
            "duration": 0.38182,
            "velocity": 0.4094488188976378
        },
        {
            "name": "F2",
            "midi": 41,
            "time": 89.43182,
            "duration": 0.44091,
            "velocity": 0.47244094488188976
        },
        {
            "name": "A5",
            "midi": 81,
            "time": 89.85,
            "duration": 0.16136,
            "velocity": 0.30708661417322836
        },
        {
            "name": "A4",
            "midi": 69,
            "time": 89.87273,
            "duration": 0.19773,
            "velocity": 0.2992125984251969
        },
        {
            "name": "F2",
            "midi": 41,
            "time": 89.87273,
            "duration": 0.92955,
            "velocity": 0.5433070866141733
        },
        {
            "name": "A3",
            "midi": 57,
            "time": 90.08182,
            "duration": 0.22045,
            "velocity": 0.36220472440944884
        },
        {
            "name": "G5",
            "midi": 79,
            "time": 90.08182,
            "duration": 0.22045,
            "velocity": 0.3779527559055118
        },
        {
            "name": "F4",
            "midi": 65,
            "time": 90.08182,
            "duration": 0.45227,
            "velocity": 0.3858267716535433
        },
        {
            "name": "F5",
            "midi": 77,
            "time": 90.08182,
            "duration": 0.51136,
            "velocity": 0.4645669291338583
        },
        {
            "name": "G4",
            "midi": 67,
            "time": 90.09318,
            "duration": 0.35909,
            "velocity": 0.3779527559055118
        },
        {
            "name": "C4",
            "midi": 60,
            "time": 90.10455,
            "duration": 0.26818,
            "velocity": 0.36220472440944884
        },
        {
            "name": "C3",
            "midi": 48,
            "time": 90.10455,
            "duration": 1.09091,
            "velocity": 0.4645669291338583
        },
        {
            "name": "F1",
            "midi": 29,
            "time": 90.20909,
            "duration": 0.25455,
            "velocity": 0.3779527559055118
        },
        {
            "name": "A5",
            "midi": 81,
            "time": 90.56818,
            "duration": 0.175,
            "velocity": 0.4881889763779528
        },
        {
            "name": "A4",
            "midi": 69,
            "time": 90.58182,
            "duration": 0.325,
            "velocity": 0.4645669291338583
        },
        {
            "name": "A3",
            "midi": 57,
            "time": 90.58182,
            "duration": 0.40455,
            "velocity": 0.41732283464566927
        },
        {
            "name": "C4",
            "midi": 60,
            "time": 90.78864,
            "duration": 0.37273,
            "velocity": 0.28346456692913385
        },
        {
            "name": "F2",
            "midi": 41,
            "time": 90.80227,
            "duration": 0.38182,
            "velocity": 0.5984251968503937
        },
        {
            "name": "A#5",
            "midi": 82,
            "time": 91.02273,
            "duration": 0.22045,
            "velocity": 0.4015748031496063
        },
        {
            "name": "D5",
            "midi": 74,
            "time": 91.04545,
            "duration": 0.23182,
            "velocity": 0.5433070866141733
        },
        {
            "name": "A#4",
            "midi": 70,
            "time": 91.04545,
            "duration": 0.44318,
            "velocity": 0.5354330708661418
        },
        {
            "name": "G5",
            "midi": 79,
            "time": 91.04545,
            "duration": 0.5,
            "velocity": 0.4330708661417323
        },
        {
            "name": "D#2",
            "midi": 39,
            "time": 91.19545,
            "duration": 0.175,
            "velocity": 0.5826771653543307
        },
        {
            "name": "D#2",
            "midi": 39,
            "time": 91.38182,
            "duration": 0.77955,
            "velocity": 0.6929133858267716
        },
        {
            "name": "A#5",
            "midi": 82,
            "time": 91.39545,
            "duration": 0.31364,
            "velocity": 0.44881889763779526
        },
        {
            "name": "D#3",
            "midi": 51,
            "time": 91.475,
            "duration": 0.42955,
            "velocity": 0.4251968503937008
        },
        {
            "name": "D5",
            "midi": 74,
            "time": 91.54545,
            "duration": 0.22045,
            "velocity": 0.2992125984251969
        },
        {
            "name": "G4",
            "midi": 67,
            "time": 91.55682,
            "duration": 0.22045,
            "velocity": 0.41732283464566927
        },
        {
            "name": "A#4",
            "midi": 70,
            "time": 91.65,
            "duration": 0.39545,
            "velocity": 0.33858267716535434
        },
        {
            "name": "G4",
            "midi": 67,
            "time": 91.77727,
            "duration": 0.35,
            "velocity": 0.47244094488188976
        },
        {
            "name": "D#3",
            "midi": 51,
            "time": 91.91818,
            "duration": 0.23182,
            "velocity": 0.48031496062992124
        },
        {
            "name": "D5",
            "midi": 74,
            "time": 92.10227,
            "duration": 1.05682,
            "velocity": 0.4645669291338583
        },
        {
            "name": "G4",
            "midi": 67,
            "time": 92.12727,
            "duration": 0.23182,
            "velocity": 0.3779527559055118
        },
        {
            "name": "G3",
            "midi": 55,
            "time": 92.12727,
            "duration": 0.92727,
            "velocity": 0.5669291338582677
        },
        {
            "name": "D#2",
            "midi": 39,
            "time": 92.16136,
            "duration": 1.00909,
            "velocity": 0.6141732283464567
        },
        {
            "name": "A#3",
            "midi": 58,
            "time": 92.18409,
            "duration": 0.25455,
            "velocity": 0.36220472440944884
        },
        {
            "name": "G4",
            "midi": 67,
            "time": 92.35909,
            "duration": 0.34773,
            "velocity": 0.49606299212598426
        },
        {
            "name": "A#3",
            "midi": 58,
            "time": 92.45227,
            "duration": 0.35909,
            "velocity": 0.3543307086614173
        },
        {
            "name": "A#4",
            "midi": 70,
            "time": 92.45227,
            "duration": 0.35909,
            "velocity": 0.5118110236220472
        },
        {
            "name": "G4",
            "midi": 67,
            "time": 92.70682,
            "duration": 0.25455,
            "velocity": 0.4566929133858268
        },
        {
            "name": "A#3",
            "midi": 58,
            "time": 92.81136,
            "duration": 0.18636,
            "velocity": 0.33858267716535434
        },
        {
            "name": "A#4",
            "midi": 70,
            "time": 92.81136,
            "duration": 0.22045,
            "velocity": 0.5669291338582677
        },
        {
            "name": "D#3",
            "midi": 51,
            "time": 92.85682,
            "duration": 0.24545,
            "velocity": 0.33070866141732286
        },
        {
            "name": "G2",
            "midi": 43,
            "time": 93.04318,
            "duration": 1.70909,
            "velocity": 0.5275590551181102
        },
        {
            "name": "G3",
            "midi": 55,
            "time": 93.05455,
            "duration": 0.53636,
            "velocity": 0.41732283464566927
        },
        {
            "name": "D5",
            "midi": 74,
            "time": 93.15909,
            "duration": 0.76818,
            "velocity": 0.4251968503937008
        },
        {
            "name": "F4",
            "midi": 65,
            "time": 93.28636,
            "duration": 0.33864,
            "velocity": 0.3858267716535433
        },
        {
            "name": "A#4",
            "midi": 70,
            "time": 93.37045,
            "duration": 0.34773,
            "velocity": 0.5669291338582677
        },
        {
            "name": "F4",
            "midi": 65,
            "time": 93.625,
            "duration": 0.38409,
            "velocity": 0.4251968503937008
        },
        {
            "name": "A#4",
            "midi": 70,
            "time": 93.71818,
            "duration": 0.23182,
            "velocity": 0.6614173228346457
        },
        {
            "name": "G3",
            "midi": 55,
            "time": 93.71818,
            "duration": 0.475,
            "velocity": 0.3700787401574803
        },
        {
            "name": "D4",
            "midi": 62,
            "time": 93.775,
            "duration": 0.14091,
            "velocity": 0.3937007874015748
        },
        {
            "name": "D4",
            "midi": 62,
            "time": 93.92727,
            "duration": 0.15,
            "velocity": 0.5039370078740157
        },
        {
            "name": "D5",
            "midi": 74,
            "time": 93.92727,
            "duration": 0.15,
            "velocity": 0.7637795275590551
        },
        {
            "name": "A#4",
            "midi": 70,
            "time": 93.95,
            "duration": 0.325,
            "velocity": 0.48031496062992124
        },
        {
            "name": "A#3",
            "midi": 58,
            "time": 93.95,
            "duration": 0.87045,
            "velocity": 0.5275590551181102
        },
        {
            "name": "D5",
            "midi": 74,
            "time": 94.07727,
            "duration": 0.53409,
            "velocity": 0.48031496062992124
        },
        {
            "name": "D4",
            "midi": 62,
            "time": 94.07727,
            "duration": 0.75455,
            "velocity": 0.4645669291338583
        },
        {
            "name": "F4",
            "midi": 65,
            "time": 94.17045,
            "duration": 0.33636,
            "velocity": 0.49606299212598426
        },
        {
            "name": "A#4",
            "midi": 70,
            "time": 94.275,
            "duration": 0.13864,
            "velocity": 0.5984251968503937
        },
        {
            "name": "A#4",
            "midi": 70,
            "time": 94.41364,
            "duration": 0.19773,
            "velocity": 0.6062992125984252
        },
        {
            "name": "F4",
            "midi": 65,
            "time": 94.50682,
            "duration": 0.25682,
            "velocity": 0.5826771653543307
        },
        {
            "name": "D5",
            "midi": 74,
            "time": 94.61136,
            "duration": 0.19773,
            "velocity": 0.4881889763779528
        },
        {
            "name": "A#4",
            "midi": 70,
            "time": 94.61136,
            "duration": 0.22045,
            "velocity": 0.5433070866141733
        },
        {
            "name": "C5",
            "midi": 72,
            "time": 94.83182,
            "duration": 0.33636,
            "velocity": 0.5354330708661418
        },
        {
            "name": "F2",
            "midi": 41,
            "time": 94.83182,
            "duration": 0.37273,
            "velocity": 0.5905511811023622
        },
        {
            "name": "C4",
            "midi": 60,
            "time": 94.83182,
            "duration": 0.5,
            "velocity": 0.4645669291338583
        },
        {
            "name": "F4",
            "midi": 65,
            "time": 95.01818,
            "duration": 0.16364,
            "velocity": 0.4566929133858268
        },
        {
            "name": "A#4",
            "midi": 70,
            "time": 95.19318,
            "duration": 0.31364,
            "velocity": 0.6692913385826772
        },
        {
            "name": "F4",
            "midi": 65,
            "time": 95.19318,
            "duration": 0.325,
            "velocity": 0.47244094488188976
        },
        {
            "name": "F2",
            "midi": 41,
            "time": 95.20455,
            "duration": 1.41818,
            "velocity": 0.5354330708661418
        },
        {
            "name": "A#6",
            "midi": 94,
            "time": 95.28636,
            "duration": 0.16364,
            "velocity": 0.3228346456692913
        },
        {
            "name": "C4",
            "midi": 60,
            "time": 95.33182,
            "duration": 0.27955,
            "velocity": 0.5590551181102362
        },
        {
            "name": "A#4",
            "midi": 70,
            "time": 95.50682,
            "duration": 0.30227,
            "velocity": 0.6141732283464567
        },
        {
            "name": "F4",
            "midi": 65,
            "time": 95.51818,
            "duration": 0.23182,
            "velocity": 0.48031496062992124
        },
        {
            "name": "C4",
            "midi": 60,
            "time": 95.61136,
            "duration": 0.13864,
            "velocity": 0.6299212598425197
        },
        {
            "name": "F3",
            "midi": 53,
            "time": 95.62273,
            "duration": 0.46591,
            "velocity": 0.4094488188976378
        },
        {
            "name": "C4",
            "midi": 60,
            "time": 95.75,
            "duration": 0.22273,
            "velocity": 0.6299212598425197
        },
        {
            "name": "F4",
            "midi": 65,
            "time": 95.75,
            "duration": 0.23409,
            "velocity": 0.5118110236220472
        },
        {
            "name": "C5",
            "midi": 72,
            "time": 95.75,
            "duration": 0.35,
            "velocity": 0.6299212598425197
        },
        {
            "name": "A3",
            "midi": 57,
            "time": 95.76364,
            "duration": 0.23182,
            "velocity": 0.5826771653543307
        },
        {
            "name": "C4",
            "midi": 60,
            "time": 95.97273,
            "duration": 0.69545,
            "velocity": 0.6062992125984252
        },
        {
            "name": "F4",
            "midi": 65,
            "time": 95.98409,
            "duration": 0.27727,
            "velocity": 0.5196850393700787
        },
        {
            "name": "F5",
            "midi": 77,
            "time": 95.98409,
            "duration": 0.53409,
            "velocity": 0.3700787401574803
        },
        {
            "name": "A3",
            "midi": 57,
            "time": 95.99545,
            "duration": 0.59091,
            "velocity": 0.4645669291338583
        },
        {
            "name": "A#4",
            "midi": 70,
            "time": 96.08864,
            "duration": 0.33636,
            "velocity": 0.6220472440944882
        },
        {
            "name": "F3",
            "midi": 53,
            "time": 96.23864,
            "duration": 0.325,
            "velocity": 0.31496062992125984
        },
        {
            "name": "F4",
            "midi": 65,
            "time": 96.26136,
            "duration": 0.29091,
            "velocity": 0.4566929133858268
        },
        {
            "name": "A#4",
            "midi": 70,
            "time": 96.425,
            "duration": 0.325,
            "velocity": 0.5511811023622047
        },
        {
            "name": "D6",
            "midi": 86,
            "time": 96.64545,
            "duration": 0.33636,
            "velocity": 0.48031496062992124
        },
        {
            "name": "D5",
            "midi": 74,
            "time": 96.65682,
            "duration": 0.25455,
            "velocity": 0.3779527559055118
        },
        {
            "name": "G4",
            "midi": 67,
            "time": 96.66818,
            "duration": 0.25455,
            "velocity": 0.4330708661417323
        },
        {
            "name": "F5",
            "midi": 77,
            "time": 96.76136,
            "duration": 0.325,
            "velocity": 0.5039370078740157
        },
        {
            "name": "G2",
            "midi": 43,
            "time": 96.76136,
            "duration": 1.68409,
            "velocity": 0.6535433070866141
        },
        {
            "name": "D5",
            "midi": 74,
            "time": 96.91136,
            "duration": 0.30227,
            "velocity": 0.4645669291338583
        },
        {
            "name": "C6",
            "midi": 84,
            "time": 96.99318,
            "duration": 0.33636,
            "velocity": 0.3464566929133858
        },
        {
            "name": "G3",
            "midi": 55,
            "time": 97.00455,
            "duration": 0.20909,
            "velocity": 0.36220472440944884
        },
        {
            "name": "F5",
            "midi": 77,
            "time": 97.08636,
            "duration": 0.33864,
            "velocity": 0.47244094488188976
        },
        {
            "name": "D5",
            "midi": 74,
            "time": 97.21364,
            "duration": 0.22273,
            "velocity": 0.5275590551181102
        },
        {
            "name": "G3",
            "midi": 55,
            "time": 97.225,
            "duration": 0.76818,
            "velocity": 0.47244094488188976
        },
        {
            "name": "C6",
            "midi": 84,
            "time": 97.32955,
            "duration": 0.42045,
            "velocity": 0.4251968503937008
        },
        {
            "name": "F5",
            "midi": 77,
            "time": 97.425,
            "duration": 0.45227,
            "velocity": 0.4881889763779528
        },
        {
            "name": "D5",
            "midi": 74,
            "time": 97.43636,
            "duration": 0.17273,
            "velocity": 0.5748031496062992
        },
        {
            "name": "F4",
            "midi": 65,
            "time": 97.49318,
            "duration": 0.22045,
            "velocity": 0.3228346456692913
        },
        {
            "name": "D4",
            "midi": 62,
            "time": 97.52955,
            "duration": 0.23182,
            "velocity": 0.3858267716535433
        },
        {
            "name": "A#3",
            "midi": 58,
            "time": 97.55227,
            "duration": 0.83636,
            "velocity": 0.5354330708661418
        },
        {
            "name": "D5",
            "midi": 74,
            "time": 97.60909,
            "duration": 0.15227,
            "velocity": 0.5039370078740157
        },
        {
            "name": "D4",
            "midi": 62,
            "time": 97.76136,
            "duration": 0.23182,
            "velocity": 0.5669291338582677
        },
        {
            "name": "A5",
            "midi": 81,
            "time": 97.77273,
            "duration": 0.42955,
            "velocity": 0.6299212598425197
        },
        {
            "name": "F5",
            "midi": 77,
            "time": 97.87727,
            "duration": 0.39545,
            "velocity": 0.5039370078740157
        },
        {
            "name": "D5",
            "midi": 74,
            "time": 97.99318,
            "duration": 0.16136,
            "velocity": 0.4566929133858268
        },
        {
            "name": "D4",
            "midi": 62,
            "time": 97.99318,
            "duration": 0.20909,
            "velocity": 0.4330708661417323
        },
        {
            "name": "G3",
            "midi": 55,
            "time": 97.99318,
            "duration": 0.45227,
            "velocity": 0.5039370078740157
        },
        {
            "name": "D6",
            "midi": 86,
            "time": 98.225,
            "duration": 0.175,
            "velocity": 0.47244094488188976
        },
        {
            "name": "A#5",
            "midi": 82,
            "time": 98.225,
            "duration": 0.74318,
            "velocity": 0.5275590551181102
        },
        {
            "name": "D#2",
            "midi": 39,
            "time": 98.32955,
            "duration": 0.24318,
            "velocity": 0.7007874015748031
        },
        {
            "name": "G5",
            "midi": 79,
            "time": 98.36364,
            "duration": 0.14091,
            "velocity": 0.4566929133858268
        },
        {
            "name": "D#3",
            "midi": 51,
            "time": 98.44545,
            "duration": 0.36136,
            "velocity": 0.47244094488188976
        },
        {
            "name": "D5",
            "midi": 74,
            "time": 98.49318,
            "duration": 0.3,
            "velocity": 0.3543307086614173
        },
        {
            "name": "D#2",
            "midi": 39,
            "time": 98.57273,
            "duration": 0.80227,
            "velocity": 0.7244094488188977
        },
        {
            "name": "D5",
            "midi": 74,
            "time": 98.79318,
            "duration": 0.22045,
            "velocity": 0.5433070866141733
        },
        {
            "name": "D#3",
            "midi": 51,
            "time": 98.80682,
            "duration": 0.33636,
            "velocity": 0.5748031496062992
        },
        {
            "name": "D5",
            "midi": 74,
            "time": 99.01364,
            "duration": 0.26818,
            "velocity": 0.5433070866141733
        },
        {
            "name": "G5",
            "midi": 79,
            "time": 99.09545,
            "duration": 0.26818,
            "velocity": 0.48031496062992124
        },
        {
            "name": "A#5",
            "midi": 82,
            "time": 99.11818,
            "duration": 0.175,
            "velocity": 0.33070866141732286
        },
        {
            "name": "D#3",
            "midi": 51,
            "time": 99.14318,
            "duration": 0.23182,
            "velocity": 0.5748031496062992
        },
        {
            "name": "A#2",
            "midi": 46,
            "time": 99.2,
            "duration": 0.12955,
            "velocity": 0.3700787401574803
        },
        {
            "name": "D5",
            "midi": 74,
            "time": 99.28182,
            "duration": 0.20909,
            "velocity": 0.49606299212598426
        },
        {
            "name": "G5",
            "midi": 79,
            "time": 99.375,
            "duration": 0.23409,
            "velocity": 0.3464566929133858
        },
        {
            "name": "D6",
            "midi": 86,
            "time": 99.375,
            "duration": 0.25682,
            "velocity": 0.3543307086614173
        },
        {
            "name": "G4",
            "midi": 67,
            "time": 99.375,
            "duration": 0.81364,
            "velocity": 0.5275590551181102
        },
        {
            "name": "D#3",
            "midi": 51,
            "time": 99.375,
            "duration": 0.88409,
            "velocity": 0.4566929133858268
        },
        {
            "name": "D#2",
            "midi": 39,
            "time": 99.375,
            "duration": 1.15,
            "velocity": 0.6062992125984252
        },
        {
            "name": "D5",
            "midi": 74,
            "time": 99.49091,
            "duration": 0.32727,
            "velocity": 0.5511811023622047
        },
        {
            "name": "G5",
            "midi": 79,
            "time": 99.60909,
            "duration": 0.325,
            "velocity": 0.4566929133858268
        },
        {
            "name": "A#5",
            "midi": 82,
            "time": 99.71364,
            "duration": 0.17273,
            "velocity": 0.41732283464566927
        },
        {
            "name": "D5",
            "midi": 74,
            "time": 99.81818,
            "duration": 0.34773,
            "velocity": 0.44881889763779526
        },
        {
            "name": "G5",
            "midi": 79,
            "time": 99.93409,
            "duration": 0.33636,
            "velocity": 0.5905511811023622
        },
        {
            "name": "A#5",
            "midi": 82,
            "time": 100.06136,
            "duration": 0.20909,
            "velocity": 0.5905511811023622
        },
        {
            "name": "D5",
            "midi": 74,
            "time": 100.16591,
            "duration": 0.23182,
            "velocity": 0.5275590551181102
        },
        {
            "name": "G2",
            "midi": 43,
            "time": 100.27045,
            "duration": 1.77727,
            "velocity": 0.6377952755905512
        },
        {
            "name": "G4",
            "midi": 67,
            "time": 100.28182,
            "duration": 0.19773,
            "velocity": 0.3937007874015748
        },
        {
            "name": "D6",
            "midi": 86,
            "time": 100.28182,
            "duration": 0.29091,
            "velocity": 0.44881889763779526
        },
        {
            "name": "G3",
            "midi": 55,
            "time": 100.28182,
            "duration": 0.31364,
            "velocity": 0.3937007874015748
        },
        {
            "name": "D5",
            "midi": 74,
            "time": 100.39773,
            "duration": 0.33636,
            "velocity": 0.5511811023622047
        },
        {
            "name": "F5",
            "midi": 77,
            "time": 100.50227,
            "duration": 0.35909,
            "velocity": 0.36220472440944884
        },
        {
            "name": "G3",
            "midi": 55,
            "time": 100.59545,
            "duration": 0.45227,
            "velocity": 0.5590551181102362
        },
        {
            "name": "A#5",
            "midi": 82,
            "time": 100.60682,
            "duration": 0.34773,
            "velocity": 0.5511811023622047
        },
        {
            "name": "D5",
            "midi": 74,
            "time": 100.73409,
            "duration": 0.31364,
            "velocity": 0.5511811023622047
        },
        {
            "name": "F5",
            "midi": 77,
            "time": 100.86136,
            "duration": 0.20909,
            "velocity": 0.29133858267716534
        },
        {
            "name": "A#5",
            "midi": 82,
            "time": 100.95455,
            "duration": 0.18636,
            "velocity": 0.5433070866141733
        },
        {
            "name": "D5",
            "midi": 74,
            "time": 101.04773,
            "duration": 0.25455,
            "velocity": 0.5354330708661418
        },
        {
            "name": "G3",
            "midi": 55,
            "time": 101.04773,
            "duration": 1.0,
            "velocity": 0.4330708661417323
        },
        {
            "name": "A#4",
            "midi": 70,
            "time": 101.16364,
            "duration": 0.35,
            "velocity": 0.5905511811023622
        },
        {
            "name": "F5",
            "midi": 77,
            "time": 101.175,
            "duration": 0.22273,
            "velocity": 0.33858267716535434
        },
        {
            "name": "D6",
            "midi": 86,
            "time": 101.175,
            "duration": 0.61818,
            "velocity": 0.3858267716535433
        },
        {
            "name": "D4",
            "midi": 62,
            "time": 101.18636,
            "duration": 0.17727,
            "velocity": 0.30708661417322836
        },
        {
            "name": "D5",
            "midi": 74,
            "time": 101.30227,
            "duration": 0.31591,
            "velocity": 0.6614173228346457
        },
        {
            "name": "A#5",
            "midi": 82,
            "time": 101.39773,
            "duration": 0.20909,
            "velocity": 0.44881889763779526
        },
        {
            "name": "F5",
            "midi": 77,
            "time": 101.39773,
            "duration": 0.34773,
            "velocity": 0.4645669291338583
        },
        {
            "name": "A#4",
            "midi": 70,
            "time": 101.51364,
            "duration": 0.22045,
            "velocity": 0.5354330708661418
        },
        {
            "name": "D5",
            "midi": 74,
            "time": 101.61818,
            "duration": 0.325,
            "velocity": 0.6535433070866141
        },
        {
            "name": "F5",
            "midi": 77,
            "time": 101.74545,
            "duration": 0.30227,
            "velocity": 0.5748031496062992
        },
        {
            "name": "A#5",
            "midi": 82,
            "time": 101.83864,
            "duration": 0.175,
            "velocity": 0.4330708661417323
        },
        {
            "name": "D5",
            "midi": 74,
            "time": 101.94318,
            "duration": 0.15,
            "velocity": 0.5669291338582677
        },
        {
            "name": "C6",
            "midi": 84,
            "time": 102.05909,
            "duration": 0.325,
            "velocity": 0.5196850393700787
        },
        {
            "name": "F2",
            "midi": 41,
            "time": 102.05909,
            "duration": 0.87045,
            "velocity": 0.6456692913385826
        },
        {
            "name": "C5",
            "midi": 72,
            "time": 102.20909,
            "duration": 0.31364,
            "velocity": 0.5196850393700787
        },
        {
            "name": "F5",
            "midi": 77,
            "time": 102.30227,
            "duration": 0.42955,
            "velocity": 0.4645669291338583
        },
        {
            "name": "A#5",
            "midi": 82,
            "time": 102.39545,
            "duration": 0.16364,
            "velocity": 0.3937007874015748
        },
        {
            "name": "F3",
            "midi": 53,
            "time": 102.39545,
            "duration": 0.33636,
            "velocity": 0.4566929133858268
        },
        {
            "name": "C5",
            "midi": 72,
            "time": 102.52273,
            "duration": 0.325,
            "velocity": 0.3937007874015748
        },
        {
            "name": "F3",
            "midi": 53,
            "time": 102.73182,
            "duration": 0.19773,
            "velocity": 0.4330708661417323
        },
        {
            "name": "F5",
            "midi": 77,
            "time": 102.73182,
            "duration": 0.23182,
            "velocity": 0.4566929133858268
        },
        {
            "name": "A#5",
            "midi": 82,
            "time": 102.74318,
            "duration": 0.14091,
            "velocity": 0.3464566929133858
        },
        {
            "name": "C5",
            "midi": 72,
            "time": 102.84773,
            "duration": 0.23409,
            "velocity": 0.41732283464566927
        },
        {
            "name": "F2",
            "midi": 41,
            "time": 102.92955,
            "duration": 0.86136,
            "velocity": 0.5984251968503937
        },
        {
            "name": "C4",
            "midi": 60,
            "time": 102.95227,
            "duration": 0.14091,
            "velocity": 0.4645669291338583
        },
        {
            "name": "C6",
            "midi": 84,
            "time": 102.95227,
            "duration": 0.27955,
            "velocity": 0.5118110236220472
        },
        {
            "name": "F4",
            "midi": 65,
            "time": 102.96364,
            "duration": 0.22273,
            "velocity": 0.29133858267716534
        },
        {
            "name": "F5",
            "midi": 77,
            "time": 102.96364,
            "duration": 0.33864,
            "velocity": 0.4409448818897638
        },
        {
            "name": "A4",
            "midi": 69,
            "time": 103.04545,
            "duration": 0.64091,
            "velocity": 0.4330708661417323
        },
        {
            "name": "C5",
            "midi": 72,
            "time": 103.08182,
            "duration": 0.325,
            "velocity": 0.3700787401574803
        },
        {
            "name": "C4",
            "midi": 60,
            "time": 103.09318,
            "duration": 0.59318,
            "velocity": 0.3700787401574803
        },
        {
            "name": "F4",
            "midi": 65,
            "time": 103.18636,
            "duration": 0.42955,
            "velocity": 0.4409448818897638
        },
        {
            "name": "F5",
            "midi": 77,
            "time": 103.30227,
            "duration": 0.23182,
            "velocity": 0.5590551181102362
        },
        {
            "name": "A#5",
            "midi": 82,
            "time": 103.30227,
            "duration": 0.31364,
            "velocity": 0.4330708661417323
        },
        {
            "name": "C5",
            "midi": 72,
            "time": 103.40682,
            "duration": 0.33636,
            "velocity": 0.5196850393700787
        },
        {
            "name": "F5",
            "midi": 77,
            "time": 103.53409,
            "duration": 0.27955,
            "velocity": 0.5433070866141733
        },
        {
            "name": "A#5",
            "midi": 82,
            "time": 103.61591,
            "duration": 0.22045,
            "velocity": 0.5511811023622047
        },
        {
            "name": "C5",
            "midi": 72,
            "time": 103.74318,
            "duration": 0.14091,
            "velocity": 0.5196850393700787
        },
        {
            "name": "A5",
            "midi": 81,
            "time": 103.84773,
            "duration": 0.26818,
            "velocity": 0.5590551181102362
        },
        {
            "name": "G2",
            "midi": 43,
            "time": 103.84773,
            "duration": 1.70909,
            "velocity": 0.5669291338582677
        },
        {
            "name": "D4",
            "midi": 62,
            "time": 103.85909,
            "duration": 0.20909,
            "velocity": 0.3228346456692913
        },
        {
            "name": "G4",
            "midi": 67,
            "time": 103.87045,
            "duration": 0.15227,
            "velocity": 0.25984251968503935
        },
        {
            "name": "G3",
            "midi": 55,
            "time": 103.975,
            "duration": 0.18636,
            "velocity": 0.3937007874015748
        },
        {
            "name": "D5",
            "midi": 74,
            "time": 103.975,
            "duration": 0.22273,
            "velocity": 0.3464566929133858
        },
        {
            "name": "A#4",
            "midi": 70,
            "time": 104.09318,
            "duration": 0.23182,
            "velocity": 0.5511811023622047
        },
        {
            "name": "G3",
            "midi": 55,
            "time": 104.16136,
            "duration": 0.59318,
            "velocity": 0.5354330708661418
        },
        {
            "name": "D5",
            "midi": 74,
            "time": 104.19773,
            "duration": 0.20682,
            "velocity": 0.5275590551181102
        },
        {
            "name": "A#4",
            "midi": 70,
            "time": 104.325,
            "duration": 0.42955,
            "velocity": 0.5669291338582677
        },
        {
            "name": "D5",
            "midi": 74,
            "time": 104.40455,
            "duration": 0.35,
            "velocity": 0.5511811023622047
        },
        {
            "name": "A#5",
            "midi": 82,
            "time": 104.75455,
            "duration": 0.13864,
            "velocity": 0.4409448818897638
        },
        {
            "name": "A#4",
            "midi": 70,
            "time": 104.75455,
            "duration": 0.24318,
            "velocity": 0.4881889763779528
        },
        {
            "name": "D5",
            "midi": 74,
            "time": 104.75455,
            "duration": 0.46364,
            "velocity": 0.4015748031496063
        },
        {
            "name": "G3",
            "midi": 55,
            "time": 104.75455,
            "duration": 0.57045,
            "velocity": 0.5039370078740157
        },
        {
            "name": "A#4",
            "midi": 70,
            "time": 104.99773,
            "duration": 0.39545,
            "velocity": 0.5354330708661418
        },
        {
            "name": "A#5",
            "midi": 82,
            "time": 105.17273,
            "duration": 0.26818,
            "velocity": 0.4566929133858268
        },
        {
            "name": "G5",
            "midi": 79,
            "time": 105.20682,
            "duration": 0.23409,
            "velocity": 0.6456692913385826
        },
        {
            "name": "G4",
            "midi": 67,
            "time": 105.21818,
            "duration": 0.19773,
            "velocity": 0.48031496062992124
        },
        {
            "name": "D5",
            "midi": 74,
            "time": 105.21818,
            "duration": 0.24545,
            "velocity": 0.5905511811023622
        },
        {
            "name": "A#5",
            "midi": 82,
            "time": 105.45227,
            "duration": 0.16136,
            "velocity": 0.5275590551181102
        },
        {
            "name": "D#3",
            "midi": 51,
            "time": 105.63864,
            "duration": 0.38182,
            "velocity": 0.7322834645669292
        },
        {
            "name": "C7",
            "midi": 96,
            "time": 105.65,
            "duration": 0.18409,
            "velocity": 0.3228346456692913
        },
        {
            "name": "C6",
            "midi": 84,
            "time": 105.66136,
            "duration": 0.20909,
            "velocity": 0.33858267716535434
        },
        {
            "name": "F4",
            "midi": 65,
            "time": 105.77727,
            "duration": 0.22045,
            "velocity": 0.5275590551181102
        },
        {
            "name": "C7",
            "midi": 96,
            "time": 105.98636,
            "duration": 0.23182,
            "velocity": 0.49606299212598426
        },
        {
            "name": "F4",
            "midi": 65,
            "time": 105.99773,
            "duration": 0.29091,
            "velocity": 0.5275590551181102
        },
        {
            "name": "D#3",
            "midi": 51,
            "time": 106.02045,
            "duration": 0.39545,
            "velocity": 0.5984251968503937
        },
        {
            "name": "A#3",
            "midi": 58,
            "time": 106.10227,
            "duration": 0.42955,
            "velocity": 0.4330708661417323
        },
        {
            "name": "D#2",
            "midi": 39,
            "time": 106.18409,
            "duration": 0.56818,
            "velocity": 0.4330708661417323
        },
        {
            "name": "G4",
            "midi": 67,
            "time": 106.19545,
            "duration": 0.48636,
            "velocity": 0.4409448818897638
        },
        {
            "name": "A#4",
            "midi": 70,
            "time": 106.41591,
            "duration": 0.42955,
            "velocity": 0.48031496062992124
        },
        {
            "name": "D#3",
            "midi": 51,
            "time": 106.41591,
            "duration": 0.56818,
            "velocity": 0.4409448818897638
        },
        {
            "name": "F5",
            "midi": 77,
            "time": 106.52045,
            "duration": 0.34773,
            "velocity": 0.6692913385826772
        },
        {
            "name": "A#3",
            "midi": 58,
            "time": 106.53182,
            "duration": 0.76818,
            "velocity": 0.3700787401574803
        },
        {
            "name": "A#2",
            "midi": 46,
            "time": 106.625,
            "duration": 0.72045,
            "velocity": 0.3700787401574803
        },
        {
            "name": "D5",
            "midi": 74,
            "time": 106.65909,
            "duration": 0.325,
            "velocity": 0.4645669291338583
        },
        {
            "name": "C5",
            "midi": 72,
            "time": 106.72955,
            "duration": 0.13864,
            "velocity": 0.5669291338582677
        },
        {
            "name": "A#5",
            "midi": 82,
            "time": 106.75227,
            "duration": 0.325,
            "velocity": 0.4015748031496063
        },
        {
            "name": "F5",
            "midi": 77,
            "time": 106.86818,
            "duration": 0.13864,
            "velocity": 0.5511811023622047
        },
        {
            "name": "C7",
            "midi": 96,
            "time": 106.86818,
            "duration": 0.15,
            "velocity": 0.44881889763779526
        },
        {
            "name": "C5",
            "midi": 72,
            "time": 106.86818,
            "duration": 0.27955,
            "velocity": 0.4251968503937008
        },
        {
            "name": "C6",
            "midi": 84,
            "time": 106.87955,
            "duration": 0.25682,
            "velocity": 0.3464566929133858
        },
        {
            "name": "D#3",
            "midi": 51,
            "time": 106.98409,
            "duration": 0.24318,
            "velocity": 0.4645669291338583
        },
        {
            "name": "D#5",
            "midi": 75,
            "time": 106.98409,
            "duration": 0.26818,
            "velocity": 0.48031496062992124
        },
        {
            "name": "F5",
            "midi": 77,
            "time": 107.00682,
            "duration": 0.26818,
            "velocity": 0.4251968503937008
        },
        {
            "name": "A#6",
            "midi": 94,
            "time": 107.04318,
            "duration": 0.17273,
            "velocity": 0.3543307086614173
        },
        {
            "name": "D#4",
            "midi": 63,
            "time": 107.20455,
            "duration": 0.15227,
            "velocity": 0.33070866141732286
        },
        {
            "name": "A#4",
            "midi": 70,
            "time": 107.20455,
            "duration": 0.15227,
            "velocity": 0.3779527559055118
        },
        {
            "name": "A#5",
            "midi": 82,
            "time": 107.20455,
            "duration": 0.15227,
            "velocity": 0.5039370078740157
        },
        {
            "name": "D#3",
            "midi": 51,
            "time": 107.22727,
            "duration": 0.16364,
            "velocity": 0.49606299212598426
        },
        {
            "name": "G3",
            "midi": 55,
            "time": 107.39091,
            "duration": 0.54773,
            "velocity": 0.5511811023622047
        },
        {
            "name": "A5",
            "midi": 81,
            "time": 107.40455,
            "duration": 0.33636,
            "velocity": 0.5984251968503937
        },
        {
            "name": "G1",
            "midi": 31,
            "time": 107.46136,
            "duration": 0.19773,
            "velocity": 0.30708661417322836
        },
        {
            "name": "F4",
            "midi": 65,
            "time": 107.49545,
            "duration": 0.23409,
            "velocity": 0.5669291338582677
        },
        {
            "name": "D5",
            "midi": 74,
            "time": 107.625,
            "duration": 0.31364,
            "velocity": 0.3543307086614173
        },
        {
            "name": "D4",
            "midi": 62,
            "time": 107.625,
            "duration": 0.33636,
            "velocity": 0.3543307086614173
        },
        {
            "name": "F4",
            "midi": 65,
            "time": 107.72955,
            "duration": 0.23182,
            "velocity": 0.5826771653543307
        },
        {
            "name": "A5",
            "midi": 81,
            "time": 107.74091,
            "duration": 0.22045,
            "velocity": 0.41732283464566927
        },
        {
            "name": "A#3",
            "midi": 58,
            "time": 107.82045,
            "duration": 0.23409,
            "velocity": 0.5826771653543307
        },
        {
            "name": "G3",
            "midi": 55,
            "time": 107.93864,
            "duration": 0.88182,
            "velocity": 0.4645669291338583
        },
        {
            "name": "G4",
            "midi": 67,
            "time": 107.95,
            "duration": 0.23182,
            "velocity": 0.4251968503937008
        },
        {
            "name": "A#3",
            "midi": 58,
            "time": 108.05455,
            "duration": 0.20909,
            "velocity": 0.4881889763779528
        },
        {
            "name": "A5",
            "midi": 81,
            "time": 108.06591,
            "duration": 0.23182,
            "velocity": 0.48031496062992124
        },
        {
            "name": "A#4",
            "midi": 70,
            "time": 108.15909,
            "duration": 0.25455,
            "velocity": 0.3937007874015748
        },
        {
            "name": "F5",
            "midi": 77,
            "time": 108.25,
            "duration": 0.45455,
            "velocity": 0.5275590551181102
        },
        {
            "name": "A#3",
            "midi": 58,
            "time": 108.26364,
            "duration": 0.63864,
            "velocity": 0.41732283464566927
        },
        {
            "name": "A5",
            "midi": 81,
            "time": 108.29773,
            "duration": 0.325,
            "velocity": 0.47244094488188976
        },
        {
            "name": "D5",
            "midi": 74,
            "time": 108.39091,
            "duration": 0.24318,
            "velocity": 0.3543307086614173
        },
        {
            "name": "C5",
            "midi": 72,
            "time": 108.48409,
            "duration": 0.42955,
            "velocity": 0.4566929133858268
        },
        {
            "name": "A#2",
            "midi": 46,
            "time": 108.50682,
            "duration": 0.27727,
            "velocity": 0.36220472440944884
        },
        {
            "name": "A5",
            "midi": 81,
            "time": 108.62273,
            "duration": 0.30227,
            "velocity": 0.5748031496062992
        },
        {
            "name": "D5",
            "midi": 74,
            "time": 108.63409,
            "duration": 0.26818,
            "velocity": 0.4645669291338583
        },
        {
            "name": "G4",
            "midi": 67,
            "time": 108.75,
            "duration": 0.36136,
            "velocity": 0.49606299212598426
        },
        {
            "name": "A#4",
            "midi": 70,
            "time": 108.86591,
            "duration": 0.175,
            "velocity": 0.5275590551181102
        },
        {
            "name": "A#5",
            "midi": 82,
            "time": 108.98182,
            "duration": 0.15227,
            "velocity": 0.4566929133858268
        },
        {
            "name": "A#4",
            "midi": 70,
            "time": 109.04091,
            "duration": 0.41818,
            "velocity": 0.5354330708661418
        },
        {
            "name": "F3",
            "midi": 53,
            "time": 109.16818,
            "duration": 1.55682,
            "velocity": 0.4251968503937008
        },
        {
            "name": "C7",
            "midi": 96,
            "time": 109.19091,
            "duration": 0.15227,
            "velocity": 0.4094488188976378
        },
        {
            "name": "C6",
            "midi": 84,
            "time": 109.20227,
            "duration": 0.22273,
            "velocity": 0.33858267716535434
        },
        {
            "name": "F4",
            "midi": 65,
            "time": 109.26136,
            "duration": 0.22273,
            "velocity": 0.44881889763779526
        },
        {
            "name": "C4",
            "midi": 60,
            "time": 109.43636,
            "duration": 0.68409,
            "velocity": 0.48031496062992124
        },
        {
            "name": "F4",
            "midi": 65,
            "time": 109.48409,
            "duration": 0.22045,
            "velocity": 0.5984251968503937
        },
        {
            "name": "C6",
            "midi": 84,
            "time": 109.51818,
            "duration": 0.24318,
            "velocity": 0.33070866141732286
        },
        {
            "name": "A#3",
            "midi": 58,
            "time": 109.6,
            "duration": 0.24318,
            "velocity": 0.6141732283464567
        },
        {
            "name": "F4",
            "midi": 65,
            "time": 109.70455,
            "duration": 0.25455,
            "velocity": 0.5354330708661418
        },
        {
            "name": "A#3",
            "midi": 58,
            "time": 109.84318,
            "duration": 0.20909,
            "velocity": 0.5511811023622047
        },
        {
            "name": "A#4",
            "midi": 70,
            "time": 109.84318,
            "duration": 0.40682,
            "velocity": 0.4251968503937008
        },
        {
            "name": "A#5",
            "midi": 82,
            "time": 109.85455,
            "duration": 0.175,
            "velocity": 0.3543307086614173
        },
        {
            "name": "F5",
            "midi": 77,
            "time": 110.05227,
            "duration": 0.33636,
            "velocity": 0.5118110236220472
        },
        {
            "name": "A#3",
            "midi": 58,
            "time": 110.05227,
            "duration": 0.825,
            "velocity": 0.5039370078740157
        },
        {
            "name": "C5",
            "midi": 72,
            "time": 110.075,
            "duration": 0.19773,
            "velocity": 0.4015748031496063
        },
        {
            "name": "F4",
            "midi": 65,
            "time": 110.075,
            "duration": 0.45227,
            "velocity": 0.3464566929133858
        },
        {
            "name": "A#5",
            "midi": 82,
            "time": 110.15682,
            "duration": 0.18636,
            "velocity": 0.29133858267716534
        },
        {
            "name": "A#4",
            "midi": 70,
            "time": 110.25,
            "duration": 0.37045,
            "velocity": 0.5039370078740157
        },
        {
            "name": "F5",
            "midi": 77,
            "time": 110.38864,
            "duration": 0.30227,
            "velocity": 0.36220472440944884
        },
        {
            "name": "D5",
            "midi": 74,
            "time": 110.38864,
            "duration": 0.31364,
            "velocity": 0.47244094488188976
        },
        {
            "name": "A#2",
            "midi": 46,
            "time": 110.38864,
            "duration": 0.475,
            "velocity": 0.3937007874015748
        },
        {
            "name": "C7",
            "midi": 96,
            "time": 110.4,
            "duration": 0.19773,
            "velocity": 0.3543307086614173
        },
        {
            "name": "C6",
            "midi": 84,
            "time": 110.4,
            "duration": 0.30227,
            "velocity": 0.4566929133858268
        },
        {
            "name": "F4",
            "midi": 65,
            "time": 110.52727,
            "duration": 0.18636,
            "velocity": 0.4881889763779528
        },
        {
            "name": "A#4",
            "midi": 70,
            "time": 110.62045,
            "duration": 0.18636,
            "velocity": 0.6692913385826772
        },
        {
            "name": "A#4",
            "midi": 70,
            "time": 110.80682,
            "duration": 0.33636,
            "velocity": 0.4881889763779528
        },
        {
            "name": "A5",
            "midi": 81,
            "time": 110.95682,
            "duration": 0.22045,
            "velocity": 0.5984251968503937
        },
        {
            "name": "F4",
            "midi": 65,
            "time": 111.03864,
            "duration": 0.20909,
            "velocity": 0.5433070866141733
        },
        {
            "name": "G3",
            "midi": 55,
            "time": 111.05,
            "duration": 0.22273,
            "velocity": 0.5354330708661418
        },
        {
            "name": "D4",
            "midi": 62,
            "time": 111.13182,
            "duration": 0.14091,
            "velocity": 0.4566929133858268
        },
        {
            "name": "D5",
            "midi": 74,
            "time": 111.15455,
            "duration": 0.39545,
            "velocity": 0.4251968503937008
        },
        {
            "name": "A6",
            "midi": 93,
            "time": 111.17727,
            "duration": 0.17727,
            "velocity": 0.33070866141732286
        },
        {
            "name": "A5",
            "midi": 81,
            "time": 111.17727,
            "duration": 0.2,
            "velocity": 0.48031496062992124
        },
        {
            "name": "F4",
            "midi": 65,
            "time": 111.24773,
            "duration": 0.30227,
            "velocity": 0.4566929133858268
        },
        {
            "name": "G3",
            "midi": 55,
            "time": 111.27273,
            "duration": 0.19773,
            "velocity": 0.6299212598425197
        },
        {
            "name": "D4",
            "midi": 62,
            "time": 111.27273,
            "duration": 0.30227,
            "velocity": 0.4566929133858268
        },
        {
            "name": "G4",
            "midi": 67,
            "time": 111.47045,
            "duration": 0.25455,
            "velocity": 0.5196850393700787
        },
        {
            "name": "A#2",
            "midi": 46,
            "time": 111.47045,
            "duration": 0.77727,
            "velocity": 0.3464566929133858
        },
        {
            "name": "G3",
            "midi": 55,
            "time": 111.47045,
            "duration": 0.95227,
            "velocity": 0.4566929133858268
        },
        {
            "name": "A#3",
            "midi": 58,
            "time": 111.48182,
            "duration": 0.33636,
            "velocity": 0.5039370078740157
        },
        {
            "name": "A4",
            "midi": 69,
            "time": 111.60909,
            "duration": 0.13864,
            "velocity": 0.5196850393700787
        },
        {
            "name": "A5",
            "midi": 81,
            "time": 111.62045,
            "duration": 0.20909,
            "velocity": 0.4015748031496063
        },
        {
            "name": "F5",
            "midi": 77,
            "time": 111.80682,
            "duration": 0.35909,
            "velocity": 0.5275590551181102
        },
        {
            "name": "A#3",
            "midi": 58,
            "time": 111.81818,
            "duration": 0.41818,
            "velocity": 0.4330708661417323
        },
        {
            "name": "A4",
            "midi": 69,
            "time": 111.82955,
            "duration": 0.16364,
            "velocity": 0.3228346456692913
        },
        {
            "name": "A5",
            "midi": 81,
            "time": 111.82955,
            "duration": 0.325,
            "velocity": 0.5354330708661418
        },
        {
            "name": "D5",
            "midi": 74,
            "time": 111.93409,
            "duration": 0.13864,
            "velocity": 0.3937007874015748
        },
        {
            "name": "C5",
            "midi": 72,
            "time": 112.01591,
            "duration": 0.325,
            "velocity": 0.3858267716535433
        },
        {
            "name": "D5",
            "midi": 74,
            "time": 112.14318,
            "duration": 0.30227,
            "velocity": 0.3543307086614173
        },
        {
            "name": "A5",
            "midi": 81,
            "time": 112.15455,
            "duration": 0.34773,
            "velocity": 0.48031496062992124
        },
        {
            "name": "G4",
            "midi": 67,
            "time": 112.25909,
            "duration": 0.34773,
            "velocity": 0.48031496062992124
        },
        {
            "name": "A#4",
            "midi": 70,
            "time": 112.34091,
            "duration": 0.13864,
            "velocity": 0.5511811023622047
        },
        {
            "name": "A#3",
            "midi": 58,
            "time": 112.36364,
            "duration": 0.20909,
            "velocity": 0.3464566929133858
        },
        {
            "name": "A#4",
            "midi": 70,
            "time": 112.49091,
            "duration": 0.18636,
            "velocity": 0.4645669291338583
        },
        {
            "name": "A#5",
            "midi": 82,
            "time": 112.50227,
            "duration": 0.14091,
            "velocity": 0.44881889763779526
        },
        {
            "name": "C6",
            "midi": 84,
            "time": 112.7,
            "duration": 0.15227,
            "velocity": 0.3464566929133858
        },
        {
            "name": "C5",
            "midi": 72,
            "time": 112.7,
            "duration": 0.34773,
            "velocity": 0.49606299212598426
        },
        {
            "name": "G5",
            "midi": 79,
            "time": 112.71136,
            "duration": 0.15227,
            "velocity": 0.5039370078740157
        },
        {
            "name": "D#3",
            "midi": 51,
            "time": 112.71136,
            "duration": 0.325,
            "velocity": 0.6535433070866141
        },
        {
            "name": "D#5",
            "midi": 75,
            "time": 112.71136,
            "duration": 0.33636,
            "velocity": 0.5039370078740157
        },
        {
            "name": "D#2",
            "midi": 39,
            "time": 112.72273,
            "duration": 0.325,
            "velocity": 0.3700787401574803
        },
        {
            "name": "F#3",
            "midi": 54,
            "time": 112.89773,
            "duration": 0.19773,
            "velocity": 0.47244094488188976
        },
        {
            "name": "A#5",
            "midi": 82,
            "time": 112.90909,
            "duration": 0.175,
            "velocity": 0.4330708661417323
        },
        {
            "name": "C6",
            "midi": 84,
            "time": 113.03636,
            "duration": 0.14091,
            "velocity": 0.3858267716535433
        },
        {
            "name": "D#3",
            "midi": 51,
            "time": 113.03636,
            "duration": 0.2,
            "velocity": 0.5433070866141733
        },
        {
            "name": "D#5",
            "midi": 75,
            "time": 113.04773,
            "duration": 0.31591,
            "velocity": 0.5196850393700787
        },
        {
            "name": "C5",
            "midi": 72,
            "time": 113.04773,
            "duration": 0.48864,
            "velocity": 0.3464566929133858
        },
        {
            "name": "D#2",
            "midi": 39,
            "time": 113.05909,
            "duration": 0.16364,
            "velocity": 0.6535433070866141
        },
        {
            "name": "D#2",
            "midi": 39,
            "time": 113.22273,
            "duration": 0.18636,
            "velocity": 0.8031496062992126
        },
        {
            "name": "F#3",
            "midi": 54,
            "time": 113.23636,
            "duration": 0.13864,
            "velocity": 0.3937007874015748
        },
        {
            "name": "D#3",
            "midi": 51,
            "time": 113.23636,
            "duration": 0.28864,
            "velocity": 0.4881889763779528
        },
        {
            "name": "D#4",
            "midi": 63,
            "time": 113.27045,
            "duration": 0.24318,
            "velocity": 0.3858267716535433
        },
        {
            "name": "D#5",
            "midi": 75,
            "time": 113.38636,
            "duration": 0.13864,
            "velocity": 0.2755905511811024
        },
        {
            "name": "G3",
            "midi": 55,
            "time": 113.38636,
            "duration": 0.20909,
            "velocity": 0.4645669291338583
        },
        {
            "name": "A#5",
            "midi": 82,
            "time": 113.39773,
            "duration": 0.13864,
            "velocity": 0.4251968503937008
        },
        {
            "name": "D#2",
            "midi": 39,
            "time": 113.40909,
            "duration": 0.59318,
            "velocity": 0.5984251968503937
        },
        {
            "name": "D#3",
            "midi": 51,
            "time": 113.525,
            "duration": 0.16364,
            "velocity": 0.4409448818897638
        },
        {
            "name": "D#4",
            "midi": 63,
            "time": 113.525,
            "duration": 0.16364,
            "velocity": 0.3700787401574803
        },
        {
            "name": "D#5",
            "midi": 75,
            "time": 113.525,
            "duration": 0.29091,
            "velocity": 0.4566929133858268
        },
        {
            "name": "C6",
            "midi": 84,
            "time": 113.60682,
            "duration": 0.31364,
            "velocity": 0.3228346456692913
        },
        {
            "name": "D#4",
            "midi": 63,
            "time": 113.68864,
            "duration": 0.15,
            "velocity": 0.3464566929133858
        },
        {
            "name": "D#3",
            "midi": 51,
            "time": 113.68864,
            "duration": 0.23182,
            "velocity": 0.6771653543307087
        },
        {
            "name": "G3",
            "midi": 55,
            "time": 113.78182,
            "duration": 0.48636,
            "velocity": 0.48031496062992124
        },
        {
            "name": "C6",
            "midi": 84,
            "time": 113.92045,
            "duration": 0.26818,
            "velocity": 0.41732283464566927
        },
        {
            "name": "D#3",
            "midi": 51,
            "time": 113.92045,
            "duration": 0.325,
            "velocity": 0.49606299212598426
        },
        {
            "name": "D#5",
            "midi": 75,
            "time": 113.92045,
            "duration": 0.38409,
            "velocity": 0.3937007874015748
        },
        {
            "name": "D#2",
            "midi": 39,
            "time": 114.00227,
            "duration": 0.15,
            "velocity": 0.7874015748031497
        },
        {
            "name": "D#2",
            "midi": 39,
            "time": 114.15227,
            "duration": 0.14091,
            "velocity": 0.7795275590551181
        },
        {
            "name": "A#5",
            "midi": 82,
            "time": 114.26818,
            "duration": 0.15227,
            "velocity": 0.3937007874015748
        },
        {
            "name": "G3",
            "midi": 55,
            "time": 114.26818,
            "duration": 0.31364,
            "velocity": 0.5039370078740157
        },
        {
            "name": "D#4",
            "midi": 63,
            "time": 114.27955,
            "duration": 0.18636,
            "velocity": 0.4251968503937008
        },
        {
            "name": "D#2",
            "midi": 39,
            "time": 114.29318,
            "duration": 0.67273,
            "velocity": 0.5118110236220472
        },
        {
            "name": "C5",
            "midi": 72,
            "time": 114.48864,
            "duration": 0.35,
            "velocity": 0.6062992125984252
        },
        {
            "name": "F5",
            "midi": 77,
            "time": 114.5,
            "duration": 0.32727,
            "velocity": 0.5196850393700787
        },
        {
            "name": "A#3",
            "midi": 58,
            "time": 114.5,
            "duration": 0.33864,
            "velocity": 0.5039370078740157
        },
        {
            "name": "G3",
            "midi": 55,
            "time": 114.58182,
            "duration": 0.37273,
            "velocity": 0.5118110236220472
        },
        {
            "name": "G4",
            "midi": 67,
            "time": 114.58182,
            "duration": 0.47727,
            "velocity": 0.3700787401574803
        },
        {
            "name": "A#5",
            "midi": 82,
            "time": 114.69773,
            "duration": 0.14091,
            "velocity": 0.28346456692913385
        },
        {
            "name": "F5",
            "midi": 77,
            "time": 114.82727,
            "duration": 0.26591,
            "velocity": 0.4251968503937008
        },
        {
            "name": "A#3",
            "midi": 58,
            "time": 114.83864,
            "duration": 0.17273,
            "velocity": 0.5433070866141733
        },
        {
            "name": "C5",
            "midi": 72,
            "time": 114.83864,
            "duration": 0.46591,
            "velocity": 0.4251968503937008
        },
        {
            "name": "A#3",
            "midi": 58,
            "time": 115.01136,
            "duration": 0.175,
            "velocity": 0.47244094488188976
        },
        {
            "name": "G2",
            "midi": 43,
            "time": 115.01136,
            "duration": 0.27955,
            "velocity": 0.6220472440944882
        },
        {
            "name": "A#5",
            "midi": 82,
            "time": 115.18636,
            "duration": 0.15227,
            "velocity": 0.4409448818897638
        },
        {
            "name": "A#3",
            "midi": 58,
            "time": 115.18636,
            "duration": 0.18636,
            "velocity": 0.48031496062992124
        },
        {
            "name": "G3",
            "midi": 55,
            "time": 115.29091,
            "duration": 0.18636,
            "velocity": 0.5039370078740157
        },
        {
            "name": "G2",
            "midi": 43,
            "time": 115.29091,
            "duration": 0.27955,
            "velocity": 0.4566929133858268
        },
        {
            "name": "F6",
            "midi": 89,
            "time": 115.37273,
            "duration": 0.18636,
            "velocity": 0.30708661417322836
        },
        {
            "name": "C7",
            "midi": 96,
            "time": 115.37273,
            "duration": 0.18636,
            "velocity": 0.3937007874015748
        },
        {
            "name": "A#3",
            "midi": 58,
            "time": 115.37273,
            "duration": 0.19773,
            "velocity": 0.4409448818897638
        },
        {
            "name": "C6",
            "midi": 84,
            "time": 115.37273,
            "duration": 0.22045,
            "velocity": 0.3464566929133858
        },
        {
            "name": "G4",
            "midi": 67,
            "time": 115.38409,
            "duration": 0.16364,
            "velocity": 0.2755905511811024
        },
        {
            "name": "G3",
            "midi": 55,
            "time": 115.47727,
            "duration": 0.23182,
            "velocity": 0.5669291338582677
        },
        {
            "name": "A#4",
            "midi": 70,
            "time": 115.55909,
            "duration": 0.27955,
            "velocity": 0.31496062992125984
        },
        {
            "name": "A#3",
            "midi": 58,
            "time": 115.57045,
            "duration": 0.13864,
            "velocity": 0.5196850393700787
        },
        {
            "name": "C7",
            "midi": 96,
            "time": 115.68636,
            "duration": 0.24318,
            "velocity": 0.3937007874015748
        },
        {
            "name": "A#3",
            "midi": 58,
            "time": 115.70909,
            "duration": 0.325,
            "velocity": 0.47244094488188976
        },
        {
            "name": "G3",
            "midi": 55,
            "time": 115.70909,
            "duration": 0.46591,
            "velocity": 0.5039370078740157
        },
        {
            "name": "D#2",
            "midi": 39,
            "time": 115.72045,
            "duration": 0.33864,
            "velocity": 0.41732283464566927
        },
        {
            "name": "G2",
            "midi": 43,
            "time": 115.81364,
            "duration": 0.45455,
            "velocity": 0.5433070866141733
        },
        {
            "name": "G4",
            "midi": 67,
            "time": 116.03409,
            "duration": 0.19773,
            "velocity": 0.3543307086614173
        },
        {
            "name": "A#4",
            "midi": 70,
            "time": 116.03409,
            "duration": 0.22045,
            "velocity": 0.5669291338582677
        },
        {
            "name": "A#3",
            "midi": 58,
            "time": 116.03409,
            "duration": 0.30227,
            "velocity": 0.4409448818897638
        },
        {
            "name": "C5",
            "midi": 72,
            "time": 116.24318,
            "duration": 0.47727,
            "velocity": 0.4645669291338583
        },
        {
            "name": "A#4",
            "midi": 70,
            "time": 116.25455,
            "duration": 0.22045,
            "velocity": 0.33858267716535434
        },
        {
            "name": "F4",
            "midi": 65,
            "time": 116.25455,
            "duration": 0.325,
            "velocity": 0.5275590551181102
        },
        {
            "name": "F5",
            "midi": 77,
            "time": 116.25455,
            "duration": 0.33864,
            "velocity": 0.5433070866141733
        },
        {
            "name": "F3",
            "midi": 53,
            "time": 116.37273,
            "duration": 0.31136,
            "velocity": 0.4251968503937008
        },
        {
            "name": "A3",
            "midi": 57,
            "time": 116.42955,
            "duration": 0.51136,
            "velocity": 0.3700787401574803
        },
        {
            "name": "A#4",
            "midi": 70,
            "time": 116.475,
            "duration": 0.15227,
            "velocity": 0.41732283464566927
        },
        {
            "name": "C4",
            "midi": 60,
            "time": 116.475,
            "duration": 0.20909,
            "velocity": 0.3700787401574803
        },
        {
            "name": "F2",
            "midi": 41,
            "time": 116.54545,
            "duration": 0.13864,
            "velocity": 0.4330708661417323
        },
        {
            "name": "F4",
            "midi": 65,
            "time": 116.57955,
            "duration": 0.18636,
            "velocity": 0.6377952755905512
        },
        {
            "name": "F5",
            "midi": 77,
            "time": 116.59318,
            "duration": 0.19545,
            "velocity": 0.49606299212598426
        },
        {
            "name": "C3",
            "midi": 48,
            "time": 116.62727,
            "duration": 0.25455,
            "velocity": 0.4015748031496063
        },
        {
            "name": "C4",
            "midi": 60,
            "time": 116.68409,
            "duration": 0.31364,
            "velocity": 0.3937007874015748
        },
        {
            "name": "F2",
            "midi": 41,
            "time": 116.69773,
            "duration": 0.46364,
            "velocity": 0.5590551181102362
        },
        {
            "name": "F3",
            "midi": 53,
            "time": 116.73182,
            "duration": 0.15,
            "velocity": 0.3464566929133858
        },
        {
            "name": "F4",
            "midi": 65,
            "time": 116.76591,
            "duration": 0.29091,
            "velocity": 0.5511811023622047
        },
        {
            "name": "A3",
            "midi": 57,
            "time": 116.94091,
            "duration": 0.19773,
            "velocity": 0.4566929133858268
        },
        {
            "name": "C4",
            "midi": 60,
            "time": 116.99773,
            "duration": 0.25682,
            "velocity": 0.4645669291338583
        },
        {
            "name": "F4",
            "midi": 65,
            "time": 117.05682,
            "duration": 0.16364,
            "velocity": 0.4409448818897638
        },
        {
            "name": "F6",
            "midi": 89,
            "time": 117.15,
            "duration": 0.29091,
            "velocity": 0.3937007874015748
        },
        {
            "name": "C7",
            "midi": 96,
            "time": 117.16136,
            "duration": 0.23409,
            "velocity": 0.3543307086614173
        },
        {
            "name": "F2",
            "midi": 41,
            "time": 117.16136,
            "duration": 0.38409,
            "velocity": 0.4251968503937008
        },
        {
            "name": "F4",
            "midi": 65,
            "time": 117.22045,
            "duration": 0.5,
            "velocity": 0.4566929133858268
        },
        {
            "name": "A3",
            "midi": 57,
            "time": 117.325,
            "duration": 0.48864,
            "velocity": 0.4094488188976378
        },
        {
            "name": "F5",
            "midi": 77,
            "time": 117.48636,
            "duration": 0.14091,
            "velocity": 0.33858267716535434
        },
        {
            "name": "A#5",
            "midi": 82,
            "time": 117.48636,
            "duration": 0.46591,
            "velocity": 0.33858267716535434
        },
        {
            "name": "F2",
            "midi": 41,
            "time": 117.54545,
            "duration": 0.34773,
            "velocity": 0.6299212598425197
        },
        {
            "name": "C4",
            "midi": 60,
            "time": 117.55682,
            "duration": 0.34773,
            "velocity": 0.3464566929133858
        },
        {
            "name": "C6",
            "midi": 84,
            "time": 117.8,
            "duration": 0.16364,
            "velocity": 0.3464566929133858
        },
        {
            "name": "C7",
            "midi": 96,
            "time": 117.8,
            "duration": 0.20909,
            "velocity": 0.3464566929133858
        },
        {
            "name": "F5",
            "midi": 77,
            "time": 117.81364,
            "duration": 0.15,
            "velocity": 0.25984251968503935
        },
        {
            "name": "F6",
            "midi": 89,
            "time": 117.81364,
            "duration": 0.15,
            "velocity": 0.4881889763779528
        },
        {
            "name": "A3",
            "midi": 57,
            "time": 117.81364,
            "duration": 0.18409,
            "velocity": 0.4566929133858268
        },
        {
            "name": "F2",
            "midi": 41,
            "time": 117.89318,
            "duration": 0.27955,
            "velocity": 0.49606299212598426
        },
        {
            "name": "F4",
            "midi": 65,
            "time": 117.89318,
            "duration": 0.35,
            "velocity": 0.4251968503937008
        },
        {
            "name": "C4",
            "midi": 60,
            "time": 117.90455,
            "duration": 0.30227,
            "velocity": 0.3228346456692913
        },
        {
            "name": "F5",
            "midi": 77,
            "time": 117.96364,
            "duration": 0.23182,
            "velocity": 0.5433070866141733
        },
        {
            "name": "G3",
            "midi": 55,
            "time": 118.11364,
            "duration": 0.35,
            "velocity": 0.6299212598425197
        },
        {
            "name": "G4",
            "midi": 67,
            "time": 118.11364,
            "duration": 0.52273,
            "velocity": 0.4015748031496063
        },
        {
            "name": "A#5",
            "midi": 82,
            "time": 118.24318,
            "duration": 0.17273,
            "velocity": 0.5196850393700787
        },
        {
            "name": "A#3",
            "midi": 58,
            "time": 118.24318,
            "duration": 0.67273,
            "velocity": 0.5196850393700787
        },
        {
            "name": "D#2",
            "midi": 39,
            "time": 118.28864,
            "duration": 0.30227,
            "velocity": 0.36220472440944884
        },
        {
            "name": "G2",
            "midi": 43,
            "time": 118.45,
            "duration": 1.12955,
            "velocity": 0.6062992125984252
        },
        {
            "name": "G3",
            "midi": 55,
            "time": 118.625,
            "duration": 0.27955,
            "velocity": 0.3779527559055118
        },
        {
            "name": "A5",
            "midi": 81,
            "time": 118.91591,
            "duration": 0.17273,
            "velocity": 0.3464566929133858
        },
        {
            "name": "A#3",
            "midi": 58,
            "time": 118.91591,
            "duration": 0.18636,
            "velocity": 0.5039370078740157
        },
        {
            "name": "D4",
            "midi": 62,
            "time": 118.91591,
            "duration": 0.26591,
            "velocity": 0.4566929133858268
        },
        {
            "name": "G5",
            "midi": 79,
            "time": 118.91591,
            "duration": 0.325,
            "velocity": 0.41732283464566927
        },
        {
            "name": "G4",
            "midi": 67,
            "time": 118.91591,
            "duration": 0.37273,
            "velocity": 0.5039370078740157
        },
        {
            "name": "G3",
            "midi": 55,
            "time": 118.91591,
            "duration": 0.66364,
            "velocity": 0.5433070866141733
        },
        {
            "name": "A#3",
            "midi": 58,
            "time": 119.10227,
            "duration": 0.47727,
            "velocity": 0.5275590551181102
        },
        {
            "name": "D6",
            "midi": 86,
            "time": 119.24091,
            "duration": 0.18636,
            "velocity": 0.33858267716535434
        },
        {
            "name": "A#5",
            "midi": 82,
            "time": 119.24091,
            "duration": 0.29091,
            "velocity": 0.47244094488188976
        },
        {
            "name": "G5",
            "midi": 79,
            "time": 119.24091,
            "duration": 0.33864,
            "velocity": 0.47244094488188976
        },
        {
            "name": "D4",
            "midi": 62,
            "time": 119.25455,
            "duration": 0.31136,
            "velocity": 0.4409448818897638
        },
        {
            "name": "G4",
            "midi": 67,
            "time": 119.28864,
            "duration": 0.22045,
            "velocity": 0.4645669291338583
        },
        {
            "name": "D4",
            "midi": 62,
            "time": 119.56591,
            "duration": 0.16364,
            "velocity": 0.4251968503937008
        },
        {
            "name": "G2",
            "midi": 43,
            "time": 119.57955,
            "duration": 0.15,
            "velocity": 0.49606299212598426
        },
        {
            "name": "G4",
            "midi": 67,
            "time": 119.57955,
            "duration": 0.17273,
            "velocity": 0.44881889763779526
        },
        {
            "name": "A#3",
            "midi": 58,
            "time": 119.57955,
            "duration": 0.19545,
            "velocity": 0.5039370078740157
        },
        {
            "name": "G5",
            "midi": 79,
            "time": 119.57955,
            "duration": 0.19545,
            "velocity": 0.5748031496062992
        },
        {
            "name": "G3",
            "midi": 55,
            "time": 119.57955,
            "duration": 0.33636,
            "velocity": 0.4566929133858268
        },
        {
            "name": "D#2",
            "midi": 39,
            "time": 119.8,
            "duration": 0.19545,
            "velocity": 0.41732283464566927
        },
        {
            "name": "D#2",
            "midi": 39,
            "time": 119.99545,
            "duration": 0.19773,
            "velocity": 0.5039370078740157
        }
    ]
}